<?xml version="1.0" encoding="utf-8"?>
<!-- Generator: Adobe Illustrator 19.0.0, SVG Export Plug-In . SVG Version: 6.00 Build 0)  -->
<svg version="1.1" id="Layer_1" xmlns="http://www.w3.org/2000/svg" xmlns:xlink="http://www.w3.org/1999/xlink" x="0px" y="0px"
	 viewBox="0 0 130 130" style="enable-background:new 0 0 130 130;" xml:space="preserve">
<style type="text/css">
	.st0{fill:#42210B;}
	.st1{fill:url(#XMLID_49_);}
	.st2{fill:#A0B528;}
	.st3{fill:#F2E4B7;}
	.st4{fill:#9CAA22;}
	.st5{fill:#ECD79C;}
	.st6{fill:#FC656A;}
	.st7{fill:#FD797F;}
	.st8{fill:#F1AD8C;}
	.st9{fill:#EBA377;}
	.st10{fill:#FB4C51;}
	.st11{fill:#FDAAAD;}
	.st12{fill:#FEB5B9;}
	.st13{fill:#FA3A3E;}
	.st14{fill:#FE9198;}
	.st15{fill:#FFA7AD;}
	.st16{fill:#FF383E;}
	.st17{fill:#FF555E;}
	.st18{fill:#FC161A;}
	.st19{fill:#FD1B1F;}
	.st20{fill:#FE2025;}
	.st21{fill:#FF252A;}
	.st22{fill:#FF0C0F;}
	.st23{fill:#E6CC83;}
	.st24{fill:#ABBE2D;}
	.st25{fill:#F4E8C0;}
	.st26{fill:#A8B426;}
	.st27{fill:#EEDCA8;}
	.st28{fill:#FD7177;}
	.st29{fill:#FE878E;}
	.st30{fill:#F3B79A;}
	.st31{fill:#EDAE85;}
	.st32{fill:#FC555B;}
	.st33{fill:#FF9EA5;}
	.st34{fill:#FFB2B7;}
	.st35{fill:#FF3F45;}
	.st36{fill:#FF5F69;}
	.st37{fill:#FE1E23;}
	.st38{fill:#FF2429;}
	.st39{fill:#FF0D11;}
	.st40{fill:#E9D392;}
	.st41{fill:#FF292F;}
	.st42{fill:#FD181D;}
	.st43{fill:#8CC63F;}
</style>
<g id="XMLID_5_">
	<circle id="XMLID_7_" class="st0" cx="65.5" cy="65.1" r="62.9"/>
	
		<linearGradient id="XMLID_49_" gradientUnits="userSpaceOnUse" x1="-184.5649" y1="-184.9432" x2="-184.2197" y2="-184.9432" gradientTransform="matrix(182.8492 0 0 -182.8492 33767.2422 -33752.5898)">
		<stop  offset="0" style="stop-color:#1D924B"/>
		<stop  offset="1.020408e-002" style="stop-color:#1D924B"/>
		<stop  offset="3.744191e-002" style="stop-color:#29974A"/>
		<stop  offset="0.136" style="stop-color:#51A847"/>
		<stop  offset="0.2415" style="stop-color:#73B745"/>
		<stop  offset="0.3534" style="stop-color:#8EC243"/>
		<stop  offset="0.474" style="stop-color:#A3CC42"/>
		<stop  offset="0.6075" style="stop-color:#B2D241"/>
		<stop  offset="0.7641" style="stop-color:#BBD640"/>
		<stop  offset="1" style="stop-color:#BED740"/>
	</linearGradient>
	<path id="XMLID_8_" class="st1" d="M61.8,15.5C32.4,24,13.6,52.6,21.5,78C28,99,50.7,112.8,75,112.8c2.6,0,5.2-0.2,7.8-0.5
		c-0.1,0-0.1,0-0.2,0c-0.4,0-0.8,0-1.1,0c-16.9,0-33.8-18.2-39.2-43c-0.3-1.3-0.5-2.6-0.7-3.9c-3.3-20.5,2.6-39,14.1-46.9
		C57.6,17.2,59.6,16.2,61.8,15.5"/>
	<path id="XMLID_9_" class="st2" d="M107.9,57.4c4.2,19.7,0,38.1-9.7,47.8c-3.5,3.5-7.8,5.9-12.6,6.8c-18.1,3.3-37.5-15.8-43.3-42.6
		c-0.3-1.3-0.5-2.6-0.7-3.9c-3.3-20.5,2.6-39,14.1-46.9c2.7-1.9,5.7-3.1,9-3.7c8.1-1.5,16.5,1.6,23.8,7.8
		C97.4,30.2,104.7,42.6,107.9,57.4"/>
	<path id="XMLID_23_" class="st3" d="M106.8,57.6c5.6,26-4.1,49.6-21.6,52.8C67.8,113.5,49,95.1,43.4,69.1
		c-5.6-26,4.1-49.6,21.6-52.8C82.5,13.2,101.2,31.6,106.8,57.6"/>
	<path id="XMLID_192_" class="st4" d="M101,99.5c-0.1,0.1-0.1,0.2-0.2,0.2l0.1-0.1C100.9,99.6,100.9,99.6,101,99.5 M102,98
		c0,0,0,0.1-0.1,0.1L102,98L102,98 M103.2,95.9c-0.1,0.1-0.1,0.3-0.2,0.4C103,96.2,103.1,96.1,103.2,95.9L103.2,95.9 M104,94.3
		c0,0,0,0.1-0.1,0.1C103.9,94.4,103.9,94.3,104,94.3L104,94.3 M104.1,94c0,0,0,0.1,0,0.1L104.1,94C104,94.1,104.1,94,104.1,94
		 M105.6,90.1L105.6,90.1L105.6,90.1L105.6,90.1 M106.3,88L106.3,88L106.3,88L106.3,88 M107.7,81.4c0,0.1,0,0.1,0,0.2
		C107.7,81.5,107.7,81.5,107.7,81.4 M108.3,76c0,0.4-0.1,0.9-0.1,1.3c0-0.1,0-0.1,0-0.2C108.3,76.7,108.3,76.4,108.3,76 M108.4,71.9
		c0,0.7,0,1.3,0,2c0-0.1,0-0.2,0-0.2C108.4,73,108.4,72.5,108.4,71.9 M108.4,69.1c0,0.4,0,0.8,0,1.2c0-0.3,0-0.7,0-1
		C108.4,69.2,108.4,69.2,108.4,69.1 M108.3,67.6c0,0.2,0,0.4,0,0.6C108.3,68,108.3,67.8,108.3,67.6 M108,64.2c0.1,1,0.2,1.9,0.3,2.9
		c0-0.2,0-0.3,0-0.5C108.1,65.8,108.1,65.1,108,64.2 M42.4,63.3c0,0.1,0,0.2,0,0.4C42.4,63.6,42.4,63.4,42.4,63.3 M107.8,63.2
		c0,0.2,0,0.3,0.1,0.5C107.9,63.5,107.8,63.4,107.8,63.2L107.8,63.2 M107.7,62.4c0,0.1,0,0.2,0,0.2
		C107.7,62.6,107.7,62.5,107.7,62.4 M42.3,62.2c0,0.1,0,0.1,0,0.2C42.3,62.3,42.3,62.2,42.3,62.2 M42.2,61.7c0,0.1,0,0.2,0,0.3
		C42.2,61.8,42.2,61.7,42.2,61.7 M42.1,61c0,0.1,0,0.3,0,0.4C42.2,61.3,42.2,61.2,42.1,61 M107.4,60.5c0.1,0.4,0.1,0.8,0.2,1.1
		C107.5,61.2,107.5,60.9,107.4,60.5 M42,59c0,0.2,0,0.5,0.1,0.8C42,59.5,42,59.3,42,59 M41.9,57.5c0,0.1,0,0.3,0,0.4
		C41.9,57.7,41.9,57.6,41.9,57.5 M42,49.9c0,0.2,0,0.3,0,0.5c0,0.4,0,0.7-0.1,1.1c0,0.7-0.1,1.5-0.1,2.3c0,0.8,0,1.6,0,2.4
		c0,0.3,0,0.6,0,1c0,0.1,0,0.2,0,0.3C41.8,54.8,41.8,52.3,42,49.9 M103.5,46.6c1.4,3.5,2.5,7.2,3.3,11c0.2,0.9,0.4,1.7,0.5,2.6
		c0-0.2-0.1-0.3-0.1-0.5c-0.1-0.7-0.3-1.4-0.4-2.1c-0.5-2.4-1.2-4.8-1.9-7.1c-0.2-0.8-0.5-1.5-0.8-2.3
		C104,47.7,103.7,47.1,103.5,46.6 M42.7,44.2c0,0.2-0.1,0.5-0.1,0.7c-0.1,0.7-0.2,1.4-0.3,2.1c0,0.3-0.1,0.5-0.1,0.8
		C42.3,46.6,42.5,45.4,42.7,44.2 M43.7,39.5c0,0.1-0.1,0.2-0.1,0.3c-0.4,1.3-0.7,2.7-0.9,4.1l0,0C43,42.4,43.4,40.9,43.7,39.5
		 M44.3,37.8c0,0,0,0.1,0,0.1l0,0C44.2,37.8,44.2,37.8,44.3,37.8 M46.2,32.6c-0.4,0.8-0.7,1.6-1,2.4l0,0l0,0
		C45.5,34.3,45.8,33.4,46.2,32.6 M47.3,30.4c-0.3,0.6-0.6,1.2-0.9,1.8C46.7,31.6,47,31,47.3,30.4 M48.9,27.8
		c-0.2,0.3-0.3,0.5-0.5,0.8C48.5,28.3,48.7,28,48.9,27.8 M49.6,26.7c0,0-0.1,0.1-0.1,0.1l0,0.1C49.5,26.8,49.6,26.7,49.6,26.7
		 M90.1,25.8c5.1,5,9.6,11.6,12.8,19.3c-3.2-7.6-7.5-14.1-12.5-19C90.3,25.9,90.2,25.9,90.1,25.8 M51.1,24.8L51.1,24.8L51.1,24.8
		L51.1,24.8 M51.7,24.1L51.7,24.1L51.7,24.1L51.7,24.1 M86.4,22.5L86.4,22.5L86.4,22.5L86.4,22.5 M53.6,22.1
		c-0.4,0.4-0.9,0.8-1.3,1.2C52.8,22.9,53.2,22.5,53.6,22.1 M54.2,21.6c0,0-0.1,0.1-0.1,0.1C54.1,21.7,54.1,21.7,54.2,21.6 M56.2,20
		L56.2,20L56.2,20L56.2,20L56.2,20"/>
	<path id="XMLID_195_" class="st5" d="M86.4,22.5L86.4,22.5c-1.7,0.1-3.3,0.3-4.9,0.8c3,2,5.8,4.7,8.3,7.8c2.2,2.3,4.2,5,6,7.9
		c0.5,0.8,1,1.7,1.5,2.5c0.1,0.1,0.1,0.2,0.2,0.4c0.1,0.1,0.1,0.2,0.2,0.4c0,0,0,0.1,0.1,0.1c0.2,0.3,0.3,0.6,0.5,0.9
		c0,0,0,0.1,0.1,0.1c0.1,0.3,0.3,0.6,0.4,0.9c0.1,0.3,0.3,0.6,0.4,0.8c0,0.1,0.1,0.2,0.1,0.3c0.1,0.1,0.1,0.3,0.2,0.4
		c0.3,0.7,0.6,1.4,0.9,2.2c0.1,0.1,0.1,0.3,0.1,0.4c0.1,0.1,0.1,0.3,0.2,0.4c0.1,0.2,0.1,0.3,0.2,0.5c0.2,0.4,0.3,0.9,0.5,1.3
		c0.1,0.2,0.1,0.3,0.2,0.5c0.1,0.2,0.2,0.5,0.3,0.7c0.7,2.1,1.3,4.3,1.8,6.5c0.4,1.9,0.7,3.7,1,5.6c0,0.3,0.1,0.5,0.1,0.8
		c0,0.1,0,0.1,0,0.2c0,0.1,0,0.3,0,0.4c0,0.1,0,0.3,0,0.4c0,0.3,0.1,0.6,0.1,0.9c0,0.2,0,0.4,0,0.6c0,0.1,0,0.2,0,0.3
		c0,0.2,0,0.5,0,0.7c0,0.1,0,0.1,0,0.2c0,0.2,0,0.3,0,0.5c0,0.1,0,0.2,0,0.3c0,0.2,0,0.4,0,0.6c0,0.6,0,1.3,0,1.9
		c0,0.8,0,1.6-0.1,2.3c0,0.2,0,0.4,0,0.5c-0.4,7-2.1,13.3-4.9,18.4c0,0.1-0.1,0.2-0.1,0.3c-0.4,0.6-0.7,1.2-1.1,1.8
		c-0.1,0.1-0.1,0.2-0.2,0.3c-0.1,0.1-0.1,0.2-0.2,0.3c-0.9,1.3-1.9,2.6-3,3.7c-0.1,0.1-0.1,0.1-0.2,0.2c-0.1,0.1-0.2,0.2-0.3,0.3
		c-0.7,0.7-1.5,1.3-2.3,1.9l0,0l0,0c-0.1,0.1-0.2,0.2-0.3,0.2l0,0c0.8,0.6,1.7,1.1,2.5,1.6c0.7,0.4,1.3,0.7,2,1
		c0.2-0.1,0.3-0.3,0.5-0.4c0.1-0.1,0.3-0.3,0.4-0.4c0.3-0.3,0.6-0.6,0.9-0.9c0.2-0.2,0.3-0.4,0.5-0.5c0.1-0.1,0.2-0.3,0.4-0.4
		c0.4-0.5,0.8-1,1.2-1.6l0.3-0.4c0.1-0.1,0.1-0.2,0.2-0.2c0.2-0.4,0.5-0.7,0.7-1.1c0.1-0.1,0.2-0.3,0.2-0.4c0,0,0-0.1,0.1-0.1
		c0.1-0.2,0.3-0.4,0.4-0.7c0.1-0.2,0.2-0.4,0.3-0.6c0.1-0.1,0.2-0.3,0.2-0.4c0.1-0.1,0.1-0.2,0.2-0.4c0.3-0.5,0.5-1,0.7-1.5
		c0,0,0-0.1,0.1-0.1c0,0,0-0.1,0.1-0.1c0,0,0-0.1,0-0.1c0.2-0.4,0.3-0.8,0.5-1.2c0.1-0.2,0.2-0.4,0.3-0.7c0.2-0.5,0.4-0.9,0.5-1.4
		c0.1-0.2,0.2-0.5,0.2-0.7l0-0.1c0.1-0.2,0.1-0.4,0.2-0.7c0.1-0.5,0.3-1,0.4-1.4l0,0c0.1-0.5,0.3-1,0.4-1.5c0.1-0.3,0.1-0.5,0.2-0.8
		c0.1-0.5,0.2-1,0.3-1.5c0.2-0.8,0.3-1.6,0.4-2.3c0-0.1,0-0.2,0-0.3c0-0.1,0-0.1,0-0.2c0-0.1,0-0.2,0.1-0.4c0-0.3,0.1-0.5,0.1-0.8
		c0.1-0.5,0.1-1.1,0.2-1.6c0-0.3,0.1-0.5,0.1-0.8c0-0.2,0-0.4,0-0.5c0-0.4,0.1-0.9,0.1-1.3c0-0.2,0-0.4,0-0.7c0-0.3,0-0.6,0-0.8
		c0-0.2,0-0.4,0-0.6c0-0.7,0-1.3,0-2c0-0.3,0-0.6,0-0.8c0-0.2,0-0.4,0-0.7l0-0.1c0-0.4,0-0.8,0-1.2c0-0.3,0-0.5,0-0.8
		c0,0,0-0.1,0-0.1c0-0.2,0-0.4,0-0.6c0,0,0-0.1,0-0.1c0-0.1,0-0.2,0-0.4c-0.1-1-0.2-1.9-0.3-2.9c0-0.1,0-0.2,0-0.3
		c0-0.1,0-0.2,0-0.3c0-0.2,0-0.3-0.1-0.5c0-0.2,0-0.4-0.1-0.5c0-0.1,0-0.2,0-0.2c0-0.2,0-0.3-0.1-0.5c0-0.1,0-0.2,0-0.3
		c-0.1-0.4-0.1-0.7-0.2-1.1c0-0.1,0-0.1,0-0.2c0,0,0-0.1,0-0.1c-0.2-0.9-0.3-1.7-0.5-2.6c-0.8-3.9-2-7.5-3.3-11
		c-0.1-0.2-0.1-0.4-0.2-0.5c-0.1-0.3-0.3-0.6-0.4-1c-3.2-7.7-7.7-14.4-12.8-19.3c-0.2-0.2-0.3-0.3-0.5-0.5c-0.2-0.2-0.3-0.3-0.5-0.4
		c-0.2-0.2-0.5-0.4-0.7-0.6c-0.3-0.3-0.6-0.5-0.9-0.8c-0.1-0.1-0.1-0.1-0.2-0.2c-0.3-0.2-0.5-0.4-0.8-0.6
		C86.5,22.6,86.4,22.6,86.4,22.5L86.4,22.5 M56.2,20L56.2,20c-0.1,0.1-0.2,0.1-0.2,0.1c-0.5,0.3-1,0.7-1.4,1.1
		c-0.2,0.1-0.3,0.3-0.4,0.4l0,0c0,0-0.1,0.1-0.1,0.1l0,0c-0.1,0.1-0.2,0.2-0.4,0.3c-0.4,0.4-0.9,0.8-1.3,1.2c0,0-0.1,0.1-0.1,0.1
		l-0.6,0.6l0,0l0,0c-0.2,0.2-0.4,0.4-0.5,0.6l0,0l0,0c-0.4,0.4-0.7,0.9-1.1,1.3c-0.1,0.2-0.3,0.4-0.4,0.5c0,0.1-0.1,0.1-0.1,0.2l0,0
		c-0.2,0.2-0.3,0.5-0.5,0.7c0,0.1-0.1,0.1-0.1,0.2c-0.2,0.3-0.3,0.5-0.5,0.8c-0.1,0.2-0.2,0.4-0.4,0.6c-0.2,0.3-0.3,0.5-0.5,0.8
		c-0.1,0.2-0.2,0.3-0.3,0.5c-0.3,0.6-0.6,1.2-0.9,1.8c0,0.1-0.1,0.2-0.1,0.3c0,0.1-0.1,0.1-0.1,0.2c-0.4,0.8-0.7,1.6-1,2.5
		c-0.1,0.3-0.2,0.6-0.3,0.9c-0.1,0.3-0.2,0.6-0.3,0.9c-0.1,0.3-0.2,0.5-0.3,0.8c0,0,0,0.1,0,0.1l0,0c-0.2,0.5-0.3,1.1-0.5,1.6
		c-0.4,1.4-0.7,2.9-1,4.4l0,0c0,0.1,0,0.2-0.1,0.3c-0.2,1.2-0.4,2.4-0.5,3.7c0,0.2,0,0.3,0,0.5c0,0.3-0.1,0.6-0.1,0.8
		c0,0.2,0,0.5-0.1,0.7c-0.2,2.4-0.2,4.9-0.1,7.5l0,0c0,0,0,0.1,0,0.1c0,0.1,0,0.3,0,0.4c0,0.1,0,0.3,0,0.4c0,0.2,0,0.5,0,0.7
		c0,0.2,0,0.5,0.1,0.8c0,0.3,0.1,0.6,0.1,0.9c0,0.1,0,0.2,0,0.3c0,0.1,0,0.3,0,0.4c0,0.1,0,0.1,0,0.2l0,0.1c0,0.1,0,0.2,0,0.3l0,0.1
		c0,0.1,0,0.1,0,0.2c0,0.1,0,0.1,0,0.2c0,0.1,0,0.1,0,0.2c0,0.2,0.1,0.5,0.1,0.7c0,0.1,0,0.2,0,0.4l0,0.1c0.1,0.5,0.1,1,0.2,1.5
		c0.4-0.1,0.8-0.2,1.3-0.3c-3.7-19.2,1.8-36.7,12.8-43.5C56.6,21,56.4,20.5,56.2,20L56.2,20"/>
	<path id="XMLID_196_" class="st6" d="M103.4,58.2c5,23.2-3.6,44.3-19.3,47.1c-15.6,2.8-32.4-13.6-37.4-36.8
		c-5-23.2,3.6-44.3,19.3-47.1C81.7,18.5,98.4,35,103.4,58.2"/>
	<path id="XMLID_200_" class="st7" d="M71.3,30c-1.5,1.8-2.8,4-3.8,6.3l0,0c0.6-0.2,1.3-0.4,1.9-0.5c0.7-0.1,1.4-0.2,2.1-0.2
		c0.1,0,0.1,0,0.2,0l0,0c0.1-0.3,0.1-0.6,0.2-0.9c0.4-1.3,1.2-2.3,2.2-2.7C73.3,31.3,72.3,30.6,71.3,30 M54.4,37
		c-0.3,0-0.7-0.1-1-0.4c-0.8-0.7-1.1-2.1-0.7-3.1c0.2-0.6,0.6-0.9,1.1-0.9c0.3,0,0.7,0.1,1,0.4c0.8,0.7,1.1,2.1,0.7,3.1
		C55.3,36.7,54.8,37,54.4,37 M58.6,28.5c-4.1,1.6-7.2,5.4-9.1,10.3c0.8-1.1,1.7-1.8,2.5-1.8c0.4,0,0.7,0.1,1.1,0.4
		c1.3,1.2,1.4,4.7,0.3,7.8C52.4,47.6,51,49,49.8,49c-0.4,0-0.7-0.1-1.1-0.4c-0.5-0.5-0.8-1.2-1-2.1c-0.4,3.7-0.1,7.7,0.8,11.8
		c0.3,1.3,0.6,2.6,1,3.9l0,0c2.7-1.9,4.9-4.7,6.6-8.1c-0.5-0.5-0.9-1.2-1.2-1.9l0,0l0,0c-0.1-0.1-0.1-0.3-0.2-0.4
		c0-0.1-0.1-0.1-0.1-0.2c0-0.1-0.1-0.2-0.1-0.2c0,0,0-0.1,0-0.1c-0.1-0.2-0.2-0.5-0.2-0.7c0-0.2-0.1-0.3-0.1-0.5
		c-0.2-0.8-0.2-1.6-0.2-2.4c0-1,0.2-1.9,0.6-2.7l0-0.1l0,0c0-0.1,0.1-0.2,0.1-0.3l0,0l4.5-8.1C59.3,33.8,59,31.2,58.6,28.5
		L58.6,28.5"/>
	<path id="XMLID_209_" class="st8" d="M50.3,33.9c-1.1,2.1-2.1,4.4-2.8,6.8C48.2,38.3,49.2,36,50.3,33.9 M89.1,30.4
		c0.2,0.2,0.3,0.3,0.5,0.5C89.4,30.7,89.3,30.5,89.1,30.4 M53.6,29c-0.3,0.4-0.6,0.7-0.9,1.1c-0.3,0.4-0.6,0.9-0.9,1.3
		c-0.1,0.2-0.3,0.5-0.4,0.7c-0.1,0.2-0.2,0.4-0.4,0.6C51.8,31.4,52.7,30.1,53.6,29 M85.7,27.3c0.2,0.2,0.4,0.3,0.6,0.5l-0.1,0
		C86,27.6,85.9,27.4,85.7,27.3 M56.5,26c-0.1,0.1-0.1,0.1-0.2,0.2c-0.4,0.3-0.7,0.7-1.1,1c-0.4,0.4-0.7,0.7-1,1.1
		c-0.2,0.2-0.3,0.4-0.5,0.6C54.6,27.8,55.5,26.9,56.5,26 M57.5,25.2c0,0-0.1,0.1-0.1,0.1c-0.2,0.1-0.3,0.2-0.4,0.4l0,0
		C57.1,25.6,57.3,25.4,57.5,25.2 M82.7,25.2c0.6,0.4,1.1,0.7,1.6,1.1c-0.1-0.1-0.2-0.1-0.3-0.2c-0.2-0.2-0.5-0.3-0.7-0.5
		C83.2,25.5,83,25.4,82.7,25.2 M80.1,23.7L80.1,23.7c0.1,0.1,0.2,0.1,0.4,0.2C80.4,23.8,80.2,23.8,80.1,23.7"/>
	<path id="XMLID_213_" class="st9" d="M97.6,42.2c0.2,0.4,0.4,0.8,0.6,1.1c0,0,0-0.1-0.1-0.1c-0.2-0.3-0.3-0.6-0.5-0.9
		C97.7,42.2,97.7,42.2,97.6,42.2 M95.8,38.9c0.6,0.9,1.1,1.9,1.7,2.9c-0.1-0.1-0.1-0.2-0.2-0.4C96.8,40.6,96.3,39.8,95.8,38.9"/>
	<path id="XMLID_214_" class="st8" d="M47,42.5c-0.1,0.2-0.1,0.5-0.2,0.7c-0.1,0.3-0.1,0.6-0.2,0.9c-0.1,0.3-0.1,0.7-0.2,1
		C46.6,44.3,46.8,43.4,47,42.5"/>
	<path id="XMLID_217_" class="st9" d="M99.2,45.3c0.1,0.1,0.1,0.3,0.2,0.4C99.3,45.6,99.2,45.4,99.2,45.3 M98.7,44.2
		c0.1,0.3,0.3,0.6,0.4,0.8C98.9,44.7,98.8,44.5,98.7,44.2"/>
	<path id="XMLID_218_" class="st8" d="M46.3,45.8c0,0.1,0,0.1,0,0.2c-0.1,0.5-0.2,1-0.3,1.6C46,47,46.1,46.4,46.3,45.8"/>
	<path id="XMLID_219_" class="st9" d="M100.3,47.9c0,0.1,0.1,0.3,0.1,0.4C100.4,48.1,100.3,48,100.3,47.9"/>
	<path id="XMLID_220_" class="st8" d="M45.9,47.9c0,0.3-0.1,0.6-0.1,0.9c-0.1,0.6-0.1,1.3-0.2,1.9c-0.1,1.3-0.2,2.6-0.2,4
		c0,0.4,0,0.8,0,1.2C45.4,53.2,45.5,50.5,45.9,47.9"/>
	<path id="XMLID_223_" class="st9" d="M101.3,50.5c0.9,2.5,1.6,5.1,2.2,7.7c0.5,2.2,0.8,4.4,1.1,6.5c0-0.1,0-0.1,0-0.2
		c0-0.3-0.1-0.5-0.1-0.8c-0.2-1.8-0.5-3.7-1-5.6c-0.5-2.2-1.1-4.4-1.8-6.5c-0.1-0.3-0.2-0.5-0.3-0.7
		C101.4,50.8,101.3,50.6,101.3,50.5 M100.6,48.7c0.1,0.2,0.1,0.3,0.2,0.5C100.7,49,100.7,48.8,100.6,48.7"/>
	<path id="XMLID_228_" class="st8" d="M45.7,61c0,0.3,0.1,0.6,0.1,0.9c0,0.4,0.1,0.8,0.1,1.2c0,0.3,0.1,0.5,0.1,0.8
		c0,0.1,0,0.2,0,0.3l0,0C45.9,63.1,45.8,62.1,45.7,61 M45.6,60.5c0,0.1,0,0.2,0,0.3C45.6,60.7,45.6,60.6,45.6,60.5 M45.5,58.7
		c0,0.2,0,0.4,0,0.7c0,0.1,0,0.1,0,0.2c0,0.2,0,0.3,0,0.5C45.5,59.7,45.5,59.2,45.5,58.7"/>
	<path id="XMLID_236_" class="st9" d="M104.9,71.6c0,1,0,1.9-0.1,2.9c0-0.2,0-0.4,0-0.5C104.8,73.2,104.9,72.4,104.9,71.6
		 M104.8,69.1c0,0.2,0,0.4,0,0.6C104.8,69.5,104.8,69.3,104.8,69.1 M104.8,68.3c0,0.2,0,0.3,0,0.5C104.8,68.6,104.8,68.4,104.8,68.3
		 M104.6,65.2c0.1,1,0.2,1.9,0.2,2.9c0-0.2,0-0.5,0-0.7c0-0.1,0-0.2,0-0.3c0-0.2,0-0.4,0-0.6c0-0.3,0-0.6-0.1-0.9
		C104.6,65.5,104.6,65.3,104.6,65.2"/>
	<path id="XMLID_241_" class="st9" d="M98.4,95.3c-0.1,0.1-0.1,0.2-0.2,0.3C98.3,95.5,98.4,95.4,98.4,95.3 M99.9,92.9
		c-0.4,0.7-0.8,1.4-1.2,2.1c0.4-0.6,0.8-1.2,1.1-1.8C99.8,93.1,99.8,93,99.9,92.9"/>
	<path id="XMLID_244_" class="st9" d="M92.5,101.7L92.5,101.7L92.5,101.7L92.5,101.7 M95.2,99.3c-0.2,0.2-0.3,0.3-0.5,0.5
		c0.1-0.1,0.2-0.2,0.3-0.3C95.1,99.4,95.2,99.4,95.2,99.3"/>
	<path id="XMLID_251_" class="st10" d="M57.8,25L57.8,25c0,0-0.1,0.1-0.1,0.1c-0.1,0-0.1,0.1-0.2,0.1c-0.2,0.2-0.4,0.3-0.6,0.5
		c-0.1,0.1-0.2,0.2-0.4,0.3c-1,0.9-1.9,1.8-2.8,2.9l0,0L53.6,29c-0.9,1.1-1.8,2.4-2.6,3.7c0,0,0,0.1-0.1,0.1
		c-0.2,0.4-0.4,0.8-0.6,1.1c-1.1,2.1-2.1,4.4-2.8,6.8c-0.2,0.5-0.3,1-0.4,1.6c0,0.1,0,0.1,0,0.2c-0.2,0.9-0.4,1.7-0.6,2.6
		c0,0.2-0.1,0.4-0.1,0.7C46.1,46.4,46,47,46,47.5c0,0.1,0,0.2,0,0.3l0,0.1c-0.4,2.6-0.5,5.3-0.5,8c0,0.3,0,0.6,0,0.8
		c0,0.6,0,1.2,0.1,1.9l0,0.1c0,0.5,0.1,0.9,0.1,1.4c0,0.1,0,0.1,0,0.2c0,0.1,0,0.2,0,0.2c0,0.1,0,0.2,0,0.3c0,0,0,0.1,0,0.1l0,0
		c0.1,1.1,0.2,2.1,0.4,3.2c0.4-0.2,0.8-0.3,1.1-0.5C44,47.2,48.7,32.2,58.1,26.2C58,25.8,57.9,25.4,57.8,25 M97.7,91.8
		c-0.3,0-0.6-0.1-0.9-0.4c-0.8-0.7-1.2-2.1-0.8-3.1c0.2-0.6,0.7-1,1.2-1c0.3,0,0.6,0.1,0.9,0.4c0.8,0.7,1.2,2.1,0.8,3.1
		C98.7,91.5,98.2,91.8,97.7,91.8 M99.3,87.1c-0.3,0-0.7-0.1-0.9-0.4c-1.4-1.1-1.6-4.7-0.6-7.8c0.8-2.5,2.2-4,3.4-4
		c0.3,0,0.7,0.1,0.9,0.4c1.4,1.1,1.6,4.7,0.6,7.8C101.9,85.6,100.5,87.1,99.3,87.1 M80.1,23.7L80.1,23.7c-1.4,0.5-2.8,1.2-4,2
		c9.4,4.5,17.5,15.9,20.6,30.2c3.8,17.6-1.5,33.9-11.9,39.3c1.6,1.8,3.3,3.5,5.1,4.9c0.8,0.6,1.5,1.2,2.3,1.8
		c0.1-0.1,0.2-0.1,0.3-0.2l0,0c0.1-0.1,0.2-0.2,0.3-0.3c0.2-0.2,0.4-0.3,0.6-0.5c0.4-0.3,0.8-0.6,1.1-1c0.1-0.1,0.2-0.2,0.2-0.2
		c0.2-0.2,0.3-0.3,0.5-0.5c0.3-0.3,0.5-0.5,0.8-0.8c0.1-0.2,0.3-0.3,0.4-0.5c0.3-0.3,0.6-0.7,0.9-1.1c0.1-0.2,0.3-0.4,0.4-0.5
		c0.1-0.2,0.3-0.4,0.4-0.6c0.1-0.1,0.1-0.1,0.2-0.2c0.1-0.1,0.1-0.2,0.2-0.3l0,0c0.1-0.1,0.1-0.2,0.2-0.2c0.4-0.7,0.9-1.4,1.2-2.1
		c0.6-1.1,1.2-2.3,1.7-3.5c0.2-0.5,0.4-1,0.6-1.5c0.1-0.3,0.2-0.5,0.3-0.8c0.1-0.3,0.2-0.5,0.3-0.8c0.1-0.3,0.2-0.5,0.2-0.8
		c0.1-0.3,0.2-0.5,0.2-0.8c0.1-0.3,0.2-0.5,0.2-0.8c0.1-0.3,0.1-0.6,0.2-0.8c0.1-0.3,0.1-0.6,0.2-0.8c0.1-0.6,0.2-1.2,0.3-1.8
		c0-0.3,0.1-0.5,0.1-0.8c0-0.3,0.1-0.6,0.1-0.9c0-0.3,0.1-0.6,0.1-0.9c0.1-0.6,0.1-1.2,0.2-1.8c0-0.5,0.1-1,0.1-1.4
		c0.1-0.9,0.1-1.9,0.1-2.9c0-0.2,0-0.5,0-0.7c0-0.3,0-0.7,0-1c0-0.1,0-0.1,0-0.2c0-0.2,0-0.4,0-0.6c0-0.1,0-0.1,0-0.2
		c0-0.1,0-0.1,0-0.2c0-0.2,0-0.3,0-0.5l0-0.1c0,0,0-0.1,0-0.1c-0.1-1-0.1-1.9-0.2-2.9c0-0.1,0-0.2,0-0.4l0-0.1
		c-0.2-2.1-0.6-4.3-1.1-6.5c-0.6-2.7-1.3-5.3-2.2-7.7c0-0.1-0.1-0.2-0.1-0.2c-0.1-0.3-0.2-0.6-0.3-0.9c0-0.1,0-0.1-0.1-0.2
		c-0.1-0.2-0.1-0.3-0.2-0.5c0-0.1,0-0.1-0.1-0.2c0-0.1-0.1-0.1-0.1-0.2c0-0.1-0.1-0.3-0.1-0.4l0-0.1c-0.1-0.3-0.2-0.6-0.4-0.9
		c-0.1-0.3-0.3-0.6-0.4-0.9c0-0.1-0.1-0.2-0.1-0.3c-0.1-0.1-0.1-0.3-0.2-0.4c0,0,0-0.1-0.1-0.1c0-0.1,0-0.1-0.1-0.2
		c-0.1-0.3-0.3-0.6-0.4-0.8c0,0,0-0.1-0.1-0.1c-0.1-0.3-0.3-0.5-0.4-0.8c-0.2-0.4-0.4-0.8-0.6-1.1c-0.1-0.1-0.1-0.2-0.2-0.4
		c-0.5-1-1.1-1.9-1.7-2.9c-0.4-0.6-0.7-1.2-1.1-1.7c-0.2-0.3-0.4-0.5-0.5-0.8c-0.7-1-1.5-2-2.3-3c-0.2-0.2-0.4-0.5-0.6-0.7
		c-0.5-0.6-1-1.1-1.5-1.6l0,0l0,0c-0.1-0.1-0.1-0.1-0.2-0.2c-0.2-0.2-0.3-0.3-0.5-0.5c-0.1-0.1-0.2-0.2-0.3-0.3
		c-0.3-0.3-0.6-0.5-0.8-0.8c-0.1-0.1-0.3-0.3-0.4-0.4c-0.2-0.2-0.4-0.4-0.7-0.6c-0.2-0.2-0.4-0.3-0.6-0.5c-0.2-0.2-0.4-0.3-0.6-0.5
		c-0.1,0-0.1-0.1-0.2-0.1c-0.2-0.1-0.4-0.3-0.6-0.4c-0.2-0.1-0.4-0.3-0.5-0.4c-0.5-0.4-1.1-0.8-1.6-1.1c-0.2-0.1-0.4-0.3-0.7-0.4
		c-0.5-0.3-0.9-0.5-1.4-0.8c-0.1,0-0.1-0.1-0.2-0.1C80.4,23.8,80.2,23.8,80.1,23.7"/>
	<path id="XMLID_253_" class="st11" d="M49.5,38.8c-0.4,0.5-0.7,1.2-1,1.9c-0.7,1.9-1,4.1-0.7,5.7C48.1,43.7,48.7,41.1,49.5,38.8"/>
	<path id="XMLID_254_" class="st12" d="M52,37.1c-0.8,0-1.7,0.6-2.5,1.8c-0.9,2.3-1.4,4.9-1.7,7.6c0.2,0.9,0.5,1.7,1,2.1
		c0.3,0.3,0.7,0.4,1.1,0.4c1.2,0,2.6-1.4,3.5-3.7c1.2-3,1.1-6.5-0.3-7.8C52.7,37.2,52.3,37.1,52,37.1"/>
	<path id="XMLID_256_" class="st12" d="M53.8,32.6c-0.5,0-0.9,0.3-1.1,0.9c-0.4,1-0.1,2.4,0.7,3.1c0.3,0.3,0.7,0.4,1,0.4
		c0.5,0,0.9-0.3,1.1-0.9c0.4-1,0.1-2.4-0.7-3.1C54.4,32.7,54.1,32.6,53.8,32.6"/>
	<path id="XMLID_257_" class="st13" d="M101.1,74.9c-1.2,0-2.6,1.5-3.4,4c-1,3.2-0.8,6.7,0.6,7.8c0.3,0.2,0.6,0.4,0.9,0.4
		c1.2,0,2.6-1.5,3.4-4c1-3.2,0.8-6.7-0.6-7.8C101.8,75,101.5,74.9,101.1,74.9"/>
	<path id="XMLID_258_" class="st13" d="M97.1,87.4c-0.5,0-0.9,0.4-1.2,1c-0.3,1,0,2.4,0.8,3.1c0.3,0.2,0.6,0.4,0.9,0.4
		c0.5,0,0.9-0.4,1.2-1c0.3-1,0-2.4-0.8-3.1C97.7,87.5,97.4,87.4,97.1,87.4"/>
	<path id="XMLID_259_" class="st14" d="M71.6,35.7c-0.7,0-1.4,0.1-2.1,0.2c-0.7,0.1-1.3,0.3-1.9,0.5c-0.2,0.4-0.3,0.8-0.5,1.2
		c0.3,0.7,0.6,1.4,0.8,2.2l1.7,7.2c0.6-0.4,1.3-0.6,2.1-0.7c0.4-0.1,0.8-0.1,1.2-0.1c0.2,0,0.3,0,0.5,0l-1.6-6.6
		c0-0.1,0-0.2-0.1-0.2c-0.1-0.3-0.1-0.6-0.2-1l0,0c0-0.3-0.1-0.6-0.1-0.9c0-0.1,0-0.3,0-0.4l0,0c0-0.1,0-0.2,0-0.3c0,0,0-0.1,0-0.1
		c0-0.1,0-0.2,0-0.3c0-0.1,0-0.1,0-0.2c0-0.1,0-0.2,0.1-0.3C71.7,35.7,71.6,35.7,71.6,35.7"/>
	<path id="XMLID_262_" class="st7" d="M84.2,71c-0.6,1.6-1.3,3-2.1,4.3l4.9,6c0.1,0.1,0.2,0.2,0.3,0.3c0,0,0,0.1,0.1,0.1l0.1,0.1
		c0,0,0.1,0.1,0.1,0.1c1-1.1,1.8-2.4,2.6-3.9c-0.1-0.1-0.2-0.2-0.3-0.4l-4.8-5.8L84.2,71L84.2,71 M88.3,48.3c-0.2,0.5-0.6,1-1,1.4
		c-0.1,0.1-0.1,0.1-0.2,0.2l-2,1.6l0,0c0,0,0,0.1,0,0.1c0.5,2.1,0.7,4.3,0.9,6.3l0,0l0,0l3.2-2.6c0.5-0.4,1.1-0.7,1.7-0.7
		C90.2,52.3,89.4,50.2,88.3,48.3"/>
	<path id="XMLID_266_" class="st14" d="M70.2,72.8l-0.1,0.7l0,0.1l0,0c1,2,2.1,4,3.2,5.9l0.6-2.7l0.3-1.3
		C72.8,74.8,71.4,73.9,70.2,72.8 M83.9,70.6c-0.7,1.5-1.6,2.7-2.7,3.6l0,0l0.9,1.1l0,0c0.8-1.3,1.5-2.7,2.1-4.3l0,0L83.9,70.6
		 M85.1,51.5L83.2,53l-0.5,0.4c0.9,1.7,1.6,3.5,2.1,5.5l0.2-0.1l1.1-0.9c-0.1-2.1-0.4-4.2-0.9-6.3C85.1,51.6,85.1,51.5,85.1,51.5"/>
	<path id="XMLID_267_" class="st15" d="M72.9,46.1c-0.4,0-0.8,0-1.2,0.1c-0.7,0.1-1.4,0.4-2.1,0.7l2.3,9.4l0.1,0.4l0,0
		c0.1,0.3,0.1,0.6,0,0.9l0,0.1l0,0l0,0.1l0,0l0,0l0,0.1c0,0,0,0.1-0.1,0.1c-0.1,0.1-0.1,0.2-0.2,0.2l-0.1,0.1l0,0c0,0-0.1,0-0.1,0
		l-0.1,0l-0.1,0l0,0l0,0l0,0c0,0-0.1,0-0.1,0l-6.2-1.4l0,0c0.1,0.8,0.2,1.7,0.4,2.5c0.2,1.2,0.5,2.3,0.8,3.4l1.5,0.3l3.2,0.7
		c0.1,0,0.3,0.1,0.4,0.2c0.5,0.4,0.8,1.2,0.6,1.9l-1.5,6.6l0,0c1.2,1.2,2.6,2.1,3.9,2.6l1.3-5.9c0.1-0.4,0.3-0.6,0.5-0.7
		c0.1,0,0.2-0.1,0.3-0.1c0.2,0,0.5,0.1,0.7,0.4L77,69l1.1,1.3l3.2,3.9c1.1-0.9,2-2.1,2.7-3.6l-3.2-3.9l-1.1-1.3
		c-0.1-0.1-0.1-0.1-0.1-0.2c-0.2-0.3-0.3-0.6-0.3-1c0,0,0-0.1,0-0.1c0-0.1,0-0.1,0-0.2l0,0c0-0.3,0.2-0.6,0.4-0.8l4.8-4l0.3-0.2l0,0
		c-0.5-2-1.2-3.9-2.1-5.5l-2.3,1.9l-2.9,2.3c0,0-0.1,0-0.1,0.1l0,0l-0.1,0c-0.1,0-0.2,0.1-0.3,0.1c-0.2,0-0.4-0.1-0.6-0.2l-0.1-0.1
		l0,0c0,0-0.1-0.1-0.1-0.1l0,0l0,0c0-0.1-0.1-0.1-0.1-0.2l0,0c0-0.1-0.1-0.1-0.1-0.2c0,0,0-0.1-0.1-0.1l0-0.1c0,0,0-0.1,0-0.1l0,0
		l-2.5-10.4l0,0C73.3,46.1,73.1,46.1,72.9,46.1"/>
	<path id="XMLID_268_" class="st16" d="M77.5,57.6l9.6-7.8c3-2.5,2.1-9.4-1.5-11.8l-8-5.4c-3.7-2.5-7,1.6-5.7,7L76,56.6
		C76.2,57.6,77,58.1,77.5,57.6"/>
	<path id="XMLID_277_" class="st17" d="M75.6,49.4l-0.7-4.1l1.6,0.2l1.2,1.7L75.6,49.4 M79.9,42.8l-0.6-3.6l1.4,0.2l1.1,1.5
		L79.9,42.8 M74.7,40.2L74,36.1l1.6,0.2l1.2,1.7L74.7,40.2 M75,32.4c-1.9,0-3.3,2.5-2.5,5.5l3,12.3c0.1,0.5,0.5,0.9,0.8,0.9
		c0.1,0,0.2,0,0.3-0.1l3.5-2.8l0-0.2l0.2,0l3.3-2.7c0.6-0.5,1-1.2,1.2-2l-0.4-2.6l0.5,0.1c-0.3-1.6-1.1-3.1-2.3-4L76.6,33
		C76.1,32.6,75.5,32.4,75,32.4"/>
	<path id="XMLID_280_" class="st18" d="M76.7,32.1c0.3,0.1,0.6,0.3,0.9,0.5l8,5.4c0.1,0,0.1,0.1,0.2,0.1c-0.1,0-0.1-0.1-0.2-0.1
		l-8-5.4C77.3,32.4,77,32.2,76.7,32.1 M75.4,31.8L75.4,31.8L75.4,31.8c0.2,0,0.5,0,0.7,0.1C75.9,31.9,75.6,31.8,75.4,31.8"/>
	<path id="XMLID_286_" class="st19" d="M72,34.8c-0.1,0.3-0.2,0.6-0.2,0.9l0,0l0,0C71.8,35.4,71.9,35.1,72,34.8"/>
	<path id="XMLID_294_" class="st18" d="M88.8,46.7c0,0,0,0.1,0,0.1C88.8,46.8,88.8,46.7,88.8,46.7 M89,45.3c0,0.3,0,0.7-0.1,1
		c0-0.3,0.1-0.5,0.1-0.8C89,45.4,89,45.3,89,45.3 M85.8,38.2L85.8,38.2L85.8,38.2"/>
	<path id="XMLID_302_" class="st20" d="M71.6,37.4c0,0.3,0,0.6,0.1,0.9l0,0c0,0.3,0.1,0.6,0.2,1c0,0.1,0,0.2,0.1,0.2l1.6,6.6l0,0
		l-1.6-6.6C71.7,38.8,71.6,38.1,71.6,37.4 M71.6,36.9L71.6,36.9L71.6,36.9 M71.7,36.2c0,0.1,0,0.2,0,0.3c0,0,0,0.1,0,0.1
		C71.6,36.5,71.6,36.3,71.7,36.2 M71.7,35.7c0,0.1,0,0.2-0.1,0.3C71.7,35.9,71.7,35.8,71.7,35.7L71.7,35.7"/>
	<path id="XMLID_303_" class="st19" d="M87.4,49.6c-0.1,0.1-0.1,0.1-0.2,0.2l-2,1.6l0,0l0,0l2-1.6C87.2,49.8,87.3,49.7,87.4,49.6"/>
	<polyline id="XMLID_305_" class="st20" points="85.1,51.5 83.2,53 85.1,51.5 85.1,51.5 	"/>
	<path id="XMLID_316_" class="st21" d="M76.5,57.5L76.5,57.5L76.5,57.5L76.5,57.5 M76.3,57.3L76.3,57.3L76.3,57.3L76.3,57.3
		 M76.1,57c0,0.1,0.1,0.1,0.1,0.2l0,0C76.2,57.1,76.1,57,76.1,57 M76,56.7L76,56.7L76,56.7 M80.4,55.3l-2.9,2.3
		c-0.1,0-0.1,0.1-0.2,0.1l0.1,0l0,0c0,0,0.1,0,0.1-0.1L80.4,55.3 M73.5,46.2L73.5,46.2L76,56.6l0,0l0,0L73.5,46.2L73.5,46.2"/>
	<path id="XMLID_321_" class="st22" d="M76.8,55c-0.4,0-0.8-0.4-1-1.1L74,46.2l-1.8-7.4c-0.3-1.1-0.3-2.2-0.2-3.2
		c0.3-1.7,1.2-3,2.4-3.5c0.3-0.1,0.6-0.2,0.9-0.2c0.6,0,1.3,0.2,1.9,0.7l7.1,4.8c2.5,1.7,3.5,5.7,2.7,8.4c-0.3,0.8-0.7,1.5-1.3,2
		l-1.2,1l0,0l-2.9,2.4l-0.8,0.9l0-0.2l0,0l-3.5,2.9C77,54.9,76.9,55,76.8,55 M75.4,31.8L75.4,31.8c-0.2,0-0.4,0-0.5,0
		c-0.1,0-0.2,0-0.3,0.1l0,0c-0.1,0-0.2,0.1-0.3,0.1l0,0l0,0c-0.2,0.1-0.5,0.2-0.7,0.4c-0.1,0-0.1,0.1-0.2,0.1
		c-0.1,0-0.1,0.1-0.2,0.1c-0.1,0.1-0.1,0.1-0.2,0.2c-0.1,0.1-0.1,0.1-0.2,0.2c0,0.1-0.1,0.1-0.1,0.2c-0.3,0.4-0.5,0.9-0.7,1.4
		c-0.1,0.3-0.2,0.6-0.2,0.9c0,0.1,0,0.2-0.1,0.3c0,0,0,0.1,0,0.1l0,0.1c0,0.1,0,0.3,0,0.4c0,0.1,0,0.1,0,0.2c0,0,0,0.1,0,0.1l0,0
		l0,0l0,0.1c0,0.1,0,0.2,0,0.3l0,0c0,0.7,0.1,1.4,0.3,2.1l1.6,6.6L76,56.6l0,0c0,0,0,0.1,0,0.1l0,0.1l0,0.1l0,0.1
		c0,0.1,0.1,0.1,0.1,0.2c0,0.1,0.1,0.1,0.1,0.2l0,0l0,0c0,0,0.1,0.1,0.1,0.1l0.1,0.1l0,0c0.1,0,0.1,0.1,0.2,0.1l0,0
		c0.1,0,0.1,0.1,0.2,0.1c0.1,0,0.1,0,0.2,0l0,0l0,0c0.1,0,0.1,0,0.1,0l0.1,0c0.1,0,0.1-0.1,0.2-0.1l2.9-2.3l2.3-1.9l0.5-0.4l1.9-1.5
		l2-1.6c0.1-0.1,0.1-0.1,0.2-0.2l0-0.1l0,0c0.1-0.1,0.2-0.2,0.3-0.3c0.1-0.1,0.1-0.2,0.2-0.3c0,0,0.1-0.1,0.1-0.1
		c0-0.1,0.1-0.1,0.1-0.2c0.1-0.1,0.1-0.2,0.2-0.3l0,0l0,0c0-0.1,0.1-0.1,0.1-0.2c0.2-0.4,0.3-0.7,0.4-1.1c0,0,0-0.1,0-0.1
		c0,0,0-0.1,0-0.1c0-0.1,0-0.1,0-0.2c0-0.1,0-0.1,0-0.2c0-0.3,0.1-0.7,0.1-1c0-0.1,0-0.1,0-0.2c0-0.2,0-0.3,0-0.5c0-0.1,0-0.3,0-0.4
		c0-0.1,0-0.1,0-0.2c0-0.1,0-0.2,0-0.3c0-0.2-0.1-0.3-0.1-0.5c0-0.1-0.1-0.3-0.1-0.4c0-0.1-0.1-0.3-0.1-0.4
		c-0.1-0.4-0.3-0.8-0.4-1.1c0-0.1-0.1-0.2-0.1-0.3c-0.1-0.2-0.2-0.5-0.4-0.7c-0.1-0.1-0.1-0.2-0.2-0.3c-0.3-0.4-0.6-0.8-1-1.2
		c-0.1-0.1-0.2-0.2-0.3-0.3c-0.1-0.1-0.2-0.2-0.3-0.2l0,0l-0.1,0l0,0l0,0c-0.1,0-0.1-0.1-0.2-0.1l-8-5.4c-0.3-0.2-0.6-0.4-0.9-0.5
		c0,0-0.1,0-0.1-0.1c-0.1,0-0.2-0.1-0.3-0.1l-0.1,0C75.8,31.9,75.6,31.8,75.4,31.8"/>
	<polyline id="XMLID_324_" class="st3" points="76.8,38 74.7,40.2 74,36.1 75.5,36.3 76.8,38 	"/>
	<polyline id="XMLID_325_" class="st23" points="75.5,36.3 74.7,40.2 76.8,38 75.5,36.3 	"/>
	<polyline id="XMLID_328_" class="st3" points="87,42.7 84.9,44.9 84.2,40.8 85.8,41 87,42.7 	"/>
	<polyline id="XMLID_329_" class="st23" points="85.8,41 84.9,44.9 87,42.7 85.8,41 	"/>
	<polyline id="XMLID_335_" class="st3" points="82.8,49.9 80.7,52.2 80,48 81.6,48.2 82.8,49.9 	"/>
	<polyline id="XMLID_336_" class="st23" points="81.6,48.2 80.7,52.2 82.8,49.9 81.6,48.2 	"/>
	<polyline id="XMLID_337_" class="st3" points="81.8,40.8 79.9,42.8 79.3,39.1 80.7,39.3 81.8,40.8 	"/>
	<polyline id="XMLID_339_" class="st23" points="80.7,39.3 79.9,42.8 81.8,40.8 80.7,39.3 	"/>
	<polyline id="XMLID_340_" class="st3" points="77.7,47.1 75.6,49.4 74.9,45.2 76.5,45.4 77.7,47.1 	"/>
	<polyline id="XMLID_358_" class="st23" points="76.5,45.4 75.6,49.4 77.7,47.1 76.5,45.4 	"/>
	<path id="XMLID_361_" class="st16" d="M72,56.8l-4.1-17.1c-1.3-5.4-6.1-7.5-8.3-3.7l-4.7,8.4c-2.2,3.8,0.2,10.4,4,11.3l12.1,2.7
		C71.7,58.6,72.2,57.8,72,56.8"/>
	<path id="XMLID_368_" class="st17" d="M65,45.2c-0.3,2.1-0.5,4.3-0.5,6.5l0,0l0.4-0.2l1.3,4l-1.5-0.6c0,0.2,0,0.4,0,0.6
		c0,0,0,0.1,0,0.1l0,0l2,0.4c0,0,0.1,0,0.1,0c0.4,0,0.7-0.5,0.5-1.2l-1.5-6.1l-0.1,0l0-0.3L65,45.2 M59.5,38.8
		c-0.4,0.2-0.7,0.6-1,1.1L55,46c-1.3,2.3-0.4,5.8,1.5,7.4c0.3-0.6,0.5-1.2,0.8-1.9c0-0.1,0-0.1,0.1-0.1l0,0l-0.5-0.2l0.3-2l1.1-0.8
		c0.2-0.7,0.3-1.4,0.5-2.2l0,0C59.2,43.8,59.4,41.4,59.5,38.8"/>
	<path id="XMLID_379_" class="st19" d="M55,52.1L55,52.1L55,52.1L55,52.1 M54.8,51.5c0,0.1,0.1,0.1,0.1,0.2
		C54.8,51.7,54.8,51.6,54.8,51.5 M54.7,51.2c0,0,0,0.1,0,0.1C54.7,51.2,54.7,51.2,54.7,51.2 M54.1,47.5c0,0.8,0,1.6,0.2,2.4
		c0,0.2,0.1,0.3,0.1,0.5C54.2,49.5,54.1,48.5,54.1,47.5 M54.8,44.8L54.8,44.8L54.8,44.8L54.8,44.8 M59.4,36.4L59.4,36.4l-4.5,8.1
		l0,0l0,0L59.4,36.4L59.4,36.4L59.4,36.4"/>
	<path id="XMLID_390_" class="st21" d="M71.2,58.5L71.2,58.5L71.2,58.5L71.2,58.5L71.2,58.5 M71.4,58.4c0,0-0.1,0-0.1,0L71.4,58.4
		L71.4,58.4 M71.6,58.3C71.6,58.4,71.5,58.4,71.6,58.3L71.6,58.3L71.6,58.3 M71.9,58c0,0.1-0.1,0.1-0.1,0.2
		C71.8,58.1,71.8,58.1,71.9,58L71.9,58 M71.9,57.8L71.9,57.8L71.9,57.8L71.9,57.8 M72,57.7L72,57.7L72,57.7 M71.9,56.4l0.1,0.4l0,0
		l0,0L71.9,56.4"/>
	<path id="XMLID_395_" class="st22" d="M67.1,37.5c-0.3,0.8-0.6,1.7-0.9,2.5c0.1,0.3,0.2,0.5,0.2,0.8l1.7,7.2l0,0.2l0,0l0.5,1.5
		l-0.1,0l0,0l1.5,6.2c0.2,0.8-0.1,1.4-0.7,1.4c0,0-0.1,0-0.1,0l-4.5-1c0,0.2,0.1,0.4,0.1,0.7l6.2,1.4c0,0,0.1,0,0.1,0l0,0l0,0l0,0
		c0,0,0.1,0,0.1,0l0.1,0l0,0c0,0,0.1,0,0.1-0.1c0,0,0.1-0.1,0.1-0.1l0,0l0.1-0.1l0,0c0-0.1,0.1-0.1,0.1-0.2l0,0l0,0l0-0.1l0,0l0,0
		l0-0.1l0,0l0-0.1c0-0.1,0-0.1,0-0.2c0-0.1,0-0.1,0-0.2c0-0.1,0-0.1,0-0.2c0-0.1,0-0.1,0-0.2l0,0l0,0l-0.1-0.4L69.6,47l-1.7-7.2
		c0-0.2-0.1-0.4-0.1-0.5c-0.1-0.2-0.1-0.5-0.2-0.7c-0.1-0.2-0.1-0.3-0.2-0.5C67.2,37.9,67.2,37.7,67.1,37.5 M59.4,36.4l-4.5,8.1l0,0
		c0,0.1-0.1,0.2-0.1,0.3l0,0.1c0,0.1-0.1,0.2-0.1,0.3c-0.3,0.8-0.5,1.6-0.5,2.4c0,1,0.1,2,0.3,2.9l0,0.1c0,0.2,0.1,0.3,0.1,0.5
		c0,0,0,0.1,0,0.1c0,0,0,0.1,0,0.1c0,0,0,0.1,0,0.1c0,0,0,0.1,0,0.1l0,0c0,0.1,0.1,0.1,0.1,0.2l0,0c0.1,0.1,0.1,0.2,0.2,0.4l0,0l0,0
		c0.1,0.2,0.2,0.3,0.3,0.5c0.1,0.2,0.2,0.3,0.3,0.5c0.1,0.2,0.2,0.3,0.3,0.5c0.1,0.1,0.2,0.3,0.3,0.4c0-0.1,0.1-0.2,0.1-0.3
		c-2-2.1-2.9-6.1-1.4-8.7l4.2-7.4c0.1-0.2,0.2-0.4,0.3-0.5C59.5,36.9,59.4,36.7,59.4,36.4"/>
	<polyline id="XMLID_396_" class="st3" points="58.5,48.2 59.7,52.2 56.8,51.2 57.2,49.1 58.5,48.2 	"/>
	<path id="XMLID_398_" class="st23" d="M58.3,48.4l-1.1,0.8l0.7,0.8l0,0C58,49.4,58.1,48.9,58.3,48.4L58.3,48.4"/>
	<polyline id="XMLID_399_" class="st3" points="63,36.4 64.2,40.4 61.3,39.3 61.7,37.3 63,36.4 	"/>
	<polyline id="XMLID_402_" class="st3" points="67.4,45.8 68.6,49.8 65.7,48.7 66.1,46.6 67.4,45.8 	"/>
	<polyline id="XMLID_403_" class="st23" points="67.4,45.8 66.1,46.6 68.6,49.8 68.2,48.3 67.4,45.8 	"/>
	<polyline id="XMLID_404_" class="st3" points="61,42.7 62.2,46.2 59.6,45.3 59.9,43.5 61,42.7 	"/>
	<polyline id="XMLID_406_" class="st3" points="64.8,51.4 66.1,55.4 63.2,54.4 63.5,52.3 64.8,51.4 	"/>
	<path id="XMLID_407_" class="st23" d="M64.8,51.4l-0.4,0.2l0,0c0,0.6,0,1.2,0,1.8l0,0l1.6,1.9L64.8,51.4"/>
	<path id="XMLID_409_" class="st16" d="M70.7,64.1l-12.1-2.7c-3.8-0.9-5.9,4.7-3.6,9.6l5.1,10.6c2.3,4.8,7.1,4.8,8.2,0l3.4-15.4
		C71.9,65.3,71.4,64.2,70.7,64.1"/>
	<path id="XMLID_414_" class="st17" d="M68.2,69.4L68.2,69.4c0.3,0.8,0.6,1.5,1,2.3l0,0c0,0.1,0.1,0.1,0.1,0.2l0.2-0.9
		c0.1-0.6-0.2-1.4-0.7-1.5L68.2,69.4"/>
	<polyline id="XMLID_415_" class="st21" points="66,63 66,63 67.5,63.4 66,63 	"/>
	<polyline id="XMLID_416_" class="st20" points="70.2,72.8 70.1,73.4 70.2,72.8 70.2,72.8 	"/>
	<path id="XMLID_421_" class="st21" d="M71.1,64.3c0.5,0.4,0.8,1.2,0.6,1.9l-1.5,6.7l0,0l0,0l1.5-6.6C71.8,65.4,71.5,64.6,71.1,64.3
		"/>
	<path id="XMLID_422_" class="st22" d="M66,63c0.2,0.9,0.5,1.8,0.8,2.6l3,0.7c0.6,0.1,1,1,0.9,1.8l-0.9,4.2l-0.1,0.4
		c0.1,0.2,0.2,0.5,0.4,0.7l0-0.1l0.1-0.7l1.5-6.7c0.2-0.7-0.1-1.5-0.6-1.9c-0.1-0.1-0.2-0.2-0.4-0.2l-3.2-0.7L66,63"/>
	<polyline id="XMLID_423_" class="st3" points="63.1,78.4 66,78.7 64.9,82.1 63.5,80.7 63.1,78.4 	"/>
	<polyline id="XMLID_424_" class="st3" points="55.6,66.4 58.5,66.7 57.4,70.1 56,68.7 55.6,66.4 	"/>
	<polyline id="XMLID_426_" class="st3" points="62.6,65 65.5,65.2 64.3,68.7 63,67.2 62.6,65 	"/>
	<polyline id="XMLID_427_" class="st3" points="59.7,72.2 62.2,72.4 61.3,75.5 60.1,74.2 59.7,72.2 	"/>
	<polyline id="XMLID_430_" class="st3" points="66.1,71.3 69,71.5 67.9,75 66.5,73.5 66.1,71.3 	"/>
	<path id="XMLID_431_" class="st16" d="M75.5,69.4L72,84.8c-1.1,4.8,2.5,10.4,6.1,9.6l7.9-1.9c3.6-0.8,4.2-7.4,1.1-11.3L77,69
		C76.4,68.3,75.7,68.5,75.5,69.4"/>
	<path id="XMLID_439_" class="st17" d="M79.6,88.5L79.6,88.5l0.5-3.4l2,2.8l-1,1L79.6,88.5 M84.3,86.9L84.3,86.9l0.5-3.9l2.2,3.2
		l-1.2,1.1L84.3,86.9 M79.8,79.2L79.8,79.2l0.5-3.9l2.2,3.2l-1.2,1.1L79.8,79.2 M79.5,74.1c-0.3,0-0.5,0.2-0.6,0.6l-1.2,5.5l0.1,0.1
		l-0.2,0.1l-0.9,4.2l0,0c0.3,0.5,0.7,1,1,1.5c1.4,2.1,3,4.1,4.5,6.1l0,0l4.2-1c2.6-0.6,3-5.3,0.8-8.1L80,74.4
		C79.8,74.2,79.7,74.1,79.5,74.1"/>
	<path id="XMLID_440_" class="st21" d="M76.2,68.6c-0.1,0-0.2,0-0.3,0.1C76,68.6,76.1,68.6,76.2,68.6c0.2,0,0.5,0.1,0.7,0.4
		C76.7,68.7,76.5,68.6,76.2,68.6"/>
	<path id="XMLID_441_" class="st19" d="M82.1,75.3L82.1,75.3l4.9,6c0.1,0.1,0.2,0.2,0.3,0.3c-0.1-0.1-0.2-0.2-0.3-0.3L82.1,75.3"/>
	<polyline id="XMLID_443_" class="st20" points="81.2,74.2 81.2,74.2 82.1,75.3 82.1,75.3 82.1,75.3 81.2,74.2 81.2,74.2 	"/>
	<polyline id="XMLID_444_" class="st21" points="78.1,70.3 81.2,74.2 81.2,74.2 78.1,70.3 	"/>
	<polyline id="XMLID_446_" class="st20" points="73.9,76.6 73.2,79.4 73.2,79.4 73.9,76.6 	"/>
	<polyline id="XMLID_448_" class="st19" points="87.3,81.7 87.4,81.7 87.3,81.7 	"/>
	<path id="XMLID_467_" class="st18" d="M87.4,91.8c-0.4,0.3-0.9,0.6-1.4,0.7l-3,0.7l0,0l3-0.7c0.3-0.1,0.6-0.2,0.9-0.4
		c0.1-0.1,0.3-0.2,0.4-0.3C87.3,91.8,87.3,91.8,87.4,91.8 M88.6,90c-0.2,0.6-0.6,1.1-1,1.6l0,0c0.2-0.2,0.3-0.4,0.5-0.6
		C88.2,90.7,88.4,90.4,88.6,90 M88.8,89.3c0,0.1,0,0.1-0.1,0.2C88.8,89.4,88.8,89.4,88.8,89.3 M89.1,87.3c0,0.7-0.1,1.4-0.3,2
		c0-0.1,0-0.2,0.1-0.3c0-0.2,0.1-0.3,0.1-0.5c0-0.2,0.1-0.5,0.1-0.8C89.1,87.6,89.1,87.5,89.1,87.3 M89,86.5c0,0.1,0,0.3,0,0.4
		C89.1,86.8,89.1,86.6,89,86.5 M88.9,85.6c0,0.1,0,0.1,0,0.2C89,85.7,88.9,85.6,88.9,85.6 M88.8,84.8c0.1,0.2,0.1,0.4,0.1,0.7
		C88.9,85.2,88.8,85,88.8,84.8 M88.6,84.1c0,0.1,0,0.1,0.1,0.2l0-0.1C88.6,84.1,88.6,84.1,88.6,84.1 M88.4,83.6L88.4,83.6L88.4,83.6
		"/>
	<path id="XMLID_468_" class="st22" d="M76.2,68.6c-0.1,0-0.2,0-0.3,0.1c-0.2,0.1-0.4,0.3-0.5,0.7l-1.3,5.9l-0.3,1.3l-0.6,2.7l0,0
		c0.4,0.7,0.9,1.4,1.3,2.2c0,0,0.1,0.1,0.1,0.1l0-0.2l0.6-2.9l0,0l0.2-1.5l0.1,0.1l0,0l0.3-1.5l0.9-4.1c0.1-0.4,0.4-0.7,0.7-0.7
		c0.2,0,0.4,0.1,0.7,0.4l2.6,3.2l1,1.2l5.3,6.4l0.1,0.1c2.7,3.4,2.2,9.1-1,9.9l-3.5,0.8c0.1,0.1,0.2,0.2,0.3,0.3l0,0l3-0.7
		c0.5-0.1,1-0.4,1.4-0.7c0.1-0.1,0.1-0.1,0.2-0.2c0.4-0.4,0.8-1,1-1.6c0-0.1,0.1-0.1,0.1-0.2c0-0.1,0.1-0.2,0.1-0.3l0-0.1
		c0-0.1,0-0.1,0.1-0.2l0,0l0,0c0.2-0.6,0.3-1.3,0.3-2l0,0c0-0.1,0-0.2,0-0.3l0-0.1c0-0.1,0-0.3,0-0.4c0-0.1,0-0.1,0-0.2
		c0-0.1,0-0.1,0-0.2c0-0.1,0-0.2,0-0.3c0-0.1,0-0.1,0-0.2c0-0.1,0-0.1,0-0.2l0-0.1l0-0.1c0-0.2-0.1-0.4-0.1-0.7
		c0-0.1-0.1-0.2-0.1-0.3c0-0.1,0-0.2-0.1-0.3c0-0.1,0-0.1-0.1-0.2c0,0,0-0.1,0-0.1c0-0.1,0-0.1-0.1-0.2c0,0,0-0.1,0-0.1l0-0.1l0-0.1
		c-0.1-0.3-0.3-0.6-0.4-0.9c-0.1-0.1-0.1-0.2-0.2-0.3c0,0,0-0.1-0.1-0.1c-0.1-0.1-0.1-0.2-0.2-0.3l0,0l0,0l-0.1-0.1l-0.1-0.1l0,0
		l0-0.1c-0.1-0.1-0.2-0.2-0.3-0.3l-4.9-6l-0.9-1.1l-3.2-3.9L77,69L76.9,69C76.7,68.7,76.5,68.6,76.2,68.6"/>
	<polyline id="XMLID_469_" class="st3" points="84.3,86.9 84.8,83 87,86.2 85.8,87.4 84.3,86.9 	"/>
	<polyline id="XMLID_470_" class="st23" points="84.8,83 84.3,86.9 85.8,87.4 84.8,83 	"/>
	<polyline id="XMLID_475_" class="st3" points="75.1,91.3 75.7,87.4 77.9,90.6 76.7,91.8 75.1,91.3 	"/>
	<polyline id="XMLID_476_" class="st3" points="75,81 75.6,77.1 77.8,80.4 76.6,81.5 75,81 	"/>
	<polyline id="XMLID_478_" class="st23" points="75.6,77.1 75,81 76.6,81.5 75.6,77.1 	"/>
	<polyline id="XMLID_479_" class="st3" points="79.6,88.5 80,85.1 82,87.9 81,88.9 79.6,88.5 	"/>
	<polyline id="XMLID_481_" class="st23" points="80,85.1 79.6,88.5 81,88.9 80,85.1 	"/>
	<polyline id="XMLID_482_" class="st3" points="79.8,79.2 80.3,75.4 82.5,78.6 81.3,79.7 79.8,79.2 	"/>
	<polyline id="XMLID_484_" class="st23" points="80.3,75.4 79.8,79.2 81.3,79.7 80.3,75.4 	"/>
	<path id="XMLID_485_" class="st16" d="M79.7,65.4l10,12.2c3.2,3.8,7.4,1.7,7.3-3.6l-0.2-11.7c-0.1-5.4-4.5-9.4-7.5-7l-9.6,7.8
		C79.1,63.6,79.1,64.7,79.7,65.4"/>
	<path id="XMLID_493_" class="st17" d="M93.2,69.1L91,66.8l2.2-1.3l0.5,1.9L93.2,69.1 M86.9,64.3l-2.6-2.6l2.5-1.5l0.6,2.2
		L86.9,64.3 M92.7,61.8l-2.6-2.6l2.5-1.5l0.6,2.2L92.7,61.8 M92.1,55.4c-0.5,0-1,0.2-1.4,0.5l-6.9,5.6c-0.4,0.3-0.4,1.1,0,1.6
		l3.6,4.4l0.1-0.1l0.1,0.3l3.4,4.2c0.6,0.8,1.3,1.2,2,1.3l1.5-0.9l0.2,0.6c0.9-0.6,1.6-1.9,1.6-3.7L96,61C96,57.9,94,55.4,92.1,55.4
		"/>
	<path id="XMLID_494_" class="st18" d="M91.2,54.6c-0.1,0-0.1,0-0.2,0l0,0l0,0C91,54.6,91.1,54.6,91.2,54.6L91.2,54.6
		C91.2,54.6,91.2,54.6,91.2,54.6"/>
	<path id="XMLID_496_" class="st19" d="M90.9,54.6c-0.6,0.1-1.2,0.3-1.7,0.7L86,57.9l0,0l3.2-2.6C89.8,54.9,90.4,54.6,90.9,54.6
		L90.9,54.6"/>
	<path id="XMLID_505_" class="st18" d="M95,56.9C95,56.9,95.1,57,95,56.9C95.1,57,95,56.9,95,56.9 M94.7,56.5
		c0.1,0.1,0.2,0.2,0.3,0.4C94.9,56.7,94.8,56.6,94.7,56.5 M94.3,56c0.1,0.1,0.2,0.2,0.3,0.4l0,0C94.5,56.3,94.4,56.1,94.3,56
		 M91.8,54.6c0,0,0.1,0,0.1,0C91.9,54.6,91.9,54.6,91.8,54.6 M91.3,54.6L91.3,54.6C91.3,54.6,91.3,54.6,91.3,54.6L91.3,54.6"/>
	<polyline id="XMLID_508_" class="st20" points="84.9,58.8 84.8,59 84.8,59 84.9,58.8 	"/>
	<polyline id="XMLID_509_" class="st21" points="84.8,59 84.8,59 84.5,59.2 84.8,59 84.8,59 	"/>
	<path id="XMLID_515_" class="st18" d="M96.5,60.1c0.2,0.7,0.3,1.4,0.3,2.2l0.2,8.4l-0.2-8.4c0-0.3,0-0.6-0.1-1
		C96.7,60.9,96.6,60.5,96.5,60.1 M96.2,59.3c0,0.1,0.1,0.3,0.1,0.4C96.3,59.5,96.3,59.4,96.2,59.3 M96.1,59c0,0,0,0.1,0,0.1L96.1,59
		L96.1,59"/>
	<path id="XMLID_524_" class="st21" d="M79.3,64.3c0,0.3,0.1,0.7,0.3,1c0,0.1,0.1,0.1,0.1,0.2l1.1,1.3l-1.1-1.3
		C79.4,65.1,79.3,64.7,79.3,64.3 M79.3,63.9L79.3,63.9c0,0.1,0,0.1,0,0.2C79.3,64.1,79.3,64,79.3,63.9"/>
	<polyline id="XMLID_525_" class="st19" points="84.2,71 84.2,71 84.2,71 84.9,71.8 84.2,71 	"/>
	<polyline id="XMLID_527_" class="st20" points="84.2,70.9 84.2,71 84.2,71 84.2,70.9 	"/>
	<path id="XMLID_528_" class="st18" d="M96.9,75.6c0,0.1,0,0.2-0.1,0.3C96.9,75.8,96.9,75.7,96.9,75.6L96.9,75.6"/>
	<path id="XMLID_533_" class="st22" d="M85.1,69l-0.2-0.2l-0.2-0.3l-3.3-4c-0.5-0.6-0.5-1.6,0-2l3.5-2.9l1.1-0.9l3.8-3.1
		c0.4-0.3,0.8-0.5,1.2-0.6l0,0c0.2,0,0.4-0.1,0.5-0.1c2.3,0,4.8,3,4.9,6.8l0.2,10.4c0.1,3.1-1.5,4.9-3.4,4.9c-0.8,0-1.7-0.3-2.5-1.1
		c-0.2-0.2-0.4-0.4-0.6-0.7L86,70.1l-1-1L85.1,69 M91.2,54.6c-0.1,0-0.2,0-0.3,0c-0.6,0.1-1.2,0.3-1.7,0.7L86,57.9l0,0l0,0l-1.1,0.9
		L84.8,59l-0.3,0.2l-4.8,4c-0.1,0.1-0.2,0.2-0.2,0.3c-0.1,0.1-0.1,0.3-0.2,0.5c0,0.1,0,0.1,0,0.2l0,0c0,0,0,0.1,0,0.1
		c0,0.4,0.2,0.8,0.4,1.1l1.1,1.3l3.2,3.9l0.3,0.3l0,0l0.7,0.9l4.8,5.8c0.1,0.1,0.2,0.2,0.3,0.4c0.1,0.1,0.3,0.3,0.4,0.4
		c0.1,0.1,0.2,0.2,0.3,0.2c0.2,0.1,0.3,0.2,0.5,0.3c0.1,0,0.2,0.1,0.2,0.1c0.1,0,0.2,0.1,0.2,0.1c0.1,0,0.2,0.1,0.2,0.1
		c0.1,0,0.2,0.1,0.2,0.1c0.1,0,0.3,0.1,0.4,0.1c0.1,0,0.1,0,0.2,0l0,0c0.1,0,0.1,0,0.2,0c0.1,0,0.2,0,0.2,0c1.4,0,2.6-0.9,3.3-2.5
		c0.1-0.3,0.2-0.6,0.3-0.9c0-0.1,0-0.2,0.1-0.3c0-0.1,0-0.2,0.1-0.3c0.1-0.3,0.1-0.7,0.1-1c0-0.2,0-0.4,0-0.6l-0.1-3.4l-0.2-8.4
		c0-0.8-0.1-1.5-0.3-2.2l0,0c0-0.1-0.1-0.2-0.1-0.3l0,0c0-0.1-0.1-0.3-0.1-0.4c0,0,0-0.1,0-0.1l0,0c0,0,0-0.1,0-0.1
		c-0.1-0.3-0.2-0.5-0.3-0.8c0-0.1-0.1-0.2-0.1-0.3c-0.1-0.2-0.2-0.4-0.3-0.5c-0.1-0.1-0.1-0.2-0.2-0.3c0,0,0-0.1-0.1-0.1
		c0,0,0-0.1-0.1-0.1l0,0l0,0c-0.1-0.1-0.2-0.3-0.3-0.4l-0.1-0.1l0,0c-0.1-0.1-0.2-0.2-0.3-0.4L94.2,56c-0.1-0.1-0.1-0.1-0.2-0.2
		c-0.1-0.1-0.3-0.2-0.4-0.3c-0.1-0.1-0.1-0.1-0.2-0.2c-0.1-0.1-0.3-0.2-0.4-0.3c-0.1,0-0.2-0.1-0.2-0.1c-0.1,0-0.2-0.1-0.2-0.1
		c-0.1,0-0.2-0.1-0.3-0.1c-0.1,0-0.1,0-0.2-0.1l0,0c0,0-0.1,0-0.1,0c0,0-0.1,0-0.1,0c-0.1,0-0.2,0-0.3,0l-0.1,0
		C91.3,54.6,91.3,54.6,91.2,54.6L91.2,54.6L91.2,54.6L91.2,54.6"/>
	<polyline id="XMLID_534_" class="st3" points="92.7,61.8 90.2,59.2 92.6,57.7 93.3,59.9 92.7,61.8 	"/>
	<polyline id="XMLID_541_" class="st23" points="90.2,59.2 92.7,61.8 93.3,59.9 90.2,59.2 	"/>
	<polyline id="XMLID_542_" class="st3" points="94.6,76.6 92,74 94.5,72.5 95.1,74.7 94.6,76.6 	"/>
	<polyline id="XMLID_543_" class="st23" points="92,74 94.6,76.6 95.1,74.7 92,74 	"/>
	<polyline id="XMLID_544_" class="st3" points="87.6,71.7 85,69.1 87.5,67.6 88.1,69.8 87.6,71.7 	"/>
	<polyline id="XMLID_545_" class="st23" points="85,69.1 87.6,71.7 88.1,69.8 85,69.1 	"/>
	<polyline id="XMLID_546_" class="st3" points="93.2,69.1 91,66.8 93.2,65.5 93.7,67.4 93.2,69.1 	"/>
	<polyline id="XMLID_574_" class="st23" points="91,66.8 93.2,69.1 93.7,67.4 91,66.8 	"/>
	<polyline id="XMLID_575_" class="st3" points="86.9,64.3 84.4,61.7 86.9,60.2 87.5,62.4 86.9,64.3 	"/>
	<polyline id="XMLID_577_" class="st23" points="84.4,61.7 86.9,64.3 87.5,62.4 84.4,61.7 	"/>
	<path id="XMLID_581_" class="st24" d="M42.7,65.2L42.7,65.2c-0.4,0.1-0.7,0.1-1.1,0.2c0.2,1.3,0.5,2.6,0.7,3.9
		c5.4,24.8,22.3,43,39.2,43c1.4,0,2.7-0.1,4.1-0.4c4.8-0.9,9.1-3.3,12.6-6.8c-0.5-0.2-1-0.4-1.6-0.6c-1,0.9-2,1.7-3.1,2.4l0,0
		c-0.2,0.1-0.4,0.3-0.6,0.4c-0.1,0-0.1,0.1-0.2,0.1c-0.1,0-0.1,0.1-0.2,0.1c-0.2,0.1-0.4,0.2-0.6,0.4c-0.1,0.1-0.2,0.1-0.3,0.2
		c-0.1,0-0.2,0.1-0.2,0.1c-0.1,0.1-0.2,0.1-0.3,0.2c-0.5,0.3-1.1,0.5-1.7,0.7c-0.1,0-0.2,0.1-0.2,0.1c-0.2,0.1-0.5,0.2-0.7,0.2
		c-0.1,0-0.2,0.1-0.3,0.1c-0.1,0-0.3,0.1-0.4,0.1c-0.8,0.3-1.7,0.5-2.5,0.6l0,0l0,0l0,0c-0.1,0-0.2,0-0.3,0.1l0,0l0,0
		c-1.2,0.2-2.4,0.3-3.6,0.3c-0.4,0-0.8,0-1.2,0c-0.5,0-0.9-0.1-1.4-0.1c-0.1,0-0.3,0-0.4-0.1c-2-0.3-4-0.8-5.9-1.5
		c-2-0.8-3.9-1.7-5.8-3c-2.5-1.6-4.9-3.6-7.2-5.9c-0.1-0.1-0.1-0.1-0.2-0.2c-0.2-0.2-0.3-0.3-0.5-0.5c-0.3-0.3-0.6-0.6-0.9-1
		c-0.2-0.3-0.5-0.5-0.7-0.8l-0.1-0.1c-0.6-0.7-1.2-1.4-1.7-2.2c-0.7-0.9-1.4-1.9-2-2.8c-0.6-0.9-1.2-1.8-1.8-2.8l0-0.1
		c-0.2-0.3-0.4-0.6-0.6-1c-0.1-0.2-0.2-0.4-0.3-0.5c-0.3-0.5-0.5-1-0.8-1.5c-0.2-0.3-0.3-0.6-0.5-0.9c-0.3-0.7-0.7-1.4-1-2.1
		c-0.3-0.6-0.5-1.2-0.8-1.8c-0.5-1.2-1-2.3-1.4-3.6C46.1,78.4,46,78.2,46,78c-0.3-0.7-0.5-1.4-0.7-2.2l0-0.1
		c-0.1-0.2-0.1-0.3-0.2-0.5c-0.1-0.4-0.2-0.8-0.4-1.2c-0.1-0.4-0.2-0.7-0.3-1.1c-0.1-0.2-0.1-0.4-0.2-0.6c-0.1-0.2-0.1-0.5-0.2-0.7
		c-0.1-0.5-0.2-0.9-0.3-1.4c-0.1-0.4-0.2-0.8-0.3-1.1l0,0c-0.1-0.4-0.2-0.7-0.2-1.1c0-0.1,0-0.2-0.1-0.3c-0.1-0.3-0.1-0.7-0.2-1
		c-0.1-0.4-0.1-0.8-0.2-1.2l0,0C42.7,65.4,42.7,65.3,42.7,65.2L42.7,65.2 M68.8,14.4c-1.4,0-2.7,0.1-4.1,0.4c-3.3,0.6-6.3,1.9-9,3.7
		c0.2,0.5,0.4,1,0.6,1.5c0.1-0.1,0.2-0.2,0.4-0.2c0.2-0.2,0.5-0.3,0.7-0.5c0.5-0.3,0.9-0.5,1.4-0.8c0.2-0.1,0.3-0.2,0.5-0.3
		c1.8-0.9,3.7-1.5,5.8-1.9c0.2,0,0.5-0.1,0.7-0.1c0,0,0.1,0,0.1,0l0,0c0.5-0.1,1-0.1,1.6-0.2c0.5,0,1-0.1,1.5-0.1
		c0.6,0,1.2,0,1.8,0.1l0,0c0.8,0.1,1.7,0.2,2.5,0.3l0,0c0.4,0.1,0.8,0.2,1.2,0.3c0.1,0,0.3,0.1,0.4,0.1c0.6,0.1,1.1,0.3,1.7,0.5
		c0.8,0.3,1.6,0.6,2.4,0.9l0,0c0.1,0.1,0.3,0.1,0.4,0.2c0.6,0.3,1.3,0.6,1.9,0.9c0.1,0,0.1,0.1,0.2,0.1c1.7,0.9,3.4,2,5,3.2l0,0
		c0.3,0,0.6,0,0.9,0c0.4,0,0.8,0,1.3,0C82.4,17.4,75.6,14.4,68.8,14.4"/>
	<path id="XMLID_617_" class="st25" d="M84.9,110.4c-1.2,0.2-2.4,0.3-3.6,0.3c-0.3,0-0.7,0-1,0c-0.1,0-0.2,0-0.2,0
		c0.4,0,0.8,0,1.2,0C82.5,110.7,83.7,110.6,84.9,110.4 M85,110.4L85,110.4L85,110.4 M85.3,110.3L85.3,110.3L85.3,110.3L85.3,110.3
		 M87.8,109.7c-0.1,0-0.1,0-0.2,0.1c-0.8,0.2-1.6,0.4-2.4,0.6C86.2,110.2,87,110,87.8,109.7 M88.5,109.5c0,0-0.1,0-0.1,0
		c0,0-0.1,0-0.1,0C88.4,109.6,88.5,109.5,88.5,109.5 M72.4,109c1.9,0.7,3.9,1.3,5.9,1.5c-0.4-0.1-0.8-0.1-1.3-0.2
		C75.5,110,73.9,109.6,72.4,109 M91.1,108.4c-0.1,0.1-0.3,0.1-0.4,0.2c-0.2,0.1-0.5,0.2-0.7,0.3c-0.2,0.1-0.3,0.1-0.5,0.2
		C90,108.9,90.6,108.7,91.1,108.4 M91.7,108.1L91.7,108.1c-0.1,0.1-0.2,0.1-0.2,0.1C91.5,108.2,91.6,108.1,91.7,108.1 M92.6,107.6
		c-0.2,0.1-0.3,0.2-0.5,0.3c-0.1,0-0.1,0.1-0.2,0.1C92.2,107.8,92.4,107.7,92.6,107.6 M93,107.4c0,0-0.1,0-0.1,0.1
		c0,0-0.1,0-0.1,0.1C92.9,107.4,92.9,107.4,93,107.4 M96.7,104.5L96.7,104.5c-0.2,0.2-0.4,0.4-0.6,0.6c-0.2,0.2-0.4,0.4-0.6,0.5
		c-0.2,0.2-0.4,0.3-0.6,0.5c-0.4,0.3-0.8,0.6-1.2,0.8C94.7,106.3,95.7,105.4,96.7,104.5L96.7,104.5 M59.4,100.2
		c2.3,2.3,4.7,4.3,7.2,5.9c-2.3-1.5-4.6-3.3-6.7-5.4C59.7,100.5,59.5,100.3,59.4,100.2 M57.8,98.5c0.3,0.3,0.6,0.6,0.9,1
		c-0.1-0.1-0.2-0.2-0.2-0.3c-0.2-0.2-0.4-0.4-0.5-0.6C57.9,98.6,57.9,98.5,57.8,98.5 M55.3,95.5c0.6,0.7,1.2,1.5,1.7,2.2
		c-0.4-0.5-0.9-1-1.3-1.5C55.6,95.9,55.5,95.7,55.3,95.5 M50.9,88.8c0.2,0.3,0.4,0.6,0.6,1C51.3,89.5,51.1,89.2,50.9,88.8
		 M49.8,86.8c0.3,0.5,0.5,1,0.8,1.5c-0.1-0.1-0.1-0.2-0.2-0.4C50.2,87.6,50,87.2,49.8,86.8 M46.1,78.5c0.4,1.2,0.9,2.4,1.4,3.6
		C47,80.9,46.6,79.8,46.1,78.5L46.1,78.5 M45.2,75.9c0.2,0.7,0.5,1.4,0.7,2.2c0-0.1-0.1-0.2-0.1-0.3c-0.1-0.2-0.2-0.5-0.2-0.7
		c-0.1-0.1-0.1-0.3-0.1-0.4C45.4,76.3,45.3,76.1,45.2,75.9L45.2,75.9 M45,75.3c0.1,0.2,0.1,0.3,0.2,0.5l0-0.1
		C45.1,75.6,45.1,75.5,45,75.3 M46,64.2c-0.7,0.3-1.4,0.5-2.1,0.7c0.1,0.5,0.2,0.9,0.3,1.4c3.1,14.2,10.4,25.8,19.3,32.2
		c-0.3-0.3-0.7-0.6-1-0.9l0,0l-0.1-0.1c-0.3-0.3-0.6-0.5-0.9-0.8l-0.1-0.1c-0.2-0.2-0.3-0.3-0.5-0.5c-0.1-0.1-0.3-0.3-0.4-0.4l0,0
		c-1.3-1.3-2.5-2.8-3.7-4.4c-0.1-0.2-0.2-0.3-0.3-0.5c-0.1-0.2-0.3-0.4-0.5-0.6c0,0,0-0.1-0.1-0.1c-0.2-0.3-0.4-0.6-0.6-0.9
		c-0.1-0.1-0.1-0.2-0.2-0.3c-0.2-0.4-0.5-0.7-0.7-1.1c-0.5-0.7-0.9-1.5-1.3-2.2c-0.1-0.2-0.3-0.5-0.4-0.7c-0.3-0.5-0.5-1-0.8-1.4
		c-0.1-0.1-0.1-0.2-0.2-0.3c-1-2-1.9-4-2.6-6.1c-0.1-0.3-0.2-0.5-0.3-0.8c0-0.1-0.1-0.1-0.1-0.2c0-0.1-0.1-0.3-0.1-0.4
		c0-0.1,0-0.1-0.1-0.2c-0.1-0.2-0.1-0.3-0.2-0.5c-0.2-0.6-0.4-1.2-0.5-1.7c-0.5-1.5-0.9-3.1-1.2-4.7C46.5,67,46.2,65.6,46,64.2
		 M81.4,19.3c0.1,0,0.1,0.1,0.2,0.1c0.2,0.1,0.4,0.2,0.6,0.4c0.2,0.1,0.4,0.2,0.7,0.4c0.8,0.5,1.6,1,2.4,1.6
		c0.2,0.1,0.3,0.2,0.5,0.4c0.2,0.1,0.4,0.3,0.6,0.4l0,0C84.7,21.3,83.1,20.2,81.4,19.3 M57.3,19.3c-0.2,0.2-0.5,0.3-0.7,0.5
		c0,0,0.1,0,0.1-0.1C56.9,19.6,57.1,19.4,57.3,19.3 M67.2,18.5c-1.2,0-2.4,0.1-3.6,0.3c-2.5,0.5-4.8,1.4-6.9,2.7
		c0.4,1.2,0.7,2.4,1,3.6l0.1,0c0.3-0.2,0.5-0.4,0.8-0.6c0.2-0.1,0.3-0.2,0.5-0.3c0.1-0.1,0.2-0.1,0.3-0.2l0.1,0l0.1,0l0.1,0
		c0.2-0.1,0.4-0.2,0.6-0.4c0,0,0.1,0,0.1-0.1l0,0c0.3-0.1,0.5-0.3,0.8-0.4l0.1,0c0,0,0.1,0,0.1-0.1c0.2-0.1,0.5-0.2,0.8-0.3l0.1,0
		l0,0c0.2-0.1,0.4-0.2,0.6-0.2c0,0,0.1,0,0.2-0.1c0.3-0.1,0.6-0.2,0.9-0.3c0.1,0,0.2-0.1,0.3-0.1l0.1,0c0.2-0.1,0.4-0.1,0.6-0.2
		c0.1,0,0.1,0,0.2,0l0.1,0c0.3-0.1,0.6-0.1,0.9-0.2l0,0l0,0c0.3-0.1,0.6-0.1,0.9-0.1l0,0c0,0,0.1,0,0.1,0c0,0,0.1,0,0.1,0
		c0.2,0,0.4-0.1,0.7-0.1c0.4,0,0.8-0.1,1.3-0.1c0.1,0,0.2,0,0.3,0c0.2,0,0.4,0,0.6,0c0.3,0,0.6,0,0.9,0c0.1,0,0.2,0,0.2,0
		c0.3,0,0.6,0,0.9,0.1c0,0,0.1,0,0.1,0c0.3,0,0.6,0.1,0.9,0.1l0,0c0.1,0,0.3,0.1,0.4,0.1c0.3,0.1,0.5,0.1,0.8,0.2
		c0.4,0.1,0.8,0.2,1.2,0.3c0.3,0.1,0.5,0.2,0.8,0.3c1.1,0.4,2.1,0.8,3.2,1.3c0.1,0,0.2,0.1,0.3,0.2l0,0c0,0,0.1,0,0.1,0.1l0,0
		c0.4-0.2,0.9-0.3,1.3-0.4C76.9,20.2,72.1,18.5,67.2,18.5 M79.4,18.3c0.6,0.2,1.1,0.5,1.6,0.8c0.1,0,0.1,0.1,0.2,0.1
		C80.6,18.9,80,18.6,79.4,18.3 M59.2,18.2c-0.2,0.1-0.3,0.2-0.5,0.3l0.1,0C58.9,18.4,59.1,18.3,59.2,18.2 M74.9,16.7
		c0.1,0,0.1,0,0.2,0.1c0.2,0.1,0.4,0.1,0.6,0.2l0.1,0c0.3,0.1,0.5,0.2,0.8,0.2l0,0C76,17.1,75.4,16.9,74.9,16.7 M73.2,16.4
		c0,0,0.1,0,0.1,0c0.2,0,0.4,0.1,0.6,0.1c0.2,0,0.3,0.1,0.5,0.1C74.1,16.6,73.6,16.5,73.2,16.4 M65.8,16.2c0,0-0.1,0-0.1,0
		C65.7,16.2,65.8,16.2,65.8,16.2L65.8,16.2 M70.8,16.1L70.8,16.1c0.2,0,0.4,0,0.6,0.1c0.1,0,0.3,0,0.4,0c0.2,0,0.4,0.1,0.6,0.1
		l0.1,0c0.2,0,0.5,0.1,0.7,0.1c0,0,0.1,0,0.1,0C72.4,16.2,71.6,16.1,70.8,16.1 M69,16c-0.5,0-1,0-1.5,0.1l0,0c0.3,0,0.6,0,0.8,0
		C68.5,16,68.7,16,69,16C69,16,69,16,69,16c0.1,0,0.2,0,0.3,0c0.2,0,0.3,0,0.5,0l0.1,0c0.1,0,0.1,0,0.2,0c0.2,0,0.4,0,0.6,0l0,0l0,0
		C70.1,16,69.5,16,69,16"/>
	<path id="XMLID_646_" class="st26" d="M78.3,110.5c0.1,0,0.3,0,0.4,0.1c0.5,0.1,0.9,0.1,1.4,0.1C79.5,110.6,78.9,110.6,78.3,110.5
		 M84.9,110.4L84.9,110.4L84.9,110.4 M85.3,110.3c-0.1,0-0.2,0-0.3,0.1C85.1,110.4,85.2,110.4,85.3,110.3L85.3,110.3 M85.3,110.3
		L85.3,110.3L85.3,110.3 M88.3,109.6c-0.1,0-0.3,0.1-0.4,0.1C88,109.7,88.1,109.6,88.3,109.6 M89.5,109.1c-0.3,0.1-0.6,0.2-0.9,0.3
		c0.2-0.1,0.5-0.2,0.7-0.2C89.3,109.2,89.4,109.2,89.5,109.1 M91.5,108.2c-0.1,0.1-0.2,0.1-0.3,0.2
		C91.2,108.3,91.4,108.3,91.5,108.2 M92,107.9c-0.1,0.1-0.2,0.1-0.3,0.2C91.8,108.1,91.9,108,92,107.9 M92.8,107.5
		c-0.1,0-0.1,0.1-0.2,0.1C92.7,107.5,92.7,107.5,92.8,107.5 M93.6,107c-0.2,0.1-0.4,0.3-0.6,0.4C93.2,107.2,93.4,107.1,93.6,107
		L93.6,107 M66.6,106c1.9,1.2,3.8,2.2,5.8,3C70.4,108.2,68.5,107.2,66.6,106 M58.7,99.5c0.2,0.2,0.3,0.3,0.5,0.5
		c0.1,0.1,0.1,0.1,0.2,0.2C59.2,99.9,58.9,99.7,58.7,99.5 M57.1,97.6L57.1,97.6c0.3,0.3,0.5,0.6,0.8,0.9
		C57.6,98.2,57.3,97.9,57.1,97.6 M51.5,89.8L51.5,89.8c0.6,1,1.2,1.9,1.8,2.8c0.7,1,1.3,1.9,2,2.8C54,93.7,52.7,91.8,51.5,89.8
		 M50.6,88.3c0.1,0.2,0.2,0.4,0.3,0.5C50.8,88.7,50.7,88.5,50.6,88.3 M47.5,82.1c0.3,0.6,0.5,1.2,0.8,1.8c0.3,0.7,0.7,1.4,1,2.1
		c0.2,0.3,0.3,0.6,0.5,0.9C49,85.3,48.2,83.7,47.5,82.1 M46,78c0.1,0.2,0.1,0.3,0.2,0.5C46.1,78.4,46,78.2,46,78 M45.2,75.8
		L45.2,75.8L45.2,75.8 M42.7,65.2L42.7,65.2c0,0.1,0,0.2,0,0.3l0,0c0.1,0.4,0.1,0.8,0.2,1.2c0.1,0.3,0.1,0.7,0.2,1
		c0,0.1,0,0.2,0.1,0.3c0.1,0.4,0.1,0.7,0.2,1.1l0,0c0.1,0.4,0.2,0.8,0.3,1.1c0.1,0.5,0.2,0.9,0.3,1.4c0.1,0.2,0.1,0.5,0.2,0.7
		c0.1,0.2,0.1,0.4,0.2,0.6c0.1,0.4,0.2,0.7,0.3,1.1c0.1,0.4,0.2,0.8,0.4,1.2c-0.6-2-1.2-4.1-1.6-6.2C43.1,67.8,42.9,66.5,42.7,65.2
		 M56.6,19.8c-0.1,0.1-0.2,0.2-0.4,0.2l0,0C56.4,19.9,56.5,19.9,56.6,19.8 M81.2,19.2c0.1,0,0.1,0.1,0.2,0.1
		C81.3,19.3,81.3,19.3,81.2,19.2 M58.7,18.5c-0.5,0.2-0.9,0.5-1.4,0.8C57.8,19,58.2,18.8,58.7,18.5 M76.6,17.2
		c0.9,0.3,1.9,0.7,2.8,1.1c-0.1-0.1-0.3-0.1-0.4-0.2l0,0C78.1,17.8,77.4,17.5,76.6,17.2 M74.5,16.6c0.1,0,0.3,0.1,0.4,0.1
		C74.7,16.7,74.6,16.7,74.5,16.6 M73.2,16.4L73.2,16.4L73.2,16.4 M65.7,16.2c-0.2,0-0.5,0.1-0.7,0.1c-2,0.4-3.9,1-5.8,1.9
		c1.8-0.9,3.7-1.5,5.8-1.9C65.2,16.3,65.5,16.3,65.7,16.2 M70.7,16.1L70.7,16.1L70.7,16.1 M67.4,16c-0.5,0-1,0.1-1.6,0.2l0,0
		C66.4,16.1,66.9,16.1,67.4,16"/>
	<path id="XMLID_649_" class="st27" d="M43.9,64.9c-0.4,0.1-0.8,0.2-1.3,0.3l0,0c0.2,1.3,0.4,2.6,0.7,3.9c0.5,2.1,1,4.2,1.6,6.2
		c0,0.2,0.1,0.3,0.1,0.5l0,0.1l0,0.1l0,0c0.1,0.2,0.1,0.4,0.2,0.7c0,0.1,0.1,0.3,0.1,0.4c0.1,0.2,0.2,0.5,0.2,0.7
		c0,0.1,0.1,0.2,0.1,0.3c0.1,0.2,0.1,0.3,0.2,0.5l0,0.1c0.4,1.2,0.9,2.3,1.4,3.5c0.7,1.6,1.5,3.2,2.3,4.8c0.2,0.4,0.4,0.7,0.6,1.1
		c0.1,0.1,0.1,0.3,0.2,0.4c0.1,0.2,0.2,0.4,0.3,0.5c0.2,0.3,0.4,0.6,0.6,1c1.2,2,2.5,3.9,3.8,5.7c0.2,0.2,0.3,0.4,0.5,0.6
		c0.4,0.5,0.8,1,1.3,1.5c0.3,0.3,0.5,0.6,0.8,0.9c0,0,0.1,0.1,0.1,0.1c0.2,0.2,0.4,0.4,0.5,0.6c0.1,0.1,0.2,0.2,0.2,0.3
		c0.2,0.2,0.4,0.5,0.7,0.7c0.2,0.2,0.3,0.3,0.5,0.5c2.1,2.1,4.4,3.9,6.7,5.4c1.9,1.2,3.8,2.2,5.8,3c1.5,0.6,3.1,1,4.7,1.3
		c0.4,0.1,0.8,0.1,1.3,0.2c0.6,0.1,1.2,0.1,1.8,0.2c0.1,0,0.2,0,0.2,0c0.3,0,0.7,0,1,0c1.2,0,2.4-0.1,3.6-0.3l0,0l0,0
		c0.1,0,0.2,0,0.3-0.1l0,0l0,0c0.8-0.1,1.6-0.3,2.4-0.6c0.1,0,0.1,0,0.2-0.1c0.1,0,0.3-0.1,0.4-0.1c0,0,0.1,0,0.1,0c0,0,0.1,0,0.1,0
		c0.3-0.1,0.6-0.2,0.9-0.3c0.2-0.1,0.3-0.1,0.5-0.2c0.2-0.1,0.5-0.2,0.7-0.3c0.1-0.1,0.3-0.1,0.4-0.2c0.1-0.1,0.2-0.1,0.3-0.2
		c0,0,0.1-0.1,0.1-0.1l0.1,0c0.1-0.1,0.2-0.1,0.3-0.2c0.1,0,0.1-0.1,0.2-0.1c0.2-0.1,0.3-0.2,0.5-0.3c0.1,0,0.1-0.1,0.2-0.1
		c0,0,0.1,0,0.1-0.1c0,0,0.1,0,0.1-0.1c0.2-0.1,0.4-0.3,0.6-0.4c0.4-0.3,0.8-0.5,1.2-0.8c0.2-0.2,0.4-0.3,0.6-0.5
		c0.2-0.2,0.4-0.3,0.6-0.5c0.2-0.2,0.4-0.4,0.6-0.6c-0.7-0.3-1.3-0.6-2-1c-0.9-0.5-1.7-1-2.5-1.6l0,0c-0.4,0.3-0.7,0.5-1.1,0.7l0,0
		c0,0-0.1,0-0.1,0.1c-0.8,0.5-1.7,0.9-2.5,1.3c-0.2,0.1-0.4,0.2-0.6,0.3c-0.1,0-0.2,0.1-0.3,0.1c-1,0.4-2.1,0.7-3.3,0.9
		c-0.3,0.1-0.6,0.1-1,0.1c0,0-0.1,0-0.1,0c-0.2,0-0.5,0.1-0.7,0.1c-0.1,0-0.1,0-0.2,0c-0.4,0-0.9,0.1-1.3,0.1c-0.1,0-0.2,0-0.3,0
		c0,0-0.1,0-0.1,0c-0.2,0-0.4,0-0.6,0c-0.8,0-1.5-0.1-2.3-0.2l0,0l-0.1,0c-0.7-0.1-1.4-0.2-2-0.4c-0.2-0.1-0.4-0.1-0.6-0.2
		c-0.6-0.2-1.2-0.4-1.8-0.6l-0.1,0c-2.5-0.9-4.9-2.2-7.2-3.9l0,0l0,0c-0.7-0.5-1.5-1.1-2.2-1.7c-8.9-6.4-16.2-18.1-19.3-32.2
		C44.1,65.8,44,65.4,43.9,64.9 M69.1,16c-0.1,0-0.1,0-0.2,0c-0.2,0-0.4,0-0.6,0c-0.3,0-0.6,0-0.8,0l0,0c-0.5,0-1.1,0.1-1.6,0.2l0,0
		c0,0-0.1,0-0.1,0c-0.2,0-0.5,0.1-0.7,0.1c-2,0.4-3.9,1-5.8,1.9c-0.1,0.1-0.3,0.1-0.4,0.2l-0.1,0c-0.5,0.2-0.9,0.5-1.4,0.8
		c-0.2,0.1-0.4,0.3-0.6,0.4c0,0-0.1,0-0.1,0.1c-0.1,0.1-0.2,0.2-0.4,0.2l0,0c0.2,0.5,0.3,0.9,0.5,1.4c2.1-1.3,4.4-2.2,6.9-2.7
		c1.2-0.2,2.4-0.3,3.6-0.3c4.8,0,9.7,1.7,14.2,4.8c1.6-0.4,3.2-0.7,4.9-0.8c-0.2-0.1-0.4-0.3-0.6-0.4c-0.2-0.1-0.3-0.2-0.5-0.4
		c-0.8-0.6-1.6-1.1-2.4-1.6c-0.2-0.1-0.4-0.3-0.7-0.4c-0.2-0.1-0.4-0.2-0.6-0.4c-0.1,0-0.1-0.1-0.2-0.1c-0.1,0-0.1-0.1-0.2-0.1
		c-0.1,0-0.2-0.1-0.2-0.1c-0.5-0.3-1.1-0.6-1.6-0.8c-0.9-0.4-1.9-0.8-2.8-1.1l0,0c-0.3-0.1-0.5-0.2-0.8-0.2l-0.1,0
		c-0.2-0.1-0.4-0.1-0.6-0.2c-0.1,0-0.1,0-0.2-0.1c-0.1,0-0.3-0.1-0.4-0.1c-0.2,0-0.3-0.1-0.5-0.1c-0.2-0.1-0.4-0.1-0.6-0.1
		c0,0-0.1,0-0.1,0l0,0c0,0-0.1,0-0.1,0c-0.2,0-0.5-0.1-0.7-0.1l-0.1,0c-0.2,0-0.4-0.1-0.6-0.1c-0.1,0-0.3,0-0.4,0
		c-0.2,0-0.4,0-0.6-0.1l-0.1,0l0,0l0,0l0,0c-0.2,0-0.4,0-0.6,0c-0.1,0-0.1,0-0.2,0l-0.1,0c-0.2,0-0.4,0-0.5,0
		C69.2,16,69.1,16,69.1,16"/>
	<path id="XMLID_687_" class="st28" d="M82.2,105.6L82.2,105.6c-0.3,0-0.6,0-0.8,0c-0.2,0-0.3,0-0.5,0
		C81.3,105.6,81.8,105.6,82.2,105.6 M83.1,105.5c0,0-0.1,0-0.1,0c-0.2,0-0.3,0-0.5,0.1c0,0-0.1,0-0.1,0
		C82.6,105.5,82.9,105.5,83.1,105.5 M77.6,105.4c0.8,0.1,1.5,0.2,2.3,0.2c-0.1,0-0.1,0-0.2,0c-0.2,0-0.4,0-0.6,0
		c-0.2,0-0.4,0-0.6-0.1C78.2,105.5,77.9,105.4,77.6,105.4L77.6,105.4 M75.5,105c0.7,0.2,1.4,0.3,2,0.4c-0.3,0-0.5-0.1-0.8-0.1
		c-0.3-0.1-0.7-0.1-1-0.2C75.6,105,75.5,105,75.5,105 M87.4,104.4c-0.2,0.1-0.4,0.1-0.6,0.2c-0.3,0.1-0.6,0.2-0.9,0.3
		c-0.2,0.1-0.5,0.1-0.7,0.2c-0.4,0.1-0.7,0.2-1.1,0.2c-0.3,0-0.5,0.1-0.8,0.1c-0.1,0-0.1,0-0.2,0c0.3,0,0.6-0.1,1-0.1
		C85.3,105.1,86.4,104.8,87.4,104.4 M73.1,104.2c0.6,0.2,1.2,0.4,1.8,0.6c-0.1,0-0.1,0-0.2-0.1c-0.5-0.1-1-0.3-1.5-0.5
		C73.1,104.3,73.1,104.3,73.1,104.2 M90.9,102.8c-0.2,0.1-0.5,0.3-0.7,0.4c-0.2,0.1-0.5,0.2-0.7,0.4c-0.4,0.2-0.8,0.4-1.2,0.5
		C89.2,103.7,90.1,103.3,90.9,102.8 M92.1,101.9L92.1,101.9c-0.4,0.3-0.7,0.5-1.1,0.7C91.4,102.5,91.8,102.2,92.1,101.9L92.1,101.9
		 M65.7,100.3c2.3,1.7,4.8,3,7.2,3.9c-0.1,0-0.3-0.1-0.4-0.2c-0.2-0.1-0.3-0.1-0.5-0.2c-0.2-0.1-0.4-0.2-0.6-0.3
		c-0.3-0.1-0.7-0.3-1-0.5c-0.3-0.2-0.7-0.3-1-0.5c-0.3-0.2-0.7-0.4-1-0.6c-0.3-0.2-0.7-0.4-1-0.6c-0.3-0.2-0.7-0.4-1-0.7
		c-0.2-0.1-0.4-0.3-0.7-0.5C65.8,100.3,65.8,100.3,65.7,100.3 M62.5,97.6c0.3,0.3,0.7,0.6,1,0.9c0.7,0.6,1.4,1.2,2.2,1.7
		c-0.2-0.2-0.4-0.3-0.6-0.5c-0.3-0.3-0.7-0.5-1-0.8c-0.2-0.1-0.3-0.3-0.5-0.4l0,0l0,0l0,0C63.2,98.3,62.9,98,62.5,97.6L62.5,97.6
		 M61.6,96.7c0.3,0.3,0.6,0.6,0.9,0.8C62.2,97.3,61.9,97,61.6,96.7L61.6,96.7 M61.1,96.2c0.2,0.2,0.3,0.3,0.5,0.5l0,0
		C61.4,96.5,61.2,96.4,61.1,96.2 M56.9,91.4c1.2,1.6,2.4,3,3.7,4.4c-0.1-0.1-0.1-0.1-0.2-0.2c-0.3-0.3-0.5-0.6-0.8-0.9l-0.1-0.1
		c-0.2-0.3-0.5-0.5-0.7-0.8c-0.2-0.2-0.3-0.4-0.5-0.5c-0.2-0.3-0.4-0.5-0.6-0.8c-0.3-0.3-0.6-0.7-0.8-1.1C57,91.5,57,91.4,56.9,91.4
		 M55.5,89.3c0.2,0.3,0.4,0.6,0.6,0.9c-0.2-0.2-0.3-0.4-0.5-0.7C55.6,89.4,55.5,89.4,55.5,89.3 M54.6,87.9c0.2,0.4,0.5,0.7,0.7,1.1
		c-0.1-0.1-0.1-0.2-0.2-0.3C54.9,88.5,54.7,88.2,54.6,87.9 M52.9,85c0.1,0.2,0.3,0.5,0.4,0.7c-0.1-0.1-0.1-0.3-0.2-0.4
		C53,85.2,52.9,85.1,52.9,85 M49.3,77.1c0.8,2.1,1.7,4.2,2.6,6.1c-0.1-0.2-0.2-0.5-0.4-0.7c-0.2-0.4-0.3-0.7-0.5-1.1
		c-0.2-0.4-0.4-0.9-0.6-1.3c-0.2-0.5-0.4-0.9-0.6-1.4c-0.2-0.5-0.4-0.9-0.5-1.4C49.4,77.2,49.3,77.1,49.3,77.1 M48.9,76.1
		c0,0.1,0.1,0.1,0.1,0.2C49,76.2,49,76.2,48.9,76.1L48.9,76.1 M48.7,75.4c0,0.1,0,0.1,0.1,0.2l0,0C48.8,75.6,48.7,75.5,48.7,75.4
		 M48,73.2c0.2,0.6,0.4,1.2,0.5,1.7c0-0.1-0.1-0.3-0.1-0.4C48.3,74.1,48.1,73.6,48,73.2 M49.6,62.1c-0.8,0.6-1.6,1.1-2.4,1.5
		c0.1,0.4,0.2,0.8,0.2,1.2c4,18.6,16.8,32.3,29.4,32.3c1,0,2.1-0.1,3.1-0.3c1.7-0.3,3.3-0.9,4.8-1.6c-0.6-0.7-1.2-1.3-1.8-2
		l-3.2,0.7l-1.7,0.4c0,0-0.1,0-0.1,0l0,0c-0.1,0-0.2,0-0.4,0c-0.1,0-0.1,0-0.2,0c0,0-0.1,0-0.1,0l0,0c-0.1,0-0.2,0-0.4,0l0,0
		c-0.1,0-0.1,0-0.2,0c0,0-0.1,0-0.1,0c-0.2,0-0.3-0.1-0.5-0.2c-0.1,0-0.2-0.1-0.3-0.2c-0.1-0.1-0.3-0.1-0.4-0.2
		c-0.1,0-0.1-0.1-0.2-0.1c-0.1-0.1-0.3-0.2-0.4-0.3c-0.2-0.2-0.4-0.3-0.5-0.5c-0.3-0.3-0.5-0.6-0.7-0.9c-0.1-0.2-0.3-0.4-0.4-0.6
		c-0.1-0.2-0.2-0.4-0.3-0.6c-0.1-0.1-0.1-0.3-0.2-0.4c-0.1-0.2-0.2-0.4-0.2-0.6c0,0,0-0.1,0-0.1c-0.1-0.3-0.2-0.6-0.3-1l0-0.1
		c0-0.1,0-0.1,0-0.2c0-0.2-0.1-0.3-0.1-0.5c0-0.1,0-0.2,0-0.3c-0.1-0.5-0.1-1-0.1-1.5l0-0.1c0-0.2,0-0.4,0-0.5c0,0,0-0.1,0-0.1
		c0-0.1,0-0.2,0-0.3c0-0.1,0-0.2,0.1-0.4c-1.4-0.7-2.7-1.5-3.9-2.6l0,0c-0.1,0.2-0.2,0.5-0.3,0.7l0,0.1c-0.2,0.4-0.4,0.8-0.7,1.1
		l0,0c0,0.1-0.1,0.1-0.1,0.2c-0.2,0.2-0.4,0.4-0.6,0.5l0,0l0,0c-0.4,0.3-0.8,0.4-1.3,0.5l0,0l0,0c-0.1,0-0.2,0-0.4,0
		c-1.5,0-3.2-1.1-4.4-3.3c-0.1-0.1-0.1-0.2-0.2-0.3l-2.8-5.9l0,0l0,0C54,72.2,51.3,67.5,49.6,62.1 M57.8,25L57.8,25L57.8,25L57.8,25
		 M59.1,24.1c-0.2,0.1-0.3,0.2-0.5,0.3l0,0C58.8,24.3,59,24.2,59.1,24.1 M59.5,23.8L59.5,23.8L59.5,23.8 M80,23.6c0,0,0.1,0,0.1,0.1
		l0,0C80.1,23.7,80,23.7,80,23.6 M67.3,23.6c-1,0-2.1,0.1-3.1,0.3c-2.2,0.4-4.2,1.2-6.1,2.4c0.2,0.8,0.3,1.5,0.5,2.3
		c0.8-0.3,1.6-0.6,2.5-0.7c0.8-0.1,1.5-0.2,2.3-0.2c2.7,0,5.5,0.9,8,2.4l0,0c1.1-1.4,2.4-2.6,3.7-3.6c0.3-0.2,0.7-0.5,1-0.7
		C73.2,24.3,70.2,23.6,67.3,23.6 M60.4,23.4c0,0-0.1,0-0.1,0.1L60.4,23.4L60.4,23.4 M61.4,22.9c0,0-0.1,0-0.1,0.1l0,0
		C61.3,22.9,61.4,22.9,61.4,22.9 M62.3,22.5L62.3,22.5L62.3,22.5L62.3,22.5 M76.5,22.2c0.5,0.2,1.1,0.4,1.6,0.6
		c0.2,0.1,0.4,0.2,0.7,0.3c0.2,0.1,0.3,0.1,0.5,0.2c0.1,0.1,0.3,0.1,0.4,0.2C78.6,23,77.5,22.5,76.5,22.2 M63,22.2
		c-0.1,0-0.1,0-0.2,0.1L63,22.2L63,22.2 M64.3,21.8L64.3,21.8L64.3,21.8L64.3,21.8 M65.2,21.6L65.2,21.6L65.2,21.6L65.2,21.6
		 M73.6,21.5c0.2,0,0.4,0.1,0.6,0.1c0.1,0,0.2,0,0.3,0.1C74.2,21.6,73.9,21.5,73.6,21.5 M67,21.2L67,21.2L67,21.2L67,21.2
		 M67.3,21.2c0,0-0.1,0-0.1,0l0,0C67.2,21.2,67.2,21.2,67.3,21.2 M71,21.1c0.1,0,0.1,0,0.2,0l0.1,0C71.1,21.1,71.1,21.1,71,21.1"/>
	<path id="XMLID_690_" class="st29" d="M56.2,54c-1.7,3.4-4,6.2-6.6,8.1l0,0c1.7,5.4,4.4,10,7.6,13.5l-1.4-2.8L55,70.9
		c-1-2.1-1.2-4.2-0.8-6c0-0.1,0-0.2,0.1-0.3l0,0c0.1-0.4,0.3-0.8,0.5-1.2l0,0c0,0,0-0.1,0.1-0.1c0,0,0-0.1,0.1-0.1l0,0
		c0.1-0.1,0.1-0.2,0.2-0.3c0,0,0.1-0.1,0.1-0.1c0.2-0.2,0.3-0.4,0.5-0.6c0,0,0.1-0.1,0.1-0.1l0,0l0,0c0.2-0.1,0.3-0.2,0.5-0.3l0.1,0
		l0,0c0.2-0.1,0.4-0.2,0.6-0.2c0.1,0,0.3-0.1,0.4-0.1l0,0c-0.3-2.2-0.4-4.4-0.3-6.4c-0.2-0.2-0.4-0.3-0.6-0.5l0,0l0,0
		C56.4,54.2,56.3,54.1,56.2,54 M63.3,27.6c-0.8,0-1.5,0.1-2.3,0.2c-0.8,0.2-1.7,0.4-2.5,0.7l0,0c0.5,2.6,0.8,5.3,0.9,7.9l0.2-0.3
		c0.4-0.7,0.8-1.2,1.3-1.5c0.5-0.3,1.1-0.5,1.6-0.5c0.7,0,1.5,0.3,2.2,0.7c0.1,0,0.1,0.1,0.2,0.1c0,0,0.1,0.1,0.1,0.1
		c0,0,0.1,0.1,0.1,0.1c0.2,0.2,0.4,0.4,0.6,0.6l0,0l0,0c0.3,0.3,0.5,0.6,0.7,0.9c0.3-0.1,0.6-0.3,0.9-0.4l0,0c1-2.4,2.3-4.5,3.8-6.3
		C68.8,28.5,66,27.6,63.3,27.6"/>
	<path id="XMLID_705_" class="st30" d="M58.6,24.4c-0.3,0.2-0.5,0.4-0.8,0.6C58.1,24.8,58.4,24.6,58.6,24.4 M59.5,23.9L59.5,23.9
		c-0.2,0.1-0.3,0.2-0.4,0.2C59.3,24,59.4,23.9,59.5,23.9 M79.6,23.5c0.1,0.1,0.2,0.1,0.3,0.2l0,0C79.9,23.6,79.7,23.5,79.6,23.5
		 M60.2,23.4c-0.2,0.1-0.4,0.2-0.6,0.4l-0.1,0C59.8,23.7,60,23.6,60.2,23.4 M61.3,22.9L61.3,22.9c-0.3,0.2-0.6,0.3-0.8,0.4l0,0
		C60.7,23.2,61,23.1,61.3,22.9 M62.2,22.5L62.2,22.5c-0.3,0.1-0.6,0.2-0.8,0.4C61.7,22.7,62,22.6,62.2,22.5 M62.9,22.2
		c-0.2,0.1-0.4,0.2-0.6,0.2C62.5,22.4,62.7,22.3,62.9,22.2 M64.3,21.8c-0.1,0-0.2,0-0.3,0.1c-0.3,0.1-0.6,0.2-0.9,0.3
		C63.5,22,63.9,21.9,64.3,21.8 M74.4,21.6c0.7,0.2,1.4,0.3,2,0.6c-0.3-0.1-0.5-0.2-0.8-0.3C75.2,21.8,74.8,21.7,74.4,21.6
		 M65.1,21.6c-0.1,0-0.1,0-0.2,0c-0.2,0.1-0.4,0.1-0.6,0.2C64.6,21.7,64.9,21.6,65.1,21.6 M67,21.2c-0.3,0-0.6,0.1-0.9,0.1l0,0l0,0
		c-0.3,0.1-0.6,0.1-0.9,0.2c0.3-0.1,0.6-0.1,0.9-0.2C66.4,21.3,66.7,21.3,67,21.2 M67.2,21.2c0,0-0.1,0-0.1,0
		C67.1,21.2,67.1,21.2,67.2,21.2 M71.2,21.1c0.8,0.1,1.6,0.2,2.4,0.3c-0.1,0-0.3-0.1-0.4-0.1l0,0c-0.3,0-0.6-0.1-0.9-0.1
		c0,0-0.1,0-0.1,0C71.8,21.2,71.5,21.1,71.2,21.1 M69.5,21.1c-0.1,0-0.2,0-0.3,0c-0.4,0-0.8,0-1.3,0.1c-0.2,0-0.4,0-0.7,0.1
		c0.8-0.1,1.6-0.1,2.4-0.1c0.5,0,0.9,0,1.4,0c-0.3,0-0.6,0-0.9,0C69.9,21.1,69.7,21.1,69.5,21.1"/>
	<path id="XMLID_706_" class="st30" d="M46,64.2L46,64.2c0.2,1.4,0.5,2.9,0.8,4.3c0.3,1.6,0.7,3.2,1.2,4.7c-0.5-1.5-0.9-3.1-1.2-4.7
		C46.5,67,46.2,65.6,46,64.2"/>
	<path id="XMLID_714_" class="st30" d="M56.1,90.2C56.1,90.2,56.1,90.2,56.1,90.2c0.2,0.3,0.4,0.5,0.5,0.7c0.1,0.2,0.2,0.3,0.3,0.5
		C56.6,91,56.4,90.6,56.1,90.2 M55.3,89c0.1,0.1,0.1,0.2,0.2,0.3C55.4,89.2,55.4,89.1,55.3,89 M53.3,85.7c0.4,0.8,0.9,1.5,1.3,2.2
		C54.1,87.2,53.7,86.5,53.3,85.7 M51.9,83.2c0.1,0.1,0.1,0.2,0.2,0.3c0.2,0.5,0.5,1,0.8,1.4C52.5,84.4,52.2,83.8,51.9,83.2 M49,76.3
		c0.1,0.3,0.2,0.5,0.3,0.8C49.2,76.8,49.1,76.5,49,76.3 M48.8,75.6c0,0.1,0.1,0.3,0.1,0.4C48.9,75.9,48.8,75.8,48.8,75.6 M48.6,74.9
		c0.1,0.2,0.1,0.3,0.2,0.5C48.7,75.3,48.6,75.1,48.6,74.9"/>
	<path id="XMLID_718_" class="st30" d="M62.5,97.6L62.5,97.6L62.5,97.6L62.5,97.6 M61.5,96.7L61.5,96.7L61.5,96.7 M60.6,95.8
		L60.6,95.8c0.2,0.2,0.3,0.3,0.4,0.4C60.9,96.1,60.8,95.9,60.6,95.8"/>
	<path id="XMLID_728_" class="st31" d="M79.9,105.6c0.2,0,0.4,0,0.6,0c0,0,0.1,0,0.1,0c0.1,0,0.2,0,0.3,0c-0.1,0-0.2,0-0.3,0
		C80.4,105.6,80.1,105.6,79.9,105.6 M82.4,105.6c-0.1,0-0.1,0-0.2,0C82.3,105.6,82.3,105.6,82.4,105.6 M83.2,105.5c0,0-0.1,0-0.1,0
		C83.1,105.5,83.2,105.5,83.2,105.5 M77.5,105.4L77.5,105.4l0.1,0C77.6,105.4,77.5,105.4,77.5,105.4 M74.8,104.8
		c0.2,0.1,0.4,0.1,0.6,0.2C75.2,104.9,75,104.9,74.8,104.8 M73,104.2L73,104.2L73,104.2 M88.3,104.1c-0.3,0.1-0.6,0.2-0.9,0.4
		c0.1,0,0.2-0.1,0.3-0.1C87.9,104.2,88.1,104.2,88.3,104.1 M91,102.7c0,0-0.1,0.1-0.1,0.1C90.9,102.7,90.9,102.7,91,102.7L91,102.7
		 M65.7,100.3L65.7,100.3L65.7,100.3L65.7,100.3"/>
	<path id="XMLID_731_" class="st32" d="M47.2,63.7c-0.4,0.2-0.7,0.4-1.1,0.5c0.2,1.4,0.5,2.9,0.8,4.3c0.3,1.6,0.7,3.2,1.2,4.7
		c0.1,0.4,0.3,0.9,0.4,1.3c0,0.1,0.1,0.3,0.1,0.4c0.1,0.2,0.1,0.3,0.2,0.5c0,0.1,0,0.1,0.1,0.2l0,0c0,0.1,0.1,0.3,0.1,0.4l0,0.1
		c0,0.1,0,0.1,0.1,0.2c0.1,0.3,0.2,0.5,0.3,0.8c0,0.1,0.1,0.2,0.1,0.3c0.2,0.5,0.4,0.9,0.5,1.4c0.2,0.5,0.4,0.9,0.6,1.4
		c0.2,0.4,0.4,0.9,0.6,1.3c0.2,0.4,0.3,0.7,0.5,1.1c0.1,0.2,0.2,0.5,0.4,0.7c0.3,0.6,0.6,1.2,0.9,1.8c0.1,0.1,0.1,0.2,0.2,0.3
		c0.1,0.1,0.1,0.3,0.2,0.4c0.4,0.8,0.9,1.5,1.3,2.2c0.2,0.3,0.3,0.5,0.5,0.8c0.1,0.1,0.1,0.2,0.2,0.3c0.1,0.1,0.1,0.2,0.2,0.3
		c0,0.1,0.1,0.1,0.1,0.2c0.1,0.2,0.3,0.4,0.5,0.7c0.3,0.4,0.6,0.8,0.9,1.2c0,0,0.1,0.1,0.1,0.1c0.3,0.4,0.5,0.7,0.8,1.1
		c0.2,0.3,0.4,0.5,0.6,0.8c0.2,0.2,0.3,0.4,0.5,0.5c0.2,0.3,0.5,0.5,0.7,0.8l0.1,0.1c0.3,0.3,0.5,0.6,0.8,0.9
		c0.1,0.1,0.1,0.1,0.2,0.2c0.1,0.1,0.3,0.3,0.4,0.4c0.1,0.2,0.3,0.3,0.4,0.4l0,0l0.1,0.1l0,0c0.3,0.3,0.6,0.5,0.8,0.8l0.1,0.1
		l0.1,0.1c0.3,0.3,0.6,0.6,1,0.9l0,0l0,0l0,0c0.2,0.2,0.3,0.3,0.5,0.4c0.3,0.3,0.7,0.5,1,0.8c0.2,0.2,0.4,0.3,0.6,0.5l0,0
		c0,0,0.1,0,0.1,0.1c0.2,0.2,0.4,0.3,0.7,0.5c0.3,0.2,0.7,0.5,1,0.7c0.3,0.2,0.7,0.4,1,0.6c0.3,0.2,0.7,0.4,1,0.6
		c0.3,0.2,0.7,0.3,1,0.5c0.3,0.2,0.7,0.3,1,0.5c0.2,0.1,0.4,0.2,0.6,0.3c0.2,0.1,0.3,0.1,0.5,0.2c0.1,0.1,0.3,0.1,0.4,0.2l0.1,0
		c0,0,0.1,0,0.1,0c0.5,0.2,1,0.3,1.5,0.5c0.1,0,0.1,0,0.2,0.1c0.2,0.1,0.4,0.1,0.6,0.2c0.1,0,0.1,0,0.2,0c0.3,0.1,0.7,0.2,1,0.2
		c0.3,0.1,0.5,0.1,0.8,0.1c0,0,0.1,0,0.1,0l0,0c0.3,0,0.6,0.1,0.9,0.1c0.2,0,0.4,0,0.6,0.1c0.2,0,0.4,0,0.6,0c0.1,0,0.1,0,0.2,0
		c0.2,0,0.5,0,0.7,0c0.1,0,0.2,0,0.3,0c0.2,0,0.3,0,0.5,0c0.3,0,0.5,0,0.8,0l0,0c0.1,0,0.1,0,0.2,0c0,0,0.1,0,0.1,0
		c0.2,0,0.3,0,0.5-0.1c0,0,0.1,0,0.1,0c0,0,0.1,0,0.1,0c0.1,0,0.1,0,0.2,0c0.3,0,0.5-0.1,0.8-0.1c0.4-0.1,0.7-0.1,1.1-0.2
		c0.2-0.1,0.5-0.1,0.7-0.2c0.3-0.1,0.6-0.2,0.9-0.3c0.2-0.1,0.4-0.1,0.6-0.2c0.3-0.1,0.6-0.2,0.9-0.4c0.4-0.2,0.8-0.4,1.2-0.5
		c0.2-0.1,0.5-0.2,0.7-0.4c0.2-0.1,0.5-0.3,0.7-0.4c0,0,0.1-0.1,0.1-0.1c0.4-0.2,0.7-0.5,1.1-0.7c-0.8-0.6-1.6-1.2-2.3-1.8
		c-1.7-1.5-3.4-3.1-5.1-4.9c-1.5,0.8-3.1,1.3-4.8,1.6c-1,0.2-2.1,0.3-3.1,0.3c-12.7,0-25.4-13.7-29.4-32.3
		C47.3,64.5,47.2,64.1,47.2,63.7 M69.6,21.1c-0.8,0-1.6,0-2.4,0.1c0,0-0.1,0-0.1,0l0,0c0,0-0.1,0-0.1,0l0,0l0,0
		c-0.3,0-0.6,0.1-0.9,0.1c-0.3,0.1-0.6,0.1-0.9,0.2l-0.1,0l0,0c-0.3,0.1-0.5,0.1-0.8,0.2l0,0l0,0c-0.4,0.1-0.8,0.2-1.2,0.4l-0.1,0
		l-0.1,0c-0.2,0.1-0.4,0.2-0.6,0.2l0,0l0,0c-0.3,0.1-0.6,0.2-0.8,0.4c0,0-0.1,0-0.1,0.1l0,0c-0.3,0.1-0.6,0.3-0.9,0.4l-0.1,0l-0.1,0
		c-0.2,0.1-0.5,0.3-0.7,0.4l-0.1,0c-0.1,0.1-0.2,0.1-0.4,0.2c-0.2,0.1-0.3,0.2-0.5,0.3l0,0c-0.3,0.2-0.5,0.4-0.8,0.6l-0.1,0
		c0.1,0.4,0.2,0.8,0.3,1.2c1.9-1.2,3.9-2,6.1-2.4c1-0.2,2.1-0.3,3.1-0.3c3,0,5.9,0.8,8.8,2.1c1.3-0.8,2.6-1.5,4-2c0,0-0.1,0-0.1-0.1
		c-0.1-0.1-0.2-0.1-0.3-0.2c-0.1-0.1-0.3-0.1-0.4-0.2c-0.2-0.1-0.3-0.2-0.5-0.2c-0.2-0.1-0.4-0.2-0.7-0.3c-0.5-0.2-1.1-0.4-1.6-0.6
		c-0.7-0.2-1.4-0.4-2-0.6c-0.1,0-0.2,0-0.3-0.1c-0.2,0-0.4-0.1-0.6-0.1c-0.8-0.2-1.6-0.3-2.4-0.3l-0.1,0c-0.1,0-0.1,0-0.2,0
		C70.5,21.1,70.1,21.1,69.6,21.1"/>
	<path id="XMLID_732_" class="st33" d="M67.5,36.4c-0.3,0.1-0.6,0.2-0.9,0.4c0.2,0.2,0.3,0.5,0.5,0.8C67.2,37.1,67.4,36.8,67.5,36.4
		"/>
	<path id="XMLID_733_" class="st29" d="M68.1,82c0,0,0,0.1,0,0.1c1.3,1.1,2.6,1.9,3.9,2.6l0,0l0.6-2.7c-0.7,0.1-1.5,0.2-2.2,0.2
		C69.7,82.2,68.9,82.2,68.1,82"/>
	<path id="XMLID_736_" class="st33" d="M70,73.5L70,73.5L70,73.5l-1.8,8c0,0.2-0.1,0.4-0.1,0.5l0,0l0,0c0.8,0.1,1.5,0.2,2.3,0.2
		c0.7,0,1.5-0.1,2.2-0.2l0,0l0,0l0.6-2.7l0,0C72.1,77.5,71,75.5,70,73.5L70,73.5 M57.1,54.9c-0.1,2.1,0,4.2,0.3,6.4l0.1,0l0,0
		c0.1,0,0.2,0,0.2,0c0.1,0,0.3,0,0.4,0c0.1,0,0.2,0,0.3,0.1l6.4,1.4l0,0l0,0c-0.4-2-0.6-4-0.5-5.8l-5.6-1.2l0,0c-0.1,0-0.1,0-0.2,0
		C58.1,55.5,57.6,55.2,57.1,54.9"/>
	<path id="XMLID_737_" class="st34" d="M64.5,57c-0.1,1.8,0,3.8,0.5,5.8l0,0L66,63c-0.3-1.1-0.6-2.3-0.8-3.4
		c-0.2-0.8-0.3-1.7-0.4-2.5l0,0L64.5,57"/>
	<path id="XMLID_747_" class="st35" d="M58.9,55.7L58.9,55.7l5.6,1.2l0.3,0.1l0,0L64.5,57L58.9,55.7L58.9,55.7 M56.5,54.3
		c0.2,0.2,0.4,0.4,0.6,0.5c0.5,0.4,1,0.7,1.6,0.8c-0.1,0-0.1,0-0.2-0.1c-0.1,0-0.2-0.1-0.4-0.1c-0.1,0-0.1-0.1-0.2-0.1
		c-0.1,0-0.2-0.1-0.2-0.1c-0.1,0-0.1-0.1-0.2-0.1l-0.1,0c-0.1-0.1-0.3-0.2-0.4-0.3c-0.1-0.1-0.2-0.1-0.2-0.2
		c-0.1-0.1-0.2-0.1-0.2-0.2C56.6,54.4,56.6,54.4,56.5,54.3 M56.2,54L56.2,54c0.1,0.1,0.2,0.2,0.3,0.3c0,0-0.1-0.1-0.1-0.1
		C56.3,54.1,56.3,54.1,56.2,54 M56.5,53.4L56.5,53.4c-0.1,0.1-0.1,0.2-0.2,0.4c0.2,0.2,0.5,0.5,0.8,0.7c0.4,0.3,0.9,0.5,1.4,0.6
		l6,1.3l0.2,0c0-0.3-0.1-0.5-0.1-0.8l-6.7-1.5C57.4,54,56.9,53.7,56.5,53.4 M61.7,35.9c-0.8,0-1.6,0.4-2.3,1.2c0,0.6,0,1.1,0,1.7
		l0,0c0.3-0.2,0.7-0.3,1.1-0.3c0.3,0,0.6,0.1,0.9,0.2l0.2-1.4l1.3-0.9l1.3,4L63.1,40c0.5,0.7,1,1.6,1.2,2.6l0.6,2.6l0,0
		c0.3-1.8,0.7-3.5,1.2-5.1c-0.3-0.9-0.7-1.7-1.3-2.4C64,36.6,62.8,35.9,61.7,35.9 M65.9,35.8c0.1,0.1,0.2,0.2,0.2,0.3
		c0.1,0.1,0.2,0.2,0.2,0.3c0.1,0.1,0.2,0.2,0.2,0.3c0.2,0.2,0.3,0.5,0.5,0.8l0,0c-0.1-0.3-0.3-0.5-0.5-0.8
		C66.4,36.4,66.1,36.1,65.9,35.8 M65.2,35.2c0,0,0.1,0.1,0.1,0.1c0.1,0.1,0.2,0.1,0.2,0.2c0.1,0.1,0.2,0.1,0.2,0.2
		C65.6,35.5,65.4,35.4,65.2,35.2 M65,35L65,35c0.1,0.1,0.1,0.1,0.1,0.1C65.1,35.1,65,35,65,35 M62.6,34.1c-0.6,0-1.1,0.2-1.6,0.5
		c0.4-0.3,0.9-0.4,1.4-0.5C62.4,34.1,62.5,34.1,62.6,34.1L62.6,34.1L62.6,34.1L62.6,34.1L62.6,34.1c0.2,0,0.3,0,0.4,0
		c0.1,0,0.2,0,0.3,0c0.4,0.1,0.8,0.2,1.2,0.4c0.1,0,0.1,0.1,0.2,0.1c0.1,0,0.1,0.1,0.2,0.1l0.1,0C64.1,34.4,63.3,34.1,62.6,34.1"/>
	<path id="XMLID_750_" class="st36" d="M59.9,43.5L59.9,43.5l1.1-0.8l1.1,3.5l-2.6-0.9L59.9,43.5 M60.6,38.5c-0.4,0-0.8,0.1-1.1,0.3
		c0,2.5-0.3,5-0.7,7.4l0,0c-0.1,0.7-0.3,1.4-0.5,2.2l0.2-0.1l1.3,4l-2.4-0.9l0,0c0,0.1,0,0.1-0.1,0.1c-0.2,0.6-0.5,1.3-0.8,1.9
		c0.4,0.4,0.9,0.6,1.4,0.7l6.7,1.5l0,0c0,0,0-0.1,0-0.1c0-0.2,0-0.4,0-0.6l-1.4-0.5l0.3-2l0.9-0.6l0,0c0-2.2,0.2-4.4,0.5-6.5
		l-0.6-2.6c-0.3-1.1-0.7-1.9-1.2-2.6l-1.8-0.7l0.1-0.6C61.1,38.6,60.9,38.5,60.6,38.5"/>
	<path id="XMLID_756_" class="st37" d="M56.5,54.3L56.5,54.3L56.5,54.3L56.5,54.3 M65.8,35.7L65.8,35.7L65.8,35.7L65.8,35.7
		 M65.1,35.1c0,0,0.1,0.1,0.1,0.1C65.2,35.2,65.1,35.1,65.1,35.1 M64.8,34.9c0.1,0,0.1,0.1,0.2,0.1C64.9,34.9,64.9,34.9,64.8,34.9
		 M61,34.6c-0.5,0.3-1,0.8-1.3,1.5l-0.2,0.3l0,0l0,0l0.2-0.3C60,35.4,60.5,34.9,61,34.6"/>
	<path id="XMLID_757_" class="st38" d="M58.7,55.7c0.1,0,0.1,0,0.2,0C58.8,55.7,58.8,55.7,58.7,55.7"/>
	<path id="XMLID_760_" class="st39" d="M56.4,53.7c0,0.1-0.1,0.2-0.1,0.3c0.1,0.1,0.1,0.1,0.1,0.2c0,0,0.1,0.1,0.1,0.1l0,0
		c0,0,0.1,0.1,0.1,0.1c0.1,0.1,0.1,0.1,0.2,0.2c0.1,0.1,0.2,0.1,0.2,0.2c0.1,0.1,0.3,0.2,0.4,0.3l0.1,0c0.1,0,0.1,0.1,0.2,0.1
		c0.1,0,0.1,0.1,0.2,0.1c0.1,0,0.1,0.1,0.2,0.1c0.1,0.1,0.2,0.1,0.4,0.1c0.1,0,0.1,0,0.2,0.1c0.1,0,0.1,0,0.2,0l0,0l5.6,1.2l0.3,0.1
		c0-0.2-0.1-0.4-0.1-0.7l-0.2,0l-6-1.3c-0.5-0.1-0.9-0.3-1.4-0.6C56.9,54.2,56.6,54,56.4,53.7 M62.6,34.1L62.6,34.1
		c-0.1,0-0.1,0-0.2,0c-0.5,0-1,0.2-1.4,0.5c-0.5,0.3-1,0.8-1.3,1.5l-0.2,0.3c0,0.2,0,0.5,0,0.7c0.6-0.8,1.4-1.2,2.3-1.2
		c1.1,0,2.3,0.7,3.2,1.8c0.5,0.6,0.9,1.4,1.3,2.4c0.3-0.9,0.6-1.7,0.9-2.5c-0.1-0.3-0.3-0.5-0.5-0.8c-0.1-0.1-0.2-0.2-0.2-0.3
		c-0.1-0.1-0.2-0.2-0.2-0.3C66,36,66,35.9,65.9,35.8l-0.1-0.1c-0.1-0.1-0.2-0.2-0.2-0.2c-0.1-0.1-0.2-0.2-0.2-0.2
		c0,0-0.1-0.1-0.1-0.1c0,0-0.1-0.1-0.1-0.1c0,0-0.1,0-0.1-0.1L65,35c-0.1,0-0.1-0.1-0.2-0.1l-0.1,0c-0.1,0-0.1-0.1-0.2-0.1
		c0,0-0.1-0.1-0.2-0.1c-0.4-0.2-0.8-0.4-1.2-0.4c-0.1,0-0.2,0-0.3,0c-0.1,0-0.2,0-0.3,0l0,0L62.6,34.1L62.6,34.1"/>
	<path id="XMLID_761_" class="st25" d="M57.8,49.9c-0.1,0.3-0.2,0.7-0.3,1c-0.1,0.1-0.1,0.3-0.2,0.4l2.4,0.9L57.8,49.9"/>
	<path id="XMLID_762_" class="st40" d="M58.5,48.2l-0.2,0.1l0,0c-0.1,0.5-0.3,1.1-0.4,1.6l0,0l1.9,2.3L58.5,48.2"/>
	<polyline id="XMLID_763_" class="st25" points="61.7,37.3 61.7,37.3 61.4,38.7 61.3,39.3 63.1,40 64.2,40.4 61.7,37.3 	"/>
	<polyline id="XMLID_764_" class="st40" points="63,36.4 61.7,37.3 64.2,40.4 63,36.4 	"/>
	<polyline id="XMLID_765_" class="st25" points="59.9,43.5 59.9,43.5 59.6,45.3 62.2,46.2 59.9,43.5 	"/>
	<polyline id="XMLID_766_" class="st40" points="61,42.7 59.9,43.5 62.2,46.2 61,42.7 	"/>
	<path id="XMLID_767_" class="st25" d="M63.5,52.3L63.5,52.3l-0.3,2l1.4,0.5l0,0c0-0.5-0.1-0.9-0.1-1.4L63.5,52.3"/>
	<path id="XMLID_768_" class="st40" d="M64.5,51.7l-0.9,0.6l1,1.2l0,0C64.5,52.9,64.5,52.3,64.5,51.7L64.5,51.7"/>
	<path id="XMLID_784_" class="st35" d="M65,85.1L65,85.1L65,85.1 M66.3,84.7c-0.1,0-0.1,0.1-0.2,0.1c-0.1,0.1-0.3,0.1-0.4,0.2
		c-0.1,0-0.2,0.1-0.3,0.1c-0.1,0-0.2,0-0.3,0.1c-0.1,0-0.1,0-0.2,0C65.5,85.1,65.9,84.9,66.3,84.7 M66.9,84.2L66.9,84.2
		c-0.2,0.2-0.3,0.3-0.4,0.4c-0.1,0.1-0.1,0.1-0.2,0.1C66.5,84.5,66.8,84.4,66.9,84.2 M67.8,82.9c0,0,0,0.1-0.1,0.1
		c0,0.1-0.1,0.2-0.1,0.3c-0.1,0.1-0.1,0.2-0.2,0.2c-0.1,0.2-0.2,0.3-0.3,0.4C67.4,83.7,67.6,83.3,67.8,82.9 M68.1,82L68.1,82
		L68.1,82L68.1,82 M57.3,75.6l2.8,5.9c0.1,0.1,0.1,0.2,0.2,0.3c-0.1-0.1-0.1-0.2-0.2-0.3L57.3,75.6L57.3,75.6 M65.4,65.4L65.4,65.4
		l-1,3.2l3.8,0.9c-0.5-1.2-1-2.5-1.4-3.7l-1.1-0.3l0,0L65.4,65.4 M54.2,64.9c-0.4,1.8-0.2,4,0.8,6l0.9,1.9L55,70.9
		C54,68.9,53.8,66.7,54.2,64.9 M58.4,63.9c-0.2,0-0.4,0-0.5,0.1c-2.6,0.5-3.7,4.7-1.9,8.5l1.8,3.8l0,0l2.7,5.5c1,2.1,2.6,3.2,4,3.2
		c1.4,0,2.6-1,3.1-3c0,0,0-0.1,0-0.1l0-0.1l2-9c-0.1-0.3-0.3-0.6-0.4-0.9l0,0L67,82.1c-0.4,1.7-1.4,2.6-2.6,2.6
		c-1.2,0-2.4-0.9-3.3-2.6l-3.7-7.6c-0.8-1.6-0.9-3.4-0.5-4.7l-1-1l-0.4-2.2l2.9,0.2L58.1,68c0.4-0.3,0.9-0.5,1.4-0.5
		c0.2,0,0.4,0,0.6,0.1l4.2,0.9L63,67.2L62.6,65l1.8,0.1l0,0l-5.2-1.2C58.9,63.9,58.7,63.9,58.4,63.9 M54.7,63.4
		c-0.2,0.4-0.3,0.8-0.5,1.2c0-0.1,0.1-0.3,0.1-0.4c0-0.1,0.1-0.3,0.1-0.4C54.6,63.7,54.7,63.5,54.7,63.4 M54.9,63.1
		C54.9,63.2,54.8,63.2,54.9,63.1C54.8,63.2,54.9,63.2,54.9,63.1 M55.2,62.6c0,0-0.1,0.1-0.1,0.1L55.2,62.6L55.2,62.6 M55.8,62
		C55.8,62,55.7,62,55.8,62C55.7,62,55.8,62,55.8,62L55.8,62 M56.3,61.6c-0.2,0.1-0.3,0.2-0.5,0.3C56,61.9,56.1,61.7,56.3,61.6
		L56.3,61.6 M57,61.4c-0.2,0.1-0.4,0.1-0.6,0.2c0.1-0.1,0.2-0.1,0.4-0.2C56.9,61.4,56.9,61.4,57,61.4L57,61.4"/>
	<path id="XMLID_789_" class="st36" d="M64.9,82.1l-1.4-1.5l-0.4-2.2l2.9,0.2L64.9,82.1 M61.3,75.5l-1.2-1.3l-0.4-2l2.5,0.2
		L61.3,75.5 M67.9,75l-1.4-1.5l-0.4-2.2l2.9,0.2L67.9,75 M59.5,67.5c-0.5,0-1,0.2-1.4,0.5l-0.7,2.1L57,69.7
		c-0.4,1.3-0.3,3.1,0.5,4.7l3.7,7.6c0.8,1.7,2.1,2.6,3.3,2.6c1.2,0,2.2-0.9,2.6-2.6l2.2-10.2c0-0.1-0.1-0.1-0.1-0.2l0,0
		c-0.3-0.7-0.7-1.5-1-2.3l0,0l-3.8-0.9l0,0.1l-0.2-0.2L60,67.6C59.8,67.5,59.6,67.5,59.5,67.5"/>
	<path id="XMLID_790_" class="st37" d="M57.4,61.3L57.4,61.3c-0.1,0-0.3,0-0.4,0.1C57.2,61.3,57.3,61.3,57.4,61.3L57.4,61.3"/>
	<path id="XMLID_791_" class="st38" d="M57.8,61.3c-0.1,0-0.2,0-0.2,0l0,0l-0.1,0l0,0C57.5,61.3,57.7,61.3,57.8,61.3
		c0.2,0,0.5,0,0.8,0.1l6.4,1.4l0,0l0,0l-6.4-1.4c-0.1,0-0.2,0-0.3-0.1C58.1,61.3,57.9,61.3,57.8,61.3"/>
	<polyline id="XMLID_792_" class="st41" points="64.9,62.8 64.9,62.8 66,63 66,63 64.9,62.8 	"/>
	<path id="XMLID_798_" class="st37" d="M54.8,63.2c0,0,0,0.1-0.1,0.1l0,0C54.8,63.3,54.8,63.3,54.8,63.2 M55.1,62.8
		c-0.1,0.1-0.2,0.2-0.2,0.3l0,0C54.9,63,55,62.9,55.1,62.8 M55.7,62.1c-0.2,0.2-0.4,0.3-0.5,0.6C55.4,62.4,55.5,62.2,55.7,62.1
		 M55.8,62L55.8,62L55.8,62L55.8,62 M56.4,61.6L56.4,61.6l-0.1,0.1C56.4,61.6,56.4,61.6,56.4,61.6"/>
	<path id="XMLID_799_" class="st37" d="M54.3,64.6L54.3,64.6c0,0.1-0.1,0.2-0.1,0.3C54.2,64.8,54.2,64.7,54.3,64.6"/>
	<polyline id="XMLID_800_" class="st42" points="57.3,75.6 57.3,75.6 57.3,75.6 57.3,75.6 57.3,75.6 	"/>
	<polyline id="XMLID_801_" class="st37" points="55.9,72.8 57.3,75.6 57.3,75.6 55.9,72.8 	"/>
	<path id="XMLID_802_" class="st38" d="M70,73.5l-1.8,8c0,0.2-0.1,0.4-0.1,0.5c0.1-0.2,0.1-0.3,0.1-0.5L70,73.5L70,73.5"/>
	<path id="XMLID_805_" class="st42" d="M68.1,82.2c-0.1,0.3-0.2,0.5-0.3,0.8l0-0.1C67.9,82.6,68,82.4,68.1,82.2L68.1,82.2L68.1,82.2
		 M60.3,81.8c1.2,2.2,2.9,3.3,4.4,3.3c0.1,0,0.2,0,0.4,0c-0.1,0-0.2,0-0.4,0C63.1,85.1,61.4,84,60.3,81.8"/>
	<path id="XMLID_806_" class="st37" d="M68.1,82c0,0,0,0.1,0,0.1l0,0C68.1,82.1,68.1,82.1,68.1,82L68.1,82"/>
	<polyline id="XMLID_807_" class="st38" points="68.1,82 68.1,82 68.1,82 68.1,82 	"/>
	<path id="XMLID_811_" class="st42" d="M65,85.1L65,85.1L65,85.1 M66.3,84.7L66.3,84.7L66.3,84.7L66.3,84.7 M67.1,84
		c-0.1,0.1-0.1,0.1-0.2,0.2C67,84.1,67,84.1,67.1,84L67.1,84"/>
	<path id="XMLID_812_" class="st39" d="M57.8,61.3c-0.1,0-0.2,0-0.3,0c-0.1,0-0.3,0-0.4,0.1l0,0c-0.1,0-0.1,0-0.2,0.1
		c-0.1,0-0.2,0.1-0.4,0.2c0,0-0.1,0-0.1,0.1l0,0c-0.2,0.1-0.3,0.2-0.5,0.3l0,0l0,0c0,0-0.1,0.1-0.1,0.1c-0.2,0.2-0.4,0.4-0.5,0.6
		l0,0.1l-0.1,0.1c-0.1,0.1-0.2,0.2-0.2,0.4c0,0,0,0.1-0.1,0.1c0,0.1-0.1,0.1-0.1,0.2c-0.1,0.1-0.1,0.3-0.2,0.5
		c0,0.1-0.1,0.3-0.1,0.4c0,0.1-0.1,0.3-0.1,0.4c0,0.1-0.1,0.2-0.1,0.3c-0.4,1.8-0.2,4,0.8,6l0.9,1.9l1.4,2.9l0,0l0,0l2.8,5.9
		c0.1,0.1,0.1,0.2,0.2,0.3c1.2,2.2,2.9,3.3,4.4,3.3c0.1,0,0.2,0,0.4,0l0,0l0,0c0.1,0,0.1,0,0.2,0c0.1,0,0.2,0,0.3-0.1
		c0.1,0,0.2,0,0.3-0.1c0.1,0,0.3-0.1,0.4-0.2c0.1,0,0.1-0.1,0.2-0.1l0,0c0.1,0,0.1-0.1,0.2-0.1c0.1-0.1,0.2-0.2,0.4-0.3l0.1-0.1
		c0.1-0.1,0.1-0.1,0.2-0.2c0.1-0.1,0.2-0.3,0.3-0.4c0.1-0.1,0.1-0.2,0.2-0.2c0-0.1,0.1-0.2,0.1-0.3c0,0,0-0.1,0.1-0.1
		c0.1-0.2,0.2-0.5,0.3-0.8c0,0,0-0.1,0-0.1l0,0l0,0l0,0c0-0.2,0.1-0.3,0.1-0.5l1.8-8l0,0c-0.1-0.2-0.2-0.5-0.4-0.7l-2,9l0,0.1
		c0,0.1,0,0.1,0,0.1c-0.5,2-1.8,3-3.1,3c-1.4,0-3-1.1-4-3.2l-2.7-5.5l0,0L56,72.4c-1.8-3.7-0.6-7.9,1.9-8.5c0.2,0,0.4-0.1,0.5-0.1
		c0.2,0,0.4,0,0.7,0.1l5.2,1.2l0,0l1.1,0.1l0,0.2l0,0l0.3,0.1l0,0l1.1,0.3c-0.3-0.9-0.6-1.7-0.8-2.6l-1.1-0.2l-6.4-1.4
		C58.3,61.3,58,61.3,57.8,61.3"/>
	<polyline id="XMLID_813_" class="st25" points="63.1,78.4 63.5,80.7 64.9,82.1 66,78.7 63.5,80.7 63.1,78.4 	"/>
	<polyline id="XMLID_814_" class="st40" points="63.1,78.4 63.5,80.7 66,78.7 63.1,78.4 	"/>
	<polyline id="XMLID_815_" class="st25" points="55.6,66.4 56,68.7 57,69.7 57.4,70.1 58.1,68 58.5,66.7 56,68.7 55.6,66.4 	"/>
	<polyline id="XMLID_816_" class="st40" points="55.6,66.4 56,68.7 58.5,66.7 55.6,66.4 	"/>
	<polyline id="XMLID_817_" class="st25" points="62.6,65 63,67.2 64.2,68.5 64.3,68.7 64.4,68.5 65.4,65.4 65.5,65.2 63,67.2 
		62.6,65 	"/>
	<polyline id="XMLID_818_" class="st40" points="62.6,65 63,67.2 65.5,65.2 64.4,65.1 62.6,65 	"/>
	<polyline id="XMLID_819_" class="st25" points="59.7,72.2 60.1,74.2 61.3,75.5 62.2,72.4 60.1,74.2 59.7,72.2 	"/>
	<polyline id="XMLID_820_" class="st40" points="59.7,72.2 60.1,74.2 62.2,72.4 59.7,72.2 	"/>
	<polyline id="XMLID_821_" class="st25" points="66.1,71.3 66.5,73.5 67.9,75 69,71.5 66.5,73.5 66.1,71.3 	"/>
	<polyline id="XMLID_822_" class="st40" points="66.1,71.3 66.5,73.5 69,71.5 66.1,71.3 	"/>
	<path id="XMLID_834_" class="st35" d="M76.6,94.3c0.1,0,0.1,0,0.2,0C76.7,94.4,76.7,94.4,76.6,94.3 M79.8,93.9l-1.7,0.4
		c0,0-0.1,0-0.1,0c0,0,0.1,0,0.1,0L79.8,93.9 M75.3,93.8c0.1,0.1,0.3,0.2,0.4,0.2c0,0-0.1,0-0.1-0.1C75.5,93.9,75.4,93.8,75.3,93.8
		 M73.5,91.9c0.2,0.3,0.5,0.6,0.7,0.9C73.9,92.5,73.7,92.2,73.5,91.9 M72.4,89.8c0.1,0.2,0.1,0.4,0.2,0.6
		C72.6,90.2,72.5,90,72.4,89.8L72.4,89.8 M72.1,88.7c0.1,0.3,0.2,0.7,0.3,1c0,0,0-0.1,0-0.1c-0.1-0.2-0.1-0.4-0.2-0.6
		C72.1,88.8,72.1,88.8,72.1,88.7 M72,88c0,0.2,0.1,0.3,0.1,0.5c0-0.1,0-0.2-0.1-0.3C72,88.1,72,88,72,88 M71.9,85.6
		c0,0.2,0,0.4,0,0.5c0-0.1,0-0.3,0-0.4C71.9,85.7,71.9,85.6,71.9,85.6 M72,85.1c0,0.1,0,0.2,0,0.3c0-0.1,0-0.1,0-0.2
		C72,85.2,72,85.2,72,85.1 M74.7,81.7L74.7,81.7l-0.8,3.6c0,0.1,0,0.2-0.1,0.3c-0.7,3.9,1.9,8.3,4.7,8.3c0.2,0,0.4,0,0.6-0.1
		l3.5-0.8c-0.2-0.2-0.3-0.4-0.4-0.6l-1.4,0.3c-0.2,0-0.4,0.1-0.5,0.1c-1,0-2-0.7-2.8-1.8l-0.8,0.8l-1.6-0.5l0.5-3.9l0.9,1.2
		c-0.2-0.9-0.3-1.9,0-2.9l0.2-1l0,0c-0.1-0.1-0.2-0.3-0.3-0.4C75.8,83.5,75.2,82.6,74.7,81.7 M73.2,79.4L72.7,82l0,0L73.2,79.4
		L73.2,79.4"/>
	<path id="XMLID_835_" class="st36" d="M76.7,84.8l-0.2,1c-0.2,1-0.2,2,0,2.9l1.4,2L77.5,91c0.7,1.1,1.7,1.8,2.8,1.8
		c0.2,0,0.4,0,0.5-0.1l1.4-0.3l0,0c-1.6-1.9-3.1-4-4.5-6.1C77.4,85.8,77,85.3,76.7,84.8L76.7,84.8"/>
	<path id="XMLID_836_" class="st42" d="M72,84.8c0,0.1,0,0.2-0.1,0.4C72,85,72,84.9,72,84.8L72,84.8"/>
	<polyline id="XMLID_837_" class="st37" points="72.7,82 72.6,82 72,84.8 72,84.8 72,84.8 72,84.8 72.7,82 	"/>
	<polyline id="XMLID_838_" class="st38" points="72.7,82 72.6,82 72.6,82 72.7,82 72.7,82 	"/>
	<path id="XMLID_848_" class="st42" d="M78,94.4c-0.2,0-0.4,0.1-0.6,0.1c-0.2,0-0.4,0-0.6,0l0,0c0.1,0,0.2,0,0.4,0l0,0
		c0.1,0,0.1,0,0.1,0c0.1,0,0.1,0,0.2,0C77.7,94.4,77.8,94.4,78,94.4L78,94.4 M75.7,94c0.1,0.1,0.2,0.1,0.3,0.2
		c0.2,0.1,0.3,0.1,0.5,0.2c0,0,0.1,0,0.1,0C76.3,94.3,76,94.2,75.7,94 M83,93.2l-3.1,0.7L83,93.2L83,93.2 M74.2,92.8
		c0.2,0.2,0.3,0.4,0.5,0.5c0.1,0.1,0.3,0.2,0.4,0.3c0.1,0,0.1,0.1,0.2,0.1C74.9,93.5,74.5,93.2,74.2,92.8 M72.6,90.3
		c0.1,0.1,0.1,0.3,0.2,0.4c0.1,0.2,0.2,0.4,0.3,0.6c0.1,0.2,0.3,0.4,0.4,0.6C73.1,91.4,72.9,90.9,72.6,90.3 M72.4,89.6
		c0,0,0,0.1,0,0.1C72.4,89.7,72.4,89.7,72.4,89.6 M72,88.4c0,0.1,0,0.1,0,0.2l0,0.1C72.1,88.6,72.1,88.5,72,88.4 M71.9,86.1
		L71.9,86.1c0,0.6,0,1.1,0.1,1.6c0,0.1,0,0.2,0,0.3C71.9,87.3,71.8,86.7,71.9,86.1 M71.9,85.4c0,0,0,0.1,0,0.1
		C71.9,85.5,71.9,85.5,71.9,85.4"/>
	<path id="XMLID_849_" class="st39" d="M73.2,79.4L73.2,79.4L73.2,79.4L72.7,82l0,0l0,0L72,84.8l0,0c0,0.1-0.1,0.2-0.1,0.4
		c0,0,0,0.1,0,0.1c0,0.1,0,0.1,0,0.2c0,0,0,0.1,0,0.1c0,0.1,0,0.1,0,0.2c0,0.1,0,0.3,0,0.4c0,0.6,0,1.2,0.1,1.8c0,0.1,0,0.1,0,0.2
		c0,0.1,0,0.2,0.1,0.3c0,0.1,0,0.2,0.1,0.2c0,0.1,0,0.2,0.1,0.3c0,0.2,0.1,0.4,0.2,0.6c0,0,0,0.1,0,0.1c0,0,0,0.1,0,0.1l0,0.1
		c0.1,0.2,0.1,0.3,0.2,0.5c0.2,0.6,0.5,1.1,0.9,1.6c0.2,0.3,0.5,0.6,0.7,0.9c0.3,0.4,0.7,0.7,1.1,1c0.1,0.1,0.2,0.1,0.3,0.2
		c0,0,0.1,0,0.1,0.1c0.3,0.2,0.6,0.3,0.9,0.3c0.1,0,0.1,0,0.2,0c0.2,0,0.4,0,0.6,0c0.2,0,0.4,0,0.6-0.1c0,0,0.1,0,0.1,0l1.7-0.4
		l3.1-0.7l0,0c-0.1-0.1-0.2-0.2-0.3-0.3l-3.5,0.8c-0.2,0.1-0.4,0.1-0.6,0.1c-2.9,0-5.5-4.4-4.7-8.3c0-0.1,0-0.2,0.1-0.3l0.8-3.6
		c0-0.1-0.1-0.1-0.1-0.1C74.1,80.8,73.7,80.1,73.2,79.4L73.2,79.4"/>
	<polyline id="XMLID_850_" class="st25" points="75.7,87.4 76.7,91.8 75.1,91.3 76.7,91.8 77.5,91 77.9,90.6 76.5,88.7 75.7,87.4 	
		"/>
	<polyline id="XMLID_1107_" class="st40" points="75.7,87.4 75.1,91.3 76.7,91.8 75.7,87.4 	"/>
	<path id="XMLID_1108_" class="st43" d="M126.3,65.2H126c0,16.7-6.8,31.9-17.7,42.8c-11,11-26.1,17.7-42.8,17.7
		c-16.7,0-31.9-6.8-42.8-17.7C11.6,97,4.8,81.9,4.8,65.2c0-16.7,6.8-31.9,17.7-42.8c11-11,26.1-17.7,42.8-17.7
		c16.7,0,31.9,6.8,42.8,17.7c11,11,17.7,26.1,17.7,42.8H126.3h0.3c0-33.8-27.4-61.3-61.3-61.3C31.5,3.9,4.1,31.3,4.1,65.2
		c0,33.8,27.4,61.3,61.3,61.3c33.8,0,61.3-27.4,61.3-61.3H126.3z"/>
</g>
</svg>
