<?xml version="1.0" encoding="utf-8"?>
<!-- Generator: Adobe Illustrator 19.0.0, SVG Export Plug-In . SVG Version: 6.00 Build 0)  -->
<svg version="1.1" id="Layer_1" xmlns="http://www.w3.org/2000/svg" xmlns:xlink="http://www.w3.org/1999/xlink" x="0px" y="0px"
	 viewBox="0 0 218 149" style="enable-background:new 0 0 218 149;" xml:space="preserve">
<style type="text/css">
	.st0{fill:#9A6948;}
	.st1{fill:#7E4123;}
	.st2{fill:#A0B528;}
	.st3{fill:#AEC02D;}
	.st4{fill:#8BA514;}
	.st5{fill:#A6B92A;}
	.st6{fill:#B3C42F;}
	.st7{fill:#91AA15;}
	.st8{fill:#DCE4A4;}
	.st9{fill:#D19F7D;}
	.st10{fill:#F2E4B7;}
	.st11{fill:#9CAA22;}
	.st12{fill:#ECD79C;}
	.st13{fill:#FC656A;}
	.st14{fill:#FD797F;}
	.st15{fill:#F1AD8C;}
	.st16{fill:#EBA377;}
	.st17{fill:#FB4C51;}
	.st18{fill:#FDAAAD;}
	.st19{fill:#FEB5B9;}
	.st20{fill:#FA3A3E;}
	.st21{fill:#FE9198;}
	.st22{fill:#FFA7AD;}
	.st23{fill:#FF383E;}
	.st24{fill:#FF555E;}
	.st25{fill:#FC161A;}
	.st26{fill:#FD1B1F;}
	.st27{fill:#FE2025;}
	.st28{fill:#FF252A;}
	.st29{fill:#FF0C0F;}
	.st30{fill:#E6CC83;}
	.st31{fill:#ABBE2D;}
	.st32{fill:#F4E8C0;}
	.st33{fill:#A8B426;}
	.st34{fill:#EEDCA8;}
	.st35{fill:#FD7177;}
	.st36{fill:#FE878E;}
	.st37{fill:#F3B79A;}
	.st38{fill:#EDAE85;}
	.st39{fill:#FC555B;}
	.st40{fill:#FF9EA5;}
	.st41{fill:#FFB2B7;}
	.st42{fill:#FF3F45;}
	.st43{fill:#FF5F69;}
	.st44{fill:#FE1E23;}
	.st45{fill:#FF2429;}
	.st46{fill:#FF0D11;}
	.st47{fill:#E9D392;}
	.st48{fill:#FF292F;}
	.st49{fill:#FD181D;}
	.st50{fill:#6C922F;}
	.st51{fill:#467511;}
	.st52{fill:#7AA135;}
	.st53{fill:#4F8513;}
	.st54{fill:#A6CC5C;}
	.st55{fill:#64541A;}
	.st56{fill:#A55A2B;}
	.st57{fill:#2E5E06;}
	.st58{fill:#C6D6A8;}
	.st59{fill:#729831;}
	.st60{fill:#4A7B12;}
	.st61{fill:#80A638;}
	.st62{fill:#538C14;}
	.st63{fill:#69581B;}
	.st64{fill:#306306;}
	.st65{fill:#204F02;}
	.st66{fill:#42210B;}
</style>
<g id="XMLID_516_">
	<path id="XMLID_514_" class="st0" d="M74.9,26.1c-1.3-0.7-2.7-1.2-4.2-1.5c-1.4-0.4-2.9-0.6-4.4-0.7c-1.5-0.1-2.9-0.1-4.4,0
		c-0.7,0-1.5,0.2-2.2,0.2c-0.3,0-0.6,0.1-0.9,0.2c-0.4,0.1-0.8,0.2-1.2,0.2l-0.3-1.9c0.8-0.1,1.5-0.1,2.3-0.2c0.8,0,1.5-0.1,2.3,0
		c1.5,0,3,0.2,4.5,0.4c1.5,0.3,3,0.7,4.4,1.2c1.2,0.4,2.3,0.9,3.3,1.5C74.4,25.8,74.7,26,74.9,26.1"/>
	<path id="XMLID_513_" class="st1" d="M62.7,23.2c-0.5,0-1.1,0-1.6,0c-0.3,0-0.6,0-0.9,0.1v0.8c0.6-0.1,1.2-0.2,1.8-0.2
		c0.7-0.1,1.5-0.1,2.2-0.1c0.7,0,1.4,0,2.2,0.1c0.2,0,0.4,0,0.5,0c0-0.2-0.1-0.3-0.1-0.4c-1.2-0.2-2.3-0.3-3.5-0.3
		C63.1,23.2,62.9,23.2,62.7,23.2"/>
	<polyline id="XMLID_512_" class="st0" points="60.1,17.7 60.1,49.9 53.7,49.9 53.7,17.7 60.1,17.7 	"/>
	<path id="XMLID_511_" class="st1" d="M60.1,17.7h-3.2V36c0.1,0,0.2,0,0.3,0c1,0,2,0,2.9,0.1v-12v-0.8v-0.8V17.7"/>
	<path id="XMLID_510_" class="st2" d="M107.2,94.5c0,18.1-9.6,33.9-24,42.7c-7.6,4.7-16.5,7.3-26.1,7.3c-27.6,0-50.1-22.4-50.1-50.1
		c0-5.1,0.8-10.4,2.2-15.5C14.9,59.2,30.2,41.1,49,36.9c2.6-0.6,5.4-0.9,8.1-0.9c12.3,0,23.6,6.1,32.3,15.3
		C100.3,62.8,107.2,79.2,107.2,94.5"/>
	<path id="XMLID_1071_" class="st3" d="M72.9,50.6C72.9,50.6,72.9,50.6,72.9,50.6c-2.8,0.4-5.5,1-8.2,1.9C52.3,56.8,42,68,40.8,81.1
		c-1.1,11,4.1,21.8,10.4,30.9c2.1,3,4.3,6,6.7,8.7l0,0c3.9-0.8,7.6-2.2,11-4.2c-2-5.1-3.1-10.6-3.1-16.4l0,0l0,0
		c0-1.2,0-2.4,0.1-3.6l0,0c1-12.9,7.5-24.2,17.1-31.6C80.5,59.6,77.1,54.6,72.9,50.6 M25.3,64.9c-0.7,0-1.4-0.2-1.8-0.6
		c-1.6-1.5-0.7-5.1,2-8c1.9-2.1,4.2-3.3,6-3.3c0.7,0,1.4,0.2,1.8,0.6c1.6,1.5,0.7,5.1-2,8C29.4,63.7,27.1,64.9,25.3,64.9 M35.7,53.4
		c-0.6,0-1.1-0.2-1.6-0.6c-0.9-0.9-1-2.3-0.1-3.3c0.5-0.5,1.1-0.8,1.7-0.8c0.6,0,1.1,0.2,1.6,0.6c0.9,0.9,1,2.3,0.1,3.3
		C36.9,53.1,36.3,53.4,35.7,53.4 M49.4,40.6c-18.5,0.6-33.7,19.7-36.1,38.5c0,0,0,0,0,0c10.9-0.2,21.7-5.4,28.4-14
		C47.1,58.2,49.8,49.3,49.4,40.6"/>
	<path id="XMLID_1068_" class="st4" d="M7.1,94.5L7.1,94.5c0,27.6,22.4,50.1,50.1,50.1c9.6,0,18.5-2.7,26.1-7.3
		c0.4-0.3,0.9-0.5,1.3-0.8c-2.5-1.8-4.8-3.8-6.9-6c-1.7,1-3.4,1.8-5.2,2.6l0.3,0.1c3.3,1.8,6.8,3.3,10.5,4.1
		c-7.6,4.7-16.5,7.3-26.1,7.3C29.5,144.6,7.1,122.2,7.1,94.5 M49,36.9L49,36.9C30.2,41.1,14.9,59.2,9.3,79c0.3,0,0.7,0.1,1,0.1l0,0
		c4.5-19.7,19.9-38.3,38.8-41.5l0,0l0,0C49.1,37.4,49.1,37.1,49,36.9"/>
	<path id="XMLID_1065_" class="st5" d="M10.4,79.1L10.4,79.1C9.5,83,9,86.9,9,90.7c0,25.3,20.5,45.8,45.8,45.8
		c6.3,0,12.3-1.3,17.7-3.6l0,0c-5.6-3.2-10.4-7.5-14.7-12.3c-2.4,0.5-5,0.8-7.6,0.8c-20.6,0-37.3-16.7-37.3-37.3
		c0-1.7,0.1-3.4,0.3-5c-0.3,0-0.6,0-0.9,0C11.8,79.1,11.1,79.1,10.4,79.1 M54.8,37.1c-1.9,0-3.8,0.2-5.7,0.5c0.1,1,0.2,2,0.3,3
		c0,0,0,0,0,0c0.3,0,0.6,0,0.9,0c8.5,0,16.4,3.9,22.7,10c1.8-0.2,3.7-0.4,5.6-0.4c-2-2.5-3.6-5.2-5-7.8
		C67.8,39.1,61.5,37.1,54.8,37.1"/>
	<path id="XMLID_501_" class="st6" d="M50.3,40.6c-0.3,0-0.6,0-0.9,0c0.4,8.7-2.3,17.6-7.6,24.5c-6.7,8.6-17.5,13.8-28.4,14
		c0,0,0,0,0,0c-0.2,1.7-0.3,3.4-0.3,5c0,20.6,16.7,37.3,37.3,37.3c2.6,0,5.1-0.3,7.6-0.8c0,0,0,0,0,0c-2.4-2.8-4.7-5.7-6.7-8.7
		c-6.3-9.1-11.4-19.8-10.4-30.9C42,68,52.3,56.8,64.7,52.5c2.7-0.9,5.4-1.5,8.2-1.9c0,0,0,0,0,0C66.7,44.5,58.8,40.6,50.3,40.6"/>
	<path id="XMLID_1061_" class="st7" d="M9.3,79L9.3,79c-1.4,5.1-2.2,10.4-2.2,15.5c0,27.6,22.4,50.1,50.1,50.1
		c9.6,0,18.5-2.7,26.1-7.3c-3.7-0.9-7.2-2.3-10.5-4.1l-0.3-0.1l0,0c-5.5,2.3-11.4,3.6-17.7,3.6C29.5,136.5,9,116,9,90.7
		c0-3.9,0.5-7.8,1.4-11.7l0,0l0,0C10,79.1,9.7,79,9.3,79 M57.2,36c-2.8,0-5.5,0.3-8.1,0.9c0,0.2,0.1,0.5,0.1,0.7l0,0
		c1.9-0.3,3.7-0.5,5.7-0.5c6.7,0,13,2,18.7,5.3c-0.6-1.2-1.2-2.4-1.8-3.5C67.1,37,62.2,36,57.2,36"/>
	<path id="XMLID_498_" class="st8" d="M31.4,53c-1.8,0-4.1,1.2-6,3.3c-2.7,2.9-3.6,6.5-2,8c0.5,0.4,1.1,0.6,1.8,0.6
		c1.8,0,4.1-1.2,6-3.3c2.7-2.9,3.6-6.5,2-8C32.8,53.2,32.1,53,31.4,53"/>
	<path id="XMLID_497_" class="st8" d="M35.7,48.7c-0.6,0-1.3,0.3-1.7,0.8c-0.9,0.9-0.8,2.4,0.1,3.3c0.4,0.4,1,0.6,1.6,0.6
		c0.6,0,1.3-0.3,1.7-0.8c0.9-0.9,0.8-2.4-0.1-3.3C36.8,48.9,36.2,48.7,35.7,48.7"/>
	<ellipse id="XMLID_496_" class="st9" cx="56.9" cy="17.8" rx="3.3" ry="0.9"/>
	<path id="XMLID_495_" class="st2" d="M154.8,100.1c0,18-10.7,33.5-26.1,40.5c-5.6,2.5-11.8,4-18.4,4c-24.6,0-44.5-19.9-44.5-44.5
		c0-1.2,0-2.4,0.1-3.6C67.4,78,80.2,62.6,97.5,57.4c4-1.2,8.3-1.9,12.8-1.9c11.1,0,21.2,4,28.9,10.7
		C148.7,74.4,154.8,86.6,154.8,100.1"/>
	<path id="XMLID_494_" class="st10" d="M153.3,100.1c0,23.8-19.3,43-43,43c-23.8,0-43-19.3-43-43c0-23.8,19.3-43,43-43
		C134,57.1,153.3,76.3,153.3,100.1"/>
	<path id="XMLID_1020_" class="st11" d="M133.8,136.1c-0.1,0.1-0.2,0.1-0.3,0.2l0.1-0.1C133.7,136.2,133.8,136.2,133.8,136.1
		 M135.6,134.9c0,0-0.1,0.1-0.1,0.1C135.5,135,135.5,135,135.6,134.9C135.5,134.9,135.5,134.9,135.6,134.9 M137.7,133.3
		c-0.1,0.1-0.2,0.2-0.4,0.3C137.4,133.5,137.5,133.4,137.7,133.3C137.7,133.3,137.7,133.3,137.7,133.3 M139.2,131.9
		c0,0-0.1,0.1-0.1,0.1C139.1,132,139.2,132,139.2,131.9C139.2,131.9,139.2,131.9,139.2,131.9 M139.4,131.8
		C139.4,131.8,139.4,131.8,139.4,131.8C139.3,131.8,139.3,131.8,139.4,131.8C139.4,131.8,139.4,131.8,139.4,131.8 M142.6,128.5
		C142.6,128.5,142.5,128.6,142.6,128.5C142.5,128.6,142.5,128.6,142.6,128.5C142.6,128.5,142.6,128.5,142.6,128.5 M144,126.8
		C144,126.8,144,126.8,144,126.8C144,126.8,144,126.8,144,126.8C144,126.8,144,126.8,144,126.8 M147.8,121.2c0,0-0.1,0.1-0.1,0.1
		C147.7,121.3,147.7,121.3,147.8,121.2 M150.1,116.5c-0.2,0.4-0.3,0.8-0.5,1.2c0,0,0-0.1,0.1-0.1
		C149.8,117.2,149.9,116.8,150.1,116.5 M151.4,112.9c-0.2,0.6-0.4,1.2-0.6,1.7c0-0.1,0.1-0.1,0.1-0.2
		C151,114,151.2,113.4,151.4,112.9 M152,110.5c-0.1,0.4-0.2,0.7-0.3,1c0.1-0.3,0.2-0.6,0.2-0.9C152,110.6,152,110.5,152,110.5
		 M152.3,109.2c0,0.2-0.1,0.4-0.1,0.5C152.3,109.5,152.3,109.3,152.3,109.2 M152.9,106.1c-0.1,0.9-0.3,1.8-0.5,2.6
		c0-0.2,0.1-0.3,0.1-0.5C152.7,107.6,152.8,106.9,152.9,106.1 M153,105.2c0,0.1,0,0.3-0.1,0.4C153,105.5,153,105.3,153,105.2
		C153,105.2,153,105.2,153,105.2 M153.1,104.5c0,0.1,0,0.1,0,0.2C153.1,104.6,153.1,104.5,153.1,104.5 M153.2,102.7
		c0,0.3,0,0.7-0.1,1C153.2,103.4,153.2,103.1,153.2,102.7 M67.5,94.8c0,0.1,0,0.2,0,0.3C67.5,95,67.5,94.9,67.5,94.8 M67.7,93.8
		c0,0.1,0,0.1,0,0.2C67.7,93.9,67.7,93.9,67.7,93.8 M67.8,93.3c0,0.1,0,0.2,0,0.2C67.7,93.5,67.7,93.4,67.8,93.3 M67.9,92.8
		c0,0.1,0,0.3-0.1,0.4C67.8,93,67.8,92.9,67.9,92.8 M68.2,91c0,0.2-0.1,0.4-0.1,0.7C68.1,91.4,68.2,91.2,68.2,91 M152.1,89.8
		c0.8,3.3,1.2,6.7,1.2,10.3c0,0.8,0,1.6-0.1,2.4c0-0.1,0-0.3,0-0.5c0-0.6,0-1.3,0-1.9c0-2.2-0.2-4.4-0.5-6.6
		c-0.1-0.7-0.2-1.4-0.4-2.1C152.3,90.9,152.2,90.3,152.1,89.8 M68.5,89.6c0,0.1-0.1,0.2-0.1,0.3C68.5,89.8,68.5,89.7,68.5,89.6
		 M70.8,82.9c-0.1,0.1-0.1,0.3-0.2,0.4c-0.1,0.3-0.3,0.7-0.4,1c-0.3,0.7-0.5,1.3-0.7,2c-0.2,0.7-0.4,1.4-0.6,2.1
		c-0.1,0.3-0.2,0.6-0.2,0.9c0,0.1,0,0.2-0.1,0.2C69.1,87.2,69.9,85,70.8,82.9 M73.3,78c-0.1,0.2-0.3,0.4-0.4,0.6
		c-0.3,0.6-0.7,1.2-1,1.8c-0.1,0.2-0.2,0.4-0.3,0.7C72.1,80.1,72.7,79.1,73.3,78 M76,74.1c-0.1,0.1-0.1,0.2-0.2,0.3
		c-0.8,1.1-1.6,2.2-2.3,3.4v0C74.2,76.5,75.1,75.3,76,74.1 M77.2,72.6c0,0-0.1,0.1-0.1,0.1c0,0,0,0,0,0
		C77.1,72.7,77.1,72.6,77.2,72.6 M140.4,69.3c5.3,5.2,9.3,11.8,11.4,19.2c-2-7.2-5.9-13.7-11-18.9C140.6,69.6,140.5,69.4,140.4,69.3
		 M81.1,68.4c-0.7,0.6-1.4,1.3-2,2v0c0,0,0,0,0,0C79.7,69.7,80.4,69.1,81.1,68.4 M83.2,66.6c-0.6,0.5-1.1,0.9-1.7,1.4
		C82.1,67.5,82.7,67.1,83.2,66.6 M136.4,65.9C136.4,65.9,136.4,65.9,136.4,65.9C136.4,65.9,136.4,65.9,136.4,65.9
		C136.4,65.9,136.4,65.9,136.4,65.9 M86,64.5c-0.3,0.2-0.6,0.4-0.9,0.6C85.4,64.9,85.7,64.7,86,64.5 M87.3,63.7
		c-0.1,0-0.1,0.1-0.2,0.1c0,0-0.1,0-0.1,0.1C87.1,63.8,87.2,63.7,87.3,63.7 M89.8,62.2C89.8,62.2,89.8,62.2,89.8,62.2
		C89.7,62.2,89.7,62.3,89.8,62.2C89.7,62.3,89.8,62.2,89.8,62.2 M90.7,61.8C90.7,61.8,90.7,61.8,90.7,61.8
		C90.6,61.8,90.6,61.8,90.7,61.8C90.6,61.8,90.7,61.8,90.7,61.8"/>
	<path id="XMLID_1017_" class="st12" d="M132.4,65.7c-0.9,0-1.7,0-2.6,0.1l0,0l0,0c3.3,2.3,6.2,5,8.6,8.2c0,0,0,0,0,0c0,0,0,0,0,0
		c2.2,2.4,4.1,5,5.6,7.8c0.4,0.8,0.9,1.7,1.3,2.5c0.1,0.1,0.1,0.2,0.2,0.4c0,0.1,0.1,0.2,0.1,0.3c0,0,0,0.1,0,0.1
		c0.1,0.3,0.2,0.6,0.4,0.9c0,0,0,0.1,0.1,0.1c0.1,0.3,0.2,0.5,0.3,0.8c0.1,0.3,0.2,0.5,0.3,0.8c0,0.1,0.1,0.2,0.1,0.2
		c0,0.1,0.1,0.3,0.1,0.4c0.2,0.7,0.4,1.4,0.6,2.1c0,0.1,0.1,0.2,0.1,0.4c0,0.1,0.1,0.2,0.1,0.4c0,0.2,0.1,0.3,0.1,0.5
		c0.1,0.4,0.2,0.8,0.3,1.2c0,0.1,0.1,0.3,0.1,0.4c0,0.2,0.1,0.5,0.1,0.7c0.3,2,0.5,4,0.5,6c0,1.7-0.1,3.4-0.3,5.1
		c0,0.2-0.1,0.5-0.1,0.7c0,0,0,0.1,0,0.1c0,0.1,0,0.3-0.1,0.4c0,0.1,0,0.3-0.1,0.4c0,0.3-0.1,0.5-0.1,0.8c0,0.2-0.1,0.3-0.1,0.5
		c0,0.1,0,0.2-0.1,0.3c0,0.2-0.1,0.4-0.1,0.6c0,0.1,0,0.1,0,0.2c0,0.2-0.1,0.3-0.1,0.5c0,0.1-0.1,0.2-0.1,0.3c0,0.2-0.1,0.4-0.1,0.5
		c-0.2,0.6-0.3,1.1-0.5,1.7c-0.2,0.7-0.5,1.4-0.7,2c-0.1,0.2-0.1,0.3-0.2,0.5c-2.5,6.1-6.5,11.4-11.6,15.5c-0.1,0.1-0.2,0.1-0.3,0.2
		c-0.6,0.5-1.3,1-2,1.4c-0.1,0.1-0.2,0.2-0.3,0.2c-0.1,0.1-0.2,0.2-0.4,0.2c-1.6,1-3.3,2-5,2.8c-0.1,0-0.2,0.1-0.3,0.1
		c-0.2,0.1-0.3,0.1-0.5,0.2c-1.1,0.5-2.3,0.9-3.5,1.3c0,0,0,0,0,0c0,0,0,0,0,0c-0.2,0.1-0.3,0.1-0.5,0.1c0,0,0,0,0,0
		c0.9,0.6,1.9,1.3,2.9,1.8c0.8,0.4,1.5,0.8,2.3,1.2l0,0c0.3-0.1,0.5-0.2,0.8-0.3c0.2-0.1,0.5-0.2,0.7-0.3c0.5-0.2,0.9-0.4,1.4-0.7
		c0.3-0.1,0.5-0.3,0.8-0.4c0.2-0.1,0.4-0.2,0.6-0.3c0.7-0.4,1.4-0.8,2.1-1.2l0.5-0.3c0.1-0.1,0.2-0.1,0.3-0.2
		c0.4-0.3,0.8-0.5,1.2-0.8c0.1-0.1,0.3-0.2,0.4-0.3c0,0,0.1-0.1,0.1-0.1c0.2-0.2,0.5-0.3,0.7-0.5c0.2-0.2,0.4-0.3,0.6-0.5
		c0.1-0.1,0.3-0.2,0.4-0.3c0.1-0.1,0.2-0.2,0.4-0.3c0.5-0.4,0.9-0.8,1.4-1.2c0,0,0.1-0.1,0.1-0.1c0,0,0.1-0.1,0.1-0.1
		c0,0,0.1-0.1,0.1-0.1c0.3-0.3,0.7-0.6,1-0.9c0.2-0.2,0.4-0.4,0.5-0.5c0.4-0.4,0.7-0.7,1.1-1.1c0.2-0.2,0.3-0.4,0.5-0.6
		c0,0,0,0,0.1-0.1c0.2-0.2,0.3-0.4,0.5-0.5c0.3-0.4,0.7-0.8,1-1.2c0,0,0,0,0,0c0.3-0.4,0.6-0.8,0.9-1.2c0.2-0.2,0.3-0.4,0.5-0.6
		c0.3-0.4,0.6-0.9,0.9-1.3c0.4-0.7,0.8-1.3,1.2-2c0-0.1,0.1-0.2,0.1-0.2c0,0,0.1-0.1,0.1-0.1c0.1-0.1,0.1-0.2,0.2-0.3
		c0.1-0.2,0.3-0.5,0.4-0.7c0.2-0.5,0.5-0.9,0.7-1.4c0.1-0.2,0.2-0.5,0.3-0.7c0.1-0.2,0.1-0.3,0.2-0.5c0.2-0.4,0.3-0.8,0.5-1.2
		c0.1-0.2,0.1-0.4,0.2-0.5c0.1-0.2,0.2-0.5,0.3-0.7c0.1-0.2,0.1-0.4,0.2-0.5c0.2-0.6,0.4-1.2,0.6-1.7c0.1-0.2,0.2-0.5,0.2-0.7
		c0.1-0.2,0.1-0.4,0.2-0.6c0,0,0,0,0-0.1c0.1-0.3,0.2-0.7,0.3-1c0.1-0.2,0.1-0.4,0.2-0.7c0,0,0-0.1,0-0.1c0-0.2,0.1-0.4,0.1-0.5
		c0,0,0-0.1,0-0.1c0-0.1,0-0.2,0.1-0.3c0.2-0.9,0.3-1.7,0.5-2.6c0-0.1,0-0.2,0-0.3c0-0.1,0-0.2,0-0.3c0-0.1,0-0.3,0.1-0.4
		c0-0.2,0-0.3,0.1-0.5c0-0.1,0-0.1,0-0.2c0-0.1,0-0.3,0-0.4c0-0.1,0-0.2,0-0.3c0-0.3,0.1-0.7,0.1-1c0-0.1,0-0.1,0-0.2
		c0,0,0-0.1,0-0.1c0-0.8,0.1-1.6,0.1-2.4c0-3.5-0.4-7-1.2-10.3c0-0.2-0.1-0.3-0.1-0.5c-0.1-0.3-0.1-0.5-0.2-0.8
		c-2.1-7.4-6-14-11.4-19.2c-0.2-0.2-0.3-0.3-0.5-0.5c-0.2-0.2-0.3-0.3-0.5-0.5c-0.2-0.2-0.5-0.4-0.7-0.7c-0.3-0.3-0.7-0.6-1-0.8
		c-0.1-0.1-0.1-0.1-0.2-0.2c-0.3-0.2-0.5-0.4-0.8-0.7c-0.1,0-0.1-0.1-0.2-0.1c0,0,0,0,0,0c0,0,0,0,0,0l0,0
		C135.1,65.8,133.7,65.7,132.4,65.7 M91.3,61.5l-0.6,0.3c0,0,0,0,0,0c0,0,0,0,0,0c-0.3,0.2-0.6,0.3-0.9,0.5c0,0,0,0-0.1,0
		c0,0,0,0,0,0c-0.6,0.3-1.2,0.7-1.8,1c-0.2,0.1-0.4,0.3-0.7,0.4c-0.1,0.1-0.2,0.1-0.3,0.2c0,0,0,0,0,0c-0.3,0.2-0.6,0.4-0.8,0.5
		c-0.1,0-0.1,0.1-0.2,0.1c-0.3,0.2-0.6,0.4-0.9,0.6c-0.2,0.2-0.4,0.3-0.6,0.5c-0.3,0.2-0.5,0.4-0.8,0.6c-0.2,0.1-0.3,0.2-0.5,0.4
		c-0.6,0.5-1.1,0.9-1.7,1.4c-0.1,0.1-0.2,0.1-0.2,0.2c-0.1,0.1-0.1,0.1-0.2,0.2c-0.7,0.7-1.4,1.3-2.1,2c-0.2,0.2-0.4,0.5-0.7,0.7
		c-0.2,0.3-0.5,0.5-0.7,0.8c-0.2,0.2-0.4,0.4-0.6,0.7c0,0-0.1,0.1-0.1,0.1c0,0,0,0,0,0c-0.4,0.4-0.7,0.9-1.1,1.3
		c-0.9,1.2-1.8,2.4-2.5,3.7v0c-0.1,0.1-0.1,0.2-0.2,0.3c-0.6,1-1.2,2.1-1.7,3.1c-0.1,0.1-0.1,0.3-0.2,0.4c-0.1,0.2-0.2,0.5-0.3,0.7
		c-0.1,0.2-0.2,0.4-0.3,0.6c-0.9,2.1-1.7,4.3-2.2,6.6c0,0,0,0,0,0c0,0,0,0.1,0,0.1c0,0.1-0.1,0.2-0.1,0.3c0,0.1-0.1,0.3-0.1,0.4
		c-0.1,0.2-0.1,0.4-0.1,0.6c0,0.2-0.1,0.4-0.1,0.7c-0.1,0.3-0.1,0.6-0.2,0.9c0,0.1,0,0.2-0.1,0.3c0,0.1,0,0.3-0.1,0.4
		c0,0,0,0.1,0,0.1c0,0,0,0,0,0.1c0,0.1,0,0.2,0,0.2c0,0,0,0.1,0,0.1c0,0.1,0,0.1,0,0.2c0,0.1,0,0.1,0,0.2c0,0.1,0,0.1,0,0.2
		c0,0.2-0.1,0.4-0.1,0.7c0,0.1,0,0.2,0,0.3c0,0,0,0,0,0.1c0,0.4-0.1,0.9-0.1,1.3c0.6,0,1.1,0,1.7-0.1l0,0
		c0.5-15.4,10-28.6,23.4-34.4C92.1,61.9,91.7,61.7,91.3,61.5"/>
	<path id="XMLID_456_" class="st13" d="M148.7,100.1c0,21.2-17.2,38.4-38.4,38.4c-21.2,0-38.4-17.2-38.4-38.4
		c0-21.2,17.2-38.4,38.4-38.4C131.5,61.7,148.7,78.9,148.7,100.1"/>
	<path id="XMLID_1012_" class="st14" d="M114.7,70.1c-2.4,1.4-4.7,3-6.7,5c0,0,0,0,0,0c0.9-0.1,1.7-0.1,2.6-0.1c1,0,2,0.1,3,0.2
		c0,0,0,0,0,0c0.2-0.2,0.3-0.5,0.5-0.7c0.9-1.1,2.3-1.8,3.7-2.1C116.9,71.6,115.8,70.8,114.7,70.1 M90.8,73.6c-0.5,0-1-0.2-1.4-0.6
		c-0.8-0.8-0.8-2-0.1-2.9c0.4-0.4,0.9-0.6,1.5-0.6c0.5,0,1,0.2,1.4,0.6c0.8,0.8,0.8,2,0.1,2.9C91.9,73.4,91.3,73.6,90.8,73.6
		 M98.4,66.8c-5.8,0.8-10.9,3.6-14.7,7.6c1.2-0.8,2.3-1.2,3.3-1.2c0.7,0,1.2,0.2,1.6,0.6c1.4,1.3,0.5,4.4-1.9,6.9
		c-1.7,1.7-3.7,2.7-5.2,2.7c-0.7,0-1.2-0.2-1.6-0.6c-0.5-0.5-0.7-1.2-0.7-2C77.9,84,77,87.6,77,91.4c0,1.2,0.1,2.4,0.3,3.6
		c0,0,0,0,0,0c4-1.3,7.8-3.4,10.9-6.1c-0.4-0.6-0.8-1.2-1-1.8c0,0,0,0,0,0c0,0,0,0,0,0c0-0.1-0.1-0.2-0.1-0.4c0-0.1,0-0.1,0-0.2
		c0-0.1,0-0.2-0.1-0.2c0,0,0-0.1,0-0.1c0-0.2-0.1-0.4-0.1-0.6c0-0.2,0-0.3,0-0.5c0-0.7,0.1-1.5,0.4-2.2c0.3-0.8,0.8-1.6,1.6-2.3
		c0,0,0,0,0.1,0c0,0,0,0,0,0c0.1-0.1,0.2-0.1,0.3-0.2c0,0,0,0,0,0l8.2-6.4C98,71.5,98.3,69.2,98.4,66.8
		C98.4,66.8,98.4,66.8,98.4,66.8"/>
	<path id="XMLID_1003_" class="st15" d="M138.5,74C138.5,74,138.5,74,138.5,74C138.5,74,138.5,74,138.5,74 M137.8,73.3
		c0.2,0.2,0.4,0.4,0.5,0.6C138.1,73.6,137.9,73.4,137.8,73.3 M86.1,70.2c-2.1,1.7-3.9,3.5-5.6,5.6C82.2,73.7,84.1,71.9,86.1,70.2
		 M134.2,70c0.2,0.2,0.4,0.4,0.7,0.5c0,0,0,0-0.1-0.1C134.6,70.3,134.4,70.2,134.2,70 M130.9,67.7c0.6,0.4,1.3,0.8,1.9,1.3
		c-0.1-0.1-0.2-0.2-0.3-0.2c-0.3-0.2-0.5-0.4-0.8-0.5C131.5,68,131.2,67.9,130.9,67.7 M91.8,66.4c-0.5,0.3-1,0.6-1.5,0.9
		c-0.5,0.3-1,0.7-1.6,1c-0.3,0.2-0.5,0.3-0.8,0.5c-0.2,0.2-0.4,0.3-0.6,0.5C88.8,68.2,90.3,67.2,91.8,66.4 M127.9,66L127.9,66
		c0.1,0.1,0.3,0.2,0.4,0.2C128.2,66.1,128.1,66,127.9,66 M96.5,64.2c-0.1,0-0.2,0.1-0.3,0.1c-0.6,0.2-1.2,0.5-1.7,0.7
		c-0.6,0.3-1.1,0.5-1.7,0.8c-0.3,0.1-0.5,0.3-0.8,0.4C93.4,65.5,94.9,64.8,96.5,64.2"/>
	<path id="XMLID_1000_" class="st15" d="M77.5,80c0,0-0.1,0.1-0.1,0.1c-0.3,0.4-0.5,0.9-0.8,1.3C76.9,81,77.2,80.5,77.5,80
		 M79.4,77.2c-0.2,0.2-0.3,0.4-0.4,0.6c-0.2,0.3-0.4,0.5-0.5,0.8c-0.2,0.3-0.4,0.6-0.6,0.9C78.3,78.7,78.8,78,79.4,77.2"/>
	<path id="XMLID_442_" class="st16" d="M144.1,81.8c0.5,0.9,1,1.9,1.4,2.9c-0.1-0.1-0.1-0.2-0.2-0.4
		C144.9,83.5,144.5,82.6,144.1,81.8"/>
	<path id="XMLID_441_" class="st15" d="M76.4,81.8c-0.1,0.3-0.3,0.5-0.4,0.8c-0.3,0.6-0.6,1.1-0.8,1.7c-0.5,1.1-1,2.3-1.4,3.5
		c-0.1,0.4-0.2,0.7-0.3,1.1C74.3,86.4,75.3,84,76.4,81.8"/>
	<path id="XMLID_992_" class="st16" d="M147.7,91.2c0,0.2,0.1,0.3,0.1,0.5C147.7,91.5,147.7,91.4,147.7,91.2 M147.5,90.5
		c0,0.1,0.1,0.2,0.1,0.4C147.5,90.7,147.5,90.6,147.5,90.5 M146.8,88c0,0.1,0.1,0.3,0.1,0.4C146.8,88.3,146.8,88.2,146.8,88
		 M146.4,87c0.1,0.3,0.2,0.5,0.3,0.8C146.6,87.5,146.5,87.2,146.4,87 M145.6,85c0.2,0.4,0.3,0.7,0.5,1.1c0,0,0-0.1-0.1-0.1
		c-0.1-0.3-0.2-0.6-0.4-0.9C145.7,85.1,145.6,85.1,145.6,85"/>
	<path id="XMLID_989_" class="st15" d="M72.5,92.9c0,0.1,0,0.2-0.1,0.3C72.5,93.1,72.5,93,72.5,92.9 M72.9,91.3
		c0,0.2-0.1,0.4-0.1,0.6c0,0.1,0,0.1,0,0.2c0,0.1-0.1,0.3-0.1,0.4C72.7,92.1,72.8,91.7,72.9,91.3"/>
	<path id="XMLID_433_" class="st16" d="M148,92.9c0.4,2.3,0.7,4.7,0.7,7.2c0,2-0.2,4-0.5,5.9c0,0,0-0.1,0-0.1c0-0.2,0.1-0.5,0.1-0.7
		c0.2-1.7,0.3-3.4,0.3-5.1c0-2.1-0.2-4.1-0.5-6c0-0.2-0.1-0.5-0.1-0.7C148.1,93.2,148.1,93.1,148,92.9"/>
	<path id="XMLID_432_" class="st15" d="M72.4,93.3c-0.1,0.3-0.1,0.6-0.1,0.8c-0.1,0.3-0.1,0.7-0.1,1c0,0.2-0.1,0.5-0.1,0.7
		c0,0.1,0,0.2,0,0.2c0,0,0,0,0,0C72.1,95.2,72.3,94.3,72.4,93.3"/>
	<path id="XMLID_431_" class="st16" d="M148.2,106.4c-0.1,0.9-0.3,1.7-0.5,2.6c0-0.2,0.1-0.4,0.1-0.6c0-0.1,0-0.2,0.1-0.3
		c0-0.2,0.1-0.3,0.1-0.5c0.1-0.3,0.1-0.5,0.1-0.8C148.1,106.7,148.2,106.5,148.2,106.4"/>
	<path id="XMLID_982_" class="st16" d="M146.8,112.1c-0.3,0.8-0.6,1.7-0.9,2.5c0.1-0.2,0.1-0.3,0.2-0.5
		C146.3,113.5,146.5,112.8,146.8,112.1 M147.4,109.9c0,0.2-0.1,0.4-0.1,0.5C147.3,110.3,147.4,110.1,147.4,109.9 M147.6,109.2
		c0,0.2-0.1,0.3-0.1,0.5C147.5,109.5,147.6,109.3,147.6,109.2"/>
	<path id="XMLID_977_" class="st16" d="M122.1,136.7C122.1,136.7,122.1,136.7,122.1,136.7C122.1,136.7,122.1,136.7,122.1,136.7
		C122.1,136.7,122.1,136.7,122.1,136.7 M126.3,135c-0.2,0.1-0.5,0.2-0.7,0.3c0.2-0.1,0.3-0.1,0.5-0.2
		C126.2,135.1,126.3,135,126.3,135 M131.7,132c-0.1,0.1-0.2,0.2-0.4,0.2C131.5,132.2,131.6,132.1,131.7,132 M134.2,130.1
		c-0.7,0.6-1.5,1.1-2.2,1.6c0.7-0.5,1.3-0.9,2-1.4C134.1,130.3,134.2,130.2,134.2,130.1"/>
	<path id="XMLID_972_" class="st17" d="M132,128.8c-0.5,0-0.9-0.2-1.3-0.5c-0.8-0.7-1-2-0.2-2.8c0.4-0.5,1-0.7,1.5-0.7
		c0.5,0,0.9,0.2,1.3,0.5c0.8,0.7,1,2,0.2,2.8C133.1,128.6,132.6,128.8,132,128.8 M135.5,124.9c-0.6,0-1.1-0.2-1.5-0.5
		c-1.4-1.2-0.8-4.4,1.4-7c1.6-1.9,3.7-3,5.2-3c0.6,0,1.1,0.2,1.5,0.5c1.4,1.2,0.8,4.4-1.4,7C139,123.8,137,124.9,135.5,124.9
		 M127.9,66L127.9,66L127.9,66c-2,0.2-3.9,0.6-5.9,1.1l0,0l0,0c10.9,5.5,18.4,16.8,18.4,29.9c0,16.2-11.5,29.6-26.7,32.8
		c1.6,1.8,3.4,3.6,5.2,5.1c0.8,0.7,1.7,1.3,2.5,2l0,0c0.2,0,0.3-0.1,0.5-0.1c0,0,0,0,0,0c0.2-0.1,0.3-0.1,0.5-0.2
		c0.3-0.1,0.6-0.2,0.9-0.3c0.6-0.2,1.2-0.4,1.7-0.7c0.1-0.1,0.3-0.1,0.4-0.2c0.3-0.1,0.5-0.2,0.7-0.3c0.4-0.2,0.8-0.4,1.2-0.6
		c0.2-0.1,0.5-0.2,0.7-0.4c0.5-0.3,1-0.5,1.4-0.8c0.2-0.1,0.5-0.3,0.7-0.4c0.2-0.1,0.5-0.3,0.7-0.4c0.1-0.1,0.2-0.1,0.3-0.2
		c0.1-0.1,0.2-0.2,0.4-0.2c0,0,0,0,0.1,0c0.1-0.1,0.2-0.1,0.3-0.2c0.8-0.5,1.5-1.1,2.2-1.6c1.1-0.9,2.2-1.9,3.2-2.9
		c0.4-0.4,0.8-0.8,1.2-1.3c0.2-0.2,0.4-0.4,0.6-0.6c0.2-0.2,0.4-0.4,0.6-0.7c0.2-0.2,0.4-0.4,0.5-0.7c0.2-0.2,0.4-0.5,0.5-0.7
		c0.2-0.2,0.3-0.5,0.5-0.7c0.2-0.2,0.3-0.5,0.5-0.7c0.2-0.2,0.3-0.5,0.5-0.7c0.3-0.5,0.7-1,1-1.5c0.1-0.2,0.3-0.5,0.4-0.7
		c0.1-0.3,0.3-0.5,0.4-0.8c0.1-0.3,0.3-0.5,0.4-0.8c0.3-0.5,0.5-1,0.8-1.6c0.2-0.4,0.4-0.8,0.5-1.3c0.3-0.8,0.6-1.7,0.9-2.5
		c0.1-0.2,0.1-0.4,0.2-0.6c0.1-0.3,0.2-0.6,0.3-0.9c0-0.1,0-0.1,0-0.2c0-0.2,0.1-0.4,0.1-0.5c0-0.1,0-0.1,0-0.2c0-0.1,0-0.1,0-0.2
		c0-0.2,0.1-0.3,0.1-0.5c0,0,0,0,0-0.1c0,0,0-0.1,0-0.1c0.2-0.9,0.4-1.7,0.5-2.6c0-0.1,0-0.2,0-0.3c0,0,0,0,0-0.1
		c0.3-1.9,0.5-3.9,0.5-5.9c0-2.5-0.2-4.9-0.7-7.2c0-0.1,0-0.1,0-0.2c0-0.3-0.1-0.6-0.2-0.8c0-0.1,0-0.1,0-0.2c0-0.2-0.1-0.3-0.1-0.5
		c0-0.1,0-0.1,0-0.2c0-0.1,0-0.1,0-0.2c0-0.1-0.1-0.2-0.1-0.4c0,0,0,0,0-0.1c-0.1-0.3-0.1-0.6-0.2-0.8c-0.1-0.3-0.2-0.6-0.3-0.9
		c0-0.1,0-0.2-0.1-0.2c0-0.1-0.1-0.3-0.1-0.4c0,0,0-0.1,0-0.1c0,0,0-0.1,0-0.1c-0.1-0.3-0.2-0.5-0.3-0.8c0,0,0-0.1,0-0.1
		c-0.1-0.2-0.2-0.5-0.3-0.7c-0.1-0.4-0.3-0.8-0.5-1.1c0-0.1-0.1-0.2-0.1-0.3c-0.4-1-0.9-1.9-1.4-2.9c-0.3-0.6-0.6-1.1-1-1.7
		c-0.2-0.3-0.3-0.5-0.5-0.8c-0.7-1-1.4-2-2.1-3c-0.2-0.2-0.4-0.5-0.5-0.7c-0.5-0.6-1-1.1-1.5-1.7l0,0c0,0,0,0,0,0l0,0c0,0,0,0,0,0
		l0,0c0,0,0,0,0,0c-0.1-0.1-0.1-0.1-0.2-0.2c-0.2-0.2-0.4-0.4-0.5-0.6c-0.1-0.1-0.2-0.2-0.3-0.3c-0.3-0.3-0.6-0.6-0.9-0.8
		c-0.2-0.1-0.3-0.3-0.5-0.4c-0.2-0.2-0.5-0.4-0.7-0.6c-0.2-0.2-0.4-0.3-0.6-0.5c-0.2-0.2-0.4-0.4-0.7-0.5c-0.1,0-0.1-0.1-0.2-0.1
		c-0.2-0.2-0.4-0.3-0.6-0.5c-0.2-0.1-0.4-0.3-0.5-0.4c-0.6-0.5-1.3-0.9-1.9-1.3c-0.2-0.2-0.5-0.3-0.7-0.5c-0.5-0.3-1.1-0.6-1.6-0.9
		c-0.1,0-0.1-0.1-0.2-0.1C128.2,66.1,128.1,66,127.9,66 M96.9,64c-0.2,0.1-0.3,0.1-0.5,0.2c-1.5,0.6-3,1.3-4.5,2.1c0,0,0,0,0,0
		c0,0-0.1,0-0.1,0.1c-1.6,0.9-3,1.8-4.5,2.9c0,0-0.1,0.1-0.1,0.1c-0.4,0.3-0.8,0.6-1.2,0.9c-2.1,1.7-3.9,3.5-5.6,5.6
		c-0.3,0.4-0.7,0.9-1,1.3c0,0-0.1,0.1-0.1,0.1c-0.5,0.7-1,1.5-1.5,2.2c-0.1,0.2-0.2,0.4-0.3,0.6c-0.3,0.5-0.6,1-0.9,1.5
		c-0.1,0.1-0.1,0.2-0.2,0.3c0,0,0,0,0,0.1c-1.2,2.2-2.2,4.6-2.9,7c-0.1,0.2-0.1,0.5-0.2,0.7c-0.2,0.5-0.3,1.1-0.4,1.7c0,0,0,0,0,0.1
		c-0.1,0.4-0.2,0.8-0.3,1.2c0,0.1,0,0.1,0,0.2c0,0.1,0,0.1,0,0.2c0,0.1,0,0.2-0.1,0.3c0,0,0,0.1,0,0.1c0,0,0,0,0,0
		c-0.2,0.9-0.3,1.9-0.4,2.9c0.5-0.1,1.1-0.2,1.6-0.3l0,0c0.5-15,10.8-27.5,24.8-31.2l0,0l0,0c0,0,0-0.1,0-0.1
		C97.9,64.4,97.4,64.2,96.9,64"/>
	<path id="XMLID_419_" class="st18" d="M83.7,74.4c-0.6,0.4-1.3,0.9-1.8,1.6c-1.5,1.6-2.4,3.4-2.5,4.9
		C80.5,78.5,81.9,76.3,83.7,74.4"/>
	<path id="XMLID_418_" class="st19" d="M87,73.2c-1,0-2.2,0.4-3.3,1.2c-1.8,1.9-3.2,4.1-4.4,6.4c-0.1,0.8,0.2,1.6,0.7,2
		c0.4,0.4,1,0.6,1.6,0.6c1.5,0,3.5-1,5.2-2.7c2.4-2.5,3.2-5.6,1.9-6.9C88.3,73.4,87.7,73.2,87,73.2"/>
	<path id="XMLID_417_" class="st19" d="M90.8,69.6c-0.5,0-1.1,0.2-1.5,0.6c-0.8,0.8-0.7,2.1,0.1,2.9c0.4,0.4,0.9,0.6,1.4,0.6
		c0.5,0,1.1-0.2,1.5-0.6c0.8-0.8,0.7-2.1-0.1-2.9C91.8,69.7,91.3,69.6,90.8,69.6"/>
	<path id="XMLID_416_" class="st20" d="M140.6,114.4c-1.5,0-3.6,1.1-5.2,3c-2.2,2.6-2.9,5.8-1.4,7c0.4,0.3,0.9,0.5,1.5,0.5
		c1.5,0,3.6-1.1,5.2-3c2.2-2.6,2.9-5.8,1.4-7C141.7,114.6,141.2,114.4,140.6,114.4"/>
	<path id="XMLID_415_" class="st20" d="M132,124.8c-0.6,0-1.1,0.2-1.5,0.7c-0.7,0.8-0.6,2.1,0.2,2.8c0.4,0.3,0.8,0.5,1.3,0.5
		c0.6,0,1.1-0.2,1.5-0.7c0.7-0.8,0.6-2.1-0.2-2.8C132.9,124.9,132.4,124.8,132,124.8"/>
	<path id="XMLID_414_" class="st21" d="M110.6,75c-0.9,0-1.8,0.1-2.6,0.1c-0.3,0.3-0.6,0.6-1,0.9c0.3,0.6,0.4,1.3,0.4,2.1l0.2,6.6
		c0.9-0.2,1.9-0.3,2.9-0.3c0.8,0,1.6,0.1,2.3,0.2l-0.2-6.1c0-0.1,0-0.2,0-0.2c0-0.3,0-0.6,0.1-0.9c0,0,0,0,0,0
		c0-0.3,0.1-0.6,0.2-0.8c0-0.1,0.1-0.2,0.1-0.4c0,0,0,0,0,0c0-0.1,0.1-0.2,0.1-0.3c0,0,0-0.1,0-0.1c0-0.1,0.1-0.2,0.1-0.3
		c0-0.1,0.1-0.1,0.1-0.2c0-0.1,0.1-0.2,0.2-0.3C112.6,75,111.6,75,110.6,75"/>
	<path id="XMLID_963_" class="st14" d="M120,108.3c-1.2,1.3-2.5,2.5-4,3.5l4.7,6c0.1,0.1,0.2,0.2,0.2,0.3c0,0,0,0.1,0.1,0.1
		c0,0,0,0.1,0.1,0.1c0,0,0,0.1,0.1,0.1c1.6-0.8,3.1-1.8,4.4-3c-0.1-0.1-0.2-0.2-0.3-0.4l-4.6-5.9L120,108.3L120,108.3 M131.8,88.9
		c-0.5,0.4-1,0.8-1.7,1c-0.1,0.1-0.2,0.1-0.3,0.1l-3.1,1.1l0,0c0,0,0,0.1,0,0.1c0,2-0.2,3.9-0.7,5.7l0,0v0l5-1.8
		c0.7-0.3,1.4-0.4,2.1-0.4c0.1,0,0.2,0,0.3,0C133.1,92.8,132.6,90.8,131.8,88.9"/>
	<path id="XMLID_959_" class="st21" d="M119.7,107.9c-1.3,1.2-2.8,2.1-4.5,2.8l0,0l0.8,1.1l0,0c1.4-1,2.8-2.2,4-3.5l0,0L119.7,107.9
		 M101.2,107.6l-0.4,0.6l0,0.1v0c0.7,1.9,1.6,3.8,2.5,5.7l0,0l1.6-2.3l0.7-1.1C103.9,109.8,102.4,108.8,101.2,107.6 M126.7,91.2
		l-2.9,1.1l-0.8,0.3c0.7,1.6,1.1,3.4,1.1,5.2l0.2-0.1l1.7-0.6c0.4-1.8,0.7-3.7,0.7-5.7C126.7,91.3,126.7,91.3,126.7,91.2"/>
	<path id="XMLID_408_" class="st22" d="M110.6,84.5c-1,0-2,0.1-2.9,0.3l0.3,8.7l0,0.4v0c0,0.3-0.1,0.6-0.2,0.8c0,0,0,0,0,0.1
		c0,0,0,0,0,0c0,0,0,0,0,0c0,0,0,0,0,0c0,0,0,0,0,0c0,0,0,0-0.1,0.1c0,0-0.1,0.1-0.1,0.1c0,0,0,0,0,0c0,0,0,0-0.1,0
		c-0.1,0-0.2,0.1-0.2,0.1c0,0-0.1,0-0.1,0c0,0,0,0,0,0c0,0-0.1,0-0.2,0c0,0-0.1,0-0.1,0c0,0-0.1,0-0.1,0c0,0,0,0-0.1,0c0,0,0,0,0,0
		c0,0,0,0,0,0c-0.1,0-0.1,0-0.2,0l-7.8-2.2v0c-0.1,0.8-0.2,1.5-0.2,2.3c0,1.1,0,2.1,0.1,3.1l0,0l1.9,0.5l3.9,1.1
		c0.2,0,0.3,0.1,0.4,0.2c0.5,0.4,0.7,1.1,0.3,1.7l-3.8,5.6l0,0c1.3,1.2,2.8,2.2,4.4,2.9l3.4-5c0.2-0.3,0.5-0.5,0.8-0.5
		c0.1,0,0.2,0,0.2,0c0.4,0,0.7,0.1,1,0.4c0,0,0,0,0.1,0.1l1,1.3l3.1,3.9c1.7-0.6,3.2-1.6,4.5-2.8l-3-3.9l-1-1.3
		c0-0.1-0.1-0.1-0.1-0.2c-0.2-0.3-0.2-0.6-0.1-0.9c0,0,0-0.1,0-0.1c0,0,0-0.1,0.1-0.1c0,0,0,0,0,0c0.1-0.3,0.4-0.5,0.7-0.6l7.5-2.7
		l0.4-0.1l0,0c0-1.8-0.4-3.6-1.1-5.2l-3.6,1.3l-4.4,1.6c0,0-0.1,0-0.1,0c0,0,0,0,0,0c0,0-0.1,0-0.1,0c-0.1,0-0.1,0-0.2,0
		c-0.2,0-0.4-0.1-0.6-0.1c0,0,0,0,0,0c0,0,0,0,0,0c-0.1,0-0.2-0.1-0.2-0.1c0,0-0.1,0-0.1-0.1c0,0,0,0,0,0c0,0-0.1-0.1-0.1-0.1
		c0,0,0,0,0,0c0,0,0,0,0,0c0-0.1-0.1-0.1-0.1-0.2c0,0,0,0,0,0c0,0,0-0.1-0.1-0.2c0,0,0-0.1,0-0.1c0,0,0-0.1,0-0.1c0,0,0-0.1,0-0.1
		c0,0,0,0,0,0l-0.3-9.6l0,0C112.2,84.5,111.4,84.5,110.6,84.5"/>
	<path id="XMLID_407_" class="st23" d="M115,95.4l14.8-5.4c4.6-1.7,5.4-7.9,1.3-10.7l-9-6c-4.1-2.8-9.6,0.3-9.4,5.2l0.6,15.7
		C113.3,95.2,114.2,95.7,115,95.4"/>
	<path id="XMLID_952_" class="st24" d="M114.8,87.9l0.3-3.8l2,0.4l1.1,1.7L114.8,87.9 M122.3,82.7l0.2-3.3l1.7,0.4l1,1.5L122.3,82.7
		 M116.2,79.6l0.3-3.8l2,0.4l1.1,1.7L116.2,79.6 M118.4,72.8c-2.3,0-4.4,1.9-4.4,4.5l0.4,11.3c0,0.5,0.4,0.9,0.9,0.9
		c0.1,0,0.2,0,0.3-0.1l5.3-1.9l0-0.2l0.3,0.1l5-1.8c0.9-0.3,1.6-0.9,2.1-1.6l0.2-2.3l0.6,0.1c0.1-1.4-0.5-2.9-1.9-3.9l-6.4-4.4
		C120,73,119.2,72.8,118.4,72.8"/>
	<path id="XMLID_949_" class="st25" d="M121.1,72.8c0.4,0.2,0.7,0.3,1.1,0.6l9,6c0.1,0,0.1,0.1,0.2,0.2c-0.1-0.1-0.1-0.1-0.2-0.2
		l-9-6C121.8,73.1,121.4,73,121.1,72.8 M119.4,72.4c0.3,0,0.7,0.1,1,0.2C120.1,72.5,119.7,72.4,119.4,72.4"/>
	<path id="XMLID_400_" class="st26" d="M114.2,74.5c-0.2,0.2-0.4,0.5-0.5,0.7c0,0,0,0,0,0c0,0,0,0,0,0
		C113.8,74.9,114,74.7,114.2,74.5"/>
	<path id="XMLID_944_" class="st25" d="M132.9,87.6c0,0-0.1,0.1-0.1,0.1C132.8,87.7,132.8,87.6,132.9,87.6 M133.4,86.4
		c-0.1,0.3-0.2,0.6-0.4,0.9c0.1-0.2,0.2-0.5,0.3-0.7C133.4,86.5,133.4,86.4,133.4,86.4 M131.3,79.6
		C131.4,79.6,131.4,79.6,131.3,79.6C131.4,79.6,131.4,79.6,131.3,79.6"/>
	<path id="XMLID_939_" class="st27" d="M113,76.7c-0.1,0.3-0.1,0.5-0.2,0.8c0,0,0,0,0,0c0,0.3-0.1,0.6-0.1,0.9c0,0.1,0,0.1,0,0.2
		l0.2,6.1c0,0,0,0,0,0l-0.2-6.1C112.7,77.9,112.8,77.3,113,76.7 M113.1,76.3C113.1,76.3,113.1,76.3,113.1,76.3
		C113.1,76.3,113.1,76.3,113.1,76.3 M113.4,75.6c0,0.1-0.1,0.2-0.1,0.3c0,0,0,0.1,0,0.1C113.3,75.8,113.3,75.7,113.4,75.6
		 M113.6,75.2c-0.1,0.1-0.1,0.2-0.2,0.3C113.5,75.3,113.6,75.2,113.6,75.2C113.6,75.2,113.6,75.2,113.6,75.2"/>
	<path id="XMLID_392_" class="st26" d="M130.1,90c-0.1,0-0.2,0.1-0.3,0.1l-3.1,1.1c0,0,0,0,0,0l0,0l3.1-1.1
		C129.9,90.1,130,90,130.1,90"/>
	<polyline id="XMLID_391_" class="st27" points="126.7,91.2 123.8,92.3 126.7,91.2 126.7,91.2 	"/>
	<path id="XMLID_929_" class="st28" d="M114,95.4C114,95.4,114,95.4,114,95.4C114,95.4,114,95.4,114,95.4
		C114,95.4,114,95.4,114,95.4 M113.7,95.2C113.7,95.2,113.7,95.2,113.7,95.2C113.7,95.2,113.7,95.2,113.7,95.2
		C113.7,95.2,113.7,95.2,113.7,95.2 M113.5,95C113.5,95,113.5,95,113.5,95C113.5,95,113.5,95,113.5,95C113.5,95,113.5,95,113.5,95
		 M113.3,94.6c0,0.1,0,0.1,0.1,0.2c0,0,0,0,0,0C113.4,94.7,113.4,94.7,113.3,94.6 M113.3,94.4C113.3,94.4,113.3,94.5,113.3,94.4
		C113.3,94.5,113.3,94.4,113.3,94.4 M119.4,93.9l-4.4,1.6c-0.1,0-0.2,0.1-0.2,0.1c0,0,0.1,0,0.1,0c0,0,0,0,0,0c0,0,0.1,0,0.1,0
		L119.4,93.9 M112.9,84.7L112.9,84.7l0.3,9.6c0,0,0,0,0,0c0,0,0,0,0,0L112.9,84.7C112.9,84.7,112.9,84.7,112.9,84.7"/>
	<path id="XMLID_926_" class="st29" d="M114.9,93c-0.6,0-1.1-0.5-1.1-1.1l-0.3-7.1l-0.2-6.8c0-1.1,0.2-2,0.7-2.8
		c0.8-1.5,2.4-2.5,4.1-2.7c0.2,0,0.4,0,0.6,0c1,0,2,0.3,3,0.9l7.9,5.3c2.8,1.9,3,5.6,1.1,7.9c-0.6,0.7-1.3,1.2-2.3,1.6l-1.8,0.7h0
		l-4.5,1.6l-1.3,0.6l0-0.2l0,0l-5.4,2C115.2,93,115.1,93,114.9,93 M118.8,72.3c-0.1,0-0.3,0-0.4,0h0c-0.1,0-0.3,0-0.4,0c0,0,0,0,0,0
		h0c-0.3,0-0.7,0.1-1,0.2c-0.1,0-0.2,0.1-0.3,0.1c-0.1,0-0.2,0.1-0.3,0.1c-0.1,0-0.2,0.1-0.3,0.2c-0.1,0-0.2,0.1-0.3,0.2
		c-0.1,0-0.1,0.1-0.2,0.1c-0.5,0.3-1,0.7-1.4,1.2c-0.2,0.2-0.4,0.5-0.5,0.7c-0.1,0.1-0.1,0.2-0.2,0.3c0,0,0,0.1-0.1,0.1
		c0,0,0,0.1,0,0.1c-0.1,0.1-0.1,0.2-0.2,0.3c0,0.1,0,0.1-0.1,0.2c0,0,0,0.1,0,0.1c0,0,0,0,0,0c0,0,0,0,0,0c0,0,0,0,0,0.1
		c0,0.1-0.1,0.2-0.1,0.3c0,0,0,0,0,0c-0.2,0.6-0.3,1.2-0.2,1.9l0.2,6.1l0.3,9.6c0,0,0,0,0,0c0,0,0,0.1,0,0.1c0,0,0,0.1,0,0.1
		c0,0,0,0,0,0.1c0,0,0,0.1,0,0.1c0,0.1,0,0.1,0.1,0.2c0,0.1,0.1,0.1,0.1,0.2c0,0,0,0,0,0c0,0,0,0,0,0c0,0,0.1,0.1,0.1,0.1
		c0,0,0.1,0,0.1,0.1c0,0,0,0,0,0c0.1,0,0.1,0.1,0.2,0.1c0,0,0,0,0,0c0,0,0,0,0,0c0.1,0,0.1,0.1,0.2,0.1c0.1,0,0.2,0,0.2,0
		c0,0,0.1,0,0.1,0s0.1,0,0.1,0c0,0,0.1,0,0.1,0c0.1,0,0.2,0,0.2-0.1l4.4-1.6l3.6-1.3l0.8-0.3l2.9-1.1l3.1-1.1c0.1,0,0.2-0.1,0.3-0.1
		c0,0,0.1,0,0.1,0c0,0,0,0,0.1,0c0.1-0.1,0.3-0.1,0.4-0.2c0.1-0.1,0.2-0.1,0.4-0.2c0,0,0.1-0.1,0.1-0.1c0.1-0.1,0.2-0.1,0.2-0.2
		c0.1-0.1,0.2-0.2,0.3-0.3c0,0,0,0,0,0c0,0,0,0,0,0c0.1-0.1,0.1-0.1,0.2-0.2c0.3-0.3,0.6-0.6,0.8-0.9c0,0,0-0.1,0.1-0.1
		c0,0,0.1-0.1,0.1-0.1c0-0.1,0.1-0.1,0.1-0.2c0-0.1,0.1-0.1,0.1-0.2c0.1-0.3,0.3-0.6,0.4-0.9c0-0.1,0-0.1,0.1-0.2
		c0-0.1,0.1-0.3,0.1-0.4c0-0.1,0.1-0.3,0.1-0.4c0-0.1,0-0.1,0-0.2c0-0.1,0-0.2,0-0.3c0-0.2,0-0.3,0-0.4c0-0.1,0-0.2,0-0.3
		c0-0.1,0-0.2,0-0.4c0-0.4-0.1-0.7-0.2-1.1c0-0.1-0.1-0.2-0.1-0.3c-0.1-0.2-0.2-0.4-0.3-0.7c0-0.1-0.1-0.2-0.2-0.3
		c-0.3-0.4-0.6-0.8-0.9-1.2c-0.1-0.1-0.2-0.2-0.3-0.3c-0.1-0.1-0.2-0.2-0.3-0.3c0,0,0,0,0,0c0,0,0,0-0.1,0c0,0,0,0,0,0c0,0,0,0,0,0
		c-0.1-0.1-0.1-0.1-0.2-0.2l-9-6c-0.3-0.2-0.7-0.4-1.1-0.6c-0.1,0-0.1,0-0.2-0.1c-0.1-0.1-0.3-0.1-0.4-0.1c0,0-0.1,0-0.1,0
		c-0.3-0.1-0.7-0.2-1-0.2C119.2,72.3,119,72.3,118.8,72.3"/>
	<polyline id="XMLID_381_" class="st10" points="119.6,78 116.2,79.6 116.4,75.9 118.4,76.3 119.6,78 	"/>
	<polyline id="XMLID_380_" class="st30" points="118.4,76.3 116.2,79.6 119.6,78 118.4,76.3 	"/>
	<polyline id="XMLID_379_" class="st10" points="131.7,83.8 128.3,85.4 128.5,81.7 130.5,82.1 131.7,83.8 	"/>
	<polyline id="XMLID_378_" class="st30" points="130.5,82.1 128.3,85.4 131.7,83.8 130.5,82.1 	"/>
	<polyline id="XMLID_377_" class="st10" points="124.1,89.5 120.7,91.1 121,87.4 122.9,87.8 124.1,89.5 	"/>
	<polyline id="XMLID_376_" class="st30" points="122.9,87.8 120.7,91.1 124.1,89.5 122.9,87.8 	"/>
	<polyline id="XMLID_375_" class="st10" points="125.3,81.3 122.3,82.7 122.6,79.4 124.3,79.8 125.3,81.3 	"/>
	<polyline id="XMLID_374_" class="st30" points="124.3,79.8 122.3,82.7 125.3,81.3 124.3,79.8 	"/>
	<polyline id="XMLID_373_" class="st10" points="118.2,86.2 114.8,87.9 115.1,84.1 117.1,84.5 118.2,86.2 	"/>
	<polyline id="XMLID_372_" class="st30" points="117.1,84.5 114.8,87.9 118.2,86.2 117.1,84.5 	"/>
	<path id="XMLID_371_" class="st23" d="M108,93.8l-0.5-15.7c-0.2-4.9-5.9-7.6-9.7-4.6l-8.5,6.6c-3.9,3-2.7,9.2,2.1,10.6l15.1,4.3
		C107.2,95.4,108,94.7,108,93.8"/>
	<path id="XMLID_912_" class="st24" d="M102.2,82.4c-1,1.8-1.9,3.7-2.5,5.6v0l0.5-0.2l0.5,3.7l-1.8-0.7c0,0.2-0.1,0.3-0.1,0.5
		c0,0,0,0.1,0,0.1c0,0,0,0,0,0l2.5,0.7c0.1,0,0.2,0,0.3,0c0.5,0,0.9-0.4,0.9-1l-0.2-5.6l-0.1-0.1l0.1-0.2L102.2,82.4 M96.7,76
		c-0.6,0.1-1.1,0.4-1.7,0.8l-6.1,4.8c-2.3,1.8-2.1,5.1-0.1,6.7c0.5-0.5,1-1,1.5-1.5c0,0,0.1-0.1,0.1-0.1c0,0,0,0,0,0l-0.6-0.3l1-1.8
		l1.7-0.5c0.4-0.6,0.8-1.2,1.2-1.8c0,0,0,0,0,0C95,80.4,96,78.2,96.7,76"/>
	<path id="XMLID_905_" class="st26" d="M87.2,87C87.2,87,87.2,87,87.2,87C87.2,87,87.2,87,87.2,87C87.2,87,87.2,87,87.2,87 M87,86.4
		c0,0.1,0,0.1,0,0.2C87.1,86.6,87,86.5,87,86.4 M87,86.1c0,0,0,0.1,0,0.1C87,86.2,87,86.1,87,86.1 M87.3,82.8
		c-0.3,0.7-0.4,1.4-0.4,2.2c0,0.2,0,0.3,0,0.5C86.8,84.5,86.9,83.6,87.3,82.8 M88.9,80.5C88.9,80.5,88.9,80.5,88.9,80.5
		C88.9,80.5,88.9,80.5,88.9,80.5C88.9,80.5,88.9,80.5,88.9,80.5 M97.4,73.8L97.4,73.8l-8.2,6.4c0,0,0,0,0,0c0,0,0,0,0,0L97.4,73.8
		C97.4,73.9,97.4,73.9,97.4,73.8L97.4,73.8"/>
	<path id="XMLID_896_" class="st28" d="M106.8,95.2C106.7,95.2,106.7,95.2,106.8,95.2c-0.1,0-0.1,0-0.2,0
		C106.6,95.2,106.7,95.2,106.8,95.2C106.7,95.2,106.7,95.2,106.8,95.2 M106.5,95.1C106.5,95.1,106.5,95.2,106.5,95.1
		C106.5,95.2,106.5,95.2,106.5,95.1C106.5,95.2,106.5,95.2,106.5,95.1 M107.1,95.1c0,0-0.1,0-0.1,0c0,0,0,0,0,0
		C107,95.1,107,95.1,107.1,95.1 M107.4,95C107.3,95,107.3,95,107.4,95C107.3,95,107.3,95,107.4,95 M107.6,94.8
		c-0.1,0.1-0.1,0.1-0.2,0.1C107.4,94.9,107.5,94.9,107.6,94.8C107.5,94.9,107.5,94.8,107.6,94.8 M107.7,94.7
		C107.6,94.7,107.6,94.8,107.7,94.7C107.6,94.8,107.6,94.8,107.7,94.7C107.6,94.7,107.7,94.7,107.7,94.7 M107.7,94.6
		C107.7,94.6,107.7,94.7,107.7,94.6C107.7,94.7,107.7,94.6,107.7,94.6 M108,93.4l0,0.4c0,0,0,0,0,0v0L108,93.4"/>
	<path id="XMLID_893_" class="st29" d="M107,76.1c-0.7,0.7-1.3,1.4-1.9,2.1l0,0l0,0c0,0.2,0.1,0.5,0.1,0.7l0.2,6.6l0,0.2v0l0.2,1.4
		l-0.1-0.1l0,0l0.2,5.7c0,0.7-0.5,1.2-1.1,1.2c-0.1,0-0.2,0-0.3,0l-5.6-1.6c0,0.2-0.1,0.4-0.1,0.6l0,0l7.8,2.2c0.1,0,0.1,0,0.2,0
		c0,0,0,0,0.1,0c0,0,0,0,0.1,0c0,0,0.1,0,0.1,0c0,0,0.1,0,0.1,0c0,0,0.1,0,0.1,0c0,0,0,0,0,0c0,0,0.1,0,0.1,0c0.1,0,0.1-0.1,0.2-0.1
		c0,0,0,0,0,0c0,0,0,0,0,0c0,0,0,0,0.1,0c0,0,0,0,0,0c0,0,0,0,0,0c0.1,0,0.1-0.1,0.2-0.1c0,0,0,0,0,0c0,0,0,0,0,0c0,0,0,0,0.1-0.1
		c0,0,0,0,0,0c0,0,0,0,0,0c0,0,0,0,0-0.1c0,0,0,0,0,0c0,0,0,0,0-0.1c0,0,0.1-0.1,0.1-0.2c0,0,0-0.1,0.1-0.2c0-0.1,0-0.1,0-0.2
		c0-0.1,0-0.1,0-0.2v0c0,0,0,0,0,0l0-0.4l-0.3-8.7l-0.2-6.7c0-0.2,0-0.3,0-0.5c0-0.2-0.1-0.4-0.1-0.6c0-0.2-0.1-0.3-0.1-0.5
		C107.1,76.4,107.1,76.2,107,76.1L107,76.1 M97.4,73.9l-8.2,6.4c0,0,0,0,0,0c-0.1,0.1-0.2,0.1-0.3,0.2c0,0,0,0-0.1,0.1
		c-0.1,0.1-0.1,0.1-0.2,0.2c-0.6,0.6-1.1,1.3-1.4,2.1c-0.3,0.8-0.5,1.8-0.4,2.6c0,0,0,0,0,0.1c0,0.2,0,0.3,0.1,0.5c0,0,0,0.1,0,0.1
		c0,0,0,0.1,0,0.1c0,0,0,0.1,0,0.1c0,0,0,0.1,0,0.1c0,0,0,0,0,0c0,0.1,0,0.1,0,0.2c0,0,0,0,0,0c0,0.1,0.1,0.2,0.1,0.3c0,0,0,0,0,0
		c0,0,0,0,0,0c0.1,0.2,0.1,0.3,0.2,0.5c0.1,0.2,0.1,0.3,0.2,0.5c0.1,0.2,0.2,0.3,0.3,0.4c0.1,0.1,0.2,0.3,0.3,0.4l0,0
		c0.1-0.1,0.2-0.1,0.2-0.2c-2-2.1-2-5.8,0.6-7.9l7.5-5.9c0.2-0.2,0.4-0.3,0.6-0.4l0,0C97.2,74.3,97.3,74.1,97.4,73.9"/>
	<polyline id="XMLID_352_" class="st10" points="92.8,84.1 93.3,87.8 89.8,86.4 90.8,84.7 92.8,84.1 	"/>
	<path id="XMLID_351_" class="st30" d="M92.5,84.2l-1.7,0.5l0.6,0.8c0,0,0,0,0,0C91.8,85.1,92.2,84.6,92.5,84.2
		C92.5,84.2,92.5,84.2,92.5,84.2"/>
	<polyline id="XMLID_350_" class="st10" points="102,74.4 102.5,78.1 99,76.7 100.1,74.9 102,74.4 	"/>
	<polyline id="XMLID_349_" class="st10" points="105.1,83.3 105.6,87.1 102.1,85.7 103.1,83.9 105.1,83.3 	"/>
	<polyline id="XMLID_348_" class="st30" points="105.1,83.3 103.1,83.9 105.6,87.1 105.4,85.7 105.1,83.3 	"/>
	<polyline id="XMLID_347_" class="st10" points="97.7,79.7 98.1,82.9 95.1,81.7 96,80.2 97.7,79.7 	"/>
	<polyline id="XMLID_346_" class="st10" points="100.2,87.9 100.7,91.7 97.2,90.3 98.2,88.5 100.2,87.9 	"/>
	<path id="XMLID_345_" class="st30" d="M100.2,87.9l-0.5,0.2v0c-0.2,0.5-0.3,1.1-0.5,1.6c0,0,0,0,0,0l1.5,2L100.2,87.9"/>
	<path id="XMLID_344_" class="st23" d="M104.3,100l-15.1-4.3c-4.7-1.4-9,3.2-7.3,7.9l3.7,10.2c1.7,4.6,7.9,5.4,10.7,1.3l8.8-13
		C105.5,101.3,105.1,100.3,104.3,100"/>
	<path id="XMLID_343_" class="st24" d="M99.5,104.3C99.5,104.3,99.5,104.3,99.5,104.3c0.2,0.7,0.4,1.4,0.7,2.2v0
		c0,0.1,0,0.1,0.1,0.2l0.5-0.8c0.4-0.5,0.1-1.2-0.5-1.4L99.5,104.3"/>
	<polyline id="XMLID_342_" class="st28" points="98.5,98.4 98.5,98.4 100.3,98.9 98.5,98.4 	"/>
	<polyline id="XMLID_341_" class="st27" points="101.2,107.6 100.8,108.2 101.2,107.6 101.2,107.6 	"/>
	<path id="XMLID_340_" class="st28" d="M104.7,100.3c0.5,0.4,0.7,1.1,0.3,1.7l-3.8,5.6c0,0,0,0,0,0l0,0l3.8-5.6
		C105.4,101.4,105.2,100.6,104.7,100.3"/>
	<path id="XMLID_339_" class="st29" d="M98.5,98.4c0.1,0.8,0.2,1.6,0.3,2.4l0,0l3.8,1.1c0.7,0.2,1.1,1.1,0.6,1.7l-2.4,3.5l-0.3,0.4
		c0.1,0.2,0.2,0.5,0.3,0.7l0,0l0-0.1l0.4-0.6l3.8-5.6c0.4-0.6,0.2-1.3-0.3-1.7c-0.1-0.1-0.3-0.2-0.4-0.2l-3.9-1.1L98.5,98.4"/>
	<polyline id="XMLID_338_" class="st10" points="90.3,111.5 94,112.1 91.6,115 90.2,113.5 90.3,111.5 	"/>
	<polyline id="XMLID_337_" class="st10" points="83.9,99.7 87.6,100.3 85.2,103.2 83.9,101.7 83.9,99.7 	"/>
	<polyline id="XMLID_336_" class="st10" points="93.4,99.5 97.1,100.2 94.7,103.1 93.3,101.5 93.4,99.5 	"/>
	<polyline id="XMLID_335_" class="st10" points="87.6,105.4 90.9,106 88.7,108.5 87.5,107.2 87.6,105.4 	"/>
	<polyline id="XMLID_334_" class="st10" points="96.2,105.6 100,106.3 97.5,109.2 96.2,107.6 96.2,105.6 	"/>
	<path id="XMLID_333_" class="st23" d="M109,105.5l-8.8,13c-2.8,4.1,0.3,9.6,5.2,9.4l10.8-0.4c4.9-0.2,7.6-5.9,4.5-9.7l-9.7-12.4
		C110.5,104.7,109.5,104.7,109,105.5"/>
	<path id="XMLID_868_" class="st24" d="M109,123L109,123l1.6-2.9l1.8,2.8l-1.6,0.7L109,123 M115.6,122.3L115.6,122.3l1.8-3.3l2,3.2
		l-1.9,0.8L115.6,122.3 M111.8,114.8L111.8,114.8l1.8-3.3l2,3.2l-1.9,0.8L111.8,114.8 M112.8,110.3c-0.3,0-0.6,0.1-0.8,0.4l-3.2,4.7
		l0.1,0.1l-0.2,0.1l-2.4,3.6v0c0.3,0.5,0.6,1,0.9,1.5c1.3,2.1,2.7,4.1,4.2,6.1c0,0,0,0,0,0l5.8-0.2c3.5-0.1,5.5-4.2,3.3-7l-7-8.9
		C113.3,110.4,113.1,110.3,112.8,110.3"/>
	<path id="XMLID_328_" class="st28" d="M110.1,104.9c-0.1,0-0.2,0-0.2,0C109.9,104.9,110,104.9,110.1,104.9c0.4,0,0.7,0.1,1,0.4
		C110.8,105,110.4,104.9,110.1,104.9"/>
	<path id="XMLID_327_" class="st26" d="M116,111.7C116,111.7,116,111.7,116,111.7l4.7,6c0.1,0.1,0.2,0.2,0.2,0.3
		c-0.1-0.1-0.2-0.2-0.2-0.3L116,111.7"/>
	<polyline id="XMLID_326_" class="st27" points="115.2,110.6 115.2,110.6 116,111.7 116,111.7 116,111.7 115.2,110.6 115.2,110.6 	
		"/>
	<polyline id="XMLID_325_" class="st28" points="112.1,106.7 115.2,110.6 115.2,110.6 112.1,106.7 	"/>
	<polyline id="XMLID_324_" class="st27" points="104.9,111.6 103.3,113.9 103.3,113.9 104.9,111.6 	"/>
	<path id="XMLID_323_" class="st26" d="M121.1,118.2C121.1,118.2,121.1,118.2,121.1,118.2C121.1,118.2,121.1,118.2,121.1,118.2"/>
	<path id="XMLID_852_" class="st25" d="M118.2,127.1c-0.6,0.2-1.3,0.4-2,0.4l-4.1,0.1l0,0l0,0l4.1-0.1c0.4,0,0.9-0.1,1.3-0.2
		c0.2,0,0.4-0.1,0.6-0.2C118.1,127.1,118.2,127.1,118.2,127.1 M120.3,125.8c-0.5,0.5-1.1,0.9-1.7,1.2c0,0,0,0,0.1,0
		c0.3-0.1,0.5-0.3,0.8-0.4C119.7,126.3,120,126,120.3,125.8 M120.8,125.2c0,0-0.1,0.1-0.1,0.1C120.7,125.3,120.7,125.2,120.8,125.2
		 M121.7,123.4c-0.2,0.6-0.5,1.2-0.9,1.7c0.1-0.1,0.1-0.1,0.2-0.2c0.1-0.1,0.2-0.3,0.3-0.4c0.1-0.2,0.2-0.4,0.3-0.7
		C121.6,123.7,121.7,123.6,121.7,123.4 M121.9,122.7c0,0.1-0.1,0.2-0.1,0.3C121.9,123,121.9,122.8,121.9,122.7 M122,121.9
		c0,0.1,0,0.1,0,0.2C122,122,122,121.9,122,121.9 M122,121.2c0,0.2,0,0.4,0,0.6C122,121.6,122.1,121.4,122,121.2 M122,120.5
		c0,0.1,0,0.1,0,0.2c0,0,0,0,0-0.1C122,120.6,122,120.5,122,120.5 M121.9,120C121.9,120.1,121.9,120.1,121.9,120
		C121.9,120.1,121.9,120.1,121.9,120"/>
	<path id="XMLID_313_" class="st29" d="M110.1,104.9c-0.1,0-0.2,0-0.2,0c-0.3,0.1-0.6,0.2-0.8,0.5l-3.4,5l-0.8,1.1l-1.6,2.3v0
		c0.4,0.7,0.7,1.4,1.1,2.1c0,0,0,0.1,0.1,0.1l0,0l0.1-0.2l1.6-2.4l0,0l0.7-1.3l0.1,0.1l0,0l0.9-1.3l2.3-3.5c0.2-0.3,0.6-0.5,0.9-0.5
		c0.3,0,0.7,0.1,0.9,0.4l2.5,3.2l1,1.2l5.1,6.5c0,0,0,0,0.1,0.1c2.6,3.4,0.3,8.4-4.1,8.5l-4.8,0.2c0.1,0.1,0.2,0.2,0.3,0.3l0,0
		l4.1-0.1c0.7,0,1.4-0.2,2-0.4c0.1,0,0.2-0.1,0.3-0.1c0.7-0.3,1.2-0.7,1.7-1.2c0.1-0.1,0.1-0.1,0.2-0.2c0.1-0.1,0.1-0.1,0.2-0.2
		c0,0,0,0,0.1-0.1c0,0,0.1-0.1,0.1-0.1c0,0,0,0,0,0c0,0,0,0,0,0c0.4-0.5,0.7-1.1,0.9-1.7c0,0,0,0,0,0c0-0.1,0.1-0.2,0.1-0.3
		c0,0,0-0.1,0-0.1c0-0.1,0.1-0.2,0.1-0.3c0,0,0-0.1,0-0.1c0,0,0-0.1,0-0.2c0-0.1,0-0.1,0-0.2c0-0.1,0-0.1,0-0.2c0-0.1,0-0.1,0-0.2
		c0,0,0,0,0-0.1c0,0,0,0,0,0c0-0.2,0-0.4,0-0.6c0-0.1,0-0.2,0-0.3c0-0.1,0-0.2,0-0.2c0-0.1,0-0.1,0-0.2c0,0,0-0.1,0-0.1
		c0-0.1,0-0.1,0-0.2c0,0,0-0.1,0-0.1c0,0,0,0,0-0.1c0,0,0-0.1,0-0.1c-0.1-0.3-0.2-0.6-0.3-0.8c0-0.1-0.1-0.2-0.1-0.3
		c0,0,0-0.1,0-0.1c-0.1-0.1-0.1-0.2-0.2-0.3c0,0,0,0,0,0c0,0,0,0,0,0c0,0,0-0.1-0.1-0.1c0,0,0-0.1-0.1-0.1c0,0,0,0,0,0
		c0,0,0,0,0-0.1c-0.1-0.1-0.2-0.2-0.2-0.3l-4.7-6l-0.8-1.1l-3.1-3.9l-1-1.3c0,0,0,0-0.1-0.1C110.8,105,110.4,104.9,110.1,104.9"/>
	<polyline id="XMLID_312_" class="st10" points="115.6,122.3 117.3,119 119.3,122.1 117.5,123 115.6,122.3 	"/>
	<polyline id="XMLID_311_" class="st30" points="117.3,119 115.6,122.3 117.5,123 117.3,119 	"/>
	<polyline id="XMLID_310_" class="st10" points="102.4,124.7 104.2,121.4 106.2,124.6 104.3,125.4 102.4,124.7 	"/>
	<polyline id="XMLID_309_" class="st10" points="105.2,115.6 106.9,112.3 108.9,115.5 107.1,116.3 105.2,115.6 	"/>
	<polyline id="XMLID_308_" class="st30" points="106.9,112.3 105.2,115.6 107.1,116.3 106.9,112.3 	"/>
	<polyline id="XMLID_307_" class="st10" points="109,123 110.5,120.1 112.3,122.9 110.7,123.6 109,123 	"/>
	<polyline id="XMLID_306_" class="st30" points="110.5,120.1 109,123 110.7,123.6 110.5,120.1 	"/>
	<polyline id="XMLID_305_" class="st10" points="111.8,114.8 113.6,111.5 115.6,114.7 113.8,115.5 111.8,114.8 	"/>
	<polyline id="XMLID_304_" class="st30" points="113.6,111.5 111.8,114.8 113.8,115.5 113.6,111.5 	"/>
	<path id="XMLID_303_" class="st23" d="M115.6,102.6l9.6,12.4c3,3.9,9.2,2.7,10.6-2l3-10.4c1.4-4.7-3.2-9-7.9-7.3l-14.8,5.4
		C115.4,100.9,115.1,101.9,115.6,102.6"/>
	<path id="XMLID_836_" class="st24" d="M132.3,108.1l-2.3-2.4l3.2-0.8l0.2,1.8L132.3,108.1 M125.4,102.8l-2.6-2.7l3.7-0.9l0.2,2
		L125.4,102.8 M133.7,101.6l-2.6-2.7l3.7-0.9l0.2,2L133.7,101.6 M134.1,95.8c-0.5,0-1,0.1-1.5,0.3L122,100c-0.6,0.2-0.8,0.9-0.4,1.4
		l3.5,4.5l0.1,0l0,0.3l3.3,4.2c0.6,0.8,1.4,1.3,2.2,1.5l2.3-0.6l0.1,0.6c1.4-0.4,2.6-1.4,3.1-3l2.1-7.5
		C139.1,98.5,136.8,95.8,134.1,95.8"/>
	<path id="XMLID_298_" class="st25" d="M133.4,94.9C133.4,94.9,133.4,94.9,133.4,94.9c0.1,0,0.3,0,0.4,0
		C133.7,94.9,133.5,94.9,133.4,94.9C133.4,94.9,133.4,94.9,133.4,94.9"/>
	<path id="XMLID_297_" class="st26" d="M133.1,94.9c-0.7,0-1.4,0.1-2.1,0.4l-5,1.8v0l5-1.8C131.7,95,132.4,94.9,133.1,94.9
		c0.1,0,0.2,0,0.3,0c0,0,0,0,0,0C133.3,94.9,133.2,94.9,133.1,94.9"/>
	<path id="XMLID_828_" class="st25" d="M138.1,97.6c0,0,0,0.1,0.1,0.1C138.1,97.7,138.1,97.6,138.1,97.6 M137.7,97.1
		c0.1,0.1,0.2,0.2,0.3,0.4C137.9,97.4,137.8,97.3,137.7,97.1 M137.3,96.7c0.1,0.1,0.2,0.2,0.3,0.4c0,0,0,0,0,0
		C137.6,96.9,137.5,96.8,137.3,96.7 M134.5,95.1c0.1,0,0.1,0,0.2,0C134.6,95.1,134.6,95.1,134.5,95.1 M133.8,94.9c0,0,0.1,0,0.1,0
		C133.9,94.9,133.9,94.9,133.8,94.9"/>
	<polyline id="XMLID_291_" class="st27" points="124.3,97.7 124.1,97.8 124.1,97.8 124.3,97.7 	"/>
	<polyline id="XMLID_290_" class="st28" points="124.1,97.8 124.1,97.8 123.7,97.9 124.1,97.8 124.1,97.8 	"/>
	<path id="XMLID_822_" class="st25" d="M139.1,100.6c0,0.6,0,1.3-0.2,2l-2.1,7.3l2.1-7.3c0.1-0.3,0.1-0.6,0.2-0.9
		C139.1,101.4,139.1,101,139.1,100.6 M139,99.9c0,0.1,0,0.3,0.1,0.4C139,100.1,139,100,139,99.9 M138.9,99.6c0,0,0,0.1,0,0.2
		c0,0,0,0,0,0C138.9,99.6,138.9,99.6,138.9,99.6"/>
	<path id="XMLID_819_" class="st28" d="M115.4,101.6c-0.1,0.3,0,0.6,0.1,0.9c0,0.1,0.1,0.1,0.1,0.2l1,1.3l-1-1.3
		C115.4,102.3,115.3,101.9,115.4,101.6 M115.5,101.3C115.5,101.3,115.5,101.3,115.5,101.3c0,0.1-0.1,0.1-0.1,0.2
		C115.5,101.4,115.5,101.3,115.5,101.3"/>
	<polyline id="XMLID_284_" class="st26" points="120,108.3 120,108.3 120,108.3 120.7,109.1 120,108.3 	"/>
	<polyline id="XMLID_283_" class="st27" points="120,108.2 120,108.3 120,108.3 120,108.2 	"/>
	<path id="XMLID_282_" class="st25" d="M135.3,114.4c0,0.1-0.1,0.2-0.2,0.2C135.2,114.5,135.2,114.5,135.3,114.4
		C135.2,114.4,135.3,114.4,135.3,114.4"/>
	<path id="XMLID_813_" class="st29" d="M121.7,106.7l-0.2-0.2l-0.2-0.3l-3.1-4c-0.5-0.6-0.2-1.5,0.5-1.8l5.4-2l1.7-0.6l5.9-2.1
		c0.6-0.2,1.2-0.3,1.8-0.3h0c0,0,0.1,0,0.1,0c3.4,0,6.1,3.3,5.1,6.8l-2.6,9.2c-0.7,2.5-2.9,3.9-5.1,3.9c-1.3,0-2.5-0.4-3.6-1.4
		c-0.2-0.2-0.4-0.4-0.6-0.7l-4.2-5.3l-1-1L121.7,106.7 M133.1,94.9c-0.7,0-1.4,0.1-2.1,0.4l-5,1.8v0h0l-1.7,0.6l-0.2,0.1l-0.4,0.1
		l-7.5,2.7c-0.1,0-0.3,0.1-0.4,0.2c-0.1,0.1-0.3,0.3-0.4,0.4c0,0.1,0,0.1-0.1,0.2c0,0,0,0,0,0c0,0,0,0.1,0,0.1
		c-0.1,0.4,0,0.8,0.2,1.1l1,1.3l3,3.9l0.3,0.3l0,0l0.7,0.8l4.6,5.9c0.1,0.1,0.2,0.3,0.3,0.4c0.1,0.2,0.3,0.3,0.4,0.4
		c0.1,0.1,0.2,0.2,0.3,0.2c0.2,0.1,0.3,0.3,0.5,0.4c0.1,0.1,0.2,0.1,0.3,0.2c0.1,0.1,0.2,0.1,0.3,0.1c0.1,0,0.2,0.1,0.3,0.1
		c0.1,0,0.2,0.1,0.3,0.1c0.2,0.1,0.3,0.1,0.5,0.2c0.1,0,0.2,0,0.3,0.1h0c0.1,0,0.2,0,0.3,0.1c0.3,0.1,0.7,0.1,1,0.1
		c1.6,0,3.1-0.6,4.3-1.8c0.2-0.2,0.4-0.5,0.6-0.8c0.1-0.1,0.1-0.2,0.2-0.2c0.1-0.1,0.1-0.2,0.2-0.2c0.2-0.3,0.3-0.6,0.4-0.9
		c0.1-0.2,0.1-0.3,0.2-0.5l0.9-3.1l2.1-7.3c0.2-0.7,0.3-1.3,0.2-2c0,0,0,0,0,0c0-0.1,0-0.2,0-0.3c0,0,0,0,0,0c0-0.1,0-0.3-0.1-0.4
		c0,0,0-0.1,0-0.1c0,0,0,0,0,0c0-0.1,0-0.1,0-0.2c-0.1-0.2-0.1-0.5-0.2-0.7c0-0.1-0.1-0.2-0.1-0.3c-0.1-0.2-0.2-0.4-0.3-0.5
		c0-0.1-0.1-0.2-0.1-0.3c0,0,0-0.1-0.1-0.1c0,0,0-0.1-0.1-0.1c0,0,0,0,0,0c0,0,0,0,0,0c-0.1-0.1-0.2-0.3-0.3-0.4c0,0,0,0-0.1-0.1
		c0,0,0,0,0,0c-0.1-0.1-0.2-0.3-0.3-0.4c0,0,0,0-0.1-0.1c-0.1-0.1-0.1-0.1-0.2-0.2c-0.1-0.1-0.3-0.3-0.4-0.4
		c-0.1-0.1-0.2-0.1-0.2-0.2c-0.2-0.1-0.3-0.2-0.5-0.3c-0.1,0-0.2-0.1-0.3-0.1c-0.1,0-0.2-0.1-0.3-0.1c-0.1,0-0.2-0.1-0.3-0.1
		c-0.1,0-0.2-0.1-0.3-0.1c0,0,0,0-0.1,0c-0.1,0-0.1,0-0.2,0c0,0-0.1,0-0.1,0c-0.1,0-0.2,0-0.3-0.1c0,0-0.1,0-0.1,0c0,0-0.1,0-0.1,0
		c0,0,0,0,0,0c0,0,0,0,0,0c-0.1,0-0.3,0-0.4,0C133.3,94.9,133.2,94.9,133.1,94.9"/>
	<polyline id="XMLID_279_" class="st10" points="133.7,101.6 131,98.9 134.7,98 134.9,100 133.7,101.6 	"/>
	<polyline id="XMLID_278_" class="st30" points="131,98.9 133.7,101.6 134.9,100 131,98.9 	"/>
	<polyline id="XMLID_277_" class="st10" points="131.9,114.9 129.3,112.2 132.9,111.2 133.1,113.3 131.9,114.9 	"/>
	<polyline id="XMLID_276_" class="st30" points="129.3,112.2 131.9,114.9 133.1,113.3 129.3,112.2 	"/>
	<polyline id="XMLID_275_" class="st10" points="124.1,109.4 121.5,106.7 125.2,105.8 125.4,107.8 124.1,109.4 	"/>
	<polyline id="XMLID_274_" class="st30" points="121.5,106.7 124.1,109.4 125.4,107.8 121.5,106.7 	"/>
	<polyline id="XMLID_273_" class="st10" points="132.3,108.1 130,105.7 133.2,104.9 133.4,106.6 132.3,108.1 	"/>
	<polyline id="XMLID_272_" class="st30" points="130,105.7 132.3,108.1 133.4,106.6 130,105.7 	"/>
	<polyline id="XMLID_271_" class="st10" points="125.4,102.8 122.8,100.1 126.5,99.2 126.7,101.2 125.4,102.8 	"/>
	<polyline id="XMLID_270_" class="st30" points="122.8,100.1 125.4,102.8 126.7,101.2 122.8,100.1 	"/>
	<path id="XMLID_800_" class="st31" d="M65.9,96.5L65.9,96.5c-0.1,1.2-0.1,2.4-0.1,3.6c0,24.6,19.9,44.5,44.5,44.5
		c6.6,0,12.8-1.4,18.4-4c-0.6-0.2-1.3-0.5-1.9-0.8c-1.5,0.6-3.1,1.2-4.7,1.6c0,0,0,0,0,0c-0.3,0.1-0.6,0.2-0.9,0.2
		c-0.1,0-0.2,0.1-0.3,0.1c-0.1,0-0.2,0-0.2,0.1c-0.3,0.1-0.6,0.1-0.9,0.2c-0.1,0-0.3,0.1-0.4,0.1c-0.1,0-0.2,0-0.3,0.1
		c-0.2,0-0.3,0.1-0.5,0.1c-0.8,0.2-1.6,0.3-2.4,0.4c-0.1,0-0.2,0-0.3,0c-0.3,0-0.6,0.1-1,0.1c-0.1,0-0.3,0-0.4,0
		c-0.2,0-0.4,0-0.6,0.1c-1.2,0.1-2.3,0.1-3.5,0.1l0,0c0,0,0,0,0,0c0,0,0,0,0,0c0,0,0,0,0,0c-0.1,0-0.3,0-0.4,0c0,0,0,0,0,0
		c0,0,0,0,0,0c-2.2,0-4.3-0.2-6.4-0.5c-0.6-0.1-1.2-0.2-1.8-0.3c-0.2,0-0.3-0.1-0.5-0.1c-2.4-0.5-4.7-1.2-6.9-2.1
		c-2.8-1.1-5.5-2.5-7.9-4.2c-2.5-1.7-4.8-3.6-6.9-5.8c-0.1-0.1-0.2-0.2-0.2-0.2c-0.2-0.2-0.3-0.3-0.5-0.5c-0.3-0.3-0.6-0.6-0.9-1
		c-0.2-0.3-0.5-0.6-0.7-0.8c0,0,0-0.1-0.1-0.1c-0.5-0.6-1-1.3-1.5-2c-0.7-1-1.4-2-2-3c-0.5-0.9-1-1.8-1.5-2.7c0,0,0-0.1,0-0.1
		c-0.1-0.3-0.3-0.6-0.4-0.9c-0.1-0.2-0.2-0.4-0.3-0.6c-0.2-0.5-0.4-0.9-0.6-1.4c-0.1-0.3-0.2-0.6-0.4-0.9c-0.3-0.7-0.5-1.3-0.7-2
		c-0.2-0.6-0.4-1.2-0.6-1.8c-0.3-1.1-0.6-2.2-0.8-3.3c0-0.2-0.1-0.3-0.1-0.5c-0.1-0.7-0.2-1.3-0.3-2c0,0,0,0,0-0.1
		c0-0.2,0-0.3-0.1-0.5c-0.1-0.4-0.1-0.7-0.1-1.1c0-0.3-0.1-0.7-0.1-1c0-0.2,0-0.4,0-0.6c0-0.2,0-0.4,0-0.7c0-0.4,0-0.9,0-1.3
		c0-0.3,0-0.7,0-1v0c0-0.3,0-0.7,0-1c0-0.1,0-0.2,0-0.3c0-0.3,0-0.6,0-0.9c0-0.4,0-0.7,0.1-1.1v0c0-0.1,0-0.2,0-0.2h0l0,0h0
		c-0.1,0-0.2,0-0.4,0C66.6,96.5,66.3,96.5,65.9,96.5 M118.7,56.4c0,0.2,0,0.4,0,0.6l0,0c0,0.3,0,0.6,0,0.9c0.8,0.2,1.6,0.3,2.4,0.5
		c0,0,0,0,0,0c0.5,0.1,1,0.3,1.5,0.4c0.2,0.1,0.3,0.1,0.5,0.2c0.7,0.2,1.4,0.4,2.1,0.7c1,0.4,1.9,0.7,2.9,1.2c0,0,0,0,0,0
		c0.2,0.1,0.4,0.2,0.5,0.2c0.7,0.3,1.4,0.7,2.1,1.1c0.1,0,0.1,0.1,0.2,0.1c2,1.1,3.8,2.3,5.6,3.6c0,0,0,0,0,0
		c0.9,0.1,1.9,0.2,2.8,0.4C133.5,61.3,126.4,57.9,118.7,56.4"/>
	<path id="XMLID_773_" class="st32" d="M110.2,143.1C110.3,143.1,110.3,143.1,110.2,143.1C110.3,143.1,110.2,143.1,110.2,143.1
		 M109.8,143.1C109.8,143.1,109.8,143.1,109.8,143.1C109.8,143.1,109.8,143.1,109.8,143.1 M113.8,143c-0.1,0-0.2,0-0.2,0
		c-1.1,0.1-2.2,0.1-3.3,0.1c0,0,0,0,0,0C111.4,143.1,112.6,143.1,113.8,143 M114.8,142.9c-0.1,0-0.1,0-0.2,0c-0.1,0-0.1,0-0.2,0
		C114.5,142.9,114.7,142.9,114.8,142.9 M103.4,142.6c2.1,0.3,4.2,0.5,6.4,0.5c-2.1,0-4.1-0.2-6.1-0.5
		C103.6,142.6,103.5,142.6,103.4,142.6 M118.5,142.4c-0.2,0-0.4,0.1-0.6,0.1c-0.4,0.1-0.7,0.1-1.1,0.2c-0.2,0-0.5,0.1-0.7,0.1
		C116.9,142.6,117.7,142.5,118.5,142.4 M119.3,142.2c0,0-0.1,0-0.1,0c-0.1,0-0.1,0-0.2,0C119.1,142.2,119.2,142.2,119.3,142.2
		 M120.6,141.9c-0.2,0.1-0.4,0.1-0.7,0.2c-0.1,0-0.2,0-0.3,0.1C120,142,120.3,141.9,120.6,141.9 M121.2,141.7c-0.1,0-0.1,0-0.2,0
		c0,0-0.1,0-0.1,0C121,141.8,121.1,141.8,121.2,141.7 M94.2,140c2.2,0.9,4.5,1.6,6.9,2.1c-0.5-0.1-1.1-0.2-1.6-0.4
		C97.7,141.3,95.9,140.7,94.2,140 M126.8,139.8L126.8,139.8c-0.3,0.1-0.6,0.3-1,0.4c-0.3,0.1-0.6,0.2-1,0.4c-0.3,0.1-0.7,0.2-1,0.3
		c-0.6,0.2-1.2,0.4-1.8,0.6C123.7,141,125.3,140.5,126.8,139.8C126.8,139.8,126.8,139.8,126.8,139.8 M79.3,130
		c2.1,2.2,4.4,4.1,6.9,5.8c-2.3-1.6-4.5-3.3-6.4-5.3C79.7,130.4,79.5,130.2,79.3,130 M77.8,128.3c0.3,0.3,0.6,0.6,0.9,1
		c-0.1-0.1-0.1-0.2-0.2-0.2c-0.2-0.2-0.4-0.4-0.5-0.6C77.8,128.4,77.8,128.4,77.8,128.3 M75.5,125.4c0.5,0.7,1,1.3,1.5,2
		c-0.4-0.5-0.8-1-1.2-1.5C75.7,125.7,75.6,125.6,75.5,125.4 M71.5,118.7c0.1,0.3,0.3,0.6,0.4,0.9C71.7,119.3,71.6,119,71.5,118.7
		 M70.6,116.8c0.2,0.5,0.4,0.9,0.6,1.4c-0.1-0.1-0.1-0.2-0.1-0.3C70.9,117.5,70.7,117.1,70.6,116.8 M68.1,108.8
		c0.2,1.1,0.5,2.2,0.8,3.3C68.6,111.1,68.4,110,68.1,108.8C68.1,108.9,68.1,108.8,68.1,108.8 M67.7,106.3c0.1,0.7,0.2,1.3,0.3,2
		c0-0.1,0-0.2-0.1-0.3c0-0.2-0.1-0.4-0.1-0.7c0-0.1,0-0.3-0.1-0.4C67.7,106.8,67.7,106.6,67.7,106.3
		C67.7,106.4,67.7,106.4,67.7,106.3 M67.6,105.8c0,0.2,0,0.3,0.1,0.5c0,0,0,0,0,0C67.6,106.1,67.6,106,67.6,105.8 M72,96.2L72,96.2
		c-1,0.1-2,0.3-2.9,0.3l0,0c0,0.4,0,0.8,0,1.3c0,13,6.4,24.4,16.1,31.5c-0.4-0.3-0.7-0.6-1-0.9c0,0,0,0,0,0c0,0-0.1,0-0.1-0.1
		c-0.2-0.2-0.4-0.4-0.6-0.5c-0.1-0.1-0.1-0.1-0.2-0.2c-0.1,0-0.1-0.1-0.2-0.2c0,0-0.1-0.1-0.1-0.1c-0.1-0.1-0.3-0.3-0.4-0.4
		c-0.1-0.1-0.3-0.3-0.4-0.4c0,0,0,0,0,0c-1-1.1-2-2.3-2.9-3.5c0,0,0,0,0,0c0,0,0,0,0,0c0,0,0,0,0,0c-0.2-0.3-0.4-0.6-0.7-0.9
		c-0.1-0.2-0.2-0.3-0.3-0.5c-0.1-0.2-0.3-0.4-0.4-0.6c0,0-0.1-0.1-0.1-0.1c-0.2-0.3-0.3-0.5-0.5-0.8c-0.1-0.1-0.1-0.2-0.2-0.3
		c-0.2-0.3-0.4-0.7-0.6-1c-0.4-0.7-0.8-1.5-1.1-2.2c-0.1-0.2-0.2-0.4-0.3-0.6c-0.2-0.5-0.4-0.9-0.6-1.4c0-0.1-0.1-0.2-0.1-0.3
		c-0.7-1.9-1.3-3.8-1.7-5.8c-0.1-0.2-0.1-0.5-0.1-0.7c0-0.1,0-0.1,0-0.2c0-0.1,0-0.3-0.1-0.4c0-0.1,0-0.1,0-0.2
		c0-0.2-0.1-0.3-0.1-0.5c-0.1-0.5-0.2-1.1-0.2-1.6c-0.2-1.4-0.2-2.9-0.2-4.3C71.8,98.8,71.9,97.5,72,96.2L72,96.2 M130.9,62.3
		c0.1,0,0.2,0.1,0.2,0.1c0.2,0.1,0.5,0.3,0.7,0.4c0.3,0.1,0.5,0.3,0.7,0.4c0.9,0.6,1.8,1.2,2.7,1.8c0.2,0.1,0.4,0.3,0.5,0.4
		c0.2,0.2,0.4,0.3,0.6,0.5l0,0c0,0,0,0,0,0C134.7,64.6,132.8,63.4,130.9,62.3 M128.5,61.1c0.6,0.3,1.3,0.6,1.9,0.9
		c0.1,0,0.2,0.1,0.3,0.1C129.9,61.8,129.2,61.4,128.5,61.1 M118.5,60.5c-0.1,0.7-0.2,1.4-0.3,2c0.1,0,0.1,0,0.2,0
		c0.4,0.1,0.8,0.2,1.2,0.3c0,0,0,0,0,0c0.2,0,0.4,0.1,0.5,0.1c0.3,0.1,0.7,0.2,1,0.3c0.5,0.1,1,0.3,1.5,0.5c0.3,0.1,0.7,0.2,1,0.4
		c1.3,0.5,2.5,1,3.8,1.6c0.1,0.1,0.3,0.1,0.4,0.2c0,0,0,0,0,0c0,0,0.1,0,0.1,0.1h0c0.6-0.1,1.2-0.1,1.9-0.2
		C126.4,63.4,122.6,61.6,118.5,60.5 M123.1,59c0.1,0,0.2,0.1,0.2,0.1c0.3,0.1,0.5,0.2,0.7,0.2c0,0,0,0,0.1,0c0.3,0.1,0.6,0.2,1,0.3
		c0,0,0,0,0,0C124.4,59.4,123.7,59.2,123.1,59 M121,58.4c0,0,0.1,0,0.1,0c0.3,0.1,0.5,0.1,0.8,0.2c0.2,0.1,0.4,0.1,0.6,0.2
		C122,58.7,121.5,58.5,121,58.4 M118.7,57.9C118.7,57.9,118.7,57.9,118.7,57.9C118.7,57.9,118.7,57.9,118.7,57.9
		c0.2,0,0.3,0.1,0.5,0.1c0.3,0.1,0.5,0.1,0.8,0.2c0,0,0.1,0,0.1,0c0.3,0.1,0.6,0.1,0.9,0.2c0,0,0.1,0,0.1,0
		C120.2,58.2,119.5,58,118.7,57.9"/>
	<path id="XMLID_749_" class="st33" d="M110.3,143.1C110.3,143.1,110.3,143.1,110.3,143.1C110.3,143.1,110.3,143.1,110.3,143.1
		C110.3,143.1,110.3,143.1,110.3,143.1 M109.8,143.1c0.1,0,0.3,0,0.4,0C110.1,143.1,110,143.1,109.8,143.1 M109.8,143.1
		C109.8,143.1,109.8,143.1,109.8,143.1C109.8,143.1,109.8,143.1,109.8,143.1 M114.4,142.9c-0.2,0-0.4,0-0.6,0.1
		C114,143,114.2,143,114.4,142.9 M116.1,142.7c-0.4,0.1-0.9,0.1-1.3,0.2c0.3,0,0.6-0.1,1-0.1C115.9,142.8,116,142.8,116.1,142.7
		 M119,142.3c-0.2,0-0.3,0.1-0.5,0.1C118.6,142.3,118.8,142.3,119,142.3 M101.1,142.2c0.2,0,0.3,0.1,0.5,0.1
		c0.6,0.1,1.2,0.2,1.8,0.3C102.6,142.5,101.9,142.3,101.1,142.2 M119.7,142.1c-0.1,0-0.3,0.1-0.4,0.1
		C119.4,142.2,119.6,142.1,119.7,142.1 M120.9,141.8c-0.1,0-0.2,0-0.2,0.1C120.7,141.9,120.8,141.8,120.9,141.8 M122.1,141.5
		c-0.3,0.1-0.6,0.2-0.9,0.2C121.5,141.7,121.8,141.6,122.1,141.5C122.1,141.5,122.1,141.5,122.1,141.5 M86.2,135.8
		c2.5,1.7,5.1,3.1,7.9,4.2C91.4,138.9,88.7,137.5,86.2,135.8 M78.6,129.3c0.2,0.2,0.3,0.3,0.5,0.5c0.1,0.1,0.2,0.2,0.2,0.2
		C79.1,129.8,78.9,129.5,78.6,129.3 M77,127.4C77,127.4,77,127.4,77,127.4c0.3,0.4,0.5,0.7,0.8,0.9C77.5,128,77.2,127.7,77,127.4
		 M71.9,119.6C71.9,119.6,71.9,119.7,71.9,119.6c0.5,1,1,1.9,1.6,2.8c0.6,1,1.3,2,2,3C74.1,123.6,72.9,121.6,71.9,119.6 M71.2,118.1
		c0.1,0.2,0.2,0.4,0.3,0.6C71.4,118.5,71.3,118.3,71.2,118.1 M68.9,112.1c0.2,0.6,0.4,1.2,0.6,1.8c0.2,0.7,0.5,1.3,0.7,2
		c0.1,0.3,0.2,0.6,0.4,0.9C69.9,115.3,69.4,113.7,68.9,112.1 M68,108.4c0,0.2,0.1,0.3,0.1,0.5C68.1,108.7,68.1,108.5,68,108.4
		 M67.7,106.3C67.7,106.3,67.7,106.3,67.7,106.3C67.7,106.3,67.7,106.3,67.7,106.3 M67.4,96.5L67.4,96.5c0,0.1,0,0.2,0,0.2v0
		c0,0.4,0,0.7-0.1,1.1c0,0.3,0,0.6,0,0.9c0,0.1,0,0.2,0,0.3c0,0.3,0,0.7,0,1v0c0,0.3,0,0.7,0,1c0,0.4,0,0.9,0,1.3c0,0.2,0,0.4,0,0.7
		c0,0.2,0,0.4,0,0.6c0,0.3,0.1,0.7,0.1,1c0,0.4,0.1,0.7,0.1,1.1c-0.2-1.9-0.4-3.8-0.4-5.7C67.2,98.9,67.3,97.7,67.4,96.5
		 M130.6,62.2c0.1,0,0.1,0.1,0.2,0.1C130.8,62.3,130.7,62.2,130.6,62.2 M125.1,59.7c1.2,0.4,2.3,0.9,3.4,1.4
		c-0.2-0.1-0.4-0.2-0.5-0.2c0,0,0,0,0,0C127,60.4,126.1,60,125.1,59.7 M122.5,58.8c0.2,0.1,0.3,0.1,0.5,0.2
		C122.9,58.9,122.7,58.9,122.5,58.8 M121,58.4C121,58.4,121,58.4,121,58.4C121,58.4,121,58.4,121,58.4"/>
	<path id="XMLID_746_" class="st34" d="M69.1,96.5L69.1,96.5c-0.6,0-1.1,0.1-1.7,0.1l0,0h0c-0.1,1.2-0.1,2.4-0.1,3.6
		c0,1.9,0.1,3.9,0.4,5.7c0,0.1,0,0.3,0.1,0.4c0,0,0,0,0,0c0,0,0,0,0,0.1c0,0,0,0,0,0c0,0.2,0.1,0.4,0.1,0.6c0,0.1,0,0.3,0.1,0.4
		c0,0.2,0.1,0.4,0.1,0.7c0,0.1,0,0.2,0.1,0.3c0,0.2,0.1,0.3,0.1,0.5c0,0,0,0,0,0.1c0.2,1.1,0.5,2.2,0.8,3.2c0.5,1.6,1,3.1,1.6,4.6
		c0.1,0.4,0.3,0.7,0.5,1c0,0.1,0.1,0.2,0.1,0.3c0.1,0.2,0.2,0.4,0.3,0.6c0.1,0.3,0.3,0.6,0.4,0.9c1,2,2.2,4,3.6,5.8
		c0.1,0.1,0.2,0.3,0.3,0.4c0.4,0.5,0.8,1,1.2,1.5c0.3,0.3,0.5,0.6,0.8,0.9c0,0,0.1,0.1,0.1,0.1c0.2,0.2,0.4,0.4,0.5,0.6
		c0.1,0.1,0.1,0.2,0.2,0.2c0.2,0.3,0.5,0.5,0.7,0.8c0.2,0.2,0.3,0.3,0.5,0.5c2,2,4.1,3.7,6.4,5.3c2.5,1.7,5.1,3.1,7.9,4.2
		c1.7,0.7,3.5,1.3,5.3,1.8c0.5,0.1,1,0.3,1.6,0.4c0.8,0.2,1.5,0.3,2.3,0.4c0.1,0,0.2,0,0.3,0c2,0.3,4,0.5,6.1,0.5c0,0,0,0,0,0
		c0,0,0,0,0,0c0.1,0,0.3,0,0.4,0c0,0,0,0,0,0c0,0,0,0,0,0c1.1,0,2.2,0,3.3-0.1c0.1,0,0.2,0,0.2,0c0.2,0,0.4,0,0.6-0.1
		c0.1,0,0.1,0,0.2,0c0.1,0,0.1,0,0.2,0c0.4,0,0.9-0.1,1.3-0.2c0.2,0,0.5-0.1,0.7-0.1c0.4-0.1,0.7-0.1,1.1-0.2c0.2,0,0.4-0.1,0.6-0.1
		c0.2,0,0.3-0.1,0.5-0.1c0.1,0,0.1,0,0.2,0c0,0,0.1,0,0.1,0c0.1,0,0.3-0.1,0.4-0.1c0.1,0,0.2,0,0.3-0.1c0.2-0.1,0.4-0.1,0.7-0.2
		c0.1,0,0.2,0,0.2-0.1c0,0,0.1,0,0.1,0c0.1,0,0.1,0,0.2,0c0.3-0.1,0.6-0.2,0.9-0.2c0.6-0.2,1.2-0.4,1.8-0.6c0.3-0.1,0.7-0.2,1-0.3
		c0.3-0.1,0.6-0.2,1-0.4c0.3-0.1,0.6-0.3,1-0.4l0,0l0,0c-0.8-0.4-1.6-0.8-2.3-1.2c-1-0.6-1.9-1.2-2.9-1.8c0,0,0,0,0,0
		c-0.6,0.2-1.1,0.3-1.7,0.5c0,0,0,0-0.1,0c-0.1,0-0.1,0-0.2,0c-1.2,0.3-2.4,0.6-3.7,0.7c-0.3,0-0.6,0.1-0.9,0.1c-0.1,0-0.3,0-0.4,0
		c-1.5,0.2-3,0.3-4.5,0.3c-0.4,0-0.9,0-1.3,0c-0.1,0-0.1,0-0.2,0c-0.3,0-0.6,0-1,0c-0.1,0-0.2,0-0.2,0c-0.6,0-1.1-0.1-1.7-0.2
		c-0.2,0-0.4,0-0.5-0.1c-0.3,0-0.5-0.1-0.8-0.1c-1-0.1-2-0.3-3-0.6c0,0,0,0,0,0c0,0-0.1,0-0.1,0c-0.9-0.2-1.7-0.4-2.5-0.7
		c-0.3-0.1-0.5-0.2-0.8-0.3c-0.7-0.2-1.4-0.5-2.1-0.8c0,0-0.1,0-0.1-0.1c-3-1.2-5.8-2.8-8.3-4.6c0,0,0,0,0,0c0,0,0,0,0,0
		c-0.8-0.6-1.6-1.2-2.4-1.9c-9.8-7-16.1-18.5-16.1-31.5C69.1,97.3,69.1,96.9,69.1,96.5L69.1,96.5 M118.7,57.9c0,0.9-0.1,1.8-0.2,2.6
		c4.1,1.2,7.9,3,11.3,5.3l0,0c0.9-0.1,1.7-0.1,2.6-0.1c1.4,0,2.7,0.1,4.1,0.2c-0.2-0.2-0.4-0.3-0.6-0.5c-0.2-0.1-0.3-0.3-0.5-0.4
		c-0.9-0.6-1.8-1.2-2.7-1.8c-0.2-0.1-0.5-0.3-0.7-0.4c-0.2-0.1-0.5-0.3-0.7-0.4c-0.1,0-0.2-0.1-0.2-0.1c-0.1,0-0.1-0.1-0.2-0.1
		c-0.1,0-0.2-0.1-0.3-0.1c-0.6-0.3-1.2-0.6-1.9-0.9c-1.1-0.5-2.2-1-3.4-1.4c0,0,0,0,0,0c-0.3-0.1-0.6-0.2-1-0.3c0,0,0,0-0.1,0
		c-0.2-0.1-0.5-0.2-0.7-0.2c-0.1,0-0.2-0.1-0.2-0.1c-0.2-0.1-0.3-0.1-0.5-0.2c-0.2-0.1-0.4-0.1-0.6-0.2c-0.3-0.1-0.5-0.2-0.8-0.2
		c0,0-0.1,0-0.1,0c0,0,0,0,0,0c0,0-0.1,0-0.1,0c-0.3-0.1-0.6-0.1-0.9-0.2c0,0,0,0-0.1,0c-0.3-0.1-0.5-0.1-0.8-0.2
		C119,57.9,118.8,57.9,118.7,57.9C118.7,57.9,118.7,57.9,118.7,57.9"/>
	<path id="XMLID_717_" class="st35" d="M107.8,138.4c0.3,0,0.6,0,1,0c-0.1,0-0.1,0-0.2,0c-0.2,0-0.4,0-0.6,0
		C107.9,138.5,107.9,138.4,107.8,138.4 M105.9,138.3c0.6,0.1,1.1,0.1,1.7,0.2c0,0,0,0,0,0c-0.4,0-0.7-0.1-1.1-0.1
		C106.3,138.3,106.1,138.3,105.9,138.3 M114.8,138.3c-0.3,0-0.5,0.1-0.8,0.1c-0.4,0-0.8,0.1-1.2,0.1c-0.3,0-0.7,0-1,0
		c-0.5,0-1,0-1.5,0c-0.4,0-0.7,0-1.1,0c-0.1,0-0.1,0-0.2,0c0.4,0,0.9,0,1.3,0C111.8,138.5,113.3,138.4,114.8,138.3 M101.6,137.5
		c1,0.2,2,0.4,3,0.6c-0.1,0-0.1,0-0.2,0c-0.2,0-0.5-0.1-0.7-0.1c-0.3,0-0.6-0.1-0.8-0.2C102.4,137.7,102,137.6,101.6,137.5
		C101.6,137.5,101.6,137.5,101.6,137.5 M119.7,137.4c-0.3,0.1-0.7,0.2-1,0.2c-0.3,0.1-0.7,0.1-1,0.2c-0.6,0.1-1.1,0.2-1.7,0.3
		C117.3,137.9,118.5,137.7,119.7,137.4 M99,136.8c0.8,0.3,1.7,0.5,2.5,0.7c-0.3-0.1-0.7-0.2-1-0.3c-0.4-0.1-0.9-0.2-1.3-0.4
		C99.1,136.9,99,136.9,99,136.8 M121.6,136.8L121.6,136.8c-0.5,0.2-1.1,0.3-1.7,0.5C120.5,137.2,121,137,121.6,136.8
		C121.6,136.8,121.6,136.8,121.6,136.8 M96.1,135.8c0.7,0.3,1.4,0.5,2.1,0.8c-0.1,0-0.2-0.1-0.2-0.1c-0.6-0.2-1.2-0.4-1.8-0.6
		C96.1,135.8,96.1,135.8,96.1,135.8 M87.6,131.1c2.5,1.9,5.3,3.4,8.3,4.6c-0.1-0.1-0.3-0.1-0.5-0.2c-0.2-0.1-0.4-0.2-0.6-0.2
		c-0.2-0.1-0.5-0.2-0.7-0.3c-0.4-0.2-0.8-0.4-1.2-0.6c-0.4-0.2-0.8-0.4-1.2-0.6c-0.4-0.2-0.8-0.4-1.1-0.7c-0.4-0.2-0.8-0.5-1.1-0.7
		c-0.4-0.2-0.7-0.5-1.1-0.7c-0.2-0.2-0.5-0.3-0.7-0.5C87.7,131.2,87.6,131.2,87.6,131.1 M84.2,128.3c0.3,0.3,0.7,0.6,1,0.9
		c0.8,0.7,1.6,1.3,2.4,1.9c-0.2-0.2-0.4-0.3-0.7-0.5c-0.4-0.3-0.7-0.6-1.1-0.9c-0.2-0.1-0.4-0.3-0.5-0.5h0c0,0,0,0,0,0c0,0,0,0,0,0
		C84.9,129,84.6,128.7,84.2,128.3C84.2,128.3,84.2,128.3,84.2,128.3 M83.5,127.7c0.2,0.2,0.4,0.4,0.6,0.5
		C83.9,128,83.7,127.8,83.5,127.7 M83.2,127.4c0.1,0,0.1,0.1,0.2,0.2C83.3,127.5,83.3,127.4,83.2,127.4
		C83.2,127.4,83.2,127.4,83.2,127.4 M82.7,126.8c0.1,0.1,0.3,0.3,0.4,0.4c0,0,0,0,0,0C83,127.1,82.8,127,82.7,126.8 M79.3,122.8
		c0.9,1.2,1.9,2.4,2.9,3.5c-0.1-0.1-0.1-0.1-0.2-0.2c-0.3-0.3-0.5-0.6-0.8-0.9c0,0,0,0-0.1-0.1c-0.2-0.3-0.5-0.5-0.7-0.8
		c-0.2-0.2-0.3-0.4-0.5-0.6c-0.2-0.3-0.4-0.5-0.6-0.8C79.4,123,79.4,122.9,79.3,122.8 M79.3,122.8C79.3,122.8,79.3,122.8,79.3,122.8
		C79.3,122.8,79.3,122.8,79.3,122.8 M78.6,121.9c0.2,0.3,0.4,0.6,0.7,0.9c-0.2-0.3-0.4-0.5-0.6-0.8C78.7,122,78.6,121.9,78.6,121.9
		 M77.3,119.9c0.2,0.3,0.3,0.5,0.5,0.8c-0.1-0.2-0.3-0.4-0.4-0.6C77.4,120,77.3,119.9,77.3,119.9 M76.5,118.5c0.2,0.4,0.4,0.7,0.6,1
		c-0.1-0.1-0.1-0.2-0.2-0.3C76.8,119,76.7,118.7,76.5,118.5 M75.1,115.6c0.1,0.2,0.2,0.4,0.3,0.6c-0.1-0.1-0.1-0.2-0.2-0.4
		C75.2,115.8,75.1,115.7,75.1,115.6 M72.7,108c0.4,2,1,3.9,1.7,5.8c-0.1-0.2-0.2-0.5-0.3-0.7c-0.1-0.3-0.2-0.7-0.4-1
		c-0.1-0.4-0.3-0.8-0.4-1.2c-0.1-0.4-0.2-0.9-0.4-1.3c-0.1-0.4-0.2-0.9-0.3-1.3C72.7,108.2,72.7,108.1,72.7,108 M72.5,107.1
		c0,0.1,0,0.1,0,0.2C72.5,107.3,72.5,107.2,72.5,107.1C72.5,107.1,72.5,107.1,72.5,107.1 M72.4,106.5c0,0.1,0,0.1,0,0.2c0,0,0,0,0,0
		C72.4,106.6,72.4,106.6,72.4,106.5 M72.1,104.4c0.1,0.5,0.1,1.1,0.2,1.6c0-0.1,0-0.3-0.1-0.4C72.2,105.2,72.1,104.8,72.1,104.4
		 M77.3,95c-1.2,0.4-2.4,0.7-3.6,0.9l0,0c0,0.4,0,0.7,0,1.1c0,18.5,15,33.4,33.4,33.4c2.3,0,4.6-0.2,6.7-0.7l0,0l0,0
		c-0.6-0.7-1.2-1.4-1.7-2.1l0,0l-4.4,0.1l-2.3,0.1c-0.1,0-0.1,0-0.2,0c0,0,0,0-0.1,0c-0.2,0-0.3,0-0.5,0c-0.2,0-0.3,0-0.5-0.1h0
		c-0.2,0-0.3-0.1-0.5-0.1c0,0,0,0-0.1,0c-0.1,0-0.1,0-0.2-0.1c-0.1,0-0.1,0-0.2,0c-0.2-0.1-0.4-0.1-0.6-0.2
		c-0.1-0.1-0.3-0.1-0.4-0.2c-0.2-0.1-0.3-0.2-0.4-0.3c-0.1,0-0.1-0.1-0.2-0.1c-0.2-0.1-0.3-0.2-0.5-0.4c-0.2-0.2-0.4-0.3-0.5-0.5
		c-0.3-0.3-0.5-0.6-0.7-0.9c-0.1-0.2-0.2-0.4-0.3-0.6c-0.1-0.2-0.2-0.3-0.2-0.5c0-0.1-0.1-0.2-0.1-0.4c-0.1-0.2-0.1-0.4-0.1-0.6
		c0,0,0-0.1,0-0.1c0-0.3-0.1-0.6-0.1-0.9c0,0,0,0,0-0.1c0,0,0-0.1,0-0.1c0-0.1,0-0.3,0-0.4c0-0.1,0-0.2,0-0.2
		c0.1-0.4,0.2-0.9,0.3-1.3c0,0,0-0.1,0-0.1c0.1-0.2,0.1-0.3,0.2-0.5c0,0,0-0.1,0.1-0.1c0-0.1,0.1-0.2,0.1-0.3
		c0.1-0.1,0.1-0.2,0.2-0.3c-1.6-0.8-3.1-1.8-4.4-2.9c0,0,0,0,0,0c-0.2,0.2-0.3,0.4-0.5,0.6c0,0,0,0-0.1,0.1
		c-0.4,0.3-0.8,0.6-1.2,0.8c0,0,0,0,0,0c-0.1,0-0.2,0.1-0.2,0.1c-0.3,0.1-0.6,0.3-0.9,0.3c0,0,0,0,0,0c0,0,0,0,0,0
		c-0.5,0.1-1,0.2-1.6,0.2c-0.1,0-0.2,0-0.2,0c-2.2-0.1-4.4-1.4-5.3-3.7c0-0.1-0.1-0.2-0.1-0.3l-2.1-5.6l0,0l0,0
		C80.2,104.5,78,100,77.3,95 M127.8,65.9c0,0,0.1,0,0.1,0.1l0,0h0C127.9,65.9,127.8,65.9,127.8,65.9 M98.6,64.6c-0.1,0-0.1,0-0.2,0
		c0,0.7,0,1.4,0,2.1c1.1-0.2,2.2-0.2,3.4-0.2c4.7,0,9.1,1.3,12.9,3.6c0,0,0,0,0,0c1.9-1.1,3.8-1.9,5.9-2.6c0.5-0.2,1-0.3,1.5-0.5
		c-1.5-0.7-3-1.4-4.5-1.9c-0.2,0.7-0.4,1.1-0.4,1.1c0,0,0,0-0.1,0c-1.8,0.2-3.5,0.2-5.1,0.2h0l0,0l0,0h0
		C107,66.6,102.6,65.9,98.6,64.6 M123.6,64c0.7,0.2,1.3,0.5,1.9,0.8c0.3,0.1,0.5,0.2,0.8,0.4c0.2,0.1,0.4,0.2,0.6,0.3
		c0.2,0.1,0.3,0.1,0.5,0.2C126.2,65.1,124.9,64.5,123.6,64 M120.1,62.9c0.2,0.1,0.5,0.1,0.7,0.2c0.1,0,0.2,0.1,0.3,0.1
		C120.8,63.1,120.4,63,120.1,62.9"/>
	<path id="XMLID_714_" class="st36" d="M88.2,88.8c-3.2,2.8-6.9,4.8-10.9,6.1c0,0,0,0,0,0c0.7,5,2.9,9.5,6.2,13.1l-1-2.7l-0.6-1.8
		c-0.7-2-0.4-3.9,0.7-5.4c0.1-0.1,0.1-0.2,0.2-0.2c0,0,0,0,0,0c0.3-0.4,0.6-0.7,0.9-1c0,0,0,0,0,0c0,0,0.1-0.1,0.1-0.1
		c0,0,0.1-0.1,0.1-0.1c0,0,0,0,0,0c0.1-0.1,0.3-0.2,0.4-0.3c0.1,0,0.1-0.1,0.2-0.1c0.3-0.2,0.5-0.3,0.8-0.4c0.1,0,0.1,0,0.2-0.1l0,0
		c0,0,0,0,0,0c0.2-0.1,0.5-0.2,0.7-0.2c0,0,0.1,0,0.1,0c0,0,0,0,0,0c0.3-0.1,0.6-0.1,0.8-0.1c0.1,0,0.2,0,0.3,0c0.1,0,0.2,0,0.2,0
		c0,0,0,0,0,0c0.2-2,0.7-3.9,1.4-5.7c-0.2-0.2-0.4-0.4-0.6-0.5c0,0,0,0,0,0c0,0,0,0,0,0C88.4,89,88.3,88.9,88.2,88.8 M101.8,66.5
		c-1.2,0-2.3,0.1-3.4,0.2c0,0,0,0,0,0c-0.1,2.4-0.5,4.8-1.1,7.1l0,0l0.3-0.3c0.7-0.5,1.4-0.9,2.1-1.1c0.5-0.1,1-0.2,1.5-0.2
		c1.2,0,2.4,0.4,3.4,1c0.1,0,0.1,0.1,0.2,0.1c0,0,0.1,0.1,0.1,0.1c0,0,0.1,0.1,0.1,0.1c0.2,0.2,0.4,0.4,0.6,0.6c0,0,0,0,0,0
		c0,0,0,0,0,0c0.3,0.3,0.5,0.6,0.7,0.9c0.4-0.1,0.9-0.1,1.3-0.2c0,0,0,0,0,0c2-1.9,4.3-3.6,6.7-5C111,67.8,106.6,66.5,101.8,66.5"/>
	<path id="XMLID_710_" class="st37" d="M127.4,65.7c0.1,0.1,0.3,0.1,0.4,0.2c0,0,0,0,0,0C127.6,65.8,127.5,65.7,127.4,65.7
		 M121.1,63.2c0.9,0.2,1.7,0.5,2.5,0.8c-0.3-0.1-0.7-0.2-1-0.4C122.1,63.5,121.6,63.4,121.1,63.2 M118.2,62.5
		C118.2,62.5,118.2,62.5,118.2,62.5c0.6,0.1,1.3,0.3,1.9,0.5c-0.2,0-0.4-0.1-0.5-0.1c0,0,0,0,0,0c-0.4-0.1-0.8-0.2-1.2-0.3
		C118.3,62.5,118.2,62.5,118.2,62.5"/>
	<path id="XMLID_707_" class="st37" d="M72.3,106.1c0,0.2,0,0.3,0.1,0.5C72.3,106.4,72.3,106.2,72.3,106.1 M72,96.2
		C72,96.2,72,96.2,72,96.2L72,96.2c-0.1,1.3-0.2,2.6-0.2,3.9c0,1.5,0.1,2.9,0.2,4.3c-0.2-1.4-0.2-2.9-0.2-4.3
		C71.8,98.8,71.9,97.5,72,96.2"/>
	<path id="XMLID_704_" class="st37" d="M72.5,107.3c0,0.2,0.1,0.5,0.1,0.7C72.6,107.8,72.6,107.5,72.5,107.3 M72.4,106.7
		c0,0.1,0,0.3,0.1,0.4C72.5,107,72.4,106.8,72.4,106.7"/>
	<path id="XMLID_693_" class="st37" d="M84.1,128.2C84.1,128.2,84.1,128.3,84.1,128.2C84.1,128.3,84.2,128.3,84.1,128.2
		C84.1,128.3,84.1,128.2,84.1,128.2 M83.3,127.5c0.1,0.1,0.1,0.1,0.2,0.2C83.4,127.6,83.4,127.6,83.3,127.5 M83.1,127.3
		C83.1,127.3,83.2,127.3,83.1,127.3C83.2,127.3,83.1,127.3,83.1,127.3 M82.2,126.3C82.2,126.4,82.2,126.4,82.2,126.3
		c0.2,0.2,0.3,0.3,0.5,0.5C82.5,126.7,82.4,126.5,82.2,126.3 M79.3,122.8C79.3,122.8,79.3,122.8,79.3,122.8
		C79.3,122.8,79.3,122.8,79.3,122.8 M79.3,122.8C79.3,122.8,79.3,122.8,79.3,122.8C79.3,122.8,79.3,122.8,79.3,122.8 M77.8,120.7
		c0,0,0.1,0.1,0.1,0.1c0.1,0.2,0.3,0.4,0.4,0.6c0.1,0.2,0.2,0.3,0.3,0.5C78.3,121.5,78.1,121.1,77.8,120.7 M77.1,119.5
		c0.1,0.1,0.1,0.2,0.2,0.3C77.2,119.7,77.2,119.6,77.1,119.5 M75.4,116.3c0.3,0.8,0.7,1.5,1.1,2.2C76.1,117.8,75.7,117,75.4,116.3
		 M74.4,113.8c0,0.1,0.1,0.2,0.1,0.3c0.2,0.5,0.4,1,0.6,1.4C74.8,115,74.6,114.4,74.4,113.8"/>
	<path id="XMLID_683_" class="st38" d="M108.8,138.5c0.1,0,0.1,0,0.2,0C108.9,138.5,108.9,138.5,108.8,138.5 M107.6,138.4
		c0.1,0,0.2,0,0.2,0C107.8,138.4,107.7,138.4,107.6,138.4 M104.6,138.1c0.3,0,0.5,0.1,0.8,0.1c0.2,0,0.4,0,0.5,0.1
		C105.5,138.2,105,138.2,104.6,138.1 M116,138.1c-0.4,0.1-0.8,0.1-1.3,0.2c0.1,0,0.3,0,0.4,0C115.5,138.2,115.8,138.1,116,138.1
		 M101.5,137.5c0,0,0.1,0,0.1,0c0,0,0,0,0,0C101.6,137.5,101.5,137.5,101.5,137.5 M119.9,137.3c-0.1,0-0.1,0-0.2,0.1
		C119.8,137.3,119.8,137.3,119.9,137.3C119.9,137.3,119.9,137.3,119.9,137.3 M98.2,136.6c0.3,0.1,0.5,0.2,0.8,0.3
		C98.7,136.7,98.4,136.7,98.2,136.6 M95.9,135.8c0,0,0.1,0,0.1,0.1C96,135.8,96,135.8,95.9,135.8 M87.6,131.1
		C87.6,131.1,87.6,131.1,87.6,131.1C87.6,131.1,87.6,131.1,87.6,131.1C87.6,131.1,87.6,131.1,87.6,131.1"/>
	<path id="XMLID_679_" class="st39" d="M73.7,95.9L73.7,95.9c-0.5,0.1-1.1,0.2-1.6,0.3c-0.1,1.3-0.2,2.6-0.2,3.9
		c0,1.5,0.1,2.9,0.2,4.3c0,0.4,0.1,0.8,0.2,1.2c0,0.1,0,0.3,0.1,0.4c0,0.2,0,0.3,0.1,0.5c0,0.1,0,0.1,0,0.2c0,0,0,0,0,0
		c0,0.1,0,0.3,0.1,0.4c0,0,0,0,0,0.1c0,0,0,0.1,0,0.1c0,0.2,0.1,0.5,0.1,0.7c0,0.1,0,0.2,0.1,0.2c0.1,0.4,0.2,0.9,0.3,1.3
		c0.1,0.4,0.2,0.9,0.4,1.3c0.1,0.4,0.2,0.8,0.4,1.2c0.1,0.3,0.2,0.7,0.4,1c0.1,0.2,0.2,0.5,0.3,0.7c0.2,0.6,0.5,1.2,0.7,1.8
		c0,0.1,0.1,0.2,0.1,0.3c0.1,0.1,0.1,0.2,0.2,0.4c0.4,0.8,0.7,1.5,1.1,2.2c0.1,0.3,0.3,0.5,0.4,0.8c0.1,0.1,0.1,0.2,0.2,0.3
		c0.1,0.1,0.1,0.2,0.2,0.3c0,0.1,0.1,0.1,0.1,0.2c0.1,0.2,0.3,0.4,0.4,0.6c0.3,0.4,0.5,0.8,0.8,1.2c0,0,0.1,0.1,0.1,0.1
		c0.2,0.3,0.4,0.5,0.6,0.8c0,0,0,0,0,0c0,0,0,0,0,0c0,0,0,0,0,0c0.1,0.1,0.1,0.2,0.2,0.2c0.2,0.3,0.4,0.5,0.6,0.8
		c0.1,0.2,0.3,0.4,0.5,0.6c0.2,0.3,0.4,0.5,0.7,0.8c0,0,0,0,0.1,0.1c0.3,0.3,0.5,0.6,0.8,0.9c0.1,0.1,0.1,0.1,0.2,0.2
		c0.2,0.2,0.3,0.3,0.5,0.5c0.1,0.1,0.3,0.3,0.4,0.4c0,0,0,0,0,0c0,0,0.1,0.1,0.1,0.1c0,0,0,0,0,0c0,0,0.1,0.1,0.1,0.1
		c0.1,0.1,0.1,0.1,0.2,0.2c0.2,0.2,0.4,0.4,0.6,0.5c0,0,0.1,0.1,0.1,0.1c0,0,0.1,0,0.1,0.1c0.3,0.3,0.7,0.6,1,0.9c0,0,0,0,0,0
		c0,0,0,0,0,0h0c0.2,0.2,0.4,0.3,0.5,0.5c0.4,0.3,0.7,0.6,1.1,0.9c0.2,0.2,0.4,0.3,0.7,0.5c0,0,0,0,0,0c0,0,0.1,0,0.1,0.1
		c0.2,0.2,0.5,0.3,0.7,0.5c0.4,0.3,0.7,0.5,1.1,0.7c0.4,0.2,0.7,0.5,1.1,0.7c0.4,0.2,0.8,0.4,1.1,0.7c0.4,0.2,0.8,0.4,1.2,0.6
		c0.4,0.2,0.8,0.4,1.2,0.6c0.2,0.1,0.5,0.2,0.7,0.3c0.2,0.1,0.4,0.2,0.6,0.2c0.2,0.1,0.3,0.1,0.5,0.2c0,0,0.1,0,0.1,0.1
		c0,0,0.1,0,0.1,0c0.6,0.2,1.2,0.4,1.8,0.6c0.1,0,0.2,0.1,0.2,0.1c0.3,0.1,0.5,0.2,0.8,0.3c0.1,0,0.2,0,0.2,0.1
		c0.4,0.1,0.8,0.2,1.3,0.4c0.3,0.1,0.7,0.2,1,0.3c0,0,0.1,0,0.1,0c0,0,0,0,0.1,0c0.4,0.1,0.8,0.2,1.1,0.2c0.3,0.1,0.6,0.1,0.8,0.2
		c0.2,0,0.5,0.1,0.7,0.1c0.1,0,0.1,0,0.2,0c0.4,0.1,0.9,0.1,1.3,0.2c0.2,0,0.4,0,0.6,0.1c0.4,0,0.7,0.1,1.1,0.1c0,0,0,0,0,0
		c0.1,0,0.2,0,0.2,0c0.1,0,0.1,0,0.2,0c0.2,0,0.4,0,0.6,0c0.1,0,0.1,0,0.2,0c0.1,0,0.1,0,0.2,0c0.1,0,0.1,0,0.2,0c0.4,0,0.7,0,1.1,0
		c0.5,0,1,0,1.5,0c0.3,0,0.7,0,1,0c0.4,0,0.8-0.1,1.2-0.1c0.3,0,0.5-0.1,0.8-0.1c0.4,0,0.9-0.1,1.3-0.2c0.6-0.1,1.1-0.2,1.7-0.3
		c0.3-0.1,0.7-0.1,1-0.2c0.3-0.1,0.7-0.2,1-0.2c0.1,0,0.1,0,0.2-0.1c0.6-0.1,1.1-0.3,1.7-0.5l0,0l0,0c-0.9-0.6-1.7-1.3-2.5-2
		c-1.9-1.6-3.6-3.3-5.2-5.1l0,0c-2.2,0.4-4.4,0.7-6.7,0.7c-18.5,0-33.4-15-33.4-33.4C73.6,96.6,73.6,96.3,73.7,95.9L73.7,95.9
		 M98.5,64.6c0,0,0,0.1,0,0.1l0,0c0.1,0,0.1,0,0.2,0C98.6,64.6,98.5,64.6,98.5,64.6 M118.2,62.5c-0.2,1.1-0.4,1.9-0.6,2.6
		c0,0,0,0.1,0,0.1c1.6,0.5,3.1,1.1,4.5,1.9l0,0c1.9-0.5,3.9-0.9,5.9-1.1c0,0-0.1,0-0.1-0.1c-0.1-0.1-0.3-0.1-0.4-0.2
		c-0.2-0.1-0.3-0.1-0.5-0.2c-0.2-0.1-0.4-0.2-0.6-0.3c-0.3-0.1-0.5-0.2-0.8-0.4c-0.6-0.3-1.3-0.5-1.9-0.8c-0.8-0.3-1.7-0.6-2.5-0.8
		c-0.1,0-0.2-0.1-0.3-0.1c-0.2-0.1-0.5-0.1-0.7-0.2C119.5,62.8,118.8,62.6,118.2,62.5"/>
	<path id="XMLID_157_" class="st40" d="M108,75.1c-0.4,0.1-0.9,0.1-1.3,0.2c0.1,0.2,0.3,0.5,0.4,0.8C107.3,75.7,107.6,75.4,108,75.1
		"/>
	<path id="XMLID_156_" class="st36" d="M95.9,115.5C95.8,115.5,95.8,115.5,95.9,115.5c1.3,1.2,2.8,2.2,4.3,3c0,0,0,0,0,0l1.6-2.3
		C99.7,116.2,97.8,115.9,95.9,115.5"/>
	<path id="XMLID_674_" class="st40" d="M100.8,108.2L100.8,108.2L100.8,108.2l-4.6,6.8c-0.1,0.1-0.2,0.3-0.3,0.4c0,0,0,0,0,0
		c0,0,0,0,0,0c1.9,0.5,3.9,0.7,5.9,0.7l0,0h0l1.5-2.3v0C102.3,112.1,101.5,110.2,100.8,108.2L100.8,108.2 M89.1,89.7
		c-0.7,1.8-1.2,3.7-1.4,5.7c0,0,0.1,0,0.1,0c0.3,0,0.6,0.1,0.9,0.1c0.1,0,0.3,0.1,0.4,0.1l7.9,2.3l0,0c0,0,0,0,0,0
		c0-1.8,0.4-3.6,1-5.2l-6.9-2c0,0,0,0,0,0c-0.1,0-0.2,0-0.2-0.1C90.3,90.5,89.7,90.1,89.1,89.7"/>
	<path id="XMLID_153_" class="st41" d="M98.1,92.8c-0.7,1.6-1,3.3-1,5.2c0,0,0,0,0,0l1.3,0.4l0,0c-0.1-1-0.1-2.1-0.1-3.1
		c0-0.8,0.1-1.5,0.2-2.3v0L98.1,92.8"/>
	<path id="XMLID_663_" class="st42" d="M91.2,90.8C91.2,90.8,91.2,90.8,91.2,90.8l7,2l0.4,0.1v0l-0.4-0.1L91.2,90.8
		C91.2,90.8,91.2,90.8,91.2,90.8 M88.5,89.2c0.2,0.2,0.4,0.4,0.6,0.5c0.5,0.4,1.1,0.8,1.8,1c-0.1,0-0.1,0-0.2-0.1
		c-0.1,0-0.3-0.1-0.4-0.2c-0.1,0-0.2-0.1-0.2-0.1c-0.1,0-0.2-0.1-0.3-0.1c-0.1,0-0.1-0.1-0.2-0.1c0,0,0,0-0.1,0
		c-0.2-0.1-0.3-0.2-0.4-0.3c-0.1-0.1-0.2-0.1-0.2-0.2c-0.1-0.1-0.2-0.1-0.2-0.2C88.6,89.3,88.6,89.2,88.5,89.2 M88.2,88.8
		C88.2,88.8,88.2,88.8,88.2,88.8c0.1,0.1,0.2,0.2,0.3,0.3c0,0-0.1-0.1-0.1-0.1C88.3,88.9,88.3,88.9,88.2,88.8L88.2,88.8 M88.8,88.3
		C88.8,88.3,88.8,88.3,88.8,88.3c-0.1,0.1-0.2,0.2-0.3,0.3l0,0l0,0c0.2,0.3,0.5,0.5,0.8,0.7c0.5,0.3,1,0.6,1.6,0.8l7.5,2.1l0.3,0.1
		l0,0c0-0.2,0.1-0.5,0.1-0.7l-8.4-2.4C89.8,89,89.2,88.7,88.8,88.3 M106,74.4c0.1,0.1,0.2,0.2,0.2,0.3c0.1,0.1,0.2,0.2,0.2,0.3
		c0.1,0.1,0.1,0.2,0.2,0.3c0.1,0.2,0.3,0.5,0.4,0.8l0,0c0,0,0,0,0,0c-0.1-0.3-0.2-0.5-0.4-0.8C106.4,75,106.2,74.6,106,74.4
		 M99.8,73.7c-0.9,0-1.8,0.2-2.7,0.7l0,0c-0.1,0.5-0.3,1-0.5,1.5c0,0,0,0,0,0c0.3-0.1,0.7-0.1,1-0.1c0.6,0,1.1,0.1,1.6,0.3l0.7-1.2
		l1.9-0.6l0.5,3.7l-1.3-0.5c0.5,0.7,0.9,1.5,0.9,2.5l0.1,2.4c0,0,0,0,0,0c0.9-1.5,1.9-2.9,3-4.3c-0.1-0.9-0.5-1.6-1-2.3
		C103.1,74.5,101.5,73.7,99.8,73.7 M105.3,73.7c0,0,0.1,0.1,0.1,0.1c0.1,0.1,0.2,0.1,0.2,0.2c0.1,0.1,0.2,0.2,0.2,0.2
		C105.7,74.1,105.5,73.9,105.3,73.7 M105,73.5C105,73.5,105,73.5,105,73.5c0.1,0.1,0.1,0.1,0.1,0.1C105.1,73.6,105,73.5,105,73.5
		 M101.4,72.3c-0.5,0-1,0.1-1.5,0.2C100.3,72.4,100.9,72.3,101.4,72.3c0.1,0,0.3,0,0.4,0c0.1,0,0.2,0,0.2,0c0.1,0,0.1,0,0.2,0
		c0.1,0,0.3,0,0.4,0.1c0.1,0,0.2,0,0.3,0.1c0.5,0.1,1,0.3,1.4,0.6c0.1,0,0.1,0.1,0.2,0.1c0.1,0,0.1,0.1,0.2,0.1c0,0,0,0,0.1,0
		C103.8,72.7,102.6,72.3,101.4,72.3"/>
	<path id="XMLID_660_" class="st43" d="M96,80.2L96,80.2l1.7-0.5l0.5,3.3l-3.1-1.2L96,80.2 M97.7,75.9c-0.3,0-0.7,0-1,0.1
		c-0.8,2.2-1.8,4.4-3,6.4c0,0,0,0,0,0c-0.4,0.6-0.8,1.2-1.2,1.8l0.3-0.1l0.5,3.7l-2.9-1.2c0,0,0,0,0,0c0,0-0.1,0.1-0.1,0.1
		c-0.5,0.5-1,1-1.5,1.5c0.4,0.4,1,0.7,1.6,0.9l8.4,2.4c0,0,0,0,0,0c0,0,0-0.1,0-0.1c0-0.2,0.1-0.3,0.1-0.5l-1.7-0.7l1-1.8l1.4-0.4v0
		c0.6-2,1.5-3.8,2.5-5.6l-0.1-2.4c0-1-0.4-1.8-0.9-2.5L99,76.7l0.3-0.5C98.8,76,98.3,75.9,97.7,75.9"/>
	<path id="XMLID_654_" class="st44" d="M88.5,89.1C88.5,89.1,88.5,89.1,88.5,89.1C88.5,89.2,88.5,89.2,88.5,89.1
		C88.5,89.2,88.5,89.1,88.5,89.1 M105.9,74.3C105.9,74.3,105.9,74.3,105.9,74.3C105.9,74.3,105.9,74.3,105.9,74.3
		C105.9,74.3,105.9,74.3,105.9,74.3 M105.1,73.6c0,0,0.1,0.1,0.1,0.1C105.2,73.7,105.2,73.6,105.1,73.6 M104.8,73.3
		c0.1,0,0.1,0.1,0.2,0.1C104.9,73.4,104.9,73.4,104.8,73.3 M99.8,72.5c-0.7,0.2-1.5,0.6-2.1,1.1l-0.3,0.3v0c0,0,0,0,0,0l0.3-0.3
		C98.4,73.1,99.1,72.7,99.8,72.5"/>
	<path id="XMLID_136_" class="st45" d="M91,90.7c0.1,0,0.2,0.1,0.2,0.1C91.1,90.8,91,90.7,91,90.7"/>
	<path id="XMLID_650_" class="st46" d="M88.5,88.6c-0.1,0.1-0.2,0.1-0.2,0.2l0,0l0,0c0,0.1,0.1,0.1,0.1,0.2c0,0,0.1,0.1,0.1,0.1
		c0,0,0,0,0,0c0,0,0.1,0.1,0.1,0.1c0.1,0.1,0.2,0.1,0.2,0.2c0.1,0.1,0.2,0.1,0.2,0.2c0.1,0.1,0.3,0.2,0.4,0.3c0,0,0,0,0.1,0
		c0.1,0,0.1,0.1,0.2,0.1c0.1,0,0.2,0.1,0.3,0.1c0.1,0,0.2,0.1,0.2,0.1c0.1,0.1,0.3,0.1,0.4,0.2c0.1,0,0.1,0,0.2,0.1
		c0.1,0,0.2,0,0.2,0.1c0,0,0,0,0,0l6.9,2l0.4,0.1c0-0.2,0.1-0.4,0.1-0.6l-0.3-0.1l-7.5-2.1c-0.6-0.2-1.1-0.4-1.6-0.8
		C89,89.1,88.7,88.9,88.5,88.6L88.5,88.6 M101.4,72.3c-0.5,0-1,0.1-1.5,0.2c-0.7,0.2-1.5,0.6-2.1,1.1l-0.3,0.3
		c0,0.2-0.1,0.4-0.2,0.6l0,0l0,0c0.8-0.5,1.8-0.7,2.7-0.7c1.7,0,3.3,0.8,4.3,2.2c0.5,0.6,0.8,1.4,1,2.3l0,0c0.6-0.7,1.2-1.4,1.9-2.1
		c-0.1-0.3-0.2-0.5-0.4-0.8c-0.1-0.1-0.1-0.2-0.2-0.3c-0.1-0.1-0.2-0.2-0.2-0.3c-0.1-0.1-0.2-0.2-0.2-0.3c0,0,0-0.1-0.1-0.1
		c-0.1-0.1-0.2-0.2-0.2-0.2c-0.1-0.1-0.2-0.2-0.2-0.2c0,0-0.1-0.1-0.1-0.1c0,0-0.1-0.1-0.1-0.1c0,0-0.1,0-0.1-0.1c0,0,0,0,0,0
		c-0.1,0-0.1-0.1-0.2-0.1c0,0,0,0-0.1,0c-0.1,0-0.1-0.1-0.2-0.1c-0.1,0-0.1-0.1-0.2-0.1c-0.4-0.3-0.9-0.4-1.4-0.6
		c-0.1,0-0.2-0.1-0.3-0.1c-0.1,0-0.3-0.1-0.4-0.1c-0.1,0-0.1,0-0.2,0c-0.1,0-0.2,0-0.2,0C101.7,72.3,101.5,72.3,101.4,72.3"/>
	<path id="XMLID_133_" class="st32" d="M91.5,85.5c-0.2,0.3-0.5,0.6-0.7,0.8c-0.1,0.1-0.2,0.2-0.3,0.4l2.9,1.2L91.5,85.5"/>
	<path id="XMLID_132_" class="st47" d="M92.8,84.1l-0.3,0.1c0,0,0,0,0,0c-0.3,0.4-0.7,0.9-1,1.3c0,0,0,0,0,0l1.8,2.3L92.8,84.1"/>
	<polyline id="XMLID_131_" class="st32" points="100.1,74.9 100.1,74.9 99.3,76.2 99,76.7 101.2,77.6 102.5,78.1 100.1,74.9 	"/>
	<polyline id="XMLID_130_" class="st47" points="102,74.4 100.1,74.9 102.5,78.1 102,74.4 	"/>
	<polyline id="XMLID_129_" class="st32" points="96,80.2 96,80.2 95.1,81.7 98.1,82.9 96,80.2 	"/>
	<polyline id="XMLID_128_" class="st47" points="97.7,79.7 96,80.2 98.1,82.9 97.7,79.7 	"/>
	<path id="XMLID_127_" class="st32" d="M98.2,88.5L98.2,88.5l-1,1.8l1.7,0.7c0,0,0,0,0,0c0.1-0.4,0.2-0.8,0.3-1.2L98.2,88.5"/>
	<path id="XMLID_126_" class="st47" d="M99.6,88.1l-1.4,0.4l0.9,1.2c0,0,0,0,0,0C99.3,89.2,99.5,88.6,99.6,88.1L99.6,88.1"/>
	<path id="XMLID_627_" class="st42" d="M92.8,117.5c-0.1,0-0.2,0-0.3,0.1c-0.2,0-0.4,0.1-0.6,0.1c-0.1,0-0.2,0-0.3,0
		c-0.1,0-0.2,0-0.4,0c-0.1,0-0.2,0-0.2,0c0.1,0,0.2,0,0.2,0C91.7,117.7,92.3,117.6,92.8,117.5 M93.7,117.1
		C93.7,117.1,93.7,117.2,93.7,117.1c-0.3,0.1-0.4,0.2-0.6,0.2c-0.1,0-0.2,0.1-0.3,0.1C93.1,117.4,93.4,117.3,93.7,117.1 M95.2,116.2
		c0,0-0.1,0.1-0.1,0.1c-0.1,0.1-0.2,0.1-0.3,0.2c-0.1,0.1-0.2,0.1-0.3,0.2c-0.2,0.1-0.4,0.2-0.6,0.3
		C94.4,116.8,94.8,116.5,95.2,116.2 M95.9,115.4C95.9,115.4,95.9,115.4,95.9,115.4C95.9,115.4,95.9,115.4,95.9,115.4
		C95.9,115.4,95.9,115.4,95.9,115.4 M83.5,108l2.1,5.6c0,0.1,0.1,0.2,0.1,0.3c0-0.1-0.1-0.2-0.1-0.3L83.5,108L83.5,108 M97,100.3
		L97,100.3l-2.2,2.6l4.7,1.4c-0.3-1.2-0.6-2.3-0.7-3.5l0,0l-1.4-0.4h0L97,100.3 M82.5,98.1c-1,1.5-1.4,3.5-0.7,5.4l0.6,1.8l-0.6-1.8
		C81.1,101.6,81.5,99.6,82.5,98.1 M87.7,97.8C87.6,97.8,87.6,97.8,87.7,97.8c-3.6,0-6.3,3.6-5,7.2l1.3,3.7v0L86,114
		c0.8,2.3,2.9,3.5,5,3.5c1.6,0,3.2-0.7,4.3-2.2c0,0,0.1-0.1,0.1-0.1c0,0,0,0,0-0.1l5.1-7.6l0,0c-0.1-0.3-0.2-0.6-0.3-0.9
		c0,0,0,0,0,0l-5.8,8.6c-0.9,1.3-2.2,1.9-3.6,1.9c-1.7,0-3.4-1-4.1-2.9l-2.7-7.3c-0.6-1.6-0.2-3.1,0.7-4.3l-0.9-1.1l0.1-2l3.7,0.7
		l-0.9,1.1c0.4-0.2,0.9-0.2,1.4-0.2c0.4,0,0.8,0.1,1.2,0.2l5.2,1.5l-1.2-1.3l0.1-2l2.3,0.4l0,0L89.2,98
		C88.7,97.9,88.2,97.8,87.7,97.8 M83.6,96.9c-0.4,0.3-0.7,0.6-0.9,1c0.1-0.1,0.2-0.2,0.3-0.3c0.1-0.1,0.2-0.2,0.3-0.3
		C83.4,97.1,83.5,97,83.6,96.9 M83.9,96.6c0,0-0.1,0.1-0.1,0.1C83.8,96.7,83.8,96.7,83.9,96.6 M84.4,96.3c-0.1,0-0.1,0.1-0.2,0.1
		C84.3,96.4,84.3,96.3,84.4,96.3C84.4,96.3,84.4,96.3,84.4,96.3 M85.4,95.8c-0.1,0-0.1,0-0.2,0.1C85.3,95.8,85.4,95.8,85.4,95.8
		L85.4,95.8 M86.2,95.6c-0.2,0.1-0.5,0.1-0.7,0.2C85.7,95.7,85.9,95.6,86.2,95.6C86.2,95.6,86.2,95.6,86.2,95.6 M87.2,95.4
		c-0.3,0-0.6,0-0.8,0.1c0.2,0,0.3-0.1,0.5-0.1C87,95.5,87.1,95.4,87.2,95.4C87.2,95.4,87.2,95.4,87.2,95.4"/>
	<path id="XMLID_622_" class="st43" d="M90.2,113.5l0.1-2l3.7,0.7l-2.4,2.9L90.2,113.5 M96.2,107.6l0.1-2l3.7,0.7l-2.4,2.9
		L96.2,107.6 M87.5,107.2l0.1-1.8l3.3,0.6l-2.1,2.5L87.5,107.2 M88.1,101.2c-0.5,0-1,0.1-1.4,0.2l-1.5,1.8l-0.4-0.4
		c-0.9,1.1-1.3,2.7-0.7,4.3l2.7,7.3c0.7,1.9,2.4,2.9,4.1,2.9c1.4,0,2.7-0.6,3.6-1.9l5.8-8.6c0-0.1,0-0.1-0.1-0.2v0
		c-0.2-0.7-0.5-1.4-0.7-2.2c0,0,0,0,0,0l-4.7-1.4l-0.1,0.1l-0.2-0.2l-5.2-1.5C88.9,101.3,88.5,101.2,88.1,101.2"/>
	<path id="XMLID_107_" class="st44" d="M87.5,95.4c-0.1,0-0.2,0-0.3,0C87.3,95.4,87.4,95.4,87.5,95.4c0.1,0,0.2,0,0.2,0c0,0,0,0,0,0
		c0,0,0,0,0,0C87.7,95.4,87.6,95.4,87.5,95.4"/>
	<path id="XMLID_106_" class="st45" d="M87.7,95.4C87.7,95.4,87.7,95.4,87.7,95.4c0.5,0,0.9,0.1,1.4,0.2l7.9,2.3c0,0,0,0,0,0l0,0
		l-7.9-2.3c-0.1,0-0.3-0.1-0.4-0.1c-0.3-0.1-0.6-0.1-0.9-0.1C87.8,95.4,87.8,95.4,87.7,95.4"/>
	<polyline id="XMLID_105_" class="st48" points="97.1,98 97.1,98 98.5,98.4 98.5,98.4 98.5,98.4 97.1,98 	"/>
	<path id="XMLID_612_" class="st44" d="M82.7,97.9C82.7,97.9,82.7,97.9,82.7,97.9c-0.1,0.1-0.1,0.2-0.2,0.2
		C82.5,98,82.6,97.9,82.7,97.9 M83.8,96.7c0,0-0.1,0.1-0.1,0.1c0,0,0,0,0,0C83.7,96.8,83.7,96.8,83.8,96.7 M84.3,96.4
		c-0.1,0.1-0.3,0.2-0.4,0.3c0,0,0,0,0,0C84,96.6,84.1,96.5,84.3,96.4 M85.3,95.9c-0.3,0.1-0.6,0.2-0.8,0.4
		C84.7,96.1,85,96,85.3,95.9 M85.4,95.8C85.4,95.8,85.4,95.8,85.4,95.8L85.4,95.8C85.4,95.8,85.4,95.8,85.4,95.8 M86.3,95.5
		C86.3,95.5,86.3,95.5,86.3,95.5c-0.1,0-0.1,0-0.2,0C86.2,95.6,86.3,95.6,86.3,95.5"/>
	<polyline id="XMLID_98_" class="st49" points="83.5,108 83.5,108 83.5,108 83.5,108 83.5,108 	"/>
	<polyline id="XMLID_97_" class="st44" points="82.5,105.3 83.5,108 83.5,108 82.5,105.3 	"/>
	<path id="XMLID_96_" class="st45" d="M100.8,108.2l-4.6,6.8c-0.1,0.2-0.2,0.3-0.3,0.4c0.1-0.1,0.2-0.3,0.3-0.4L100.8,108.2
		L100.8,108.2"/>
	<path id="XMLID_606_" class="st49" d="M95.8,115.5c-0.2,0.2-0.4,0.4-0.6,0.6c0,0,0,0,0.1-0.1C95.4,115.9,95.6,115.7,95.8,115.5
		C95.8,115.5,95.8,115.5,95.8,115.5L95.8,115.5 M85.6,114c1,2.3,3.1,3.6,5.3,3.7C88.8,117.6,86.6,116.3,85.6,114"/>
	<path id="XMLID_93_" class="st44" d="M95.9,115.5C95.8,115.5,95.8,115.5,95.9,115.5L95.9,115.5C95.8,115.5,95.8,115.5,95.9,115.5
		L95.9,115.5"/>
	<polyline id="XMLID_92_" class="st45" points="95.9,115.4 95.9,115.5 95.9,115.5 95.9,115.4 	"/>
	<path id="XMLID_601_" class="st49" d="M92.8,117.5C92.8,117.5,92.8,117.5,92.8,117.5C92.8,117.5,92.8,117.5,92.8,117.5
		C92.8,117.5,92.8,117.5,92.8,117.5 M94,117c-0.1,0-0.2,0.1-0.3,0.1C93.8,117.1,93.9,117.1,94,117C94,117,94,117,94,117"/>
	<path id="XMLID_89_" class="st46" d="M87.5,95.4c-0.1,0-0.2,0-0.3,0c0,0,0,0,0,0c-0.1,0-0.2,0-0.3,0c-0.2,0-0.3,0-0.5,0.1
		c-0.1,0-0.1,0-0.2,0c0,0,0,0,0,0c-0.2,0.1-0.5,0.1-0.7,0.2c0,0,0,0,0,0l0,0c0,0-0.1,0-0.1,0.1c-0.3,0.1-0.6,0.3-0.8,0.4
		c0,0,0,0-0.1,0c0,0-0.1,0-0.1,0.1c-0.1,0.1-0.3,0.2-0.4,0.3c0,0-0.1,0.1-0.1,0.1c-0.1,0-0.1,0.1-0.2,0.1c-0.1,0.1-0.3,0.2-0.4,0.4
		c-0.1,0.1-0.2,0.2-0.3,0.3c-0.1,0.1-0.2,0.2-0.3,0.3c-0.1,0.1-0.1,0.2-0.2,0.2c-1,1.5-1.4,3.5-0.7,5.4l0.6,1.8l1,2.7l0,0l0,0
		l2.1,5.6c0,0.1,0.1,0.2,0.1,0.3c1,2.3,3.1,3.6,5.3,3.7c0.1,0,0.2,0,0.2,0c0.1,0,0.2,0,0.4,0c0.1,0,0.2,0,0.3,0
		c0.2,0,0.4-0.1,0.6-0.1c0.1,0,0.2,0,0.3-0.1c0,0,0,0,0,0c0.1,0,0.2-0.1,0.3-0.1c0.2-0.1,0.4-0.1,0.5-0.2c0,0,0.1,0,0.1,0
		c0.1,0,0.2-0.1,0.3-0.1c0.2-0.1,0.4-0.2,0.6-0.3c0.1-0.1,0.2-0.1,0.3-0.2c0.1-0.1,0.2-0.1,0.3-0.2c0,0,0.1-0.1,0.1-0.1
		c0.2-0.2,0.4-0.4,0.6-0.6c0,0,0.1-0.1,0.1-0.1c0,0,0,0,0,0c0,0,0,0,0,0c0,0,0,0,0,0c0.1-0.1,0.2-0.3,0.3-0.4l4.6-6.8v0
		c-0.1-0.2-0.2-0.5-0.3-0.7l0,0l-5.1,7.6c0,0,0,0,0,0.1c0,0-0.1,0.1-0.1,0.1c-1.1,1.5-2.7,2.2-4.3,2.2c-2.1,0-4.2-1.2-5-3.5
		l-1.9-5.3v0l-1.3-3.7c-1.3-3.6,1.4-7.1,4.9-7.2c0,0,0,0,0.1,0c0.5,0,1,0.1,1.5,0.2l6.5,1.9l0,0l1.4,0.2l-0.1,0.1h0l0.3,0.1h0
		l1.4,0.4l0,0c-0.1-0.8-0.2-1.6-0.3-2.4L97.1,98l-7.9-2.3c-0.5-0.1-1-0.2-1.4-0.2C87.6,95.4,87.6,95.4,87.5,95.4"/>
	<polyline id="XMLID_88_" class="st32" points="94,112.1 90.2,113.5 91.6,115 94,112.1 	"/>
	<polyline id="XMLID_87_" class="st47" points="90.3,111.5 90.2,113.5 94,112.1 90.3,111.5 	"/>
	<polyline id="XMLID_86_" class="st32" points="87.6,100.3 83.9,101.7 84.8,102.8 85.2,103.2 86.7,101.4 87.6,100.3 	"/>
	<polyline id="XMLID_85_" class="st47" points="83.9,99.7 83.9,101.7 87.6,100.3 83.9,99.7 	"/>
	<polyline id="XMLID_84_" class="st32" points="97.1,100.2 93.3,101.5 94.5,102.9 94.7,103.1 94.8,102.9 97,100.3 97.1,100.2 	"/>
	<polyline id="XMLID_83_" class="st47" points="93.4,99.5 93.3,101.5 97.1,100.2 95.7,99.9 93.4,99.5 	"/>
	<polyline id="XMLID_82_" class="st32" points="90.9,106 87.5,107.2 88.7,108.5 90.9,106 	"/>
	<polyline id="XMLID_81_" class="st47" points="87.6,105.4 87.5,107.2 90.9,106 87.6,105.4 	"/>
	<polyline id="XMLID_80_" class="st32" points="100,106.3 96.2,107.6 97.5,109.2 100,106.3 	"/>
	<polyline id="XMLID_79_" class="st47" points="96.2,105.6 96.2,107.6 100,106.3 96.2,105.6 	"/>
	<path id="XMLID_578_" class="st42" d="M107.7,127.8l-2.3,0.1c-0.1,0-0.1,0-0.2,0c0.1,0,0.1,0,0.2,0L107.7,127.8 M103.5,127.6
		c0.1,0,0.1,0,0.2,0.1C103.6,127.7,103.6,127.7,103.5,127.6 M101.9,126.9c0.1,0.1,0.3,0.2,0.4,0.3c0,0-0.1-0.1-0.1-0.1
		C102.1,127.1,102,127,101.9,126.9 M100.1,125c0.2,0.3,0.4,0.6,0.7,0.9C100.5,125.6,100.3,125.3,100.1,125 M99.3,122.9
		c0,0.2,0.1,0.4,0.1,0.6C99.3,123.3,99.3,123.1,99.3,122.9C99.3,123,99.3,122.9,99.3,122.9 M99.2,121.9c0,0.3,0,0.6,0.1,0.9
		c0,0,0-0.1,0-0.1c0-0.2,0-0.4-0.1-0.5C99.2,122.1,99.2,122,99.2,121.9 M99.2,121.3c0,0.1,0,0.3,0,0.4c0-0.1,0-0.2,0-0.3
		C99.2,121.4,99.2,121.3,99.2,121.3 M99.8,119.2c-0.1,0.2-0.2,0.3-0.2,0.5c0-0.1,0.1-0.2,0.2-0.3C99.8,119.2,99.8,119.2,99.8,119.2
		 M100,118.8c-0.1,0.1-0.1,0.2-0.1,0.3C99.9,119,99.9,118.9,100,118.8C100,118.8,100,118.8,100,118.8 M104.5,116.2L104.5,116.2l-2,3
		c0,0.1-0.1,0.2-0.1,0.2c-2.2,3.5,0.4,8.1,4.5,8.1c0.1,0,0.1,0,0.2,0l4.8-0.2l0,0c-0.1-0.2-0.3-0.4-0.4-0.6l-2,0.1
		c-0.1,0-0.1,0-0.2,0c-1.6,0-2.9-0.8-3.7-2l-1.3,0.6l-1.9-0.7l1.8-3.3l0.8,1.2c0-0.9,0.2-1.7,0.8-2.5l0.6-0.9v0
		c-0.1-0.1-0.2-0.3-0.3-0.4C105.5,117.9,105,117.1,104.5,116.2 M103.3,113.9l-1.5,2.3h0L103.3,113.9L103.3,113.9"/>
	<path id="XMLID_67_" class="st43" d="M106.3,119.2l-0.6,0.9c-0.5,0.8-0.8,1.7-0.8,2.5l1.2,2l-0.5,0.2c0.7,1.2,2.1,2,3.7,2
		c0.1,0,0.1,0,0.2,0l2-0.1c0,0,0,0,0,0c-1.5-1.9-2.9-4-4.2-6.1C106.9,120.2,106.6,119.7,106.3,119.2L106.3,119.2"/>
	<path id="XMLID_66_" class="st49" d="M100.2,118.5c-0.1,0.1-0.1,0.2-0.2,0.3C100.1,118.7,100.1,118.6,100.2,118.5
		C100.2,118.5,100.2,118.5,100.2,118.5"/>
	<polyline id="XMLID_65_" class="st44" points="101.8,116.2 100.2,118.5 100.2,118.5 100.2,118.5 100.2,118.5 101.8,116.2 
		101.8,116.2 	"/>
	<polyline id="XMLID_64_" class="st45" points="101.8,116.2 101.8,116.2 101.8,116.2 101.8,116.2 101.8,116.2 	"/>
	<path id="XMLID_564_" class="st49" d="M103.7,127.7C103.7,127.7,103.7,127.7,103.7,127.7c0.2,0.1,0.4,0.1,0.5,0.1h0
		c0.2,0,0.3,0,0.5,0.1c0.2,0,0.3,0,0.5,0c0,0,0,0,0.1,0c0,0,0,0-0.1,0C104.7,127.9,104.2,127.8,103.7,127.7 M112.1,127.7l-4.4,0.2
		L112.1,127.7L112.1,127.7L112.1,127.7 M102.4,127.2c0.1,0.1,0.3,0.1,0.4,0.2c0.2,0.1,0.4,0.2,0.6,0.2c0.1,0,0.1,0,0.2,0
		C103.1,127.5,102.7,127.4,102.4,127.2 M100.7,125.9c0.2,0.2,0.3,0.4,0.5,0.5c0.1,0.1,0.3,0.2,0.5,0.4c0.1,0,0.1,0.1,0.2,0.1
		C101.5,126.6,101.1,126.3,100.7,125.9 M99.4,123.5c0,0.1,0.1,0.2,0.1,0.4c0.1,0.2,0.1,0.4,0.2,0.5c0.1,0.2,0.2,0.4,0.3,0.6
		C99.8,124.5,99.5,124,99.4,123.5 M99.2,122.8c0,0,0,0.1,0,0.1C99.3,122.9,99.2,122.8,99.2,122.8 M99.2,121.7c0,0,0,0.1,0,0.1
		c0,0,0,0,0,0.1C99.2,121.8,99.2,121.8,99.2,121.7 M99.6,119.6C99.6,119.7,99.6,119.7,99.6,119.6c-0.2,0.5-0.3,1-0.4,1.4
		c0,0.1,0,0.2,0,0.2C99.2,120.7,99.4,120.2,99.6,119.6 M99.9,119c0,0,0,0.1-0.1,0.1C99.8,119.1,99.8,119.1,99.9,119"/>
	<path id="XMLID_54_" class="st46" d="M103.3,113.9L103.3,113.9L103.3,113.9l-1.5,2.3h0l0,0l-1.6,2.3c0,0,0,0,0,0
		c-0.1,0.1-0.1,0.2-0.2,0.3c0,0,0,0.1-0.1,0.1c0,0.1-0.1,0.1-0.1,0.2c0,0,0,0.1-0.1,0.1c0,0,0,0.1-0.1,0.1c-0.1,0.1-0.1,0.2-0.2,0.3
		c-0.2,0.5-0.3,1.1-0.4,1.6c0,0,0,0.1,0,0.1c0,0.1,0,0.2,0,0.3c0,0.1,0,0.1,0,0.2c0,0.1,0,0.2,0,0.3c0,0.2,0,0.4,0.1,0.5
		c0,0,0,0.1,0,0.1c0,0,0,0.1,0,0.1c0,0,0,0,0,0.1c0,0.2,0.1,0.3,0.1,0.5c0.2,0.5,0.4,1,0.7,1.5c0.2,0.3,0.4,0.6,0.7,0.9
		c0.3,0.4,0.8,0.7,1.2,1c0.1,0.1,0.2,0.1,0.3,0.2c0,0,0.1,0.1,0.1,0.1c0.4,0.2,0.7,0.3,1.1,0.5c0.1,0,0.1,0,0.2,0.1
		c0.5,0.1,1,0.2,1.5,0.2c0,0,0,0,0.1,0c0.1,0,0.1,0,0.2,0l2.3-0.1l4.4-0.2l0,0c-0.1-0.1-0.2-0.2-0.3-0.3l0,0l-4.8,0.2
		c-0.1,0-0.1,0-0.2,0c-4.1,0-6.7-4.6-4.5-8.1c0-0.1,0.1-0.2,0.1-0.2l2-3l0,0c0,0-0.1-0.1-0.1-0.1C104,115.3,103.7,114.6,103.3,113.9
		L103.3,113.9"/>
	<polyline id="XMLID_53_" class="st32" points="104.2,121.4 104.3,125.4 102.4,124.7 104.3,125.4 105.6,124.8 106.2,124.6 
		104.9,122.6 104.2,121.4 	"/>
	<polyline id="XMLID_52_" class="st47" points="104.2,121.4 102.4,124.7 104.3,125.4 104.2,121.4 	"/>
	<path id="XMLID_51_" class="st50" d="M117.6,65.1c-0.2,0.8-0.4,1.3-0.4,1.3c-11.4,1.1-20.4-1.4-27.3-5.7c-14-8.6-19.8-24.4-22-32.3
		c-0.8-3-1.1-4.9-1.1-4.9s9.7-5.1,20.8-4.1c5.6,0.5,11.5,2.5,16.6,7.5c2.6,2.5,4.7,5,6.5,7.5C121.1,48.6,118.7,61.2,117.6,65.1"/>
	<path id="XMLID_50_" class="st51" d="M74.9,26.4c-0.6,0-1.2,0-1.7,0.1c-1,0.1-1.9,0.3-2.8,0.7l0,0l0,0c1.8,7.2,7.6,24.1,22.8,31.7
		l0,0c0.3-0.2,0.5-0.3,0.8-0.5c1.7-1.2,3.2-2.9,4.3-4.7C82.9,49,77.4,33.2,75.7,26.8c0,0,0,0,0,0C75.5,26.6,75.2,26.5,74.9,26.4
		L74.9,26.4"/>
	<path id="XMLID_554_" class="st52" d="M75.6,26.4C75.6,26.4,75.6,26.4,75.6,26.4c0,0.1,0.1,0.2,0.1,0.4c5.8,2.7,13.8,7.2,22.1,14.5
		l0,0l0,0c-0.7-1-1.5-1.9-2.3-2.9c-2.9-3.3-6.1-6.5-9.8-8.8C82.7,27.8,79.2,26.5,75.6,26.4 M99.8,28.2c-0.2,0-0.3,0-0.5-0.1
		c-0.6-0.3-0.8-1-0.5-1.5c0.2-0.4,0.6-0.6,1-0.6c0.2,0,0.3,0,0.5,0.1c0.6,0.3,0.8,1,0.5,1.5C100.6,28,100.2,28.2,99.8,28.2
		 M96.5,27.1c-0.7,0-1.5-0.2-2.3-0.6c-1.8-0.9-2.8-2.3-2.3-3.3c0.3-0.5,0.9-0.8,1.7-0.8c0.7,0,1.5,0.2,2.3,0.6
		c1.8,0.9,2.8,2.3,2.3,3.3C98,26.8,97.3,27.1,96.5,27.1 M88,20.9c-0.1,0-0.2,0-0.4,0c0.2,6.3,4.4,12.3,10.3,14.5
		c1.6,0.6,3.3,0.9,5.1,0.9c2,0,4-0.4,5.8-1.1c0,0,0,0,0,0c-1.6-2.8-3.8-5.8-6.9-8.8C97.6,22.2,92.5,20.9,88,20.9"/>
	<path id="XMLID_45_" class="st53" d="M75.7,26.8c1.6,6.5,7.2,22.2,22.6,26.8c0,0,0,0,0,0c1.6-2.7,2.2-5.8,1.4-8.8
		c-0.4-1.3-1-2.4-1.8-3.5l0,0C89.5,33.9,81.5,29.4,75.7,26.8"/>
	<path id="XMLID_550_" class="st54" d="M84.8,19.2c-8.2,0-15.2,3-17.3,3.9l0,0C69.6,22.2,76.6,19.2,84.8,19.2 M84.8,19.2L84.8,19.2
		L84.8,19.2L84.8,19.2"/>
	<path id="XMLID_42_" class="st55" d="M67.5,23.1c-0.4,0.2-0.6,0.3-0.6,0.3C66.8,23.4,67.1,23.3,67.5,23.1L67.5,23.1"/>
	<path id="XMLID_546_" class="st56" d="M112,66.6L112,66.6L112,66.6L112,66.6 M117.1,66.3c-1.8,0.2-3.5,0.2-5.1,0.2
		C113.7,66.6,115.4,66.5,117.1,66.3"/>
	<path id="XMLID_39_" class="st51" d="M87.6,19.3c0,0.3,0,0.5,0,0.7l0,0l0,0c5.2,0.3,10.9,2.1,15.8,6.8c2.7,2.6,4.9,5.3,6.6,7.8l0,0
		c0.3-0.1,0.5-0.3,0.8-0.4c-1.8-2.4-3.9-5-6.5-7.5C99.1,21.8,93.2,19.8,87.6,19.3L87.6,19.3"/>
	<path id="XMLID_38_" class="st57" d="M66.8,23.4c0,0,0.3,1.9,1.1,4.9c2.2,8,8,23.7,22,32.3l0,0l0,0c1.2-0.5,2.3-1.1,3.3-1.8
		c-15.3-7.6-21-24.5-22.8-31.7l0,0c-0.9,0.3-1.7,0.7-2.4,1.1C67.1,25.3,66.8,23.4,66.8,23.4L66.8,23.4"/>
	<path id="XMLID_37_" class="st58" d="M93.6,22.4c-0.8,0-1.4,0.3-1.7,0.8c-0.5,1,0.6,2.4,2.3,3.3c0.8,0.4,1.6,0.6,2.3,0.6
		c0.8,0,1.4-0.3,1.7-0.8c0.5-1-0.6-2.4-2.3-3.3C95.1,22.6,94.3,22.4,93.6,22.4"/>
	<path id="XMLID_36_" class="st58" d="M99.8,26c-0.4,0-0.8,0.2-1,0.6c-0.3,0.6,0,1.3,0.5,1.5c0.2,0.1,0.3,0.1,0.5,0.1
		c0.4,0,0.8-0.2,1-0.6c0.3-0.6,0-1.3-0.5-1.5C100.1,26,100,26,99.8,26"/>
	<path id="XMLID_537_" class="st59" d="M110,34.7c-0.4,0.2-0.8,0.3-1.2,0.5c4.8,8.7,3.4,16.1,2.7,18.6c-0.2,0.6-0.3,0.9-0.3,0.9
		c-0.2,0-0.5,0-0.7,0.1c1.6,2.1,3.2,4.3,4.8,6.7l0,0c0,0,0-0.1,0-0.1C116.3,57.9,118.4,47.1,110,34.7L110,34.7 M85.8,20
		c-8.8,0-16.1,3.8-16.1,3.8s0,0.2,0.1,0.5l0,0c1.3,0.5,3.1,1.1,5.2,2.1l0,0c0.1,0,0.1,0,0.2,0c0.2,0,0.3,0,0.5,0c0,0,0,0,0,0
		c-0.4-1.5-0.5-2.4-0.5-2.4s5.6-2.9,12.5-3c0,0,0,0,0,0c0-0.3,0-0.6,0-0.9C87,20,86.4,20,85.8,20 M84.8,19.2c0.9,0,1.9,0,2.8,0.1
		C86.6,19.2,85.7,19.2,84.8,19.2 M84.8,19.2C84.8,19.2,84.8,19.2,84.8,19.2C84.8,19.2,84.8,19.2,84.8,19.2L84.8,19.2"/>
	<path id="XMLID_530_" class="st60" d="M112,66.6L112,66.6L112,66.6L112,66.6 M117.2,66.3C117.2,66.3,117.1,66.3,117.2,66.3
		C117.1,66.3,117.2,66.3,117.2,66.3 M89.9,60.6c5.8,3.6,13.1,5.9,22.1,5.9C103,66.6,95.8,64.2,89.9,60.6 M89.9,60.6
		C89.9,60.6,89.9,60.6,89.9,60.6C89.9,60.6,89.9,60.6,89.9,60.6 M98.3,53.6c-1.1,1.9-2.6,3.5-4.3,4.7c-0.3,0.2-0.5,0.4-0.8,0.5l0,0
		l0,0c0.5,0.3,1,0.5,1.6,0.7c0-0.2,0-0.4,0.1-0.6c0.3-0.5,0.9-0.8,1.7-0.8c0.7,0,1.5,0.2,2.3,0.6c1.5,0.7,2.5,1.9,2.4,2.9
		c0.3,0.1,0.6,0.1,0.9,0.2c0.2-0.1,0.4-0.1,0.5-0.1c0.2,0,0.3,0,0.5,0.1c0.1,0.1,0.3,0.2,0.3,0.3c2.1,0.3,4.3,0.5,6.6,0.5
		c1.5,0,3-0.1,4.6-0.2c0,0,0.1-0.3,0.3-1c-1.6-2.4-3.2-4.6-4.8-6.7c-1,0.1-2,0.1-3,0.1C104.1,54.9,101,54.4,98.3,53.6 M69.7,24.3
		c0.1,0.6,0.3,1.5,0.6,2.8l0,0c0.9-0.3,1.9-0.5,2.8-0.7c0.6-0.1,1.2-0.1,1.7-0.1C72.8,25.5,71.1,24.8,69.7,24.3"/>
	<path id="XMLID_25_" class="st61" d="M87.6,20.9c-6.9,0.1-12.5,3-12.5,3s0.1,0.9,0.5,2.4c0,0,0,0,0,0c3.5,0.1,7.1,1.4,10.1,3.2
		c3.8,2.3,6.9,5.5,9.8,8.8c0.8,0.9,1.6,1.9,2.3,2.9l0,0c4.2,3.7,8.5,8.2,12.6,13.5c0,0,0,0,0,0c0.2,0,0.5,0,0.7-0.1
		c0,0,0.1-0.3,0.3-0.9c0.7-2.5,2.1-9.8-2.7-18.6c0,0,0,0,0,0c-1.9,0.7-3.8,1.1-5.8,1.1c-1.7,0-3.4-0.3-5.1-0.9
		C92,33.3,87.9,27.2,87.6,20.9"/>
	<path id="XMLID_24_" class="st62" d="M97.9,41.3c0.8,1.1,1.4,2.2,1.8,3.5c0.9,3,0.2,6.1-1.4,8.8c0,0,0,0,0,0
		c2.7,0.8,5.8,1.3,9.2,1.3c1,0,2,0,3-0.1c0,0,0,0,0,0C106.4,49.4,102.1,45,97.9,41.3"/>
	<path id="XMLID_23_" class="st63" d="M67.5,23.1c-0.4,0.2-0.6,0.3-0.6,0.3c0,0,0,0,0,0l0,0C66.8,23.4,67,23.3,67.5,23.1L67.5,23.1"
		/>
	<path id="XMLID_524_" class="st60" d="M110.8,34.3c-0.3,0.1-0.5,0.3-0.8,0.4l0,0l0,0c8.4,12.4,6.3,23.1,5.3,26.6c0,0.1,0,0.1,0,0.1
		l0,0l0,0c0.8,1.2,1.5,2.4,2.3,3.6l0,0c0.4-1.5,1.1-4.4,1.1-8.1C118.7,51.1,117.1,43,110.8,34.3L110.8,34.3 M84.8,19.2
		C84.8,19.2,84.8,19.2,84.8,19.2c-8.2,0-15.2,3-17.3,3.9c-0.4,0.2-0.6,0.3-0.6,0.3l0,0c0,0,1.1,0.3,2.9,0.9l0,0l0,0
		c-0.1-0.3-0.1-0.5-0.1-0.5S76.9,20,85.8,20c0.6,0,1.2,0,1.8,0.1l0,0c0-0.2,0-0.5,0-0.7c0,0,0,0,0,0C86.6,19.2,85.7,19.2,84.8,19.2
		L84.8,19.2"/>
	<path id="XMLID_521_" class="st64" d="M93.2,58.8c-1.1,0.7-2.2,1.3-3.3,1.8l0,0c0,0,0,0,0,0l0,0c5.8,3.6,13.1,5.9,22.1,5.9h0h0
		c1.6,0,3.3-0.1,5.1-0.2c0,0,0,0,0.1,0l0,0c0,0,0.2-0.4,0.4-1.3c-0.8-1.3-1.5-2.5-2.3-3.6l0,0c-0.2,0.7-0.3,1-0.3,1
		c-1.6,0.2-3.2,0.2-4.6,0.2c-2.3,0-4.5-0.2-6.6-0.5c0.3,0.3,0.4,0.8,0.2,1.3c-0.2,0.4-0.6,0.6-1,0.6c-0.2,0-0.3,0-0.5-0.1
		c-0.6-0.3-0.8-1-0.5-1.5c0.1-0.2,0.3-0.4,0.5-0.5c-0.3-0.1-0.6-0.1-0.9-0.2c0,0.2,0,0.3-0.1,0.4c-0.3,0.5-0.9,0.8-1.7,0.8
		c-0.7,0-1.5-0.2-2.3-0.6c-1.4-0.7-2.4-1.8-2.4-2.7C94.2,59.3,93.7,59.1,93.2,58.8L93.2,58.8 M66.8,23.4c0,0,0.3,1.9,1.1,4.9
		c0.8-0.5,1.6-0.8,2.4-1.1c-0.3-1.3-0.5-2.3-0.6-2.8l0,0C67.9,23.7,66.8,23.4,66.8,23.4"/>
	<path id="XMLID_8_" class="st64" d="M96.6,58.2c-0.8,0-1.4,0.3-1.7,0.8c-0.1,0.2-0.1,0.4-0.1,0.6c2,0.9,4.2,1.6,6.6,2.1
		c0.1-0.9-0.9-2.1-2.4-2.9C98.1,58.4,97.3,58.2,96.6,58.2"/>
	<path id="XMLID_7_" class="st65" d="M94.8,59.6c0,0.9,1,2,2.4,2.7c0.8,0.4,1.6,0.6,2.3,0.6c0.8,0,1.4-0.3,1.7-0.8
		c0.1-0.1,0.1-0.3,0.1-0.4C99,61.2,96.8,60.5,94.8,59.6"/>
	<path id="XMLID_5_" class="st64" d="M102.8,61.8c-0.2,0-0.4,0-0.5,0.1c0.5,0.1,0.9,0.2,1.4,0.2c-0.1-0.1-0.2-0.2-0.3-0.3
		C103.2,61.8,103,61.8,102.8,61.8"/>
	<path id="XMLID_1_" class="st65" d="M102.3,61.9c-0.2,0.1-0.4,0.3-0.5,0.5c-0.3,0.6,0,1.3,0.5,1.5c0.2,0.1,0.3,0.1,0.5,0.1
		c0.4,0,0.8-0.2,1-0.6c0.2-0.4,0.1-0.9-0.2-1.3C103.2,62.1,102.8,62,102.3,61.9"/>
</g>
<g id="XMLID_3_">
	<g id="XMLID_543_">
		<path id="XMLID_544_" class="st17" d="M143.5,48.7c0-2.1-2.7-1.2-2.7-3c0-1.1,1.3-1.4,2.1-1.4c0.7,0,1.4,0.1,2.1,0.1
			c4.1,0,6.7-0.4,7.9-0.4c3.9,0,7.6,2.3,7.6,6.5c0,4.3-3.6,6.5-7.6,6.5c-0.9,0-1.7-0.1-2.5-0.1c-0.3,0-0.5,0.1-0.5,0.5V59
			c0.1,3.6,2.2,2.1,2.2,3.7c0,1.9-4.1,1.9-5.4,1.9c-1.2,0-5.4,0-5.4-1.9c0-1.6,2.1-0.6,2.1-2.9V48.7z M151.1,47.4
			c-1.1,0-1.1,0.3-1.1,0.9v4.3c0,0.6-0.3,1.3,1.3,1.3c1.9,0,2.6-1.4,2.6-3.2C154,48.8,153.1,47.4,151.1,47.4z"/>
		<path id="XMLID_548_" class="st17" d="M168.8,57.8c-0.3,0-0.8-0.1-0.8,0.4c0,1.4,1.9,2.6,3.2,2.6c2.1,0,3.2-1.3,3.8-1.3
			c0.6,0,1.1,0.9,1.1,1.4c0,2.2-4,3.8-6.6,3.8c-5.1,0-7.8-3.7-7.8-7.4c0-4.4,3.7-7.6,8-7.6c4.9,0,7,3.7,7,5.9c0,1.9-0.9,2.1-1.8,2.1
			H168.8z M171.3,54.2c0-1-0.6-1.8-1.7-1.8c-0.9,0-1.7,1-1.7,1.9c0,1,1,0.8,1.7,0.8C170.4,55.1,171.3,55.3,171.3,54.2z"/>
		<path id="XMLID_552_" class="st17" d="M179.7,55.8c0-2.8-1.8-1.2-1.8-3c0-2.3,6.7-2.9,6.9-2.9c1.1,0,1.1,0.3,1.2,1.3
			c0,0.3,0,1,0.5,1c0.7,0,1.1-2.3,3.6-2.3c1.9,0,3.2,1.4,3.2,3.3c0,1.9-1.6,3.4-3.5,3.4c-1.9,0-2.4-1.6-3.1-1.6
			c-0.8,0-0.7,1.9-0.7,2.4c0,0.9,0.1,2.1,0.2,3.1c0.2,1.3,2.3,0.5,2.3,2.2c0,1.8-2.5,1.9-5.7,1.9c-1.3,0-5.2,0.1-5.2-1.9
			c0-1.2,1.3-1.2,1.6-2.2c0.2-0.7,0.3-2.3,0.3-3.1V55.8z"/>
		<path id="XMLID_555_" class="st17" d="M208.8,57.6c0,5,1.7,2.3,1.7,3.8c0,1.6-2.2,3.4-4.3,3.4c-2.3,0-2.3-1.5-3-1.5
			c-0.3,0-0.7,0.4-1.3,0.7c-0.6,0.4-1.5,0.7-2.8,0.7c-2.4,0-4.7-1.3-4.7-4.1c0-2,1.9-4.5,7-4.5c0.9,0,1.3,0.1,1.3-1
			c0-0.9,0-2.9-1.3-2.9c-1.7,0-1.9,3.1-4.4,3.1c-0.9,0-1.6-0.7-1.6-1.6c0-2.4,4.8-4,7.5-4c1.6,0,6.1,0.6,6.1,4.9V57.6z M200.2,60.1
			c0,0.7,0.4,1.5,1.2,1.5c1.1,0,1.2-1.2,1.2-2c0-0.6,0-1.3-0.8-1.3C200.8,58.3,200.2,59.2,200.2,60.1z"/>
	</g>
	<g id="XMLID_4_">
		<path id="XMLID_6_" class="st66" d="M135.4,37.3c0,2.9,1,1.3,1,2.2c0,0.9-1.3,1.9-2.4,1.9c-1.3,0-1.3-0.8-1.7-0.8
			c-0.2,0-0.4,0.2-0.8,0.4c-0.4,0.2-0.8,0.4-1.6,0.4c-1.3,0-2.7-0.7-2.7-2.3c0-1.2,1.1-2.6,4-2.6c0.5,0,0.7,0,0.7-0.6
			c0-0.5,0-1.7-0.8-1.7c-1,0-1.1,1.8-2.5,1.8c-0.5,0-0.9-0.4-0.9-0.9c0-1.4,2.7-2.3,4.3-2.3c0.9,0,3.5,0.4,3.5,2.8V37.3z
			 M130.5,38.7c0,0.4,0.2,0.9,0.7,0.9c0.6,0,0.7-0.7,0.7-1.2c0-0.4,0-0.8-0.4-0.8C130.9,37.7,130.5,38.2,130.5,38.7z"/>
		<path id="XMLID_12_" class="st66" d="M146.7,33c0.3,0,0.6,0.1,0.7,0.1c0.2,0,0.3,0,0.4-0.1c0.1,0,0.3-0.1,0.4-0.1
			c0.7,0,1.5,1.5,1.5,2.2c0,0.4-0.4,0.8-0.8,0.8c-0.9,0-1.4-1.3-2.2-1.3c-0.3,0-0.6,0.2-0.6,0.6c0,1,3.6,1.2,3.6,3.7
			c0,1.5-1.5,2.6-3.2,2.6c-0.3,0-0.8,0-1.2-0.1c-0.4,0-0.8-0.1-0.9-0.1c-0.1,0-0.2,0-0.3,0c-0.1,0-0.2,0-0.3,0c-0.3,0-0.5,0-0.7-0.3
			c-0.4-0.5-0.8-1.4-0.8-2c0-0.4,0.1-0.8,0.6-0.8c0.7,0,1.4,1.6,2.3,1.6c0.3,0,0.6-0.2,0.6-0.5c0-1-3.2-1.1-3.2-3.7
			c0-1.6,1.3-2.6,3-2.6C146.1,32.9,146.4,32.9,146.7,33z"/>
		<path id="XMLID_14_" class="st66" d="M155.4,38.3c0,0.3,0,0.8,0.1,1.1c0.2,0.6,0.9,0.3,0.9,1c0,1.1-2,1-2.7,1c-0.7,0-3,0.1-3-1.1
			c0-0.6,0.7-0.4,0.9-1c0.2-0.7,0.2-2.7,0.2-3.5c0-0.6,0-1.8-0.1-2.6c-0.2-1.2-1.2-0.8-1.2-1.7c0-1.4,4.2-1.8,4.4-1.8
			c0.6,0,0.7,0.4,0.7,0.8c0,0.4-0.2,2.2-0.2,4.5V38.3z"/>
		<path id="XMLID_16_" class="st66" d="M161.7,38.2c0,1.9,1,1.2,1,2.1c0,1.1-2.1,1.1-2.8,1.1c-2.8,0-2.9-0.6-2.9-1
			c0-0.6,0.7-0.6,0.9-1.1c0.2-0.6,0.2-2.9,0.1-3.5c-0.1-0.6-1-0.4-1-1.1c0-1.2,4.1-1.6,4.3-1.6c0.5,0,0.5,0.4,0.5,0.7V38.2z
			 M158.4,32.4c-0.7,0-1.4-0.3-1.4-1.1c0-1.1,2.1-1.5,3-1.5c0.6,0,1.6,0.2,1.6,1C161.6,32.1,159.4,32.4,158.4,32.4z"/>
		<path id="XMLID_19_" class="st66" d="M168,32.9c2.4,0,3.7,1.3,3.7,2.5c0,0.9-0.7,1.6-1.6,1.6c-1.8,0-0.9-2-2.2-2
			c-0.7,0-1.1,0.7-1.1,1.4c0,1.2,0.9,2.4,2.2,2.4c1,0,1.4-0.4,1.7-0.4c0.4,0,0.7,0.5,0.7,0.9c0,1-1.5,2.2-3.7,2.2
			c-2.4,0-4.4-1.8-4.4-4.3C163.2,34.8,165.3,32.9,168,32.9z"/>
		<path id="XMLID_534_" class="st66" d="M176.4,37.5c-0.2,0-0.4,0-0.4,0.2c0,0.8,1.1,1.5,1.8,1.5c1.2,0,1.8-0.7,2.2-0.7
			s0.6,0.5,0.6,0.8c0,1.2-2.3,2.2-3.7,2.2c-2.9,0-4.4-2.1-4.4-4.2c0-2.5,2.1-4.3,4.6-4.3c2.8,0,4,2.1,4,3.3c0,1.1-0.5,1.2-1,1.2
			H176.4z M177.8,35.4c0-0.6-0.4-1-1-1c-0.5,0-1,0.6-1,1.1c0,0.6,0.6,0.5,1,0.5C177.3,35.9,177.8,36,177.8,35.4z"/>
		<path id="XMLID_538_" class="st66" d="M186.9,37.4c0-2.9,2.5-4.5,5.2-4.5c2.8,0,4.5,2.2,4.5,4.2c0,2.7-2.9,4.3-5.2,4.3
			C188.9,41.4,186.9,40,186.9,37.4z M191.4,34.8c-0.5,0-0.8,0.5-0.8,1c0.1,1,0.4,3.5,1.5,3.6c0.6,0,0.7-0.5,0.7-1
			C192.8,37.6,192.5,34.8,191.4,34.8z"/>
		<path id="XMLID_541_" class="st66" d="M198.5,37c0-0.5-0.1-0.8-0.6-0.8c-0.2,0-0.7,0.1-0.7-0.2c0-1.3-0.1-1.4,0.4-1.5
			c0.2,0,0.5,0,0.5-0.3c0-0.3-0.6-0.9-0.6-1.9c0-1.9,2-2.6,3.6-2.6c2.6,0,3.3,1.4,3.3,2.1c0,0.7-0.6,1.2-1.2,1.2
			c-1.4,0-1.6-1.5-2.5-1.5c-0.3,0-0.6,0.3-0.6,0.6c0,1,1.7,1.4,2,2.1c0,0.1,0.1,0.2,0.2,0.2c0.7,0,1.6-0.2,1.6,0.3l-0.1,1.2
			c0,0.2-0.2,0.3-0.4,0.3c-1,0-1.1,0-1.1,1.1c0,0.5,0,1,0.2,1.4c0.3,1,1.4,0.5,1.4,1.5c0,0.4,0,1.2-3.7,1.2c-0.8,0-2.9,0-2.9-1.2
			c0-0.9,1.1-0.5,1.2-1.5L198.5,37z"/>
	</g>
</g>
</svg>
