<?xml version="1.0" encoding="utf-8"?>
<!-- Generator: Adobe Illustrator 19.0.0, SVG Export Plug-In . SVG Version: 6.00 Build 0)  -->
<svg version="1.1" id="Layer_1" xmlns="http://www.w3.org/2000/svg" xmlns:xlink="http://www.w3.org/1999/xlink" x="0px" y="0px"
	 viewBox="0 0 218 149" style="enable-background:new 0 0 218 149;" xml:space="preserve">
<style type="text/css">
	.st0{fill:#FB4C51;}
	.st1{fill:#42210B;}
	.st2{fill:#8CC63F;}
	.st3{fill:#E7083A;}
	.st4{fill:url(#XMLID_3_);}
	.st5{fill:#A0B528;}
	.st6{fill:#F2E4B7;}
	.st7{fill:#9CAA22;}
	.st8{fill:#ECD79C;}
	.st9{fill:#FC656A;}
	.st10{fill:#FD797F;}
	.st11{fill:#F1AD8C;}
	.st12{fill:#EBA377;}
	.st13{fill:#FDAAAD;}
	.st14{fill:#FEB5B9;}
	.st15{fill:#FA3A3E;}
	.st16{fill:#FE9198;}
	.st17{fill:#FFA7AD;}
	.st18{fill:#FF383E;}
	.st19{fill:#FF555E;}
	.st20{fill:#FC161A;}
	.st21{fill:#FD1B1F;}
	.st22{fill:#FE2025;}
	.st23{fill:#FF252A;}
	.st24{fill:#FF0C0F;}
	.st25{fill:#E6CC83;}
	.st26{fill:#ABBE2D;}
	.st27{fill:#F4E8C0;}
	.st28{fill:#A8B426;}
	.st29{fill:#EEDCA8;}
	.st30{fill:#FD7177;}
	.st31{fill:#FE878E;}
	.st32{fill:#F3B79A;}
	.st33{fill:#EDAE85;}
	.st34{fill:#FC555B;}
	.st35{fill:#FF9EA5;}
	.st36{fill:#FFB2B7;}
	.st37{fill:#FF3F45;}
	.st38{fill:#FF5F69;}
	.st39{fill:#FE1E23;}
	.st40{fill:#FF2429;}
	.st41{fill:#FF0D11;}
	.st42{fill:#E9D392;}
	.st43{fill:#FF292F;}
	.st44{fill:#FD181D;}
</style>
<g id="XMLID_22_">
	<rect id="XMLID_25_" x="24" y="45.3" class="st0" width="61.7" height="19.6"/>
	<rect id="XMLID_29_" x="24" y="70.1" class="st1" width="61.7" height="19.6"/>
	<rect id="XMLID_30_" x="24" y="95.5" class="st2" width="61.7" height="19.6"/>
	<rect id="XMLID_31_" x="24" y="122.9" class="st3" width="61.7" height="19.6"/>
	<path id="XMLID_39_" class="st2" d="M68.2,24.1v0.7c0,1.8-1.1,3.4-3.3,3.4c-1.4,0-2.5-0.5-2.5-1.9c0-1.5,1.5-2.1,3.9-2.1H68.2z
		 M62.2,20.9c0.9-0.8,2.1-1.2,3.3-1.2c1.7,0,2.8,0.8,2.8,2.5v0.3h-0.7c-2.7,0-7,0.2-7,3.9c0,2.2,1.9,3.3,4.2,3.3
		c1.7,0,2.9-0.8,3.7-2h0c0,0.5,0,1.2,0.1,1.7h1.8c-0.1-0.6-0.2-1.3-0.2-1.9v-4.8c0-3.2-1.4-4.7-4.7-4.7c-1.6,0-3.3,0.5-4.4,1.7
		L62.2,20.9z M52.5,29.4h1.9V24c0-2.6,1-4.2,3.3-4.2c0.3,0,0.7,0,1,0.1l0.1-1.9C58.5,18,58.2,18,58,18c-1.8,0-3.2,1-3.7,2.1h0
		c0-0.6,0-1.2,0-1.8h-1.8c0,0.7,0.1,1.6,0.1,2.7V29.4z M40.3,22.8c0.2-1.9,1.6-3.2,3.7-3.2s3.3,1.3,3.4,3.2H40.3z M47.5,26.3
		c-0.9,1.1-2,1.7-3.6,1.7c-2,0-3.5-1.6-3.7-3.6h9v-0.6c0-3.7-2.1-5.9-5.3-5.9c-3.3,0-5.7,2.4-5.7,5.9c0,3.2,2.1,5.9,5.7,5.9
		c2.1,0,3.7-0.6,5-2.3L47.5,26.3z M25.9,23.8c0-2.3,1.6-4.2,4-4.2c2.4,0,4,1.8,4,4.2c0,2.3-1.6,4.2-4,4.2
		C27.5,28,25.9,26.2,25.9,23.8z M24,34.9h1.9v-7.4h0c0.7,1.3,2.3,2.3,4.3,2.3c3.1,0,5.6-2.5,5.6-5.9c0-3.4-2.4-5.9-5.9-5.9
		c-1.6,0-3,0.7-4,1.9h0v-1.6H24V34.9z"/>
	<path id="XMLID_46_" class="st3" d="M116.5,23.8c0-2.3,1.6-4.2,4-4.2c2.4,0,4,1.8,4,4.2c0,2.3-1.6,4.2-4,4.2
		C118.1,28,116.5,26.2,116.5,23.8z M114.6,34.9h1.9v-7.4h0c0.7,1.3,2.3,2.3,4.3,2.3c3.1,0,5.6-2.5,5.6-5.9c0-3.4-2.4-5.9-5.9-5.9
		c-1.6,0-3,0.7-4,1.9h0v-1.6h-1.9V34.9z M109.2,24.1v0.7c0,1.8-1.1,3.4-3.3,3.4c-1.4,0-2.5-0.5-2.5-1.9c0-1.5,1.5-2.1,3.9-2.1H109.2
		z M103.1,20.9c0.9-0.8,2.1-1.2,3.3-1.2c1.7,0,2.8,0.8,2.8,2.5v0.3h-0.7c-2.7,0-7,0.2-7,3.9c0,2.2,1.9,3.3,4.2,3.3
		c1.7,0,2.9-0.8,3.7-2h0c0,0.5,0,1.2,0.1,1.7h1.8c-0.1-0.6-0.2-1.3-0.2-1.9v-4.8c0-3.2-1.4-4.7-4.7-4.7c-1.6,0-3.3,0.5-4.4,1.7
		L103.1,20.9z M99.8,18.3h-2l-2.5,8.6h0l-2.9-8.6h-2l-2.9,8.6h0l-2.6-8.6h-2.1l3.6,11.2h1.9l2.8-8.6h0l3.2,8.6h1.8L99.8,18.3z
		 M72.5,27.6c1.1,1.6,2.5,2.1,4.3,2.1c2.2,0,4.5-1,4.5-3.5c0-2.2-1.7-3-3.7-3.3c-1.5-0.3-2.8-0.7-2.8-1.6c0-1.1,1.2-1.6,2.2-1.6
		c1.1,0,1.9,0.5,2.4,1.3l1.6-1c-0.8-1.4-2.2-2-3.8-2c-2.1,0-4.2,1.1-4.2,3.3c0,2.3,1.8,2.8,3.9,3.2c1.2,0.3,2.4,0.6,2.4,1.8
		c0,1.2-1.3,1.7-2.5,1.7c-1.3,0-2.1-0.6-2.9-1.5L72.5,27.6z"/>
	<path id="XMLID_57_" d="M61.6,130.1c0.2-0.5,0.3-1,0.4-1.5c0.1,0.4,0.3,1,0.6,1.6l0.8,2.2h-2.7L61.6,130.1z M59.6,135.7l0.9-2.4
		h3.3l0.9,2.4h1.2l-3.2-7.9h-1.1l-3,7.9H59.6z M53.6,135.2c0.5,0.4,1,0.6,1.7,0.6c0.8,0,1.4-0.2,1.9-0.7c0.5-0.5,0.8-1.1,0.8-1.7
		c0-0.5-0.1-0.9-0.4-1.3c-0.3-0.3-0.6-0.6-1.1-0.7c0.4-0.2,0.6-0.4,0.8-0.7s0.3-0.6,0.3-0.9c0-0.4-0.1-0.7-0.3-1
		c-0.2-0.3-0.5-0.6-0.8-0.8s-0.8-0.3-1.2-0.3c-0.6,0-1.1,0.2-1.6,0.5s-0.7,0.9-0.8,1.5l1,0.2c0.1-0.5,0.2-0.8,0.5-1.1
		s0.6-0.4,0.9-0.4c0.4,0,0.7,0.1,0.9,0.3c0.2,0.2,0.4,0.5,0.4,0.9c0,0.4-0.2,0.8-0.5,1s-0.7,0.3-1.1,0.3l-0.2,0l-0.1,0.8
		c0.3-0.1,0.5-0.1,0.7-0.1c0.4,0,0.8,0.1,1.1,0.4s0.4,0.7,0.4,1.1c0,0.5-0.2,0.9-0.5,1.2c-0.3,0.3-0.7,0.5-1.2,0.5
		c-0.4,0-0.7-0.1-1-0.4c-0.3-0.2-0.5-0.6-0.6-1.2l-1,0.1C52.9,134.2,53.1,134.8,53.6,135.2z M48.1,132.3c0.3-0.3,0.7-0.5,1.1-0.5
		c0.5,0,0.9,0.2,1.2,0.5c0.3,0.3,0.5,0.7,0.5,1.2c0,0.5-0.2,0.8-0.5,1.1s-0.7,0.4-1.1,0.4c-0.3,0-0.6-0.1-0.8-0.2s-0.5-0.3-0.6-0.6
		c-0.1-0.3-0.2-0.5-0.2-0.8C47.7,132.9,47.8,132.6,48.1,132.3z M48.4,128.9c0.2-0.2,0.5-0.4,0.9-0.4c0.4,0,0.7,0.1,0.9,0.4
		c0.2,0.2,0.4,0.5,0.4,0.9c0,0.3-0.1,0.6-0.4,0.9c-0.2,0.2-0.5,0.4-0.9,0.4c-0.4,0-0.7-0.1-0.9-0.4s-0.4-0.5-0.4-0.9
		C48,129.4,48.1,129.1,48.4,128.9z M47.1,132.1c-0.3,0.3-0.4,0.8-0.4,1.3c0,0.7,0.2,1.3,0.7,1.7s1.1,0.7,1.9,0.7s1.4-0.2,1.9-0.7
		c0.5-0.5,0.7-1,0.7-1.7c0-0.5-0.1-0.9-0.4-1.3c-0.3-0.4-0.6-0.6-1.1-0.8c0.4-0.1,0.7-0.4,0.9-0.6c0.2-0.3,0.3-0.6,0.3-1
		c0-0.6-0.2-1.1-0.6-1.5s-1-0.6-1.7-0.6c-0.7,0-1.2,0.2-1.6,0.6c-0.4,0.4-0.6,0.9-0.6,1.4c0,0.4,0.1,0.7,0.3,1s0.5,0.5,0.9,0.6
		C47.7,131.5,47.3,131.8,47.1,132.1z M42.1,129.1c0.3-0.4,0.6-0.6,1.1-0.6c0.5,0,0.8,0.2,1.1,0.6c0.3,0.4,0.5,1.3,0.5,2.6
		c0,1.3-0.2,2.1-0.5,2.6c-0.3,0.4-0.7,0.6-1.1,0.6s-0.8-0.2-1.1-0.6c-0.3-0.4-0.5-1.3-0.5-2.6C41.6,130.5,41.7,129.6,42.1,129.1z
		 M41.4,135c0.4,0.5,1,0.8,1.8,0.8c0.6,0,1.1-0.2,1.4-0.5c0.4-0.3,0.7-0.7,0.9-1.3s0.3-1.3,0.3-2.2c0-0.8-0.1-1.4-0.2-1.9
		s-0.3-0.9-0.5-1.2s-0.5-0.6-0.8-0.7s-0.7-0.3-1.1-0.3c-0.6,0-1,0.2-1.4,0.5c-0.4,0.3-0.7,0.7-0.9,1.3c-0.2,0.6-0.3,1.3-0.3,2.2
		C40.6,133.3,40.8,134.3,41.4,135z M38.4,128.8c-0.5,0.6-1,1.2-1.4,2.1c-0.4,0.8-0.8,1.7-1,2.5s-0.4,1.6-0.4,2.2h1
		c0.1-0.8,0.2-1.5,0.4-2.2c0.3-0.9,0.6-1.8,1.1-2.7c0.5-0.9,1-1.6,1.5-2.1v-0.8h-5.1v0.9H38.4z M33.4,135.7v-0.9h-4.8v-2.7h4.4v-0.9
		h-4.4v-2.4h4.7v-0.9h-5.7v7.9H33.4z"/>
	<path id="XMLID_67_" d="M62.9,108.8v-3.6h3.7v-0.9h-3.7v-2.4h4.3v-0.9h-5.3v7.9H62.9z M56,108.3c0.5,0.4,1,0.6,1.7,0.6
		c0.8,0,1.4-0.2,1.9-0.7c0.5-0.5,0.8-1.1,0.8-1.7c0-0.5-0.1-0.9-0.4-1.3c-0.3-0.3-0.6-0.6-1.1-0.7c0.4-0.2,0.6-0.4,0.8-0.7
		c0.2-0.3,0.3-0.6,0.3-0.9c0-0.4-0.1-0.7-0.3-1s-0.5-0.6-0.8-0.8c-0.4-0.2-0.8-0.3-1.2-0.3c-0.6,0-1.1,0.2-1.6,0.5
		c-0.4,0.4-0.7,0.9-0.8,1.5l1,0.2c0.1-0.5,0.2-0.8,0.5-1.1s0.6-0.4,0.9-0.4c0.4,0,0.7,0.1,0.9,0.3s0.4,0.5,0.4,0.9
		c0,0.4-0.2,0.8-0.5,1c-0.3,0.2-0.7,0.3-1.1,0.3l-0.2,0l-0.1,0.8c0.3-0.1,0.5-0.1,0.7-0.1c0.4,0,0.8,0.1,1.1,0.4
		c0.3,0.3,0.4,0.7,0.4,1.1c0,0.5-0.2,0.9-0.5,1.2s-0.7,0.5-1.2,0.5c-0.4,0-0.7-0.1-1-0.4c-0.3-0.2-0.5-0.6-0.6-1.2l-1,0.1
		C55.3,107.4,55.6,107.9,56,108.3z M50.7,105c0.3-0.3,0.7-0.5,1.1-0.5c0.4,0,0.8,0.2,1.1,0.5c0.3,0.3,0.4,0.7,0.4,1.3
		c0,0.6-0.1,1-0.4,1.3c-0.3,0.3-0.6,0.5-1.1,0.5c-0.3,0-0.5-0.1-0.8-0.2c-0.3-0.2-0.5-0.4-0.6-0.7s-0.2-0.6-0.2-1
		C50.2,105.7,50.3,105.3,50.7,105z M53.4,101.4c-0.4-0.3-0.9-0.5-1.5-0.5c-0.8,0-1.5,0.3-2,0.9c-0.6,0.7-0.8,1.8-0.8,3.3
		c0,1.4,0.3,2.3,0.8,2.9c0.5,0.6,1.2,0.9,2,0.9c0.5,0,0.9-0.1,1.3-0.3s0.7-0.6,0.9-1c0.2-0.4,0.3-0.9,0.3-1.4c0-0.8-0.2-1.4-0.7-1.8
		c-0.5-0.5-1-0.7-1.6-0.7c-0.4,0-0.7,0.1-1.1,0.3c-0.3,0.2-0.6,0.4-0.9,0.8c0-0.8,0.1-1.4,0.3-1.8c0.2-0.4,0.4-0.8,0.7-1
		c0.2-0.2,0.5-0.3,0.8-0.3c0.4,0,0.7,0.1,1,0.4c0.2,0.2,0.3,0.4,0.4,0.8l1-0.1C54.1,102.2,53.8,101.7,53.4,101.4z M46.4,107.5
		c-0.4,0.3-0.9,0.5-1.5,0.5c-0.5,0-0.9-0.1-1.3-0.4s-0.7-0.6-0.9-1.1c-0.2-0.5-0.3-1.1-0.3-1.8c0-0.5,0.1-1,0.2-1.5
		c0.2-0.5,0.5-0.9,0.9-1.2s0.9-0.4,1.5-0.4c0.5,0,1,0.1,1.3,0.4s0.6,0.7,0.8,1.3l1-0.2c-0.2-0.7-0.6-1.3-1.1-1.7s-1.2-0.6-2-0.6
		c-0.7,0-1.3,0.2-1.9,0.5c-0.6,0.3-1,0.8-1.3,1.4c-0.3,0.6-0.5,1.3-0.5,2.1c0,0.8,0.1,1.5,0.4,2.1s0.7,1.2,1.2,1.5
		c0.5,0.3,1.2,0.5,2.1,0.5c0.8,0,1.5-0.2,2.1-0.7c0.6-0.4,1-1.1,1.2-2l-1-0.3C47.1,106.7,46.8,107.2,46.4,107.5z M38.4,107.5
		c-0.4,0.3-0.9,0.5-1.5,0.5c-0.5,0-0.9-0.1-1.3-0.4s-0.7-0.6-0.9-1.1c-0.2-0.5-0.3-1.1-0.3-1.8c0-0.5,0.1-1,0.2-1.5
		c0.2-0.5,0.5-0.9,0.9-1.2s0.9-0.4,1.5-0.4c0.5,0,1,0.1,1.3,0.4s0.6,0.7,0.8,1.3l1-0.2c-0.2-0.7-0.6-1.3-1.1-1.7s-1.2-0.6-2-0.6
		c-0.7,0-1.3,0.2-1.9,0.5c-0.6,0.3-1,0.8-1.3,1.4c-0.3,0.6-0.5,1.3-0.5,2.1c0,0.8,0.1,1.5,0.4,2.1s0.7,1.2,1.2,1.5
		c0.5,0.3,1.2,0.5,2.1,0.5c0.8,0,1.5-0.2,2.1-0.7c0.6-0.4,1-1.1,1.2-2l-1-0.3C39.1,106.7,38.8,107.2,38.4,107.5z M28.6,105.4
		c0.3-0.3,0.7-0.5,1.1-0.5c0.5,0,0.9,0.2,1.2,0.5s0.5,0.7,0.5,1.2c0,0.5-0.2,0.8-0.5,1.1s-0.7,0.4-1.1,0.4c-0.3,0-0.6-0.1-0.8-0.2
		c-0.3-0.1-0.5-0.3-0.6-0.6s-0.2-0.5-0.2-0.8C28.1,106.1,28.3,105.7,28.6,105.4z M28.8,102c0.2-0.2,0.5-0.4,0.9-0.4
		c0.4,0,0.7,0.1,0.9,0.4c0.2,0.2,0.4,0.5,0.4,0.9c0,0.3-0.1,0.6-0.4,0.9c-0.2,0.2-0.5,0.4-0.9,0.4c-0.4,0-0.7-0.1-0.9-0.4
		c-0.2-0.2-0.4-0.5-0.4-0.9C28.4,102.5,28.5,102.3,28.8,102z M27.5,105.2c-0.3,0.3-0.4,0.8-0.4,1.3c0,0.7,0.2,1.3,0.7,1.7
		c0.5,0.5,1.1,0.7,1.9,0.7s1.4-0.2,1.9-0.7s0.7-1,0.7-1.7c0-0.5-0.1-0.9-0.4-1.3c-0.3-0.4-0.6-0.6-1.1-0.8c0.4-0.1,0.7-0.4,0.9-0.6
		c0.2-0.3,0.3-0.6,0.3-1c0-0.6-0.2-1.1-0.6-1.5c-0.4-0.4-1-0.6-1.7-0.6c-0.7,0-1.2,0.2-1.6,0.6c-0.4,0.4-0.6,0.9-0.6,1.4
		c0,0.4,0.1,0.7,0.3,1s0.5,0.5,0.9,0.6C28.1,104.6,27.8,104.9,27.5,105.2z"/>
	<path id="XMLID_78_" class="st2" d="M59.1,79.6h1.8c0.5,0,0.9,0,1.2,0.1c0.3,0.1,0.5,0.2,0.6,0.5c0.2,0.2,0.2,0.5,0.2,0.8
		c0,0.3-0.1,0.5-0.2,0.7c-0.1,0.2-0.2,0.3-0.4,0.4c-0.2,0.1-0.4,0.2-0.6,0.2c-0.1,0-0.4,0-0.7,0h-2V79.6z M59.1,76.3h1.6
		c0.6,0,1,0,1.2,0.1c0.2,0.1,0.4,0.2,0.5,0.4c0.1,0.2,0.2,0.4,0.2,0.7c0,0.3-0.1,0.5-0.2,0.7c-0.1,0.2-0.3,0.3-0.6,0.4
		c-0.2,0.1-0.5,0.1-1,0.1h-1.7V76.3z M61.1,83.2c0.5,0,0.9,0,1.3-0.1c0.3-0.1,0.6-0.2,0.9-0.4s0.4-0.4,0.6-0.7
		c0.2-0.3,0.2-0.7,0.2-1c0-0.5-0.1-0.9-0.4-1.2S63,79.1,62.5,79c0.4-0.2,0.6-0.4,0.8-0.7c0.2-0.3,0.3-0.6,0.3-1c0-0.4-0.1-0.7-0.3-1
		c-0.2-0.3-0.5-0.6-0.9-0.7c-0.4-0.2-0.8-0.2-1.4-0.2h-3v7.9H61.1z M53.1,76.7c0.3-0.4,0.6-0.6,1.1-0.6c0.5,0,0.8,0.2,1.1,0.6
		s0.5,1.3,0.5,2.6c0,1.3-0.2,2.1-0.5,2.6s-0.7,0.6-1.1,0.6c-0.4,0-0.8-0.2-1.1-0.6c-0.3-0.4-0.5-1.3-0.5-2.6S52.8,77.1,53.1,76.7z
		 M52.4,82.5c0.4,0.5,1,0.8,1.8,0.8c0.6,0,1.1-0.2,1.4-0.5c0.4-0.3,0.7-0.7,0.9-1.3c0.2-0.6,0.3-1.3,0.3-2.2c0-0.8-0.1-1.4-0.2-1.9
		c-0.1-0.5-0.3-0.9-0.5-1.2c-0.2-0.3-0.5-0.6-0.8-0.7c-0.3-0.2-0.7-0.3-1.1-0.3c-0.6,0-1,0.2-1.4,0.5s-0.7,0.7-0.9,1.3
		c-0.2,0.6-0.3,1.3-0.3,2.2C51.6,80.8,51.9,81.9,52.4,82.5z M49.1,75.3h-0.6c-0.2,0.3-0.5,0.7-0.9,1.1c-0.4,0.4-0.9,0.7-1.4,0.9v0.9
		c0.3-0.1,0.6-0.3,1-0.5s0.7-0.4,0.9-0.7v6.2h1V75.3z M40.6,82.3c0.1-0.2,0.2-0.4,0.4-0.5c0.2-0.2,0.5-0.5,1.1-1
		c0.7-0.6,1.2-1,1.5-1.4s0.5-0.7,0.6-1s0.2-0.6,0.2-0.9c0-0.6-0.2-1.1-0.7-1.6s-1-0.6-1.8-0.6c-0.7,0-1.3,0.2-1.8,0.6
		c-0.4,0.4-0.7,1-0.8,1.7l1,0.1c0-0.5,0.1-0.9,0.4-1.2s0.7-0.4,1.1-0.4c0.4,0,0.8,0.1,1.1,0.4c0.3,0.3,0.4,0.6,0.4,1
		c0,0.4-0.2,0.8-0.5,1.2c-0.3,0.4-0.9,1-1.7,1.7c-0.6,0.5-1,0.8-1.3,1.2s-0.5,0.7-0.6,1c-0.1,0.2-0.1,0.4-0.1,0.7h5.2v-0.9H40.6z
		 M34.5,82.3c0.1-0.2,0.2-0.4,0.4-0.5c0.2-0.2,0.5-0.5,1.1-1c0.7-0.6,1.2-1,1.5-1.4s0.5-0.7,0.6-1s0.2-0.6,0.2-0.9
		c0-0.6-0.2-1.1-0.7-1.6s-1-0.6-1.8-0.6c-0.7,0-1.3,0.2-1.8,0.6c-0.4,0.4-0.7,1-0.8,1.7l1,0.1c0-0.5,0.1-0.9,0.4-1.2
		s0.7-0.4,1.1-0.4c0.4,0,0.8,0.1,1.1,0.4c0.3,0.3,0.4,0.6,0.4,1c0,0.4-0.2,0.8-0.5,1.2c-0.3,0.4-0.9,1-1.7,1.7
		c-0.6,0.5-1,0.8-1.3,1.2s-0.5,0.7-0.6,1c-0.1,0.2-0.1,0.4-0.1,0.7h5.2v-0.9H34.5z M27.8,80.4l2.5-3.6v3.6H27.8z M31.2,83.2v-1.9
		h1.1v-0.9h-1.1v-5.1h-0.8l-3.6,5.1v0.9h3.4v1.9H31.2z"/>
	<path id="XMLID_88_" d="M65,53.1h-0.6c-0.2,0.3-0.5,0.7-0.9,1.1c-0.4,0.4-0.9,0.7-1.4,0.9V56c0.3-0.1,0.6-0.3,1-0.5
		s0.7-0.4,0.9-0.7V61h1V53.1z M56,60.5c0.5,0.4,1,0.6,1.8,0.6c0.9,0,1.6-0.3,2.1-1c0.4-0.5,0.6-1.1,0.6-1.8c0-0.7-0.2-1.4-0.7-1.8
		s-1.1-0.7-1.7-0.7c-0.5,0-1,0.2-1.5,0.5l0.4-2.1h3.1v-0.9h-3.9l-0.8,4l0.9,0.1c0.1-0.2,0.3-0.4,0.6-0.6c0.3-0.1,0.5-0.2,0.8-0.2
		c0.5,0,0.9,0.2,1.2,0.5s0.5,0.8,0.5,1.3c0,0.6-0.2,1-0.5,1.4s-0.7,0.5-1.2,0.5c-0.4,0-0.7-0.1-1-0.4c-0.3-0.2-0.4-0.6-0.5-1.1
		l-1,0.1C55.3,59.6,55.6,60.1,56,60.5z M52.5,59.7c-0.4,0.3-0.9,0.5-1.5,0.5c-0.5,0-0.9-0.1-1.3-0.4s-0.7-0.6-0.9-1.1
		c-0.2-0.5-0.3-1.1-0.3-1.8c0-0.5,0.1-1,0.2-1.5c0.2-0.5,0.5-0.9,0.9-1.2s0.9-0.4,1.5-0.4c0.5,0,1,0.1,1.3,0.4s0.6,0.7,0.8,1.3
		l1-0.2c-0.2-0.7-0.6-1.3-1.1-1.7s-1.2-0.6-2-0.6c-0.7,0-1.3,0.2-1.9,0.5c-0.6,0.3-1,0.8-1.3,1.4c-0.3,0.6-0.5,1.3-0.5,2.1
		c0,0.8,0.1,1.5,0.4,2.1s0.7,1.2,1.2,1.5c0.5,0.3,1.2,0.5,2.1,0.5c0.8,0,1.5-0.2,2.1-0.7c0.6-0.4,1-1.1,1.2-2l-1-0.3
		C53.2,58.9,52.9,59.4,52.5,59.7z M41.8,58.2l2.5-3.6v3.6H41.8z M45.2,61v-1.9h1.1v-0.9h-1.1v-5.1h-0.8l-3.6,5.1v0.9h3.4V61H45.2z
		 M35.2,57.3h1.8c0.5,0,0.9,0,1.2,0.1c0.3,0.1,0.5,0.2,0.6,0.5c0.2,0.2,0.2,0.5,0.2,0.8c0,0.3-0.1,0.5-0.2,0.7
		c-0.1,0.2-0.2,0.3-0.4,0.4c-0.2,0.1-0.4,0.2-0.6,0.2c-0.1,0-0.4,0-0.7,0h-2V57.3z M35.2,54h1.6c0.6,0,1,0,1.2,0.1
		c0.2,0.1,0.4,0.2,0.5,0.4c0.1,0.2,0.2,0.4,0.2,0.7c0,0.3-0.1,0.5-0.2,0.7c-0.1,0.2-0.3,0.3-0.6,0.4c-0.2,0.1-0.5,0.1-1,0.1h-1.7V54
		z M37.2,61c0.5,0,0.9,0,1.3-0.1c0.3-0.1,0.6-0.2,0.9-0.4s0.4-0.4,0.6-0.7c0.2-0.3,0.2-0.7,0.2-1c0-0.5-0.1-0.9-0.4-1.2
		s-0.6-0.6-1.1-0.7c0.4-0.2,0.6-0.4,0.8-0.7c0.2-0.3,0.3-0.6,0.3-1c0-0.4-0.1-0.7-0.3-1c-0.2-0.3-0.5-0.6-0.9-0.7
		c-0.4-0.2-0.8-0.2-1.4-0.2h-3V61H37.2z M28.6,61v-3.6h3.7v-0.9h-3.7V54h4.3v-0.9h-5.3V61H28.6z"/>
	<circle id="XMLID_89_" class="st1" cx="147.9" cy="92.5" r="51.2"/>
	
		<linearGradient id="XMLID_3_" gradientUnits="userSpaceOnUse" x1="31" y1="54.5" x2="32" y2="54.5" gradientTransform="matrix(51.4576 0 0 51.4576 -1484.6807 -2712.7288)">
		<stop  offset="0" style="stop-color:#1D924B"/>
		<stop  offset="1.020408e-002" style="stop-color:#1D924B"/>
		<stop  offset="3.744191e-002" style="stop-color:#29974A"/>
		<stop  offset="0.136" style="stop-color:#51A847"/>
		<stop  offset="0.2415" style="stop-color:#73B745"/>
		<stop  offset="0.3534" style="stop-color:#8EC243"/>
		<stop  offset="0.474" style="stop-color:#A3CC42"/>
		<stop  offset="0.6075" style="stop-color:#B2D241"/>
		<stop  offset="0.7641" style="stop-color:#BBD640"/>
		<stop  offset="1" style="stop-color:#BED740"/>
	</linearGradient>
	<path id="XMLID_90_" class="st4" d="M144.8,52c-24,7-39.3,30.3-32.8,51c5.3,17.1,23.8,28.4,43.6,28.4c2.1,0,4.2-0.1,6.3-0.4l-0.1,0
		c-0.3,0-0.6,0-0.9,0c-13.7,0-27.6-14.8-31.9-35.1c-0.2-1.1-0.4-2.1-0.6-3.2c-2.7-16.7,2.1-31.8,11.5-38.2
		C141.4,53.4,143,52.6,144.8,52"/>
	<path id="XMLID_91_" class="st5" d="M182.4,86.2c3.5,16,0,31-7.9,38.9c-2.9,2.9-6.3,4.8-10.3,5.5c-14.8,2.7-30.6-12.9-35.3-34.8
		c-0.2-1.1-0.4-2.1-0.6-3.2c-2.7-16.7,2.1-31.8,11.5-38.2c2.2-1.5,4.6-2.6,7.3-3c6.6-1.2,13.5,1.3,19.4,6.4
		C173.9,64,179.8,74.2,182.4,86.2"/>
	<path id="XMLID_92_" class="st6" d="M181.5,86.4c4.6,21.2-3.3,40.4-17.6,43c-14.3,2.6-29.6-12.5-34.1-33.6
		c-4.6-21.2,3.3-40.4,17.6-43C161.7,50.2,177,65.2,181.5,86.4"/>
	<path id="XMLID_131_" class="st7" d="M176.8,120.6l-0.1,0.2l0.1-0.1L176.8,120.6 M177.6,119.3L177.6,119.3L177.6,119.3L177.6,119.3
		 M178.5,117.6c-0.1,0.1-0.1,0.2-0.2,0.3L178.5,117.6L178.5,117.6 M179.2,116.3l-0.1,0.1L179.2,116.3L179.2,116.3 M179.3,116.1
		L179.3,116.1L179.3,116.1L179.3,116.1 M180.6,112.9L180.6,112.9L180.6,112.9L180.6,112.9 M181.1,111.1L181.1,111.1L181.1,111.1
		L181.1,111.1 M182.3,105.8l0,0.1L182.3,105.8 M182.8,101.4c0,0.4,0,0.7-0.1,1.1l0-0.1C182.7,102,182.7,101.7,182.8,101.4 M182.8,98
		c0,0.5,0,1.1,0,1.6l0-0.2C182.8,99,182.8,98.5,182.8,98 M182.8,95.8c0,0.3,0,0.6,0,1c0-0.3,0-0.6,0-0.8L182.8,95.8 M182.7,94.6
		c0,0.2,0,0.3,0,0.5C182.7,94.9,182.7,94.7,182.7,94.6 M182.5,91.8c0.1,0.8,0.2,1.6,0.2,2.4c0-0.1,0-0.3,0-0.4
		C182.6,93.1,182.5,92.5,182.5,91.8 M129,91c0,0.1,0,0.2,0,0.3C129.1,91.2,129,91.1,129,91 M182.3,90.9c0,0.1,0,0.3,0.1,0.4
		C182.4,91.2,182.4,91.1,182.3,90.9L182.3,90.9 M182.3,90.3l0,0.2L182.3,90.3 M128.9,90.1l0,0.1L128.9,90.1 M128.9,89.7l0,0.2
		L128.9,89.7 M128.8,89.2c0,0.1,0,0.2,0,0.3C128.8,89.4,128.8,89.3,128.8,89.2 M182,88.7c0.1,0.3,0.1,0.6,0.2,0.9
		C182.1,89.4,182.1,89,182,88.7 M128.7,87.5c0,0.2,0,0.4,0,0.6C128.7,87.9,128.7,87.7,128.7,87.5 M128.6,86.3c0,0.1,0,0.2,0,0.3
		C128.6,86.5,128.6,86.4,128.6,86.3 M128.7,80.1c0,0.1,0,0.3,0,0.4c0,0.3,0,0.6-0.1,0.9c0,0.6,0,1.2-0.1,1.8c0,0.6,0,1.3,0,1.9
		c0,0.3,0,0.5,0,0.8l0,0.2C128.5,84.1,128.5,82.1,128.7,80.1 M178.8,77.4c1.1,2.8,2,5.8,2.7,9c0.2,0.7,0.3,1.4,0.4,2.1
		c0-0.1,0-0.3-0.1-0.4c-0.1-0.6-0.2-1.1-0.3-1.7c-0.4-2-1-3.9-1.6-5.8c-0.2-0.6-0.4-1.2-0.6-1.8C179.2,78.3,179,77.8,178.8,77.4
		 M129.3,75.5c0,0.2-0.1,0.4-0.1,0.6c-0.1,0.6-0.2,1.2-0.2,1.7c0,0.2,0,0.4-0.1,0.6C128.9,77.4,129.1,76.4,129.3,75.5 M130.1,71.6
		l-0.1,0.3c-0.3,1.1-0.5,2.2-0.7,3.3l0,0C129.5,74,129.8,72.8,130.1,71.6 M130.5,70.2l0,0.1l0,0L130.5,70.2 M132.1,66
		c-0.3,0.6-0.6,1.3-0.8,2l0,0l0,0C131.5,67.4,131.8,66.7,132.1,66 M133,64.2c-0.3,0.5-0.5,1-0.7,1.4C132.5,65.2,132.8,64.7,133,64.2
		 M134.3,62.1c-0.1,0.2-0.3,0.4-0.4,0.6C134,62.5,134.2,62.3,134.3,62.1 M134.9,61.2l-0.1,0.1l0,0.1L134.9,61.2 M167.9,60.4
		c4.2,4,7.8,9.4,10.5,15.7c-2.6-6.2-6.1-11.5-10.2-15.5L167.9,60.4 M136.1,59.6L136.1,59.6L136.1,59.6L136.1,59.6 M136.6,59.1
		L136.6,59.1L136.6,59.1L136.6,59.1 M164.8,57.8L164.8,57.8L164.8,57.8L164.8,57.8 M138.2,57.4c-0.4,0.3-0.7,0.7-1,1
		C137.5,58.1,137.8,57.8,138.2,57.4 M138.6,57.1L138.6,57.1L138.6,57.1 M140.3,55.7L140.3,55.7L140.3,55.7L140.3,55.7L140.3,55.7"/>
	<path id="XMLID_134_" class="st8" d="M164.8,57.8L164.8,57.8c-1.4,0-2.7,0.3-4,0.6c2.4,1.7,4.7,3.8,6.8,6.3c1.8,1.9,3.4,4,4.9,6.4
		c0.4,0.7,0.8,1.3,1.2,2.1c0.1,0.1,0.1,0.2,0.2,0.3c0.1,0.1,0.1,0.2,0.2,0.3l0,0.1c0.1,0.2,0.3,0.5,0.4,0.7l0.1,0.1
		c0.1,0.2,0.2,0.5,0.4,0.7c0.1,0.2,0.2,0.5,0.3,0.7l0.1,0.2c0,0.1,0.1,0.2,0.1,0.3c0.3,0.6,0.5,1.2,0.8,1.8c0,0.1,0.1,0.2,0.1,0.3
		c0,0.1,0.1,0.2,0.1,0.3c0.1,0.1,0.1,0.3,0.2,0.4c0.1,0.4,0.3,0.7,0.4,1.1c0,0.1,0.1,0.3,0.1,0.4c0.1,0.2,0.1,0.4,0.2,0.6
		c0.6,1.7,1,3.5,1.4,5.3c0.3,1.5,0.6,3.1,0.8,4.6c0,0.2,0.1,0.4,0.1,0.7l0,0.1c0,0.1,0,0.2,0,0.3c0,0.1,0,0.2,0,0.4
		c0,0.2,0,0.5,0.1,0.7c0,0.2,0,0.3,0,0.5l0,0.3c0,0.2,0,0.4,0,0.6l0,0.2c0,0.1,0,0.3,0,0.4c0,0.1,0,0.2,0,0.3c0,0.2,0,0.3,0,0.5
		c0,0.5,0,1,0,1.6c0,0.6,0,1.3,0,1.9c0,0.1,0,0.3,0,0.4c-0.3,5.7-1.7,10.9-4,15l-0.1,0.2c-0.3,0.5-0.6,1-0.9,1.5l-0.2,0.2l-0.2,0.3
		c-0.8,1.1-1.6,2.1-2.5,3l-0.1,0.1l-0.2,0.2c-0.6,0.6-1.2,1.1-1.9,1.6l0,0l0,0l-0.3,0.2l0,0c0.7,0.5,1.4,0.9,2.1,1.3
		c0.5,0.3,1.1,0.6,1.6,0.8c0.1-0.1,0.3-0.2,0.4-0.4c0.1-0.1,0.2-0.2,0.4-0.4c0.2-0.2,0.5-0.5,0.7-0.8c0.1-0.1,0.3-0.3,0.4-0.4
		c0.1-0.1,0.2-0.2,0.3-0.4c0.3-0.4,0.7-0.9,1-1.3l0.2-0.3l0.1-0.2c0.2-0.3,0.4-0.6,0.6-0.9c0.1-0.1,0.1-0.2,0.2-0.3l0.1-0.1
		c0.1-0.2,0.2-0.4,0.3-0.5c0.1-0.2,0.2-0.3,0.3-0.5c0.1-0.1,0.1-0.2,0.2-0.3c0.1-0.1,0.1-0.2,0.2-0.3c0.2-0.4,0.4-0.8,0.6-1.2
		l0.1-0.1l0.1-0.1l0-0.1c0.1-0.3,0.3-0.6,0.4-0.9c0.1-0.2,0.2-0.4,0.2-0.5c0.2-0.4,0.3-0.7,0.4-1.1c0.1-0.2,0.1-0.4,0.2-0.6l0-0.1
		c0.1-0.2,0.1-0.4,0.2-0.5c0.1-0.4,0.2-0.8,0.4-1.2l0,0c0.1-0.4,0.2-0.8,0.3-1.2c0.1-0.2,0.1-0.4,0.2-0.6c0.1-0.4,0.2-0.8,0.3-1.2
		c0.1-0.6,0.2-1.3,0.4-1.9l0-0.2l0-0.1c0-0.1,0-0.2,0-0.3c0-0.2,0.1-0.4,0.1-0.7c0.1-0.4,0.1-0.9,0.2-1.3c0-0.2,0-0.4,0.1-0.7
		c0-0.1,0-0.3,0-0.4c0-0.4,0.1-0.7,0.1-1.1c0-0.2,0-0.4,0-0.5c0-0.2,0-0.5,0-0.7c0-0.2,0-0.3,0-0.5c0-0.5,0-1.1,0-1.6
		c0-0.2,0-0.5,0-0.7c0-0.2,0-0.4,0-0.5l0-0.1c0-0.3,0-0.6,0-1c0-0.2,0-0.4,0-0.6l0-0.1c0-0.2,0-0.3,0-0.5l0-0.1c0-0.1,0-0.2,0-0.3
		c-0.1-0.8-0.1-1.6-0.2-2.4l0-0.2l0-0.2c0-0.1,0-0.3-0.1-0.4c0-0.1,0-0.3-0.1-0.4l0-0.2c0-0.1,0-0.2-0.1-0.4c0-0.1,0-0.2,0-0.3
		c0-0.3-0.1-0.6-0.2-0.9l0-0.1l0-0.1c-0.1-0.7-0.3-1.4-0.4-2.1c-0.7-3.1-1.6-6.1-2.7-9c-0.1-0.1-0.1-0.3-0.2-0.4
		c-0.1-0.3-0.2-0.5-0.3-0.8c-2.6-6.3-6.3-11.7-10.5-15.7c-0.1-0.1-0.3-0.3-0.4-0.4c-0.1-0.1-0.3-0.2-0.4-0.4
		c-0.2-0.2-0.4-0.3-0.6-0.5c-0.2-0.2-0.5-0.4-0.8-0.6l-0.2-0.1c-0.2-0.2-0.4-0.3-0.6-0.5L164.8,57.8L164.8,57.8 M140.3,55.7
		L140.3,55.7l-0.2,0.1c-0.4,0.3-0.8,0.6-1.2,0.9c-0.1,0.1-0.2,0.2-0.4,0.3l0,0l-0.1,0.1l0,0c-0.1,0.1-0.2,0.2-0.3,0.3
		c-0.4,0.3-0.7,0.7-1,1l-0.1,0.1l-0.5,0.5l0,0l0,0c-0.1,0.2-0.3,0.3-0.4,0.5l0,0l0,0c-0.3,0.3-0.6,0.7-0.9,1.1
		c-0.1,0.1-0.2,0.3-0.3,0.4l-0.1,0.2l0,0c-0.1,0.2-0.3,0.4-0.4,0.6l-0.1,0.1c-0.1,0.2-0.3,0.4-0.4,0.6c-0.1,0.2-0.2,0.3-0.3,0.5
		c-0.1,0.2-0.2,0.4-0.4,0.6c-0.1,0.1-0.1,0.2-0.2,0.4c-0.3,0.5-0.5,1-0.7,1.4l-0.1,0.2l-0.1,0.2c-0.3,0.7-0.6,1.3-0.9,2
		c-0.1,0.2-0.2,0.5-0.3,0.7c-0.1,0.3-0.2,0.5-0.3,0.8c-0.1,0.2-0.1,0.4-0.2,0.7l0,0.1l0,0c-0.1,0.4-0.3,0.9-0.4,1.3
		c-0.3,1.2-0.6,2.4-0.8,3.6l0,0l0,0.2c-0.2,1-0.3,2-0.4,3c0,0.1,0,0.3,0,0.4c0,0.2,0,0.5-0.1,0.7c0,0.2,0,0.4,0,0.6
		c-0.1,2-0.2,4-0.1,6.1l0,0l0,0.1c0,0.1,0,0.2,0,0.3c0,0.1,0,0.2,0,0.4c0,0.2,0,0.4,0,0.6c0,0.2,0,0.4,0,0.6c0,0.3,0,0.5,0.1,0.8
		l0,0.3c0,0.1,0,0.2,0,0.3l0,0.1l0,0.1l0,0.2l0,0.1l0,0.2l0,0.1l0,0.2c0,0.2,0,0.4,0.1,0.6c0,0.1,0,0.2,0,0.3l0,0.1
		c0.1,0.4,0.1,0.8,0.2,1.2c0.3-0.1,0.7-0.1,1-0.2c-3-15.6,1.5-29.9,10.4-35.4C140.6,56.5,140.5,56.1,140.3,55.7L140.3,55.7"/>
	<path id="XMLID_135_" class="st9" d="M178.8,86.9c4.1,18.9-3,36.1-15.7,38.4c-12.7,2.3-26.4-11.1-30.5-30
		c-4.1-18.9,3-36.1,15.7-38.4C161.1,54.6,174.7,68,178.8,86.9"/>
	<path id="XMLID_140_" class="st10" d="M152.6,63.9c-1.2,1.5-2.2,3.2-3.1,5.2l0,0c0.5-0.2,1-0.3,1.6-0.4c0.6-0.1,1.2-0.2,1.7-0.2
		l0.1,0l0,0c0-0.2,0.1-0.5,0.2-0.7c0.4-1.1,1-1.9,1.8-2.2C154.2,65,153.4,64.4,152.6,63.9 M138.8,69.6c-0.3,0-0.5-0.1-0.8-0.4
		c-0.6-0.6-0.9-1.7-0.6-2.5c0.2-0.5,0.5-0.7,0.9-0.7c0.3,0,0.5,0.1,0.8,0.4c0.6,0.6,0.9,1.7,0.6,2.5
		C139.5,69.4,139.2,69.6,138.8,69.6 M142.2,62.7c-3.3,1.3-5.9,4.4-7.4,8.4c0.6-0.9,1.3-1.4,2-1.4c0.3,0,0.6,0.1,0.9,0.4
		c1.1,1,1.2,3.9,0.2,6.3c-0.7,1.9-1.8,3-2.8,3c-0.3,0-0.6-0.1-0.9-0.4c-0.4-0.4-0.7-1-0.8-1.7c-0.3,3-0.1,6.3,0.6,9.6
		c0.2,1.1,0.5,2.1,0.8,3.2l0,0c2.2-1.6,4-3.8,5.4-6.6c-0.4-0.4-0.7-1-1-1.5l0,0l0,0c0-0.1-0.1-0.2-0.1-0.3l-0.1-0.2l-0.1-0.2l0-0.1
		c-0.1-0.2-0.1-0.4-0.2-0.6c0-0.1-0.1-0.3-0.1-0.4c-0.1-0.7-0.2-1.3-0.2-2c0-0.8,0.2-1.5,0.5-2.2l0,0l0,0l0.1-0.2l0,0l3.7-6.6
		C142.8,67,142.6,64.8,142.2,62.7L142.2,62.7"/>
	<path id="XMLID_172_" class="st11" d="M135.5,67.1c-0.9,1.7-1.7,3.6-2.3,5.6C133.8,70.7,134.5,68.8,135.5,67.1 M167.1,64.2
		c0.1,0.1,0.3,0.3,0.4,0.4C167.3,64.5,167.2,64.3,167.1,64.2 M138.2,63.1c-0.3,0.3-0.5,0.6-0.7,0.9c-0.3,0.3-0.5,0.7-0.7,1.1
		c-0.1,0.2-0.2,0.4-0.4,0.6c-0.1,0.2-0.2,0.3-0.3,0.5C136.7,65,137.4,64,138.2,63.1 M164.3,61.7c0.2,0.1,0.3,0.3,0.5,0.4l0,0
		C164.6,61.9,164.4,61.8,164.3,61.7 M140.5,60.6l-0.1,0.1c-0.3,0.3-0.6,0.5-0.9,0.8c-0.3,0.3-0.6,0.6-0.9,0.9
		c-0.1,0.2-0.3,0.3-0.4,0.5C138.9,62.1,139.7,61.3,140.5,60.6 M141.3,60l-0.1,0.1c-0.1,0.1-0.2,0.2-0.4,0.3l0,0
		C141,60.3,141.1,60.1,141.3,60 M161.9,60c0.5,0.3,0.9,0.6,1.3,0.9l-0.2-0.1c-0.2-0.1-0.4-0.3-0.6-0.4
		C162.3,60.2,162.1,60.1,161.9,60 M159.8,58.8L159.8,58.8c0.1,0.1,0.2,0.1,0.3,0.2C160,58.9,159.9,58.8,159.8,58.8"/>
	<path id="XMLID_175_" class="st12" d="M174,73.8c0.2,0.3,0.3,0.6,0.5,0.9l-0.1-0.1C174.3,74.4,174.2,74.1,174,73.8L174,73.8
		 M172.5,71.2c0.5,0.8,0.9,1.5,1.4,2.3c-0.1-0.1-0.1-0.2-0.2-0.3C173.3,72.5,172.9,71.8,172.5,71.2"/>
	<path id="XMLID_176_" class="st11" d="M132.8,74.1c-0.1,0.2-0.1,0.4-0.1,0.6c-0.1,0.2-0.1,0.5-0.2,0.7c-0.1,0.3-0.1,0.5-0.2,0.8
		C132.4,75.5,132.6,74.8,132.8,74.1"/>
	<path id="XMLID_179_" class="st12" d="M175.3,76.4c0,0.1,0.1,0.2,0.1,0.3C175.4,76.6,175.4,76.5,175.3,76.4 M174.9,75.5
		c0.1,0.2,0.2,0.4,0.3,0.7C175.1,75.9,175,75.7,174.9,75.5"/>
	<path id="XMLID_180_" class="st11" d="M132.2,76.8l0,0.1c-0.1,0.4-0.1,0.8-0.2,1.3C132,77.7,132.1,77.2,132.2,76.8"/>
	<path id="XMLID_210_" class="st12" d="M176.2,78.5c0,0.1,0.1,0.2,0.1,0.3C176.3,78.7,176.2,78.6,176.2,78.5"/>
	<path id="XMLID_226_" class="st11" d="M131.9,78.5c0,0.2-0.1,0.5-0.1,0.7c-0.1,0.5-0.1,1-0.2,1.6c-0.1,1.1-0.1,2.2-0.2,3.3
		c0,0.3,0,0.7,0,1C131.4,82.8,131.6,80.6,131.9,78.5"/>
	<path id="XMLID_234_" class="st12" d="M177,80.6c0.7,2,1.3,4.1,1.8,6.3c0.4,1.8,0.7,3.6,0.9,5.3l0-0.1c0-0.2-0.1-0.4-0.1-0.7
		c-0.2-1.5-0.4-3-0.8-4.6c-0.4-1.8-0.9-3.6-1.4-5.3c-0.1-0.2-0.1-0.4-0.2-0.6C177.1,80.8,177,80.7,177,80.6 M176.5,79.1
		c0.1,0.1,0.1,0.3,0.2,0.4C176.6,79.4,176.5,79.2,176.5,79.1"/>
	<path id="XMLID_249_" class="st11" d="M131.7,89.2c0,0.3,0.1,0.5,0.1,0.8c0,0.3,0.1,0.6,0.1,0.9c0,0.2,0.1,0.4,0.1,0.7l0,0.2l0,0
		C131.9,90.9,131.8,90,131.7,89.2 M131.6,88.8l0,0.2L131.6,88.8 M131.5,87.3c0,0.2,0,0.4,0,0.5l0,0.2c0,0.1,0,0.3,0,0.4
		C131.6,88.1,131.6,87.7,131.5,87.3"/>
	<path id="XMLID_275_" class="st12" d="M179.9,97.8c0,0.8,0,1.6-0.1,2.3c0-0.1,0-0.3,0-0.4C179.9,99.1,179.9,98.5,179.9,97.8
		 M179.9,95.8c0,0.2,0,0.3,0,0.5C179.9,96.1,179.9,95.9,179.9,95.8 M179.9,95.1c0,0.1,0,0.3,0,0.4C179.9,95.4,179.9,95.2,179.9,95.1
		 M179.7,92.5c0.1,0.8,0.1,1.6,0.2,2.4c0-0.2,0-0.4,0-0.6l0-0.3c0-0.2,0-0.3,0-0.5c0-0.2,0-0.5-0.1-0.7
		C179.7,92.8,179.7,92.7,179.7,92.5"/>
	<path id="XMLID_282_" class="st12" d="M174.7,117.1l-0.2,0.3L174.7,117.1 M175.9,115.2c-0.3,0.6-0.7,1.2-1,1.7
		c0.3-0.5,0.6-1,0.9-1.5L175.9,115.2"/>
	<path id="XMLID_285_" class="st12" d="M169.8,122.3L169.8,122.3L169.8,122.3L169.8,122.3 M172.1,120.4c-0.1,0.1-0.3,0.3-0.4,0.4
		l0.2-0.2L172.1,120.4"/>
	<path id="XMLID_296_" class="st0" d="M141.6,59.8L141.6,59.8L141.6,59.8l-0.2,0.2c-0.2,0.1-0.3,0.3-0.5,0.4
		c-0.1,0.1-0.2,0.2-0.3,0.2c-0.8,0.7-1.6,1.5-2.3,2.3l0,0l-0.1,0.1c-0.8,0.9-1.5,1.9-2.1,3l-0.1,0.1c-0.2,0.3-0.4,0.6-0.5,0.9
		c-0.9,1.7-1.7,3.6-2.3,5.6c-0.1,0.4-0.2,0.9-0.4,1.3l0,0.1c-0.2,0.7-0.3,1.4-0.5,2.1c0,0.2-0.1,0.4-0.1,0.5
		c-0.1,0.5-0.2,0.9-0.2,1.4l0,0.3l0,0.1c-0.3,2.1-0.4,4.3-0.4,6.6c0,0.2,0,0.5,0,0.7c0,0.5,0,1,0.1,1.5l0,0.1c0,0.4,0,0.7,0.1,1.1
		l0,0.2l0,0.2l0,0.2l0,0.1l0,0c0.1,0.9,0.2,1.7,0.3,2.6c0.3-0.1,0.6-0.3,0.9-0.4c-2.6-13.4,1.2-25.7,8.9-30.5
		C141.7,60.5,141.6,60.2,141.6,59.8 M174.1,114.3c-0.2,0-0.5-0.1-0.7-0.3c-0.6-0.6-1-1.7-0.7-2.5c0.2-0.5,0.5-0.8,0.9-0.8
		c0.2,0,0.5,0.1,0.7,0.3c0.6,0.6,1,1.7,0.7,2.5C174.9,114,174.5,114.3,174.1,114.3 M175.4,110.5c-0.3,0-0.5-0.1-0.8-0.3
		c-1.1-0.9-1.3-3.8-0.5-6.4c0.7-2,1.8-3.3,2.8-3.3c0.3,0,0.5,0.1,0.8,0.3c1.1,0.9,1.3,3.8,0.5,6.4
		C177.5,109.2,176.4,110.5,175.4,110.5 M159.8,58.8L159.8,58.8c-1.1,0.4-2.2,1-3.3,1.6c7.6,3.7,14.3,13,16.8,24.6
		c3.1,14.4-1.2,27.6-9.7,32.1c1.3,1.5,2.7,2.8,4.1,4c0.6,0.5,1.3,1,1.9,1.5l0.3-0.2l0,0c0.1-0.1,0.2-0.1,0.3-0.2
		c0.2-0.1,0.3-0.3,0.5-0.4c0.3-0.3,0.6-0.5,0.9-0.8l0.2-0.2c0.1-0.1,0.3-0.2,0.4-0.4c0.2-0.2,0.4-0.4,0.6-0.7
		c0.1-0.1,0.2-0.3,0.4-0.4c0.2-0.3,0.5-0.6,0.7-0.9c0.1-0.1,0.2-0.3,0.3-0.4c0.1-0.2,0.2-0.3,0.3-0.5l0.1-0.2l0.2-0.3l0,0l0.1-0.2
		c0.4-0.5,0.7-1.1,1-1.7c0.5-0.9,1-1.9,1.4-2.9c0.2-0.4,0.3-0.8,0.5-1.2c0.1-0.2,0.2-0.4,0.2-0.6c0.1-0.2,0.1-0.4,0.2-0.6
		c0.1-0.2,0.1-0.4,0.2-0.7c0.1-0.2,0.1-0.4,0.2-0.7c0.1-0.2,0.1-0.4,0.2-0.7c0.1-0.2,0.1-0.5,0.2-0.7c0.1-0.2,0.1-0.5,0.2-0.7
		c0.1-0.5,0.2-1,0.3-1.5c0-0.2,0.1-0.4,0.1-0.7c0-0.2,0.1-0.5,0.1-0.7c0-0.2,0.1-0.5,0.1-0.7c0.1-0.5,0.1-1,0.2-1.5
		c0-0.4,0.1-0.8,0.1-1.2c0-0.8,0.1-1.5,0.1-2.3c0-0.2,0-0.4,0-0.6c0-0.3,0-0.6,0-0.8l0-0.1c0-0.2,0-0.3,0-0.5l0-0.1l0-0.1
		c0-0.1,0-0.3,0-0.4l0,0l0-0.1c0-0.8-0.1-1.6-0.2-2.4c0-0.1,0-0.2,0-0.3l0-0.1c-0.2-1.8-0.5-3.5-0.9-5.3c-0.5-2.2-1.1-4.3-1.8-6.3
		l-0.1-0.2c-0.1-0.2-0.2-0.5-0.3-0.7l-0.1-0.1c-0.1-0.1-0.1-0.3-0.2-0.4l-0.1-0.1l-0.1-0.2c0-0.1-0.1-0.2-0.1-0.3l0-0.1
		c-0.1-0.2-0.2-0.5-0.3-0.7c-0.1-0.3-0.2-0.5-0.3-0.8l-0.1-0.2c0-0.1-0.1-0.2-0.1-0.3l0-0.1l-0.1-0.1c-0.1-0.2-0.2-0.5-0.3-0.7
		l0-0.1c-0.1-0.2-0.2-0.4-0.3-0.6c-0.2-0.3-0.3-0.6-0.5-0.9c-0.1-0.1-0.1-0.2-0.2-0.3c-0.4-0.8-0.9-1.6-1.4-2.3
		c-0.3-0.5-0.6-1-0.9-1.4c-0.1-0.2-0.3-0.4-0.4-0.6c-0.6-0.9-1.2-1.7-1.9-2.4c-0.2-0.2-0.3-0.4-0.5-0.5c-0.4-0.5-0.8-0.9-1.2-1.3
		l0,0l0,0l-0.1-0.2c-0.1-0.1-0.3-0.3-0.4-0.4c-0.1-0.1-0.2-0.2-0.3-0.3c-0.2-0.2-0.5-0.4-0.7-0.7c-0.1-0.1-0.2-0.2-0.4-0.3
		c-0.2-0.2-0.4-0.3-0.5-0.5c-0.1-0.1-0.3-0.3-0.5-0.4c-0.2-0.1-0.3-0.3-0.5-0.4l-0.1-0.1c-0.2-0.1-0.3-0.2-0.5-0.4
		c-0.1-0.1-0.3-0.2-0.4-0.3c-0.4-0.3-0.9-0.6-1.3-0.9c-0.2-0.1-0.4-0.2-0.5-0.3c-0.4-0.2-0.8-0.4-1.1-0.6l-0.2-0.1
		C160,58.9,159.9,58.8,159.8,58.8"/>
	<path id="XMLID_299_" class="st13" d="M134.8,71.1c-0.3,0.4-0.6,1-0.8,1.6c-0.6,1.6-0.8,3.3-0.6,4.6
		C133.6,75.1,134.1,73,134.8,71.1"/>
	<path id="XMLID_301_" class="st14" d="M136.8,69.7c-0.7,0-1.4,0.5-2,1.4c-0.7,1.9-1.2,4-1.4,6.2c0.1,0.7,0.4,1.4,0.8,1.7
		c0.3,0.2,0.6,0.4,0.9,0.4c1,0,2.1-1.1,2.8-3c1-2.5,0.9-5.3-0.2-6.3C137.4,69.8,137.1,69.7,136.8,69.7"/>
	<path id="XMLID_304_" class="st14" d="M138.3,66c-0.4,0-0.7,0.3-0.9,0.7c-0.3,0.8,0,1.9,0.6,2.5c0.3,0.2,0.5,0.4,0.8,0.4
		c0.4,0,0.7-0.3,0.9-0.7c0.3-0.8,0-1.9-0.6-2.5C138.8,66.1,138.6,66,138.3,66"/>
	<path id="XMLID_308_" class="st15" d="M176.9,100.5c-1,0-2.1,1.3-2.8,3.3c-0.8,2.6-0.6,5.5,0.5,6.4c0.2,0.2,0.5,0.3,0.8,0.3
		c1,0,2.1-1.3,2.8-3.3c0.8-2.6,0.6-5.5-0.5-6.4C177.4,100.6,177.2,100.5,176.9,100.5"/>
	<path id="XMLID_309_" class="st15" d="M173.6,110.7c-0.4,0-0.8,0.3-0.9,0.8c-0.3,0.8,0,2,0.7,2.5c0.2,0.2,0.5,0.3,0.7,0.3
		c0.4,0,0.8-0.3,0.9-0.8c0.3-0.8,0-2-0.7-2.5C174.1,110.8,173.9,110.7,173.6,110.7"/>
	<path id="XMLID_312_" class="st16" d="M152.8,68.5c-0.6,0-1.2,0.1-1.7,0.2c-0.5,0.1-1.1,0.2-1.6,0.4c-0.1,0.3-0.3,0.6-0.4,0.9
		c0.3,0.5,0.5,1.1,0.7,1.8l1.4,5.9c0.5-0.3,1.1-0.5,1.7-0.6c0.3-0.1,0.7-0.1,1-0.1c0.1,0,0.3,0,0.4,0l-1.3-5.4l0-0.2
		c-0.1-0.3-0.1-0.5-0.1-0.8l0,0c0-0.3,0-0.5,0-0.7c0-0.1,0-0.2,0-0.3l0,0c0-0.1,0-0.2,0-0.3l0-0.1l0-0.2l0-0.2l0-0.3L152.8,68.5"/>
	<path id="XMLID_319_" class="st10" d="M163.1,97.3c-0.5,1.3-1.1,2.5-1.7,3.5l4,4.9c0.1,0.1,0.1,0.2,0.2,0.3l0.1,0.1l0.1,0.1
		l0.1,0.1c0.8-0.9,1.5-2,2.1-3.1c-0.1-0.1-0.2-0.2-0.3-0.3l-3.9-4.8L163.1,97.3L163.1,97.3 M166.5,78.8c-0.2,0.4-0.5,0.8-0.8,1.1
		l-0.2,0.2l-1.6,1.3l0,0l0,0.1c0.4,1.8,0.6,3.5,0.7,5.2l0,0l0,0l2.6-2.2c0.4-0.4,0.9-0.5,1.4-0.6C168,82.1,167.3,80.4,166.5,78.8"/>
	<path id="XMLID_327_" class="st16" d="M151.7,98.8l-0.1,0.5l0,0.1l0,0c0.8,1.6,1.7,3.2,2.6,4.8l0.5-2.2l0.2-1.1
		C153.8,100.4,152.7,99.7,151.7,98.8 M162.9,97c-0.6,1.2-1.3,2.2-2.2,3l0,0l0.7,0.9l0,0c0.7-1.1,1.3-2.2,1.7-3.5l0,0L162.9,97
		 M163.8,81.4l-1.5,1.3l-0.4,0.3c0.7,1.3,1.3,2.9,1.7,4.5l0.1-0.1l0.9-0.7c-0.1-1.7-0.3-3.4-0.7-5.2L163.8,81.4"/>
	<path id="XMLID_330_" class="st17" d="M153.9,77c-0.3,0-0.7,0-1,0.1c-0.6,0.1-1.2,0.3-1.7,0.6l1.8,7.7l0.1,0.3l0,0
		c0.1,0.3,0.1,0.5,0,0.7l0,0.1l0,0l0,0l0,0l0,0l0,0.1l-0.1,0.1l-0.2,0.2l-0.1,0l0,0l-0.1,0l-0.1,0l0,0l0,0l0,0l0,0l-0.1,0l-5.1-1.1
		l0,0c0.1,0.7,0.2,1.4,0.3,2.1c0.2,0.9,0.4,1.9,0.6,2.8l1.2,0.3l2.6,0.6c0.1,0,0.2,0.1,0.3,0.2c0.4,0.3,0.6,1,0.5,1.5l-1.2,5.4l0,0
		c1,1,2.1,1.7,3.2,2.1L156,96c0.1-0.3,0.2-0.5,0.4-0.6l0.2-0.1c0.2,0,0.4,0.1,0.6,0.3l0,0l0.9,1.1l2.6,3.2c0.9-0.7,1.6-1.7,2.2-3
		l-2.6-3.2l-0.9-1l-0.1-0.2c-0.1-0.2-0.2-0.5-0.2-0.8l0-0.1l0-0.1l0,0c0-0.3,0.1-0.5,0.3-0.6l4-3.2l0.2-0.2l0,0
		c-0.4-1.6-0.9-3.2-1.7-4.5l-1.9,1.5l-2.3,1.9l-0.1,0.1l0,0l0,0l-0.2,0c-0.2,0-0.3-0.1-0.4-0.2l-0.1,0l0,0l-0.1-0.1l0,0l0,0
		l-0.1-0.2l0,0l-0.1-0.1l0-0.1l0-0.1l0-0.1l0,0l-2.1-8.5l0,0C154.2,77,154.1,77,153.9,77"/>
	<path id="XMLID_331_" class="st18" d="M157.7,86.4l7.8-6.4c2.5-2,1.7-7.6-1.3-9.6l-6.5-4.4c-3-2-5.7,1.3-4.6,5.7l3.3,13.9
		C156.6,86.3,157.2,86.8,157.7,86.4"/>
	<path id="XMLID_341_" class="st19" d="M156.1,79.7l-0.6-3.4l1.3,0.2l1,1.4L156.1,79.7 M159.6,74.3l-0.5-3l1.1,0.1l0.9,1.2
		L159.6,74.3 M155.3,72.2l-0.6-3.4L156,69l1,1.4L155.3,72.2 M155.6,65.9c-1.6,0-2.7,2-2.1,4.5l2.4,10c0.1,0.4,0.4,0.7,0.7,0.7
		l0.2-0.1l2.8-2.3l0-0.1l0.2,0l2.7-2.2c0.5-0.4,0.8-1,1-1.7l-0.3-2.1l0.4,0.1c-0.2-1.3-0.9-2.6-1.9-3.2l-4.7-3.2
		C156.5,66,156,65.9,155.6,65.9"/>
	<path id="XMLID_344_" class="st20" d="M156.9,65.6c0.2,0.1,0.5,0.2,0.7,0.4l6.5,4.4l0.2,0.1l-0.2-0.1l-6.5-4.4
		C157.4,65.8,157.2,65.7,156.9,65.6 M155.9,65.4L155.9,65.4L155.9,65.4c0.2,0,0.4,0,0.6,0.1C156.3,65.4,156.1,65.4,155.9,65.4"/>
	<path id="XMLID_345_" class="st21" d="M153.1,67.8c-0.1,0.2-0.1,0.5-0.2,0.7l0,0l0,0C153,68.3,153,68,153.1,67.8"/>
	<path id="XMLID_349_" class="st20" d="M166.9,77.5l0,0.1L166.9,77.5 M167,76.3c0,0.3,0,0.6-0.1,0.8c0-0.2,0-0.4,0.1-0.6L167,76.3
		 M164.4,70.5L164.4,70.5L164.4,70.5"/>
	<path id="XMLID_354_" class="st22" d="M152.8,69.9c0,0.2,0,0.5,0,0.7l0,0c0,0.3,0.1,0.5,0.1,0.8l0,0.2l1.3,5.4l0,0l-1.3-5.4
		C152.9,71.1,152.8,70.5,152.8,69.9 M152.8,69.5L152.8,69.5L152.8,69.5 M152.9,68.9l0,0.2l0,0.1C152.8,69.2,152.8,69.1,152.9,68.9
		 M152.9,68.5l0,0.3L152.9,68.5L152.9,68.5"/>
	<polyline id="XMLID_355_" class="st21" points="165.7,79.9 165.5,80 163.8,81.4 163.8,81.4 163.8,81.4 165.5,80.1 165.7,79.9 	"/>
	<polyline id="XMLID_356_" class="st22" points="163.8,81.4 162.3,82.6 163.8,81.4 163.8,81.4 	"/>
	<path id="XMLID_367_" class="st23" d="M156.8,86.3L156.8,86.3L156.8,86.3L156.8,86.3 M156.7,86.2L156.7,86.2L156.7,86.2L156.7,86.2
		 M156.5,85.9l0.1,0.1l0,0L156.5,85.9 M156.4,85.7L156.4,85.7L156.4,85.7 M160,84.5l-2.3,1.9l-0.1,0.1l0,0l0,0l0.1-0.1L160,84.5
		 M154.3,77.1L154.3,77.1l2.1,8.5l0,0l0,0L154.3,77.1L154.3,77.1"/>
	<path id="XMLID_375_" class="st24" d="M157.1,84.2c-0.3,0-0.7-0.3-0.8-0.9l-1.5-6.3l-1.4-6c-0.2-0.9-0.3-1.8-0.1-2.6
		c0.2-1.4,1-2.5,1.9-2.8c0.2-0.1,0.5-0.1,0.8-0.1c0.5,0,1,0.2,1.6,0.5l5.8,3.9c2,1.4,2.9,4.6,2.2,6.9c-0.2,0.7-0.6,1.2-1.1,1.6
		l-1,0.8l0,0l-2.4,1.9l-0.7,0.7l0-0.1l0,0l-2.9,2.3C157.3,84.2,157.2,84.2,157.1,84.2 M155.9,65.4L155.9,65.4c-0.2,0-0.3,0-0.4,0
		l-0.3,0.1l0,0l-0.2,0.1l0,0l0,0c-0.2,0.1-0.4,0.2-0.5,0.3l-0.1,0.1l-0.1,0.1l-0.2,0.2l-0.1,0.2l-0.1,0.1c-0.2,0.3-0.4,0.7-0.6,1.2
		c-0.1,0.2-0.1,0.5-0.2,0.7l0,0.3l0,0.1l0,0.1c0,0.1,0,0.2,0,0.3l0,0.1l0,0.1l0,0l0,0l0,0.1c0,0.1,0,0.2,0,0.3l0,0
		c0,0.6,0.1,1.1,0.2,1.7l1.3,5.4l2.1,8.5l0,0l0,0.1l0,0.1l0,0l0,0.1l0.1,0.2l0.1,0.2l0,0l0,0l0.1,0.1l0.1,0.1l0,0l0.1,0.1l0,0
		l0.1,0.1l0.1,0l0,0l0,0l0.1,0l0,0l0.1-0.1l2.3-1.9l1.9-1.5l0.4-0.3l1.5-1.3l1.6-1.3l0.2-0.2l0,0l0,0l0.2-0.2l0.2-0.2l0.1-0.1
		l0.1-0.2l0.1-0.3l0,0l0,0l0.1-0.2c0.1-0.3,0.2-0.6,0.3-0.9l0-0.1l0-0.1l0-0.2l0-0.2c0-0.3,0.1-0.5,0.1-0.8l0-0.2c0-0.1,0-0.3,0-0.4
		c0-0.1,0-0.2,0-0.4l0-0.2l0-0.3c0-0.1,0-0.3-0.1-0.4c0-0.1,0-0.2-0.1-0.3c0-0.1-0.1-0.2-0.1-0.3c-0.1-0.3-0.2-0.6-0.3-0.9l-0.1-0.3
		c-0.1-0.2-0.2-0.4-0.3-0.6l-0.2-0.3c-0.2-0.4-0.5-0.7-0.8-1l-0.2-0.2l-0.2-0.2l0,0l0,0l0,0l0,0l-0.2-0.1l-6.5-4.4
		c-0.3-0.2-0.5-0.3-0.7-0.4l-0.1,0c-0.1,0-0.2-0.1-0.3-0.1l-0.1,0C156.3,65.4,156.1,65.4,155.9,65.4"/>
	<polyline id="XMLID_378_" class="st6" points="157,70.4 155.3,72.2 154.8,68.8 156,69 157,70.4 	"/>
	<polyline id="XMLID_383_" class="st25" points="156,69 155.3,72.2 157,70.4 156,69 	"/>
	<polyline id="XMLID_384_" class="st6" points="165.4,74.2 163.7,76 163.1,72.7 164.4,72.8 165.4,74.2 	"/>
	<polyline id="XMLID_389_" class="st25" points="164.4,72.8 163.7,76 165.4,74.2 164.4,72.8 	"/>
	<polyline id="XMLID_392_" class="st6" points="162,80.1 160.2,81.9 159.7,78.6 161,78.7 162,80.1 	"/>
	<polyline id="XMLID_393_" class="st25" points="161,78.7 160.2,81.9 162,80.1 161,78.7 	"/>
	<polyline id="XMLID_397_" class="st6" points="161.1,72.7 159.6,74.3 159.1,71.3 160.2,71.5 161.1,72.7 	"/>
	<polyline id="XMLID_400_" class="st25" points="160.2,71.5 159.6,74.3 161.1,72.7 160.2,71.5 	"/>
	<polyline id="XMLID_401_" class="st6" points="157.8,77.8 156.1,79.7 155.5,76.3 156.8,76.5 157.8,77.8 	"/>
	<polyline id="XMLID_405_" class="st25" points="156.8,76.5 156.1,79.7 157.8,77.8 156.8,76.5 	"/>
	<path id="XMLID_408_" class="st18" d="M153.1,85.8l-3.3-13.9c-1-4.4-5-6.1-6.7-3l-3.8,6.8c-1.8,3.1,0.2,8.5,3.3,9.2l9.9,2.2
		C152.9,87.2,153.3,86.5,153.1,85.8"/>
	<path id="XMLID_412_" class="st19" d="M147.4,76.2c-0.3,1.7-0.4,3.5-0.4,5.3l0,0l0.3-0.2l1,3.3l-1.2-0.5c0,0.2,0,0.3,0,0.5l0,0.1
		l0,0l1.6,0.4l0.1,0c0.3,0,0.6-0.4,0.4-1l-1.2-5l-0.1,0l0-0.2L147.4,76.2 M142.9,71.1c-0.3,0.2-0.6,0.5-0.8,0.9l-2.8,4.9
		c-1,1.8-0.3,4.7,1.2,6c0.2-0.5,0.4-1,0.6-1.5l0-0.1l0,0l-0.4-0.2l0.3-1.7l0.9-0.6c0.1-0.6,0.3-1.2,0.4-1.8l0,0
		C142.7,75.2,142.9,73.2,142.9,71.1"/>
	<path id="XMLID_428_" class="st21" d="M139.3,81.9L139.3,81.9L139.3,81.9L139.3,81.9 M139.1,81.4l0.1,0.2L139.1,81.4 M139,81.1
		l0,0.1L139,81.1 M138.6,78.2c0,0.7,0,1.3,0.2,2c0,0.1,0.1,0.3,0.1,0.4C138.6,79.8,138.5,79,138.6,78.2 M139.1,75.9L139.1,75.9
		L139.1,75.9L139.1,75.9 M142.9,69.1L142.9,69.1l-3.7,6.6l0,0l0,0L142.9,69.1L142.9,69.1L142.9,69.1"/>
	<path id="XMLID_450_" class="st23" d="M152.5,87.1L152.5,87.1L152.5,87.1L152.5,87.1L152.5,87.1 M152.7,87.1l-0.1,0L152.7,87.1
		L152.7,87.1 M152.8,87L152.8,87L152.8,87L152.8,87 M153.1,86.7l-0.1,0.1L153.1,86.7L153.1,86.7 M153.1,86.6L153.1,86.6L153.1,86.6
		L153.1,86.6 M153.1,86.5L153.1,86.5L153.1,86.5 M153,85.4l0.1,0.3l0,0l0,0L153,85.4"/>
	<path id="XMLID_458_" class="st24" d="M149.1,70c-0.3,0.7-0.5,1.4-0.7,2.1c0.1,0.2,0.1,0.4,0.2,0.6l1.4,5.9l0,0.1l0,0l0.4,1.2
		l-0.1,0l0,0l1.2,5.1c0.1,0.6-0.1,1.2-0.5,1.2l-0.1,0l-3.6-0.8c0,0.2,0,0.4,0.1,0.5l5.1,1.1l0.1,0l0,0l0,0l0,0l0.1,0l0.1,0l0,0
		l0.1,0l0.1-0.1l0,0l0-0.1l0,0l0.1-0.1l0,0l0,0l0-0.1l0,0l0,0l0-0.1l0,0l0-0.1l0-0.1l0-0.2l0-0.2l0-0.1l0,0l0,0l-0.1-0.3l-1.8-7.7
		l-1.4-5.9c0-0.1-0.1-0.3-0.1-0.4c-0.1-0.2-0.1-0.4-0.2-0.6c-0.1-0.1-0.1-0.3-0.2-0.4C149.3,70.3,149.2,70.2,149.1,70 M142.9,69.1
		l-3.7,6.6l0,0l-0.1,0.2l0,0.1l-0.1,0.2c-0.3,0.6-0.4,1.3-0.4,2c0,0.8,0.1,1.6,0.3,2.4l0,0c0,0.1,0.1,0.3,0.1,0.4l0,0.1l0,0.1l0,0.1
		l0,0.1l0,0l0.1,0.2l0,0c0,0.1,0.1,0.2,0.1,0.3l0,0l0,0c0.1,0.1,0.1,0.3,0.2,0.4c0.1,0.1,0.1,0.3,0.2,0.4c0.1,0.1,0.2,0.3,0.3,0.4
		c0.1,0.1,0.2,0.2,0.3,0.3l0.1-0.2c-1.6-1.7-2.3-5-1.2-7.1l3.4-6c0.1-0.2,0.2-0.3,0.3-0.4C142.9,69.5,142.9,69.3,142.9,69.1"/>
	<polyline id="XMLID_462_" class="st6" points="142.1,78.7 143.1,82 140.8,81.1 141.1,79.5 142.1,78.7 	"/>
	<path id="XMLID_463_" class="st25" d="M142,78.8l-0.9,0.6l0.5,0.7l0,0C141.7,79.7,141.8,79.3,142,78.8L142,78.8"/>
	<polyline id="XMLID_464_" class="st6" points="145.8,69.1 146.8,72.3 144.5,71.5 144.7,69.8 145.8,69.1 	"/>
	<polyline id="XMLID_465_" class="st6" points="149.4,76.7 150.4,80 148,79.1 148.3,77.4 149.4,76.7 	"/>
	<polyline id="XMLID_466_" class="st25" points="149.4,76.7 148.3,77.4 150.4,80 150,78.8 149.4,76.7 	"/>
	<polyline id="XMLID_471_" class="st6" points="144.2,74.3 145.1,77.1 143,76.4 143.3,74.9 144.2,74.3 	"/>
	<polyline id="XMLID_472_" class="st6" points="147.3,81.4 148.3,84.6 146,83.7 146.2,82.1 147.3,81.4 	"/>
	<path id="XMLID_473_" class="st25" d="M147.3,81.4l-0.3,0.2l0,0c0,0.5,0,1,0,1.5l0,0l1.3,1.6L147.3,81.4"/>
	<path id="XMLID_474_" class="st18" d="M152.1,91.7l-9.9-2.2c-3.1-0.7-4.8,3.9-2.9,7.8l4.2,8.6c1.9,3.9,5.8,3.9,6.7,0l2.8-12.5
		C153,92.6,152.6,91.8,152.1,91.7"/>
	<path id="XMLID_477_" class="st19" d="M150,96L150,96c0.3,0.6,0.5,1.2,0.8,1.8l0,0l0.1,0.2l0.2-0.7c0.1-0.5-0.2-1.1-0.6-1.2L150,96
		"/>
	<polyline id="XMLID_480_" class="st23" points="148.3,90.8 148.3,90.8 149.5,91.1 148.3,90.8 	"/>
	<polyline id="XMLID_483_" class="st22" points="151.7,98.8 151.6,99.3 151.7,98.8 151.7,98.8 	"/>
	<path id="XMLID_486_" class="st23" d="M152.4,91.8c0.4,0.3,0.6,1,0.5,1.5l-1.2,5.4l0,0l0,0l1.2-5.4C153,92.8,152.8,92.1,152.4,91.8
		"/>
	<path id="XMLID_490_" class="st24" d="M148.3,90.8c0.2,0.7,0.4,1.4,0.6,2.1l2.5,0.6c0.5,0.1,0.8,0.9,0.7,1.5l-0.8,3.4l-0.1,0.4
		c0.1,0.2,0.2,0.4,0.3,0.6l0-0.1l0.1-0.5l1.2-5.4c0.1-0.6-0.1-1.2-0.5-1.5c-0.1-0.1-0.2-0.1-0.3-0.1l-2.6-0.6L148.3,90.8"/>
	<polyline id="XMLID_491_" class="st6" points="145.9,103.4 148.2,103.6 147.3,106.4 146.2,105.2 145.9,103.4 	"/>
	<polyline id="XMLID_495_" class="st6" points="139.8,93.6 142.1,93.8 141.2,96.6 140.1,95.4 139.8,93.6 	"/>
	<polyline id="XMLID_498_" class="st6" points="145.5,92.4 147.8,92.6 146.9,95.4 145.8,94.2 145.5,92.4 	"/>
	<polyline id="XMLID_500_" class="st6" points="143.1,98.3 145.2,98.4 144.4,100.9 143.4,99.9 143.1,98.3 	"/>
	<polyline id="XMLID_503_" class="st6" points="148.3,97.5 150.7,97.7 149.8,100.5 148.7,99.3 148.3,97.5 	"/>
	<path id="XMLID_506_" class="st18" d="M156,96l-2.8,12.5c-0.9,3.9,2,8.5,4.9,7.8l6.4-1.5c2.9-0.7,3.4-6,0.9-9.2l-8.2-10
		C156.8,95.1,156.1,95.3,156,96"/>
	<path id="XMLID_530_" class="st19" d="M159.3,111.6L159.3,111.6l0.4-2.8l1.6,2.3l-0.8,0.8L159.3,111.6 M163.1,110.2L163.1,110.2
		l0.4-3.2l1.8,2.6l-1,0.9L163.1,110.2 M159.5,104L159.5,104l0.4-3.2l1.8,2.6l-1,0.9L159.5,104 M159.2,99.9c-0.2,0-0.4,0.2-0.5,0.5
		l-1,4.5l0.1,0.1l-0.1,0.1l-0.8,3.5l0,0c0.3,0.4,0.6,0.8,0.8,1.2c1.2,1.7,2.4,3.4,3.7,4.9l0,0l3.4-0.8c2.1-0.5,2.5-4.4,0.6-6.6
		l-5.9-7.2C159.5,100,159.4,99.9,159.2,99.9"/>
	<path id="XMLID_535_" class="st23" d="M156.6,95.4l-0.2,0.1L156.6,95.4c0.2,0,0.4,0.1,0.6,0.3C157,95.5,156.8,95.4,156.6,95.4"/>
	<path id="XMLID_536_" class="st21" d="M161.4,100.8L161.4,100.8l4,4.9l0.2,0.3c-0.1-0.1-0.1-0.2-0.2-0.3L161.4,100.8"/>
	<polyline id="XMLID_537_" class="st22" points="160.7,99.9 160.7,99.9 161.4,100.8 161.4,100.8 161.4,100.8 160.7,99.9 160.7,99.9 
			"/>
	<polyline id="XMLID_538_" class="st23" points="158.1,96.8 160.7,99.9 160.7,99.9 158.1,96.8 	"/>
	<polyline id="XMLID_539_" class="st22" points="154.7,101.9 154.2,104.1 154.2,104.1 154.7,101.9 	"/>
	<polyline id="XMLID_540_" class="st21" points="165.7,106 165.7,106.1 165.7,106 	"/>
	<path id="XMLID_556_" class="st20" d="M165.7,114.2c-0.3,0.3-0.7,0.5-1.1,0.6l-2.4,0.6l0,0l2.4-0.6c0.3-0.1,0.5-0.2,0.7-0.3
		c0.1-0.1,0.2-0.1,0.3-0.2L165.7,114.2 M166.6,112.8c-0.2,0.5-0.5,0.9-0.8,1.3l0,0c0.1-0.1,0.3-0.3,0.4-0.5
		C166.4,113.4,166.5,113.1,166.6,112.8 M166.8,112.2l0,0.1L166.8,112.2 M167.1,110.6c0,0.6-0.1,1.1-0.2,1.6l0.1-0.2
		c0-0.1,0.1-0.3,0.1-0.4c0-0.2,0.1-0.4,0.1-0.6C167.1,110.9,167.1,110.7,167.1,110.6 M167,109.9c0,0.1,0,0.2,0,0.3
		C167.1,110.2,167,110.1,167,109.9 M167,109.2l0,0.1L167,109.2 M166.8,108.6c0,0.2,0.1,0.4,0.1,0.5
		C166.9,108.9,166.9,108.7,166.8,108.6 M166.6,107.9l0,0.1L166.6,107.9L166.6,107.9 M166.5,107.6L166.5,107.6L166.5,107.6"/>
	<path id="XMLID_557_" class="st24" d="M156.6,95.4l-0.2,0.1c-0.2,0.1-0.3,0.3-0.4,0.6l-1.1,4.8l-0.2,1.1l-0.5,2.2l0,0
		c0.4,0.6,0.7,1.2,1.1,1.8l0.1,0.1l0-0.2l0.5-2.3l0,0l0.2-1.2l0.1,0.1l0,0l0.3-1.2l0.7-3.3c0.1-0.4,0.3-0.6,0.6-0.6
		c0.2,0,0.4,0.1,0.5,0.3l2.1,2.6l0.8,1l4.3,5.2l0,0.1c2.2,2.8,1.8,7.4-0.8,8l-2.8,0.7l0.2,0.3l0,0l2.4-0.6c0.4-0.1,0.8-0.3,1.1-0.6
		l0.2-0.1c0.3-0.3,0.6-0.8,0.8-1.3l0.1-0.2l0.1-0.2l0-0.1l0-0.1l0,0l0,0c0.1-0.5,0.2-1,0.2-1.6l0,0l0-0.2l0-0.1c0-0.1,0-0.2,0-0.3
		l0-0.1l0-0.1l0-0.2l0-0.1l0-0.1l0-0.1l0,0c0-0.2-0.1-0.4-0.1-0.5l-0.1-0.2l-0.1-0.2l0-0.1l0-0.1l-0.1-0.2l0-0.1l0-0.1l0-0.1
		c-0.1-0.2-0.2-0.5-0.3-0.7l-0.1-0.3l0-0.1c-0.1-0.1-0.1-0.2-0.2-0.3l0,0l0,0l0-0.1l-0.1-0.1l0,0l0,0l-0.2-0.3l-4-4.9l-0.7-0.9
		l-2.6-3.2l-0.9-1.1l0,0C157,95.5,156.8,95.4,156.6,95.4"/>
	<polyline id="XMLID_560_" class="st6" points="163.1,110.2 163.6,107.1 165.4,109.7 164.4,110.6 163.1,110.2 	"/>
	<polyline id="XMLID_564_" class="st25" points="163.6,107.1 163.1,110.2 164.4,110.6 163.6,107.1 	"/>
	<polyline id="XMLID_568_" class="st6" points="155.7,113.8 156.1,110.7 157.9,113.3 157,114.2 155.7,113.8 	"/>
	<polyline id="XMLID_569_" class="st6" points="155.6,105.5 156,102.3 157.9,104.9 156.9,105.9 155.6,105.5 	"/>
	<polyline id="XMLID_570_" class="st25" points="156,102.3 155.6,105.5 156.9,105.9 156,102.3 	"/>
	<polyline id="XMLID_571_" class="st6" points="159.3,111.6 159.7,108.8 161.3,111.1 160.5,111.9 159.3,111.6 	"/>
	<polyline id="XMLID_572_" class="st25" points="159.7,108.8 159.3,111.6 160.5,111.9 159.7,108.8 	"/>
	<polyline id="XMLID_573_" class="st6" points="159.5,104 159.9,100.9 161.7,103.5 160.8,104.4 159.5,104 	"/>
	<polyline id="XMLID_576_" class="st25" points="159.9,100.9 159.5,104 160.8,104.4 159.9,100.9 	"/>
	<path id="XMLID_586_" class="st18" d="M159.4,92.7l8.2,10c2.6,3.1,6,1.4,6-3l-0.2-9.6c-0.1-4.4-3.7-7.7-6.1-5.7l-7.8,6.4
		C158.9,91.3,159,92.2,159.4,92.7"/>
	<path id="XMLID_851_" class="st19" d="M170.5,95.8l-1.8-1.9l1.8-1.1l0.4,1.6L170.5,95.8 M165.3,91.8l-2.1-2.1l2-1.2l0.5,1.8
		L165.3,91.8 M170,89.8l-2.1-2.1l2-1.2l0.5,1.8L170,89.8 M169.5,84.6c-0.4,0-0.8,0.1-1.2,0.4l-5.6,4.6c-0.3,0.3-0.3,0.9,0,1.3
		l2.9,3.6l0.1,0l0.1,0.2l2.8,3.4c0.5,0.6,1.1,1,1.6,1.1l1.2-0.7l0.2,0.5c0.8-0.5,1.3-1.5,1.3-3l-0.1-6.9
		C172.7,86.7,171.1,84.6,169.5,84.6"/>
	<polyline id="XMLID_852_" class="st20" points="168.8,83.9 168.6,83.9 168.6,83.9 168.6,83.9 168.8,83.9 168.8,83.9 168.8,83.9 	
		"/>
	<path id="XMLID_853_" class="st21" d="M168.6,83.9c-0.5,0-1,0.2-1.4,0.6l-2.6,2.2l0,0l2.6-2.2C167.6,84.2,168.1,84,168.6,83.9
		L168.6,83.9"/>
	<path id="XMLID_859_" class="st20" d="M171.9,85.8L171.9,85.8L171.9,85.8 M171.6,85.5c0.1,0.1,0.2,0.2,0.2,0.3
		C171.8,85.6,171.7,85.5,171.6,85.5 M171.3,85.1c0.1,0.1,0.2,0.2,0.3,0.3l0,0C171.5,85.3,171.4,85.2,171.3,85.1 M169.3,84l0.1,0
		L169.3,84 M168.9,83.9L168.9,83.9L168.9,83.9L168.9,83.9"/>
	<polyline id="XMLID_860_" class="st22" points="163.7,87.4 163.6,87.5 163.6,87.5 163.7,87.4 	"/>
	<polyline id="XMLID_861_" class="st23" points="163.6,87.5 163.6,87.5 163.3,87.7 163.6,87.5 163.6,87.5 	"/>
	<path id="XMLID_865_" class="st20" d="M173.1,88.4c0.1,0.6,0.2,1.2,0.2,1.8l0.1,6.8l-0.1-6.8c0-0.3,0-0.5-0.1-0.8
		C173.2,89.1,173.2,88.7,173.1,88.4 M172.9,87.7c0,0.1,0.1,0.2,0.1,0.3C173,88,172.9,87.8,172.9,87.7 M172.8,87.5l0,0.1L172.8,87.5
		L172.8,87.5"/>
	<path id="XMLID_868_" class="st23" d="M159.1,91.8c0,0.3,0.1,0.5,0.2,0.8l0.1,0.2l0.9,1l-0.9-1.1C159.2,92.5,159.1,92.1,159.1,91.8
		 M159.1,91.5L159.1,91.5l0,0.1L159.1,91.5"/>
	<polyline id="XMLID_869_" class="st21" points="163.1,97.3 163.1,97.3 163.1,97.3 163.7,98 163.1,97.3 	"/>
	<polyline id="XMLID_870_" class="st22" points="163.1,97.2 163.1,97.3 163.1,97.3 163.1,97.2 	"/>
	<polyline id="XMLID_871_" class="st20" points="173.5,101 173.4,101.3 173.4,101.1 173.5,101 	"/>
	<path id="XMLID_874_" class="st24" d="M163.8,95.7l-0.1-0.2l-0.2-0.2l-2.7-3.2c-0.4-0.5-0.4-1.3,0-1.6l2.9-2.4l0.9-0.8l3.1-2.5
		c0.3-0.3,0.7-0.4,1-0.5l0,0c0.1,0,0.3,0,0.4,0c1.9,0,3.9,2.5,4,5.5l0.2,8.5c0.1,2.5-1.2,4-2.7,4c-0.7,0-1.3-0.3-2-0.9
		c-0.2-0.2-0.3-0.3-0.5-0.5l-3.5-4.3L163.8,95.7L163.8,95.7 M168.8,83.9l-0.2,0c-0.5,0-1,0.2-1.4,0.6l-2.6,2.2l0,0l0,0l-0.9,0.7
		l-0.1,0.1l-0.2,0.2l-3.9,3.2l-0.2,0.2c-0.1,0.1-0.1,0.3-0.1,0.4l0,0.1l0,0l0,0.1c0,0.3,0.1,0.7,0.4,0.9l0.9,1.1l2.6,3.2l0.2,0.3
		l0,0l0.6,0.7l3.9,4.8c0.1,0.1,0.2,0.2,0.3,0.3c0.1,0.1,0.2,0.2,0.3,0.3l0.2,0.2c0.1,0.1,0.3,0.2,0.4,0.3l0.2,0.1l0.2,0.1l0.2,0.1
		l0.2,0.1c0.1,0,0.2,0.1,0.3,0.1l0.2,0l0,0l0.2,0l0.2,0c1.1,0,2.1-0.8,2.7-2.1c0.1-0.2,0.2-0.5,0.2-0.7l0.1-0.2l0-0.2
		c0-0.3,0.1-0.5,0.1-0.8c0-0.2,0-0.3,0-0.5l-0.1-2.8l-0.1-6.8c0-0.6-0.1-1.2-0.2-1.8l0,0c0-0.1,0-0.2-0.1-0.3l0,0
		c0-0.1-0.1-0.2-0.1-0.3l0-0.1l0,0l0-0.1c-0.1-0.2-0.2-0.4-0.3-0.6l-0.1-0.2c-0.1-0.2-0.2-0.3-0.3-0.4L172,86l-0.1-0.1l-0.1-0.1l0,0
		l0,0c-0.1-0.1-0.2-0.2-0.2-0.3l0-0.1l0,0c-0.1-0.1-0.2-0.2-0.3-0.3l0,0l-0.2-0.2c-0.1-0.1-0.2-0.2-0.3-0.3l-0.2-0.1
		c-0.1-0.1-0.2-0.2-0.4-0.2l-0.2-0.1l-0.2-0.1l-0.2-0.1l-0.2-0.1l0,0l-0.1,0l-0.1,0l-0.2,0l-0.1,0L168.8,83.9L168.8,83.9L168.8,83.9
		L168.8,83.9"/>
	<polyline id="XMLID_875_" class="st6" points="170,89.8 167.9,87.7 170,86.5 170.5,88.3 170,89.8 	"/>
	<polyline id="XMLID_876_" class="st25" points="167.9,87.7 170,89.8 170.5,88.3 167.9,87.7 	"/>
	<polyline id="XMLID_877_" class="st6" points="171.5,101.9 169.4,99.7 171.5,98.5 172,100.3 171.5,101.9 	"/>
	<polyline id="XMLID_878_" class="st25" points="169.4,99.7 171.5,101.9 172,100.3 169.4,99.7 	"/>
	<polyline id="XMLID_879_" class="st6" points="165.8,97.9 163.7,95.7 165.8,94.5 166.3,96.3 165.8,97.9 	"/>
	<polyline id="XMLID_880_" class="st25" points="163.7,95.7 165.8,97.9 166.3,96.3 163.7,95.7 	"/>
	<polyline id="XMLID_881_" class="st6" points="170.5,95.8 168.6,93.9 170.4,92.8 170.8,94.4 170.5,95.8 	"/>
	<polyline id="XMLID_882_" class="st25" points="168.6,93.9 170.5,95.8 170.8,94.4 168.6,93.9 	"/>
	<polyline id="XMLID_883_" class="st6" points="165.3,91.8 163.2,89.7 165.3,88.5 165.8,90.3 165.3,91.8 	"/>
	<polyline id="XMLID_884_" class="st25" points="163.2,89.7 165.3,91.8 165.8,90.3 163.2,89.7 	"/>
	<path id="XMLID_887_" class="st26" d="M129.3,92.6L129.3,92.6c-0.3,0.1-0.6,0.1-0.9,0.1c0.2,1.1,0.4,2.1,0.6,3.2
		c4.4,20.2,18.2,35.1,31.9,35.1c1.1,0,2.2-0.1,3.4-0.3c3.9-0.7,7.4-2.7,10.3-5.5c-0.4-0.1-0.9-0.3-1.3-0.5c-0.8,0.7-1.6,1.4-2.5,2
		l0,0c-0.2,0.1-0.3,0.2-0.5,0.3l-0.2,0.1l-0.1,0.1c-0.2,0.1-0.3,0.2-0.5,0.3l-0.2,0.1l-0.2,0.1l-0.3,0.1c-0.4,0.2-0.9,0.4-1.4,0.6
		l-0.2,0.1c-0.2,0.1-0.4,0.1-0.6,0.2l-0.2,0.1c-0.1,0-0.2,0.1-0.4,0.1c-0.7,0.2-1.4,0.4-2.1,0.5l0,0l0,0l0,0l-0.3,0l0,0l0,0
		c-1,0.2-2,0.2-3,0.2c-0.3,0-0.7,0-1,0c-0.4,0-0.8-0.1-1.2-0.1c-0.1,0-0.2,0-0.3,0c-1.6-0.2-3.2-0.6-4.8-1.2
		c-1.6-0.6-3.2-1.4-4.7-2.4c-2-1.3-4-2.9-5.9-4.8l-0.2-0.2c-0.1-0.1-0.3-0.3-0.4-0.4c-0.2-0.3-0.5-0.5-0.7-0.8
		c-0.2-0.2-0.4-0.4-0.6-0.7l0,0c-0.5-0.6-1-1.2-1.4-1.8c-0.6-0.7-1.1-1.5-1.7-2.3c-0.5-0.7-1-1.5-1.4-2.3l0-0.1
		c-0.2-0.3-0.3-0.5-0.5-0.8c-0.1-0.1-0.2-0.3-0.2-0.4c-0.2-0.4-0.4-0.8-0.7-1.2c-0.1-0.2-0.3-0.5-0.4-0.7c-0.3-0.6-0.5-1.1-0.8-1.7
		c-0.2-0.5-0.4-1-0.7-1.5c-0.4-0.9-0.8-1.9-1.1-2.9c0-0.1-0.1-0.3-0.1-0.4c-0.2-0.6-0.4-1.2-0.6-1.8l0,0c0-0.1-0.1-0.3-0.1-0.4
		c-0.1-0.3-0.2-0.6-0.3-1c-0.1-0.3-0.2-0.6-0.3-0.9c0-0.2-0.1-0.3-0.1-0.5c0-0.2-0.1-0.4-0.2-0.6c-0.1-0.4-0.2-0.8-0.3-1.1
		c-0.1-0.3-0.1-0.6-0.2-0.9l0,0c-0.1-0.3-0.1-0.6-0.2-0.9c0-0.1,0-0.2-0.1-0.3c-0.1-0.3-0.1-0.5-0.2-0.8c-0.1-0.3-0.1-0.7-0.2-1l0,0
		L129.3,92.6L129.3,92.6 M150.5,51.2c-1.1,0-2.2,0.1-3.4,0.3c-2.7,0.5-5.1,1.5-7.3,3c0.2,0.4,0.3,0.8,0.5,1.2
		c0.1-0.1,0.2-0.1,0.3-0.2c0.2-0.1,0.4-0.3,0.6-0.4c0.4-0.2,0.7-0.4,1.1-0.6c0.1-0.1,0.3-0.1,0.4-0.2c1.5-0.7,3-1.2,4.7-1.5
		c0.2,0,0.4-0.1,0.6-0.1l0.1,0l0,0c0.4-0.1,0.9-0.1,1.3-0.1c0.4,0,0.8,0,1.3,0c0.5,0,1,0,1.4,0.1l0,0c0.7,0.1,1.3,0.1,2,0.3l0,0
		c0.3,0.1,0.7,0.1,1,0.2c0.1,0,0.2,0.1,0.3,0.1c0.5,0.1,0.9,0.3,1.4,0.4c0.6,0.2,1.3,0.5,1.9,0.7l0,0c0.1,0,0.2,0.1,0.3,0.1
		c0.5,0.2,1,0.5,1.5,0.7l0.1,0.1c1.4,0.7,2.7,1.6,4,2.6l0,0c0.2,0,0.5,0,0.7,0c0.3,0,0.7,0,1,0C161.6,53.6,156.1,51.2,150.5,51.2"/>
	<path id="XMLID_918_" class="st27" d="M163.7,129.4c-1,0.2-2,0.2-3,0.2c-0.3,0-0.5,0-0.8,0l-0.2,0c0.3,0,0.7,0,1,0
		C161.7,129.7,162.7,129.6,163.7,129.4 M163.7,129.4L163.7,129.4L163.7,129.4 M164,129.4L164,129.4L164,129.4L164,129.4 M166,128.9
		l-0.1,0c-0.6,0.2-1.3,0.3-1.9,0.5C164.7,129.3,165.4,129.1,166,128.9 M166.6,128.7l-0.1,0l-0.1,0L166.6,128.7 M153.5,128.3
		c1.6,0.6,3.2,1,4.8,1.2c-0.3,0-0.7-0.1-1-0.2C156,129.1,154.7,128.8,153.5,128.3 M168.7,127.8c-0.1,0.1-0.2,0.1-0.3,0.2
		c-0.2,0.1-0.4,0.2-0.6,0.3c-0.1,0.1-0.3,0.1-0.4,0.2C167.9,128.2,168.3,128,168.7,127.8 M169.2,127.6L169.2,127.6l-0.2,0.1
		L169.2,127.6 M170,127.1c-0.1,0.1-0.2,0.1-0.4,0.2l-0.1,0.1C169.6,127.3,169.8,127.2,170,127.1 M170.3,126.9L170.3,126.9l-0.2,0.1
		L170.3,126.9 M173.3,124.7L173.3,124.7c-0.2,0.2-0.3,0.3-0.5,0.4c-0.2,0.1-0.3,0.3-0.5,0.4c-0.2,0.1-0.3,0.3-0.5,0.4
		c-0.3,0.2-0.6,0.5-1,0.7C171.6,126,172.5,125.4,173.3,124.7L173.3,124.7 M142.9,121.1c1.9,1.9,3.8,3.5,5.9,4.8
		c-1.9-1.2-3.7-2.7-5.5-4.4C143.1,121.3,143,121.2,142.9,121.1 M141.6,119.7c0.2,0.3,0.5,0.5,0.7,0.8l-0.2-0.2
		c-0.1-0.2-0.3-0.3-0.4-0.5L141.6,119.7 M139.5,117.3c0.5,0.6,0.9,1.2,1.4,1.8c-0.4-0.4-0.7-0.8-1-1.3
		C139.8,117.6,139.7,117.4,139.5,117.3 M135.9,111.9c0.2,0.3,0.3,0.5,0.5,0.8C136.3,112.4,136.1,112.1,135.9,111.9 M135,110.2
		c0.2,0.4,0.4,0.8,0.7,1.2c-0.1-0.1-0.1-0.2-0.2-0.3C135.4,110.8,135.2,110.5,135,110.2 M132.1,103.4c0.4,1,0.7,2,1.1,2.9
		C132.8,105.4,132.4,104.5,132.1,103.4L132.1,103.4 M131.3,101.3c0.2,0.6,0.4,1.2,0.6,1.8c0-0.1-0.1-0.2-0.1-0.3
		c-0.1-0.2-0.1-0.4-0.2-0.6c0-0.1-0.1-0.2-0.1-0.3C131.4,101.7,131.4,101.5,131.3,101.3L131.3,101.3 M131.2,100.8
		c0,0.1,0.1,0.3,0.1,0.4l0,0C131.3,101.1,131.2,100.9,131.2,100.8 M132,91.8c-0.6,0.2-1.1,0.4-1.7,0.6c0.1,0.4,0.1,0.8,0.2,1.1
		c2.5,11.5,8.5,21.1,15.7,26.3c-0.3-0.2-0.5-0.5-0.8-0.7l0,0l0,0c-0.2-0.2-0.5-0.4-0.7-0.7l-0.1-0.1c-0.1-0.1-0.3-0.2-0.4-0.4
		c-0.1-0.1-0.2-0.2-0.3-0.3l0,0c-1.1-1.1-2.1-2.3-3-3.6c-0.1-0.1-0.2-0.3-0.3-0.4c-0.1-0.2-0.2-0.3-0.4-0.5l-0.1-0.1
		c-0.2-0.2-0.3-0.5-0.5-0.7l-0.2-0.2c-0.2-0.3-0.4-0.6-0.6-0.9c-0.4-0.6-0.7-1.2-1.1-1.8c-0.1-0.2-0.2-0.4-0.3-0.6
		c-0.2-0.4-0.4-0.8-0.6-1.2c0-0.1-0.1-0.2-0.1-0.3c-0.8-1.6-1.5-3.3-2.2-5c-0.1-0.2-0.2-0.4-0.2-0.6l-0.1-0.2c0-0.1-0.1-0.2-0.1-0.3
		l-0.1-0.2c0-0.1-0.1-0.3-0.1-0.4c-0.2-0.5-0.3-0.9-0.4-1.4c-0.4-1.3-0.7-2.5-1-3.8C132.4,94.1,132.2,92.9,132,91.8 M160.8,55.2
		l0.2,0.1c0.2,0.1,0.3,0.2,0.5,0.3c0.2,0.1,0.4,0.2,0.5,0.3c0.7,0.4,1.3,0.8,2,1.3c0.1,0.1,0.3,0.2,0.4,0.3c0.2,0.1,0.3,0.2,0.5,0.3
		l0,0C163.5,56.8,162.2,55.9,160.8,55.2 M141.2,55.2c-0.2,0.1-0.4,0.3-0.6,0.4l0.1,0C140.8,55.4,141,55.3,141.2,55.2 M149.3,54.5
		c-1,0-1.9,0.1-2.9,0.3c-2,0.4-3.9,1.1-5.6,2.2c0.3,1,0.6,1.9,0.8,2.9l0.1,0c0.2-0.2,0.4-0.3,0.6-0.4c0.1-0.1,0.3-0.2,0.4-0.3
		l0.2-0.1l0.1,0l0,0l0.1,0c0.2-0.1,0.3-0.2,0.5-0.3l0.1-0.1l0,0c0.2-0.1,0.4-0.2,0.6-0.3l0.1,0l0.1-0.1c0.2-0.1,0.4-0.2,0.6-0.3
		l0.1,0l0,0c0.2-0.1,0.3-0.1,0.5-0.2l0.1,0c0.3-0.1,0.5-0.2,0.8-0.3l0.2-0.1l0,0c0.2-0.1,0.3-0.1,0.5-0.1l0.1,0l0.1,0
		c0.2-0.1,0.5-0.1,0.7-0.1l0,0l0,0c0.3,0,0.5-0.1,0.8-0.1l0,0l0.1,0l0.1,0c0.2,0,0.4,0,0.5-0.1c0.3,0,0.7-0.1,1-0.1l0.3,0
		c0.2,0,0.3,0,0.5,0c0.2,0,0.5,0,0.7,0l0.2,0c0.2,0,0.5,0,0.7,0.1l0.1,0c0.2,0,0.5,0.1,0.7,0.1l0,0c0.1,0,0.2,0,0.4,0.1
		c0.2,0,0.4,0.1,0.7,0.1c0.3,0.1,0.7,0.2,1,0.3c0.2,0.1,0.4,0.1,0.7,0.2c0.9,0.3,1.7,0.6,2.6,1l0.3,0.1l0,0l0.1,0.1l0,0
		c0.4-0.1,0.7-0.2,1.1-0.3C157.2,55.9,153.2,54.5,149.3,54.5 M159.1,54.4c0.4,0.2,0.9,0.4,1.3,0.7l0.2,0.1
		C160.2,54.8,159.7,54.6,159.1,54.4 M142.7,54.3c-0.1,0.1-0.3,0.1-0.4,0.2l0.1,0C142.5,54.4,142.6,54.4,142.7,54.3 M155.5,53.1
		l0.2,0c0.2,0,0.3,0.1,0.5,0.1l0,0c0.2,0.1,0.4,0.1,0.6,0.2l0,0C156.4,53.3,155.9,53.2,155.5,53.1 M154.2,52.8L154.2,52.8
		c0.3,0.1,0.4,0.1,0.6,0.1c0.1,0,0.3,0.1,0.4,0.1C154.8,52.9,154.5,52.9,154.2,52.8 M148.1,52.6l-0.1,0L148.1,52.6L148.1,52.6
		 M152.1,52.5L152.1,52.5c0.2,0,0.3,0,0.5,0.1c0.1,0,0.2,0,0.3,0c0.2,0,0.3,0,0.5,0.1l0.1,0c0.2,0,0.4,0.1,0.6,0.1l0.1,0
		C153.5,52.7,152.8,52.6,152.1,52.5 M150.7,52.5c-0.4,0-0.8,0-1.3,0l0,0c0.2,0,0.5,0,0.7,0C150.3,52.5,150.5,52.5,150.7,52.5
		L150.7,52.5l0.2,0c0.1,0,0.3,0,0.4,0l0.1,0l0.2,0c0.2,0,0.4,0,0.5,0l0,0l0,0C151.6,52.5,151.1,52.5,150.7,52.5"/>
	<path id="XMLID_947_" class="st28" d="M158.3,129.5c0.1,0,0.2,0,0.3,0c0.4,0,0.8,0.1,1.2,0.1C159.3,129.6,158.8,129.6,158.3,129.5
		 M163.7,129.4L163.7,129.4L163.7,129.4 M164,129.4l-0.3,0L164,129.4L164,129.4 M164,129.4L164,129.4L164,129.4 M166.4,128.8
		c-0.1,0-0.2,0.1-0.4,0.1C166.2,128.8,166.3,128.8,166.4,128.8 M167.4,128.4c-0.2,0.1-0.5,0.2-0.8,0.3c0.2-0.1,0.4-0.1,0.6-0.2
		L167.4,128.4 M169,127.7l-0.3,0.1L169,127.7 M169.5,127.4l-0.2,0.1L169.5,127.4 M170.1,127l-0.1,0.1L170.1,127 M170.8,126.6
		c-0.2,0.1-0.3,0.2-0.5,0.3C170.4,126.8,170.6,126.7,170.8,126.6L170.8,126.6 M148.7,125.9c1.5,1,3.1,1.8,4.7,2.4
		C151.8,127.7,150.3,126.9,148.7,125.9 M142.3,120.5c0.1,0.1,0.2,0.3,0.4,0.4l0.2,0.2C142.7,120.9,142.5,120.7,142.3,120.5 M141,119
		L141,119c0.2,0.3,0.4,0.5,0.6,0.7C141.4,119.5,141.2,119.3,141,119 M136.4,112.6L136.4,112.6c0.5,0.8,1,1.6,1.5,2.3
		c0.5,0.8,1.1,1.6,1.7,2.3C138.4,115.8,137.4,114.3,136.4,112.6 M135.7,111.4c0.1,0.1,0.2,0.3,0.2,0.4
		C135.9,111.7,135.8,111.6,135.7,111.4 M133.2,106.3c0.2,0.5,0.4,1,0.7,1.5c0.3,0.6,0.5,1.1,0.8,1.7c0.1,0.2,0.2,0.5,0.4,0.7
		C134.4,109,133.8,107.7,133.2,106.3 M131.9,103c0,0.1,0.1,0.3,0.1,0.4C132,103.3,132,103.2,131.9,103 M131.3,101.2L131.3,101.2
		L131.3,101.2 M129.3,92.6L129.3,92.6l0,0.2l0,0c0.1,0.3,0.1,0.7,0.2,1c0.1,0.3,0.1,0.5,0.2,0.8c0,0.1,0,0.2,0.1,0.3
		c0.1,0.3,0.1,0.6,0.2,0.9l0,0c0.1,0.3,0.1,0.6,0.2,0.9c0.1,0.4,0.2,0.8,0.3,1.1c0,0.2,0.1,0.4,0.2,0.6c0,0.2,0.1,0.3,0.1,0.5
		c0.1,0.3,0.2,0.6,0.3,0.9c0.1,0.3,0.2,0.6,0.3,1c-0.5-1.6-1-3.3-1.3-5.1C129.6,94.7,129.4,93.6,129.3,92.6 M140.6,55.6
		c-0.1,0.1-0.2,0.1-0.3,0.2l0,0C140.4,55.7,140.5,55.6,140.6,55.6 M160.7,55.1l0.1,0.1L160.7,55.1 M142.3,54.5
		c-0.4,0.2-0.8,0.4-1.1,0.6C141.6,54.9,141.9,54.7,142.3,54.5 M156.9,53.5c0.8,0.2,1.5,0.5,2.3,0.9c-0.1-0.1-0.2-0.1-0.3-0.1l0,0
		C158.2,53.9,157.5,53.7,156.9,53.5 M155.2,53c0.1,0,0.2,0.1,0.3,0.1C155.4,53.1,155.3,53,155.2,53 M154.2,52.8L154.2,52.8
		L154.2,52.8 M148,52.7c-0.2,0-0.4,0.1-0.6,0.1c-1.7,0.3-3.2,0.8-4.7,1.5c1.5-0.7,3-1.2,4.7-1.5C147.6,52.7,147.8,52.7,148,52.7
		 M152.1,52.5L152.1,52.5L152.1,52.5 M149.4,52.5c-0.4,0-0.9,0.1-1.3,0.1l0,0C148.6,52.6,149,52.5,149.4,52.5"/>
	<path id="XMLID_950_" class="st29" d="M130.3,92.4c-0.3,0.1-0.7,0.2-1,0.2l0,0c0.2,1.1,0.4,2.1,0.6,3.2c0.4,1.7,0.8,3.4,1.3,5.1
		c0,0.1,0.1,0.2,0.1,0.4l0,0l0,0l0,0c0.1,0.2,0.1,0.4,0.2,0.5c0,0.1,0.1,0.2,0.1,0.3c0.1,0.2,0.1,0.4,0.2,0.6c0,0.1,0.1,0.2,0.1,0.3
		c0,0.1,0.1,0.3,0.1,0.4l0,0.1c0.4,1,0.7,1.9,1.1,2.8c0.6,1.3,1.2,2.6,1.8,3.9c0.2,0.3,0.3,0.6,0.5,0.9c0.1,0.1,0.1,0.2,0.2,0.3
		c0.1,0.1,0.2,0.3,0.2,0.4c0.2,0.3,0.3,0.5,0.5,0.8c1,1.6,2,3.2,3.1,4.6c0.1,0.2,0.3,0.3,0.4,0.5c0.3,0.4,0.7,0.8,1,1.3
		c0.2,0.2,0.4,0.5,0.6,0.7l0.1,0.1c0.1,0.2,0.3,0.3,0.4,0.5l0.2,0.2c0.2,0.2,0.4,0.4,0.5,0.6c0.1,0.1,0.3,0.3,0.4,0.4
		c1.7,1.7,3.6,3.2,5.5,4.4c1.5,1,3.1,1.8,4.7,2.4c1.3,0.5,2.5,0.8,3.8,1.1c0.3,0.1,0.7,0.1,1,0.2c0.5,0.1,1,0.1,1.5,0.1l0.2,0
		c0.3,0,0.5,0,0.8,0c1,0,2-0.1,3-0.2l0,0l0,0l0.3,0l0,0l0,0c0.7-0.1,1.3-0.3,1.9-0.5l0.1,0c0.1,0,0.2-0.1,0.4-0.1l0.1,0l0.1,0
		c0.3-0.1,0.5-0.2,0.8-0.3c0.1-0.1,0.3-0.1,0.4-0.2c0.2-0.1,0.4-0.2,0.6-0.3c0.1-0.1,0.2-0.1,0.3-0.2l0.3-0.1l0.1-0.1l0.1,0l0.2-0.1
		l0.1-0.1c0.1-0.1,0.2-0.1,0.4-0.2l0.1-0.1l0.1,0l0.1-0.1c0.2-0.1,0.3-0.2,0.5-0.3c0.3-0.2,0.6-0.4,1-0.7c0.2-0.1,0.4-0.3,0.5-0.4
		c0.2-0.1,0.3-0.3,0.5-0.4c0.2-0.1,0.3-0.3,0.5-0.4c-0.5-0.2-1.1-0.5-1.6-0.8c-0.7-0.4-1.4-0.8-2.1-1.3l0,0
		c-0.3,0.2-0.6,0.4-0.9,0.6l0,0l-0.1,0.1c-0.7,0.4-1.4,0.8-2.1,1.1c-0.2,0.1-0.3,0.1-0.5,0.2l-0.2,0.1c-0.9,0.3-1.7,0.6-2.7,0.7
		c-0.3,0-0.5,0.1-0.8,0.1l-0.1,0c-0.2,0-0.4,0-0.6,0.1l-0.1,0c-0.4,0-0.7,0-1.1,0l-0.2,0l-0.1,0c-0.2,0-0.3,0-0.5,0
		c-0.6,0-1.2-0.1-1.9-0.2l0,0l-0.1,0c-0.6-0.1-1.1-0.2-1.7-0.3c-0.2,0-0.3-0.1-0.5-0.1c-0.5-0.1-1-0.3-1.4-0.5l-0.1,0
		c-2-0.7-4-1.8-5.9-3.2l0,0l0,0c-0.6-0.4-1.2-0.9-1.8-1.4c-7.2-5.2-13.2-14.7-15.7-26.3C130.4,93.1,130.3,92.7,130.3,92.4
		 M150.7,52.5l-0.1,0c-0.2,0-0.3,0-0.5,0c-0.2,0-0.5,0-0.7,0l0,0c-0.4,0-0.9,0.1-1.3,0.1l0,0l-0.1,0c-0.2,0-0.4,0.1-0.6,0.1
		c-1.7,0.3-3.2,0.8-4.7,1.5c-0.1,0.1-0.2,0.1-0.4,0.2l-0.1,0c-0.4,0.2-0.8,0.4-1.1,0.6c-0.2,0.1-0.3,0.2-0.5,0.3l-0.1,0
		c-0.1,0.1-0.2,0.1-0.3,0.2l0,0c0.1,0.4,0.3,0.8,0.4,1.2c1.7-1.1,3.6-1.8,5.6-2.2c1-0.2,1.9-0.3,2.9-0.3c4,0,7.9,1.4,11.6,3.9
		c1.3-0.4,2.6-0.6,4-0.6c-0.2-0.1-0.3-0.2-0.5-0.3c-0.1-0.1-0.3-0.2-0.4-0.3c-0.6-0.5-1.3-0.9-2-1.3c-0.2-0.1-0.4-0.2-0.5-0.3
		c-0.2-0.1-0.4-0.2-0.5-0.3l-0.2-0.1l-0.1-0.1l-0.2-0.1c-0.4-0.2-0.9-0.5-1.3-0.7c-0.8-0.3-1.5-0.6-2.3-0.9l0,0
		c-0.2-0.1-0.4-0.1-0.6-0.2l0,0c-0.2,0-0.3-0.1-0.5-0.1l-0.2,0c-0.1,0-0.2-0.1-0.3-0.1c-0.1,0-0.3-0.1-0.4-0.1
		c-0.2,0-0.4-0.1-0.5-0.1l-0.1,0l0,0l-0.1,0c-0.2,0-0.4-0.1-0.6-0.1l-0.1,0c-0.2,0-0.3-0.1-0.5-0.1c-0.1,0-0.2,0-0.3,0
		c-0.1,0-0.3,0-0.5,0l0,0l0,0l0,0l0,0c-0.2,0-0.4,0-0.5,0l-0.2,0l-0.1,0c-0.1,0-0.3,0-0.4,0L150.7,52.5"/>
	<path id="XMLID_988_" class="st30" d="M161.5,125.5L161.5,125.5c-0.2,0-0.5,0-0.7,0c-0.1,0-0.2,0-0.4,0
		C160.8,125.5,161.1,125.5,161.5,125.5 M162.2,125.4l-0.1,0c-0.1,0-0.3,0-0.4,0l-0.1,0C161.8,125.5,162,125.4,162.2,125.4
		 M157.7,125.4c0.6,0.1,1.2,0.2,1.9,0.2l-0.1,0c-0.2,0-0.3,0-0.5,0c-0.2,0-0.4,0-0.5,0C158.2,125.4,158,125.4,157.7,125.4
		L157.7,125.4 M156,125c0.5,0.1,1.1,0.2,1.7,0.3c-0.2,0-0.4-0.1-0.7-0.1c-0.3-0.1-0.6-0.1-0.8-0.2L156,125 M165.7,124.6
		c-0.2,0.1-0.3,0.1-0.5,0.2c-0.2,0.1-0.5,0.2-0.7,0.2c-0.2,0.1-0.4,0.1-0.6,0.2c-0.3,0.1-0.6,0.1-0.9,0.2c-0.2,0-0.4,0.1-0.7,0.1
		l-0.1,0c0.3,0,0.5-0.1,0.8-0.1C164,125.1,164.9,124.9,165.7,124.6 M154,124.4c0.5,0.2,1,0.3,1.4,0.5l-0.2,0
		c-0.4-0.1-0.8-0.2-1.2-0.4L154,124.4 M168.5,123.2c-0.2,0.1-0.4,0.2-0.6,0.3c-0.2,0.1-0.4,0.2-0.6,0.3c-0.3,0.2-0.6,0.3-1,0.4
		C167.2,124,167.9,123.6,168.5,123.2 M169.6,122.5L169.6,122.5c-0.3,0.2-0.6,0.4-0.9,0.6C169,122.9,169.3,122.7,169.6,122.5
		L169.6,122.5 M148,121.2c1.9,1.4,3.9,2.5,5.9,3.2c-0.1,0-0.2-0.1-0.3-0.1c-0.1-0.1-0.3-0.1-0.4-0.2c-0.2-0.1-0.3-0.1-0.5-0.2
		c-0.3-0.1-0.6-0.2-0.8-0.4c-0.3-0.1-0.5-0.3-0.8-0.4c-0.3-0.1-0.5-0.3-0.8-0.5c-0.3-0.2-0.5-0.3-0.8-0.5c-0.3-0.2-0.5-0.4-0.8-0.5
		C148.5,121.5,148.3,121.4,148,121.2L148,121.2 M145.4,119c0.3,0.2,0.5,0.5,0.8,0.7c0.6,0.5,1.2,1,1.8,1.4c-0.2-0.1-0.3-0.2-0.5-0.4
		c-0.3-0.2-0.5-0.4-0.8-0.6c-0.1-0.1-0.3-0.2-0.4-0.4l0,0l0,0l0,0C146,119.5,145.8,119.3,145.4,119L145.4,119 M144.7,118.3
		c0.2,0.2,0.5,0.5,0.7,0.7C145.1,118.8,144.9,118.5,144.7,118.3L144.7,118.3 M144.2,117.9c0.1,0.1,0.2,0.3,0.4,0.4l0,0
		C144.5,118.1,144.4,118,144.2,117.9 M140.9,113.9c1,1.3,2,2.5,3,3.6l-0.1-0.1c-0.2-0.2-0.4-0.5-0.6-0.7l0,0
		c-0.2-0.2-0.4-0.4-0.6-0.6c-0.1-0.1-0.3-0.3-0.4-0.4c-0.2-0.2-0.3-0.4-0.5-0.6c-0.2-0.3-0.5-0.6-0.7-0.9L140.9,113.9 M139.7,112.2
		c0.2,0.2,0.3,0.5,0.5,0.7c-0.1-0.2-0.3-0.4-0.4-0.5L139.7,112.2 M138.9,111.1c0.2,0.3,0.4,0.6,0.6,0.9l-0.2-0.2
		C139.2,111.5,139.1,111.3,138.9,111.1 M137.5,108.7c0.1,0.2,0.2,0.4,0.3,0.6c-0.1-0.1-0.1-0.2-0.2-0.3
		C137.6,108.9,137.6,108.8,137.5,108.7 M134.6,102.2c0.6,1.7,1.4,3.4,2.2,5c-0.1-0.2-0.2-0.4-0.3-0.6c-0.1-0.3-0.3-0.6-0.4-0.9
		c-0.2-0.4-0.3-0.7-0.5-1.1c-0.2-0.4-0.3-0.7-0.5-1.1c-0.1-0.4-0.3-0.8-0.4-1.1L134.6,102.2 M134.3,101.4l0.1,0.2L134.3,101.4
		L134.3,101.4 M134.2,100.9l0.1,0.2l0,0L134.2,100.9 M133.6,99.1c0.1,0.5,0.3,1,0.4,1.4c0-0.1-0.1-0.2-0.1-0.4
		C133.8,99.8,133.7,99.4,133.6,99.1 M134.9,90.1c-0.6,0.5-1.3,0.9-2,1.2c0.1,0.3,0.1,0.6,0.2,1c3.3,15.2,13.7,26.3,24,26.3
		c0.8,0,1.7-0.1,2.5-0.2c1.4-0.3,2.7-0.7,3.9-1.3c-0.5-0.5-1-1.1-1.4-1.7l-2.6,0.6l-1.4,0.3l-0.1,0l0,0c-0.1,0-0.2,0-0.3,0l-0.2,0
		l-0.1,0l0,0c-0.1,0-0.2,0-0.3,0l0,0l-0.2,0l-0.1,0c-0.1,0-0.3-0.1-0.4-0.1l-0.3-0.1c-0.1-0.1-0.2-0.1-0.3-0.2l-0.1-0.1
		c-0.1-0.1-0.2-0.2-0.3-0.3c-0.1-0.1-0.3-0.3-0.4-0.4c-0.2-0.2-0.4-0.5-0.6-0.7c-0.1-0.2-0.2-0.3-0.3-0.5c-0.1-0.1-0.2-0.3-0.2-0.5
		c0-0.1-0.1-0.2-0.1-0.3c-0.1-0.2-0.1-0.3-0.2-0.5l0-0.1c-0.1-0.3-0.2-0.5-0.2-0.8l0-0.1l0-0.1c0-0.1,0-0.3-0.1-0.4l0-0.2
		c0-0.4-0.1-0.8,0-1.2l0-0.1c0-0.1,0-0.3,0-0.4l0-0.1l0-0.2c0-0.1,0-0.2,0.1-0.3c-1.1-0.5-2.2-1.3-3.2-2.1l0,0
		c-0.1,0.2-0.1,0.4-0.2,0.6l0,0.1c-0.2,0.3-0.4,0.6-0.6,0.9l0,0L149,108c-0.2,0.2-0.3,0.3-0.5,0.4l0,0l0,0c-0.3,0.2-0.7,0.3-1.1,0.4
		l0,0l0,0c-0.1,0-0.2,0-0.3,0c-1.3,0-2.6-0.9-3.6-2.7l-0.1-0.3l-2.3-4.8l0,0l0,0C138.5,98.2,136.3,94.5,134.9,90.1 M141.6,59.8
		L141.6,59.8L141.6,59.8L141.6,59.8 M142.7,59.1c-0.1,0.1-0.3,0.2-0.4,0.3l0,0C142.4,59.2,142.5,59.1,142.7,59.1 M143,58.9L143,58.9
		L143,58.9 M159.7,58.7L159.7,58.7l0.1,0.1L159.7,58.7 M149.3,58.7c-0.8,0-1.7,0.1-2.5,0.2c-1.8,0.3-3.5,1-5,1.9
		c0.1,0.6,0.3,1.2,0.4,1.9c0.6-0.3,1.3-0.5,2-0.6c0.6-0.1,1.2-0.2,1.9-0.2c2.2,0,4.5,0.7,6.6,2l0,0c0.9-1.1,1.9-2.1,3-2.9
		c0.3-0.2,0.5-0.4,0.8-0.6C154.1,59.3,151.7,58.7,149.3,58.7 M143.7,58.5l-0.1,0.1L143.7,58.5L143.7,58.5 M144.5,58.1l-0.1,0.1l0,0
		L144.5,58.1 M145.2,57.8L145.2,57.8L145.2,57.8L145.2,57.8 M156.8,57.5c0.4,0.1,0.9,0.3,1.3,0.5c0.2,0.1,0.4,0.2,0.5,0.2
		c0.1,0.1,0.3,0.1,0.4,0.2c0.1,0,0.2,0.1,0.3,0.2C158.5,58.2,157.7,57.8,156.8,57.5 M145.8,57.5l-0.1,0L145.8,57.5L145.8,57.5
		 M146.9,57.2L146.9,57.2L146.9,57.2L146.9,57.2 M147.6,57L147.6,57L147.6,57L147.6,57 M154.5,56.9c0.2,0,0.3,0.1,0.5,0.1l0.2,0
		C154.9,57,154.7,57,154.5,56.9 M149.1,56.7L149.1,56.7L149.1,56.7L149.1,56.7 M149.3,56.7L149.3,56.7L149.3,56.7L149.3,56.7
		 M152.3,56.6l0.1,0l0.1,0L152.3,56.6"/>
	<path id="XMLID_991_" class="st31" d="M140.3,83.5c-1.4,2.8-3.2,5.1-5.4,6.6l0,0c1.4,4.4,3.6,8.2,6.2,11l-1.1-2.3l-0.7-1.5
		c-0.8-1.7-1-3.5-0.6-4.9l0.1-0.2l0,0c0.1-0.4,0.2-0.7,0.4-1l0,0l0.1-0.1l0-0.1l0,0c0.1-0.1,0.1-0.2,0.2-0.3l0.1-0.1
		c0.1-0.2,0.3-0.3,0.4-0.5l0.1-0.1l0,0l0,0c0.1-0.1,0.3-0.2,0.4-0.3l0.1,0l0,0c0.2-0.1,0.3-0.1,0.5-0.2c0.1,0,0.2-0.1,0.3-0.1l0,0
		c-0.3-1.8-0.3-3.6-0.3-5.2c-0.2-0.1-0.3-0.3-0.5-0.4l0,0l0,0L140.3,83.5 M146.1,61.9c-0.6,0-1.2,0.1-1.9,0.2
		c-0.7,0.1-1.4,0.3-2,0.6l0,0c0.4,2.1,0.6,4.3,0.7,6.4l0.2-0.3c0.3-0.5,0.7-0.9,1.1-1.2c0.4-0.3,0.9-0.4,1.3-0.4
		c0.6,0,1.2,0.2,1.8,0.6l0.1,0.1l0.1,0.1l0.1,0.1c0.2,0.1,0.3,0.3,0.5,0.5l0,0l0,0c0.2,0.2,0.4,0.5,0.6,0.8c0.2-0.1,0.5-0.2,0.8-0.3
		l0,0c0.8-1.9,1.9-3.7,3.1-5.2C150.5,62.6,148.3,61.9,146.1,61.9"/>
	<path id="XMLID_1006_" class="st32" d="M142.3,59.3c-0.2,0.1-0.4,0.3-0.6,0.4C141.8,59.6,142,59.5,142.3,59.3 M143,58.9L143,58.9
		l-0.3,0.2C142.8,59,142.9,58.9,143,58.9 M159.4,58.6c0.1,0,0.2,0.1,0.3,0.1l0,0L159.4,58.6 M143.6,58.5c-0.2,0.1-0.3,0.2-0.5,0.3
		l-0.1,0C143.2,58.7,143.4,58.6,143.6,58.5 M144.4,58.1L144.4,58.1c-0.3,0.1-0.5,0.2-0.7,0.3l0,0C143.9,58.4,144.2,58.2,144.4,58.1
		 M145.2,57.8L145.2,57.8c-0.3,0.1-0.5,0.2-0.7,0.3C144.7,58,145,57.9,145.2,57.8 M145.7,57.6c-0.2,0.1-0.3,0.1-0.5,0.2
		C145.4,57.7,145.6,57.6,145.7,57.6 M146.8,57.2l-0.2,0.1c-0.3,0.1-0.5,0.2-0.8,0.3C146.2,57.4,146.5,57.3,146.8,57.2 M155.1,57.1
		c0.6,0.1,1.1,0.3,1.7,0.5c-0.2-0.1-0.4-0.1-0.7-0.2C155.8,57.2,155.5,57.1,155.1,57.1 M147.5,57l-0.1,0c-0.2,0-0.4,0.1-0.5,0.1
		C147.1,57.1,147.3,57.1,147.5,57 M149.1,56.7c-0.3,0-0.5,0.1-0.8,0.1l0,0l0,0c-0.2,0-0.5,0.1-0.7,0.1c0.2-0.1,0.5-0.1,0.7-0.1
		C148.6,56.8,148.8,56.8,149.1,56.7 M149.2,56.7L149.2,56.7L149.2,56.7 M152.5,56.7c0.6,0.1,1.3,0.1,1.9,0.3c-0.1,0-0.2,0-0.4-0.1
		l0,0c-0.2,0-0.5-0.1-0.7-0.1l-0.1,0C153,56.7,152.8,56.7,152.5,56.7 M151.1,56.6l-0.3,0c-0.3,0-0.7,0-1,0.1c-0.2,0-0.4,0-0.5,0.1
		C149.9,56.6,150.6,56.6,151.1,56.6c0.5,0,0.8,0,1.2,0c-0.2,0-0.5,0-0.7,0C151.4,56.6,151.3,56.6,151.1,56.6"/>
	<path id="XMLID_1007_" class="st32" d="M132,91.8L132,91.8c0.2,1.2,0.4,2.3,0.6,3.5c0.3,1.3,0.6,2.6,1,3.8c-0.4-1.2-0.7-2.5-1-3.8
		C132.4,94.1,132.2,92.9,132,91.8"/>
	<path id="XMLID_1015_" class="st32" d="M140.2,112.9L140.2,112.9c0.2,0.3,0.3,0.4,0.4,0.6c0.1,0.1,0.2,0.3,0.3,0.4
		C140.6,113.6,140.4,113.3,140.2,112.9 M139.5,112l0.2,0.2L139.5,112 M137.9,109.3c0.3,0.6,0.7,1.2,1.1,1.8
		C138.6,110.5,138.2,109.9,137.9,109.3 M136.8,107.2c0,0.1,0.1,0.2,0.1,0.3c0.2,0.4,0.4,0.8,0.6,1.2
		C137.3,108.2,137,107.7,136.8,107.2 M134.4,101.6c0.1,0.2,0.1,0.4,0.2,0.6C134.6,102,134.5,101.8,134.4,101.6 M134.2,101.1
		c0,0.1,0.1,0.2,0.1,0.3C134.3,101.3,134.3,101.2,134.2,101.1 M134,100.5c0,0.1,0.1,0.3,0.1,0.4C134.1,100.8,134.1,100.7,134,100.5"
		/>
	<path id="XMLID_1019_" class="st32" d="M145.4,119L145.4,119L145.4,119L145.4,119 M144.6,118.2L144.6,118.2L144.6,118.2
		 M143.9,117.5L143.9,117.5c0.1,0.1,0.2,0.2,0.3,0.3C144.1,117.7,144,117.6,143.9,117.5"/>
	<path id="XMLID_1029_" class="st33" d="M159.6,125.5c0.2,0,0.3,0,0.5,0l0.1,0l0.2,0l-0.2,0C160,125.5,159.8,125.5,159.6,125.5
		 M161.6,125.5l-0.1,0L161.6,125.5 M162.3,125.4l-0.1,0L162.3,125.4 M157.6,125.3L157.6,125.3L157.6,125.3L157.6,125.3 M155.5,124.9
		c0.2,0,0.3,0.1,0.5,0.1C155.8,125,155.6,124.9,155.5,124.9 M154,124.4L154,124.4L154,124.4 M166.5,124.3c-0.2,0.1-0.5,0.2-0.7,0.3
		l0.2-0.1C166.1,124.4,166.3,124.3,166.5,124.3 M168.6,123.1l-0.1,0.1L168.6,123.1L168.6,123.1 M148,121.2L148,121.2L148,121.2
		L148,121.2"/>
	<path id="XMLID_1032_" class="st34" d="M132.9,91.3c-0.3,0.2-0.6,0.3-0.9,0.4c0.2,1.2,0.4,2.3,0.6,3.5c0.3,1.3,0.6,2.6,1,3.8
		c0.1,0.4,0.2,0.7,0.3,1.1c0,0.1,0.1,0.2,0.1,0.4c0,0.1,0.1,0.3,0.1,0.4l0.1,0.1l0,0c0,0.1,0.1,0.2,0.1,0.3l0,0l0,0.1
		c0.1,0.2,0.1,0.4,0.2,0.6l0.1,0.2c0.1,0.4,0.3,0.8,0.4,1.1c0.2,0.4,0.3,0.7,0.5,1.1c0.2,0.4,0.3,0.7,0.5,1.1
		c0.1,0.3,0.3,0.6,0.4,0.9c0.1,0.2,0.2,0.4,0.3,0.6c0.2,0.5,0.5,1,0.8,1.4c0.1,0.1,0.1,0.2,0.2,0.3c0.1,0.1,0.1,0.2,0.2,0.3
		c0.3,0.6,0.7,1.2,1.1,1.8c0.1,0.2,0.3,0.4,0.4,0.7l0.2,0.2l0.2,0.2l0.1,0.2c0.1,0.2,0.2,0.4,0.4,0.5c0.2,0.3,0.5,0.7,0.7,1l0.1,0.1
		c0.2,0.3,0.4,0.6,0.7,0.9c0.2,0.2,0.3,0.4,0.5,0.6c0.1,0.2,0.2,0.3,0.4,0.4c0.2,0.2,0.4,0.4,0.6,0.6l0,0c0.2,0.2,0.4,0.5,0.6,0.7
		l0.1,0.1c0.1,0.1,0.2,0.2,0.3,0.3c0.1,0.1,0.2,0.2,0.4,0.4l0,0l0.1,0.1l0,0c0.2,0.2,0.5,0.4,0.7,0.6l0.1,0l0.1,0.1
		c0.3,0.2,0.5,0.5,0.8,0.7l0,0l0,0l0,0c0.1,0.1,0.3,0.2,0.4,0.4c0.3,0.2,0.5,0.4,0.8,0.6c0.2,0.1,0.3,0.3,0.5,0.4l0,0l0.1,0.1
		c0.2,0.1,0.4,0.3,0.5,0.4c0.3,0.2,0.5,0.4,0.8,0.5c0.3,0.2,0.5,0.3,0.8,0.5c0.3,0.2,0.5,0.3,0.8,0.5c0.3,0.1,0.5,0.3,0.8,0.4
		c0.3,0.1,0.6,0.3,0.8,0.4c0.2,0.1,0.3,0.1,0.5,0.2c0.1,0.1,0.3,0.1,0.4,0.2c0.1,0,0.2,0.1,0.3,0.1l0.1,0l0.1,0
		c0.4,0.1,0.8,0.3,1.2,0.4l0.2,0c0.2,0,0.3,0.1,0.5,0.1l0.2,0c0.3,0.1,0.6,0.1,0.8,0.2c0.2,0,0.4,0.1,0.7,0.1l0.1,0l0,0
		c0.2,0,0.5,0.1,0.7,0.1c0.2,0,0.4,0,0.5,0c0.2,0,0.3,0,0.5,0l0.1,0c0.2,0,0.4,0,0.6,0l0.2,0c0.1,0,0.2,0,0.4,0c0.2,0,0.4,0,0.7,0
		l0,0l0.1,0l0.1,0c0.1,0,0.3,0,0.4,0l0.1,0l0.1,0l0.1,0c0.2,0,0.4-0.1,0.7-0.1c0.3-0.1,0.6-0.1,0.9-0.2c0.2,0,0.4-0.1,0.6-0.2
		c0.2-0.1,0.5-0.1,0.7-0.2c0.2-0.1,0.3-0.1,0.5-0.2c0.2-0.1,0.5-0.2,0.7-0.3c0.3-0.1,0.6-0.3,1-0.4c0.2-0.1,0.4-0.2,0.6-0.3
		c0.2-0.1,0.4-0.2,0.6-0.3l0.1-0.1c0.3-0.2,0.6-0.4,0.9-0.6c-0.6-0.5-1.3-0.9-1.9-1.5c-1.4-1.2-2.8-2.5-4.1-4
		c-1.2,0.6-2.5,1.1-3.9,1.3c-0.8,0.2-1.7,0.2-2.5,0.2c-10.3,0-20.7-11.1-24-26.3C133,92,133,91.7,132.9,91.3 M151.2,56.6
		c-0.6,0-1.3,0-1.9,0.1l-0.1,0l0,0l-0.1,0l0,0l0,0c-0.3,0-0.5,0.1-0.8,0.1c-0.2,0-0.5,0.1-0.7,0.1l0,0l0,0c-0.2,0.1-0.4,0.1-0.6,0.2
		l0,0l0,0c-0.3,0.1-0.7,0.2-1,0.3l-0.1,0l-0.1,0c-0.2,0.1-0.3,0.1-0.5,0.2l0,0l0,0c-0.2,0.1-0.5,0.2-0.7,0.3l-0.1,0l0,0
		c-0.2,0.1-0.5,0.2-0.7,0.4l-0.1,0l-0.1,0c-0.2,0.1-0.4,0.2-0.6,0.3l0,0c-0.1,0.1-0.2,0.1-0.3,0.2c-0.1,0.1-0.3,0.2-0.4,0.2l0,0
		c-0.2,0.1-0.4,0.3-0.6,0.4l-0.1,0c0.1,0.3,0.2,0.7,0.2,1c1.5-1,3.2-1.6,5-1.9c0.8-0.2,1.7-0.2,2.5-0.2c2.4,0,4.8,0.6,7.2,1.7
		c1.1-0.7,2.2-1.2,3.3-1.6l-0.1-0.1c-0.1,0-0.2-0.1-0.3-0.1c-0.1-0.1-0.2-0.1-0.3-0.2c-0.1-0.1-0.3-0.1-0.4-0.2
		c-0.2-0.1-0.4-0.2-0.5-0.2c-0.4-0.2-0.9-0.3-1.3-0.5c-0.5-0.2-1.1-0.3-1.7-0.5l-0.2,0c-0.2,0-0.3-0.1-0.5-0.1
		c-0.6-0.1-1.3-0.2-1.9-0.3l-0.1,0l-0.1,0C151.9,56.6,151.6,56.6,151.2,56.6"/>
	<path id="XMLID_1033_" class="st35" d="M149.5,69.1c-0.3,0.1-0.5,0.2-0.8,0.3c0.1,0.2,0.3,0.4,0.4,0.6
		C149.2,69.7,149.4,69.4,149.5,69.1"/>
	<path id="XMLID_1034_" class="st31" d="M150,106.3L150,106.3c1,1,2.1,1.7,3.2,2.2l0,0l0.5-2.2c-0.6,0.1-1.2,0.2-1.8,0.2
		C151.2,106.5,150.6,106.4,150,106.3"/>
	<path id="XMLID_1037_" class="st35" d="M151.6,99.4L151.6,99.4L151.6,99.4l-1.4,6.5c0,0.1-0.1,0.3-0.1,0.4l0,0l0,0
		c0.6,0.1,1.2,0.2,1.9,0.2c0.6,0,1.2-0.1,1.8-0.2l0,0l0,0l0.5-2.2l0,0C153.2,102.6,152.4,101,151.6,99.4L151.6,99.4 M141,84.1
		c-0.1,1.7,0,3.4,0.3,5.2l0.1,0l0,0l0.2,0c0.1,0,0.2,0,0.3,0c0.1,0,0.2,0,0.3,0l5.2,1.2l0,0l0,0c-0.4-1.6-0.5-3.2-0.4-4.7l-4.5-1
		l0,0l-0.2,0C141.8,84.7,141.4,84.5,141,84.1"/>
	<path id="XMLID_1038_" class="st36" d="M147,85.9c-0.1,1.5,0,3.1,0.4,4.7l0,0l0.9,0.2c-0.3-0.9-0.5-1.9-0.6-2.8
		c-0.1-0.7-0.2-1.4-0.3-2.1l0,0L147,85.9"/>
	<path id="XMLID_1048_" class="st37" d="M142.5,84.9L142.5,84.9l4.6,1l0.3,0.1l0,0l-0.3-0.1L142.5,84.9L142.5,84.9 M140.5,83.7
		c0.1,0.2,0.3,0.3,0.5,0.4c0.4,0.3,0.8,0.5,1.3,0.7l-0.1,0c-0.1,0-0.2-0.1-0.3-0.1l-0.2-0.1l-0.2-0.1l-0.2-0.1l0,0
		c-0.1-0.1-0.2-0.1-0.3-0.2l-0.2-0.2L140.5,83.7L140.5,83.7 M140.3,83.4L140.3,83.4l0.2,0.2l-0.1-0.1L140.3,83.4 M140.5,82.9
		L140.5,82.9c0,0.1-0.1,0.2-0.1,0.3c0.2,0.2,0.4,0.4,0.6,0.5c0.3,0.2,0.7,0.4,1.1,0.5l4.9,1.1l0.2,0c0-0.2,0-0.4-0.1-0.7l-5.5-1.2
		C141.3,83.4,140.9,83.2,140.5,82.9 M144.8,68.7c-0.7,0-1.3,0.3-1.8,1c0,0.5,0,0.9,0,1.4l0,0c0.3-0.2,0.6-0.2,0.9-0.2
		c0.2,0,0.5,0,0.7,0.1l0.2-1.2l1.1-0.7l1,3.3l-0.9-0.3c0.4,0.5,0.8,1.3,1,2.1l0.5,2.1l0,0c0.2-1.4,0.6-2.8,1-4.1
		c-0.3-0.8-0.6-1.4-1-1.9C146.6,69.2,145.7,68.7,144.8,68.7 M148.2,68.6l0.2,0.2l0.2,0.3c0.1,0.1,0.1,0.2,0.2,0.3
		c0.1,0.2,0.3,0.4,0.4,0.6l0,0c-0.1-0.2-0.2-0.4-0.4-0.6C148.6,69.1,148.4,68.9,148.2,68.6 M147.6,68.1l0.1,0.1l0.2,0.2l0.2,0.2
		C147.9,68.4,147.8,68.3,147.6,68.1 M147.4,68L147.4,68l0.1,0.1L147.4,68 M145.5,67.3c-0.5,0-0.9,0.1-1.3,0.4
		c0.4-0.2,0.7-0.3,1.1-0.4L145.5,67.3L145.5,67.3L145.5,67.3L145.5,67.3L145.5,67.3l0.3,0l0.2,0c0.3,0.1,0.6,0.2,1,0.4l0.1,0.1
		l0.1,0.1l0,0C146.7,67.5,146.1,67.3,145.5,67.3"/>
	<path id="XMLID_1051_" class="st38" d="M143.3,74.9L143.3,74.9l0.9-0.6l0.9,2.9l-2.1-0.8L143.3,74.9 M143.8,70.8
		c-0.3,0-0.6,0.1-0.9,0.2c0,2.1-0.2,4.1-0.6,6l0,0c-0.1,0.6-0.2,1.2-0.4,1.8l0.2-0.1l1,3.3l-1.9-0.7l0,0l0,0.1
		c-0.2,0.5-0.4,1-0.6,1.5c0.3,0.3,0.7,0.5,1.1,0.6l5.5,1.2l0,0l0-0.1c0-0.2,0-0.3,0-0.5l-1.1-0.4l0.3-1.7l0.8-0.5l0,0
		c0-1.8,0.1-3.6,0.4-5.3l-0.5-2.1c-0.2-0.9-0.6-1.6-1-2.1l-1.5-0.5l0.1-0.5C144.3,70.9,144.1,70.8,143.8,70.8"/>
	<path id="XMLID_1057_" class="st39" d="M140.5,83.7L140.5,83.7L140.5,83.7L140.5,83.7 M148.1,68.6L148.1,68.6L148.1,68.6
		L148.1,68.6 M147.5,68L147.5,68L147.5,68 M147.3,67.9l0.1,0.1L147.3,67.9 M144.1,67.6c-0.4,0.3-0.8,0.7-1.1,1.2l-0.2,0.3l0,0l0,0
		l0.2-0.3C143.4,68.3,143.7,67.9,144.1,67.6"/>
	<polyline id="XMLID_1058_" class="st40" points="142.3,84.8 142.5,84.9 142.3,84.8 	"/>
	<path id="XMLID_1061_" class="st41" d="M140.4,83.2l-0.1,0.2l0.1,0.1l0.1,0.1l0,0l0.1,0.1l0.2,0.2l0.2,0.2c0.1,0.1,0.2,0.2,0.3,0.2
		l0,0l0.2,0.1l0.2,0.1l0.2,0.1c0.1,0,0.2,0.1,0.3,0.1l0.1,0l0.2,0l0,0l4.5,1l0.3,0.1c0-0.2,0-0.4-0.1-0.5l-0.2,0l-4.9-1.1
		c-0.4-0.1-0.8-0.3-1.1-0.5C140.8,83.6,140.6,83.4,140.4,83.2 M145.4,67.3L145.4,67.3l-0.2,0c-0.4,0-0.8,0.1-1.1,0.4
		c-0.4,0.3-0.8,0.7-1.1,1.2l-0.2,0.3c0,0.2,0,0.4,0,0.6c0.5-0.7,1.2-1,1.8-1c0.9,0,1.8,0.5,2.6,1.5c0.4,0.5,0.8,1.2,1,1.9
		c0.2-0.7,0.5-1.4,0.7-2.1c-0.1-0.2-0.2-0.4-0.4-0.6c-0.1-0.1-0.1-0.2-0.2-0.3l-0.2-0.3l-0.2-0.2l-0.1-0.1l-0.2-0.2l-0.2-0.2
		l-0.1-0.1l-0.1-0.1l-0.1-0.1l0,0l-0.1-0.1l0,0l-0.1-0.1l-0.1-0.1c-0.3-0.2-0.6-0.3-1-0.4l-0.2,0L145.4,67.3L145.4,67.3L145.4,67.3
		L145.4,67.3"/>
	<path id="XMLID_1062_" class="st27" d="M141.6,80.1c-0.1,0.3-0.2,0.5-0.3,0.8c0,0.1-0.1,0.2-0.1,0.4l1.9,0.7L141.6,80.1"/>
	<path id="XMLID_1063_" class="st42" d="M142.1,78.7l-0.2,0.1l0,0c-0.1,0.4-0.2,0.9-0.4,1.3l0,0l1.5,1.9L142.1,78.7"/>
	<polyline id="XMLID_1064_" class="st27" points="144.7,69.8 144.7,69.8 144.5,71 144.5,71.5 145.9,72 146.8,72.3 144.7,69.8 	"/>
	<polyline id="XMLID_1065_" class="st42" points="145.8,69.1 144.7,69.8 146.8,72.3 145.8,69.1 	"/>
	<polyline id="XMLID_1066_" class="st27" points="143.3,74.9 143.3,74.9 143,76.4 145.1,77.1 143.3,74.9 	"/>
	<polyline id="XMLID_1067_" class="st42" points="144.2,74.3 143.3,74.9 145.1,77.1 144.2,74.3 	"/>
	<path id="XMLID_1068_" class="st27" d="M146.2,82.1L146.2,82.1l-0.3,1.7l1.1,0.4l0,0c0-0.4,0-0.7-0.1-1.1L146.2,82.1"/>
	<path id="XMLID_1069_" class="st42" d="M147,81.5l-0.8,0.5l0.8,1l0,0C147,82.5,147,82,147,81.5L147,81.5"/>
	<path id="XMLID_1085_" class="st37" d="M147.5,108.8L147.5,108.8L147.5,108.8 M148.5,108.4l-0.2,0.1c-0.1,0.1-0.2,0.1-0.3,0.1
		l-0.2,0.1l-0.2,0l-0.2,0C147.8,108.8,148.2,108.6,148.5,108.4 M149,108L149,108c-0.1,0.1-0.2,0.2-0.3,0.3l-0.2,0.1
		C148.7,108.3,148.9,108.2,149,108 M149.7,107l-0.1,0.1l-0.1,0.2l-0.1,0.2c-0.1,0.1-0.2,0.2-0.3,0.4
		C149.4,107.7,149.6,107.4,149.7,107 M150,106.3L150,106.3L150,106.3L150,106.3 M141.1,101.1l2.3,4.8l0.1,0.3l-0.1-0.3L141.1,101.1
		L141.1,101.1 M147.8,92.7L147.8,92.7l-0.8,2.6L150,96c-0.4-1-0.8-2-1.1-3l-0.9-0.2l0,0L147.8,92.7 M138.6,92.3
		c-0.3,1.4-0.2,3.2,0.6,4.9l0.7,1.5l-0.7-1.5C138.5,95.6,138.3,93.8,138.6,92.3 M142.1,91.5c-0.2,0-0.3,0-0.4,0
		c-2.1,0.4-3,3.9-1.6,6.9l1.5,3.1l0,0l2.2,4.5c0.8,1.7,2.1,2.6,3.3,2.6c1.1,0,2.1-0.8,2.6-2.4l0-0.1l0-0.1l1.6-7.3
		c-0.1-0.2-0.2-0.5-0.3-0.7l0,0l-1.8,8.3c-0.3,1.4-1.2,2.1-2.1,2.1c-0.9,0-2-0.7-2.7-2.1l-3-6.2c-0.6-1.3-0.7-2.8-0.4-3.9l-0.8-0.8
		l-0.4-1.8l2.4,0.2l-0.3,1.1c0.3-0.3,0.7-0.4,1.1-0.4c0.1,0,0.3,0,0.4,0.1l3.4,0.8l-1-1l-0.4-1.8l1.5,0.1l0,0l-4.3-1
		C142.5,91.5,142.3,91.5,142.1,91.5 M139.1,91.1c-0.2,0.3-0.3,0.6-0.4,1c0-0.1,0.1-0.2,0.1-0.3c0-0.1,0.1-0.2,0.1-0.3
		C139,91.3,139,91.2,139.1,91.1 M139.2,90.9L139.2,90.9L139.2,90.9 M139.4,90.5l-0.1,0.1L139.4,90.5L139.4,90.5 M139.9,90L139.9,90
		L139.9,90L139.9,90 M140.4,89.7c-0.1,0.1-0.3,0.2-0.4,0.3C140.1,89.9,140.2,89.8,140.4,89.7L140.4,89.7 M140.9,89.4
		c-0.2,0-0.3,0.1-0.5,0.2c0.1,0,0.2-0.1,0.3-0.1L140.9,89.4L140.9,89.4"/>
	<path id="XMLID_1090_" class="st38" d="M147.3,106.4l-1.1-1.2l-0.4-1.8l2.4,0.2L147.3,106.4 M144.4,100.9l-1-1.1l-0.3-1.6l2.1,0.2
		L144.4,100.9 M149.8,100.5l-1.1-1.2l-0.4-1.8l2.4,0.2L149.8,100.5 M142.9,94.4c-0.4,0-0.8,0.1-1.1,0.4l-0.6,1.7l-0.3-0.4
		c-0.3,1.1-0.3,2.5,0.4,3.9l3,6.2c0.7,1.4,1.7,2.1,2.7,2.1c0.9,0,1.8-0.7,2.1-2.1l1.8-8.3l-0.1-0.2l0,0c-0.3-0.6-0.5-1.2-0.8-1.8
		l0,0l-3.1-0.7l0,0.1l-0.1-0.2l-3.4-0.8C143.2,94.5,143.1,94.4,142.9,94.4"/>
	<path id="XMLID_1091_" class="st39" d="M141.3,89.4L141.3,89.4c-0.1,0-0.2,0-0.3,0.1C141,89.4,141.2,89.4,141.3,89.4L141.3,89.4"/>
	<path id="XMLID_1092_" class="st40" d="M141.6,89.4l-0.2,0l0,0l-0.1,0l0,0C141.4,89.4,141.5,89.4,141.6,89.4c0.2,0,0.4,0,0.6,0.1
		l5.2,1.2l0,0l0,0l-5.2-1.2c-0.1,0-0.2,0-0.3,0C141.8,89.4,141.7,89.4,141.6,89.4"/>
	<polyline id="XMLID_1093_" class="st43" points="147.4,90.6 147.4,90.6 148.3,90.8 148.3,90.8 147.4,90.6 	"/>
	<path id="XMLID_1099_" class="st39" d="M139.1,91l-0.1,0.1l0,0L139.1,91 M139.4,90.6c-0.1,0.1-0.1,0.2-0.2,0.3l0,0
		C139.2,90.8,139.3,90.7,139.4,90.6 M139.9,90c-0.2,0.1-0.3,0.3-0.4,0.5C139.6,90.3,139.7,90.2,139.9,90 M140,90L140,90L140,90
		L140,90 M140.5,89.6L140.5,89.6L140.5,89.6L140.5,89.6"/>
	<polyline id="XMLID_1100_" class="st39" points="138.7,92.1 138.7,92.1 138.6,92.3 138.7,92.1 	"/>
	<polyline id="XMLID_1101_" class="st44" points="141.1,101.1 141.1,101.1 141.1,101.1 141.1,101.1 141.1,101.1 	"/>
	<polyline id="XMLID_1102_" class="st39" points="140,98.7 141.1,101.1 141.1,101.1 140,98.7 	"/>
	<path id="XMLID_1103_" class="st40" d="M151.6,99.4l-1.4,6.5c0,0.1-0.1,0.3-0.1,0.4c0-0.1,0.1-0.3,0.1-0.4L151.6,99.4L151.6,99.4"
		/>
	<path id="XMLID_1106_" class="st44" d="M150,106.4c-0.1,0.2-0.2,0.4-0.2,0.6l0-0.1C149.8,106.8,149.9,106.6,150,106.4L150,106.4
		L150,106.4 M143.6,106.1c0.9,1.8,2.3,2.7,3.6,2.7c0.1,0,0.2,0,0.3,0c-0.1,0-0.2,0-0.3,0C145.9,108.8,144.5,107.9,143.6,106.1"/>
	<polyline id="XMLID_1109_" class="st39" points="150,106.3 150,106.4 150,106.4 150,106.3 150,106.3 	"/>
	<polyline id="XMLID_1110_" class="st40" points="150,106.3 150,106.3 150,106.3 150,106.3 	"/>
	<path id="XMLID_1114_" class="st44" d="M147.5,108.8L147.5,108.8L147.5,108.8 M148.5,108.4L148.5,108.4L148.5,108.4L148.5,108.4
		 M149.2,107.9L149,108L149.2,107.9L149.2,107.9"/>
	<path id="XMLID_1115_" class="st41" d="M141.6,89.4c-0.1,0-0.2,0-0.3,0c-0.1,0-0.2,0-0.3,0.1l0,0l-0.2,0.1c-0.1,0-0.2,0.1-0.3,0.1
		l-0.1,0l0,0c-0.1,0.1-0.3,0.2-0.4,0.3l0,0l0,0l-0.1,0.1c-0.2,0.1-0.3,0.3-0.4,0.5l0,0l0,0.1c-0.1,0.1-0.1,0.2-0.2,0.3l0,0.1
		l-0.1,0.1c-0.1,0.1-0.1,0.2-0.2,0.4c0,0.1-0.1,0.2-0.1,0.3c0,0.1-0.1,0.2-0.1,0.3l-0.1,0.2c-0.3,1.4-0.2,3.2,0.6,4.9l0.7,1.5
		l1.1,2.3l0,0l0,0l2.3,4.8l0.1,0.3c1,1.8,2.3,2.7,3.6,2.7c0.1,0,0.2,0,0.3,0l0,0l0,0l0.2,0l0.2,0l0.2-0.1c0.1,0,0.2-0.1,0.3-0.1
		l0.2-0.1l0,0l0.2-0.1c0.1-0.1,0.2-0.2,0.3-0.2l0,0l0.1-0.1c0.1-0.1,0.2-0.2,0.3-0.4l0.1-0.2l0.1-0.2l0.1-0.1
		c0.1-0.2,0.2-0.4,0.2-0.6l0-0.1l0,0l0,0l0,0c0-0.1,0.1-0.3,0.1-0.4l1.4-6.5l0,0c-0.1-0.2-0.2-0.4-0.3-0.6l-1.6,7.3l0,0.1l0,0.1
		c-0.4,1.6-1.4,2.4-2.6,2.4c-1.2,0-2.4-0.9-3.3-2.6l-2.2-4.5l0,0l-1.5-3.1c-1.5-3-0.5-6.5,1.6-6.9c0.1,0,0.3,0,0.4,0
		c0.2,0,0.4,0,0.6,0.1l4.3,1l0,0l0.9,0.1l0,0.1l0,0l0.2,0l0,0l0.9,0.2c-0.2-0.7-0.4-1.4-0.6-2.1l-0.9-0.2l-5.2-1.2
		C142,89.4,141.8,89.4,141.6,89.4"/>
	<polyline id="XMLID_1116_" class="st27" points="145.9,103.4 146.2,105.2 147.3,106.4 148.2,103.6 146.2,105.2 145.9,103.4 	"/>
	<polyline id="XMLID_1117_" class="st42" points="145.9,103.4 146.2,105.2 148.2,103.6 145.9,103.4 	"/>
	<polyline id="XMLID_1118_" class="st27" points="139.8,93.6 140.1,95.4 140.9,96.2 141.2,96.6 141.8,94.9 142.1,93.8 140.1,95.4 
		139.8,93.6 	"/>
	<polyline id="XMLID_1119_" class="st42" points="139.8,93.6 140.1,95.4 142.1,93.8 139.8,93.6 	"/>
	<polyline id="XMLID_1120_" class="st27" points="145.5,92.4 145.8,94.2 146.8,95.3 146.9,95.4 146.9,95.3 147.8,92.7 147.8,92.6 
		145.8,94.2 145.5,92.4 	"/>
	<polyline id="XMLID_1121_" class="st42" points="145.5,92.4 145.8,94.2 147.8,92.6 146.9,92.5 145.5,92.4 	"/>
	<polyline id="XMLID_1122_" class="st27" points="143.1,98.3 143.4,99.9 144.4,100.9 145.2,98.4 143.4,99.9 143.1,98.3 	"/>
	<polyline id="XMLID_1123_" class="st42" points="143.1,98.3 143.4,99.9 145.2,98.4 143.1,98.3 	"/>
	<polyline id="XMLID_1124_" class="st27" points="148.3,97.5 148.7,99.3 149.8,100.5 150.7,97.7 148.7,99.3 148.3,97.5 	"/>
	<polyline id="XMLID_1125_" class="st42" points="148.3,97.5 148.7,99.3 150.7,97.7 148.3,97.5 	"/>
	<path id="XMLID_1137_" class="st37" d="M156.9,116.3l0.2,0L156.9,116.3 M159.5,116l-1.4,0.3l-0.1,0l0.1,0L159.5,116 M155.8,115.9
		c0.1,0.1,0.2,0.1,0.3,0.2l-0.1-0.1L155.8,115.9 M154.3,114.4c0.2,0.3,0.4,0.5,0.6,0.7C154.7,114.9,154.5,114.6,154.3,114.4
		 M153.5,112.6c0.1,0.2,0.1,0.3,0.2,0.5C153.6,112.9,153.5,112.8,153.5,112.6L153.5,112.6 M153.2,111.7c0.1,0.3,0.1,0.5,0.2,0.8
		l0-0.1c-0.1-0.2-0.1-0.3-0.1-0.5L153.2,111.7 M153.1,111.1c0,0.1,0,0.3,0.1,0.4l0-0.3L153.1,111.1 M153.1,109.2c0,0.1,0,0.3,0,0.4
		c0-0.1,0-0.2,0-0.3L153.1,109.2 M153.1,108.8l0,0.2L153.1,108.8L153.1,108.8 M155.3,106L155.3,106l-0.6,2.9l0,0.2
		c-0.6,3.2,1.5,6.7,3.9,6.7c0.2,0,0.4,0,0.5-0.1l2.8-0.7c-0.1-0.1-0.2-0.3-0.4-0.4l-1.2,0.3c-0.1,0-0.3,0.1-0.4,0.1
		c-0.8,0-1.7-0.6-2.3-1.4l-0.7,0.7l-1.3-0.4l0.4-3.2l0.7,1c-0.2-0.8-0.2-1.6,0-2.3l0.2-0.8l0,0c-0.1-0.1-0.2-0.2-0.2-0.3
		C156.3,107.5,155.8,106.8,155.3,106 M154.2,104.1l-0.5,2.2l0,0L154.2,104.1L154.2,104.1"/>
	<path id="XMLID_1138_" class="st38" d="M157,108.5l-0.2,0.8c-0.2,0.8-0.1,1.6,0,2.3l1.1,1.6l-0.3,0.3c0.6,0.9,1.4,1.4,2.3,1.4
		c0.1,0,0.3,0,0.4-0.1l1.2-0.3l0,0c-1.3-1.6-2.5-3.2-3.7-4.9C157.5,109.3,157.2,108.9,157,108.5L157,108.5"/>
	<path id="XMLID_1139_" class="st44" d="M153.2,108.5c0,0.1,0,0.2-0.1,0.3C153.1,108.7,153.2,108.6,153.2,108.5L153.2,108.5"/>
	<polyline id="XMLID_1140_" class="st39" points="153.7,106.3 153.7,106.3 153.2,108.5 153.2,108.5 153.2,108.5 153.2,108.5 
		153.7,106.3 	"/>
	<polyline id="XMLID_1141_" class="st40" points="153.7,106.3 153.7,106.3 153.7,106.3 153.7,106.3 153.7,106.3 	"/>
	<path id="XMLID_1151_" class="st44" d="M158,116.4c-0.2,0-0.3,0-0.5,0c-0.2,0-0.3,0-0.5,0l0,0c0.1,0,0.2,0,0.3,0l0,0l0.1,0l0.2,0
		C157.8,116.4,157.9,116.4,158,116.4L158,116.4 M156.2,116.1l0.3,0.1c0.1,0.1,0.3,0.1,0.4,0.1l0.1,0
		C156.7,116.3,156.4,116.2,156.2,116.1 M162.1,115.4l-2.6,0.6L162.1,115.4L162.1,115.4 M154.9,115.1c0.1,0.1,0.3,0.3,0.4,0.4
		c0.1,0.1,0.2,0.2,0.3,0.3l0.1,0.1C155.5,115.7,155.2,115.4,154.9,115.1 M153.7,113.1c0,0.1,0.1,0.2,0.1,0.3
		c0.1,0.2,0.2,0.3,0.2,0.5c0.1,0.2,0.2,0.4,0.3,0.5C154.1,114,153.8,113.5,153.7,113.1 M153.4,112.5l0,0.1L153.4,112.5 M153.2,111.5
		l0,0.1l0,0.1L153.2,111.5 M153,109.6L153,109.6c0,0.5,0,0.9,0,1.3l0,0.2C153,110.6,153,110.1,153,109.6 M153.1,109.1l0,0.1
		L153.1,109.1"/>
	<path id="XMLID_1152_" class="st41" d="M154.2,104.1L154.2,104.1L154.2,104.1l-0.5,2.2l0,0l0,0l-0.5,2.2l0,0c0,0.1,0,0.2-0.1,0.3
		l0,0.1l0,0.2l0,0.1l0,0.1c0,0.1,0,0.2,0,0.3c0,0.5,0,1,0.1,1.5l0,0.1l0,0.3l0,0.2l0.1,0.2c0,0.2,0.1,0.3,0.1,0.5l0,0.1l0,0.1l0,0.1
		c0,0.1,0.1,0.3,0.2,0.4c0.2,0.5,0.4,0.9,0.7,1.3c0.2,0.3,0.4,0.5,0.6,0.7c0.3,0.3,0.6,0.6,0.9,0.8l0.2,0.1l0.1,0.1
		c0.2,0.1,0.5,0.2,0.8,0.3l0.2,0c0.2,0,0.3,0,0.5,0c0.2,0,0.3,0,0.5,0l0.1,0l1.4-0.3l2.6-0.6l0,0l-0.2-0.3l-2.8,0.7
		c-0.2,0-0.4,0.1-0.5,0.1c-2.3,0-4.5-3.5-3.9-6.7l0-0.2l0.6-2.9l-0.1-0.1C154.9,105.3,154.5,104.7,154.2,104.1L154.2,104.1"/>
	<polyline id="XMLID_1153_" class="st27" points="156.1,110.7 157,114.2 155.7,113.8 157,114.2 157.7,113.6 157.9,113.3 
		156.8,111.7 156.1,110.7 	"/>
	<polyline id="XMLID_1154_" class="st42" points="156.1,110.7 155.7,113.8 157,114.2 156.1,110.7 	"/>
	<path id="XMLID_1155_" class="st2" d="M197.4,92.5h-0.3c0,13.6-5.5,26-14.5,34.9c-8.9,8.9-21.3,14.5-34.9,14.5
		c-13.6,0-26-5.5-34.9-14.5c-8.9-8.9-14.5-21.3-14.5-34.9c0-13.6,5.5-26,14.5-34.9c8.9-8.9,21.3-14.5,34.9-14.5
		c13.6,0,26,5.5,34.9,14.5c8.9,8.9,14.5,21.3,14.5,34.9H197.4h0.3c0-27.6-22.4-50-50-50c-27.6,0-50,22.4-50,50c0,27.6,22.4,50,50,50
		c27.6,0,50-22.4,50-50H197.4z"/>
</g>
</svg>
